<?xml version="1.0" encoding="UTF-8" standalone="no"?>
<!DOCTYPE svg PUBLIC "-//W3C//DTD SVG 1.1//EN" "http://www.w3.org/Graphics/SVG/1.1/DTD/svg11.dtd">
<svg version="1.1" xmlns="http://www.w3.org/2000/svg" xmlns:xlink="http://www.w3.org/1999/xlink" preserveAspectRatio="xMidYMid meet" viewBox="0 0 540 500" width="540" height="500"><defs><path d="M273.49 93.41C324.98 93.41 366.72 134.19 366.72 184.5C366.72 234.81 324.98 275.59 273.49 275.59C222.01 275.59 180.27 234.81 180.27 184.5C180.27 134.19 222.01 93.41 273.49 93.41Z" id="caegQrJqf"></path><path d="M273.49 93.41C324.98 93.41 366.72 134.19 366.72 184.5C366.72 234.81 324.98 275.59 273.49 275.59C222.01 275.59 180.27 234.81 180.27 184.5C180.27 134.19 222.01 93.41 273.49 93.41Z" id="j2lHPKy9TF"></path><path d="M273.49 93.41C324.98 93.41 366.72 134.19 366.72 184.5C366.72 234.81 324.98 275.59 273.49 275.59C222.01 275.59 180.27 234.81 180.27 184.5C180.27 134.19 222.01 93.41 273.49 93.41Z" id="dOicYckOW"></path><path d="M273.49 93.41C324.98 93.41 366.72 134.19 366.72 184.5C366.72 234.81 324.98 275.59 273.49 275.59C222.01 275.59 180.27 234.81 180.27 184.5C180.27 134.19 222.01 93.41 273.49 93.41Z" id="bKuD9CQU"></path><path d="M293.96 147.86L293.96 104.5L358.96 126.19L423.96 147.87L358.96 169.55L293.96 191.23L293.96 147.86Z" id="daIZewcCr"></path><path d="M293.96 147.86L293.96 104.5L358.96 126.19L423.96 147.87L358.96 169.55L293.96 191.23L293.96 147.86Z" id="d2LcNDvuY6"></path><path d="M278.05 147.97L242.02 127.16L292.54 81.27L343.05 35.39L328.57 102.08L314.08 168.77L278.05 147.97Z" id="bpWYBmVTE"></path><path d="M278.05 147.97L242.02 127.16L292.54 81.27L343.05 35.39L328.57 102.08L314.08 168.77L278.05 147.97Z" id="b2I0Z4oYaA"></path><path d="M261.88 150.71L227.45 170.59L212.17 104.36L196.89 38.13L246.6 84.48L296.31 130.84L261.88 150.71Z" id="dGAyPOPR"></path><path d="M261.88 150.71L227.45 170.59L212.17 104.36L196.89 38.13L246.6 84.48L296.31 130.84L261.88 150.71Z" id="anuacM8XH"></path><path d="M257.04 150.69L236.23 186.72L190.34 136.21L144.45 85.69L211.15 100.17L277.84 114.66L257.04 150.69Z" id="d8YVSmSMJw"></path><path d="M257.04 150.69L236.23 186.72L190.34 136.21L144.45 85.69L211.15 100.17L277.84 114.66L257.04 150.69Z" id="d1aiCZkOXF"></path><path d="M269.4 145.47L228.67 145.47L249.03 80.47L269.4 15.47L289.76 80.47L310.12 145.47L269.4 145.47Z" id="b7SKsUADVe"></path><path d="M269.4 145.47L228.67 145.47L249.03 80.47L269.4 15.47L289.76 80.47L310.12 145.47L269.4 145.47Z" id="aRVDCgBTv"></path><path d="M284.39 148.37L262.71 110.82L329.84 97.1L396.97 83.38L351.52 134.65L306.07 185.93L284.39 148.37Z" id="d1rGKCoE8s"></path><path d="M284.39 148.37L262.71 110.82L329.84 97.1L396.97 83.38L351.52 134.65L306.07 185.93L284.39 148.37Z" id="csDUZn6ik"></path><path d="M269.38 206.12L235.57 181.41L249.79 142.81L292.14 143.43L304.14 182.65L269.38 206.12Z" id="c537mVAiV"></path><path d="M269.38 206.12L235.57 181.41L249.79 142.81L292.14 143.43L304.14 182.65L269.38 206.12Z" id="b2oJEiOPxR"></path><path d="M269.38 206.12L235.57 181.41L249.79 142.81L292.14 143.43L304.14 182.65L269.38 206.12Z" id="buGkZeoNb"></path><path d="M269.38 206.12L235.57 181.41L249.79 142.81L292.14 143.43L304.14 182.65L269.38 206.12Z" id="bfQIjQ9ev"></path><path d="M190.07 225.57C184.61 217.31 174.49 185.1 183.43 161.34C183.04 162.1 202.57 192.49 203.02 191.6C202.07 192.07 202.35 229.5 203.07 229.15C201.77 228.79 191.37 225.93 190.07 225.57Z" id="a22H5L3L1b"></path><path d="M190.07 225.57C184.61 217.31 174.49 185.1 183.43 161.34C183.04 162.1 202.57 192.49 203.02 191.6C202.07 192.07 202.35 229.5 203.07 229.15C201.77 228.79 191.37 225.93 190.07 225.57Z" id="b4o1cnfuEv"></path><path d="M190.07 225.57C184.61 217.31 174.49 185.1 183.43 161.34C183.04 162.1 202.57 192.49 203.02 191.6C202.07 192.07 202.35 229.5 203.07 229.15C201.77 228.79 191.37 225.93 190.07 225.57Z" id="dPEDgP8G9"></path><path d="M190.07 225.57C184.61 217.31 174.49 185.1 183.43 161.34C183.04 162.1 202.57 192.49 203.02 191.6C202.07 192.07 202.35 229.5 203.07 229.15C201.77 228.79 191.37 225.93 190.07 225.57Z" id="g4EkB37vgQ"></path><path d="M295.3 273.12C283.06 276.18 262.53 277.26 241.89 270.65C241.22 269.46 237.85 263.49 231.78 252.74C234.2 252.1 246.32 248.91 268.12 243.17C290.87 250.03 303.51 253.84 306.04 254.6C299.6 265.71 296.02 271.89 295.3 273.12Z" id="c2snDsJkX"></path><path d="M295.3 273.12C283.06 276.18 262.53 277.26 241.89 270.65C241.22 269.46 237.85 263.49 231.78 252.74C234.2 252.1 246.32 248.91 268.12 243.17C290.87 250.03 303.51 253.84 306.04 254.6C299.6 265.71 296.02 271.89 295.3 273.12Z" id="k6qyf75D7I"></path><path d="M295.3 273.12C283.06 276.18 262.53 277.26 241.89 270.65C241.22 269.46 237.85 263.49 231.78 252.74C234.2 252.1 246.32 248.91 268.12 243.17C290.87 250.03 303.51 253.84 306.04 254.6C299.6 265.71 296.02 271.89 295.3 273.12Z" id="dhcEdfLzU"></path><path d="M295.3 273.12C283.06 276.18 262.53 277.26 241.89 270.65C241.22 269.46 237.85 263.49 231.78 252.74C234.2 252.1 246.32 248.91 268.12 243.17C290.87 250.03 303.51 253.84 306.04 254.6C299.6 265.71 296.02 271.89 295.3 273.12Z" id="a161JaTrJv"></path><path d="M364.54 168.48C364.28 168.17 362.23 165.67 361.98 165.36C360.66 167.42 335.18 199.66 337.96 195.31C338.47 195.31 337.01 234.22 336.7 234.22C338.34 233.94 351.48 231.71 353.13 231.44C364.32 214.8 368.63 187.05 364.54 168.48Z" id="c4kn53tpiy"></path><path d="M364.54 168.48C364.28 168.17 362.23 165.67 361.98 165.36C360.66 167.42 335.18 199.66 337.96 195.31C338.47 195.31 337.01 234.22 336.7 234.22C338.34 233.94 351.48 231.71 353.13 231.44C364.32 214.8 368.63 187.05 364.54 168.48Z" id="b12mxUvkf8"></path><path d="M364.54 168.48C364.28 168.17 362.23 165.67 361.98 165.36C360.66 167.42 335.18 199.66 337.96 195.31C338.47 195.31 337.01 234.22 336.7 234.22C338.34 233.94 351.48 231.71 353.13 231.44C364.32 214.8 368.63 187.05 364.54 168.48Z" id="d15u4OyJgW"></path><path d="M364.54 168.48C364.28 168.17 362.23 165.67 361.98 165.36C360.66 167.42 335.18 199.66 337.96 195.31C338.47 195.31 337.01 234.22 336.7 234.22C338.34 233.94 351.48 231.71 353.13 231.44C364.32 214.8 368.63 187.05 364.54 168.48Z" id="h3gfBEnz9H"></path><path d="M349.02 131.08C349.02 130.26 313.63 116.97 313.63 117.8C311.97 115.66 298.72 98.51 297.07 96.37C317.54 99.93 337.49 115.9 349.02 131.08Z" id="g1VkHsSZr"></path><path d="M349.02 131.08C349.02 130.26 313.63 116.97 313.63 117.8C311.97 115.66 298.72 98.51 297.07 96.37C317.54 99.93 337.49 115.9 349.02 131.08Z" id="bjtGI2QMi"></path><path d="M349.02 131.08C349.02 130.26 313.63 116.97 313.63 117.8C311.97 115.66 298.72 98.51 297.07 96.37C317.54 99.93 337.49 115.9 349.02 131.08Z" id="byH2izPhc"></path><path d="M349.02 131.08C349.02 130.26 313.63 116.97 313.63 117.8C311.97 115.66 298.72 98.51 297.07 96.37C317.54 99.93 337.49 115.9 349.02 131.08Z" id="c11C3rL53N"></path><path d="M248.35 96.67C245.04 100.77 233.44 115.13 231.78 117.19C231.78 116.66 201.31 126.48 201.31 126.76C210.17 116.2 225.7 102.23 248.35 96.67Z" id="g1ioErRpc1"></path><path d="M248.35 96.67C245.04 100.77 233.44 115.13 231.78 117.19C231.78 116.66 201.31 126.48 201.31 126.76C210.17 116.2 225.7 102.23 248.35 96.67Z" id="bHovQYQu1"></path><path d="M247.86 158.22L242.4 199.47L180.69 170.33L118.98 141.18L186.15 129.07L253.32 116.98L247.86 158.22Z" id="a318T4K4V"></path><path d="M247.86 158.22L242.4 199.47L180.69 170.33L118.98 141.18L186.15 129.07L253.32 116.98L247.86 158.22Z" id="c39d6G4QnR"></path><path d="M248.35 96.67C245.04 100.77 233.44 115.13 231.78 117.19C231.78 116.66 201.31 126.48 201.31 126.76C210.17 116.2 225.7 102.23 248.35 96.67Z" id="br5oUa4ct"></path><path d="M248.35 96.67C245.04 100.77 233.44 115.13 231.78 117.19C231.78 116.66 201.31 126.48 201.31 126.76C210.17 116.2 225.7 102.23 248.35 96.67Z" id="k4dEKVTUH7"></path><path d="M230.96 116.13L249.95 143.15" id="bHJlHp7tO"></path><path d="M230.96 116.13L249.95 143.15" id="a1UbVDM8zs"></path><path d="M230.96 116.13L249.95 143.15" id="c9KuDlGtd"></path><path d="M230.96 116.13L249.95 143.15" id="c10kHw4WKk"></path><path d="M314.37 117.36L291.65 144.13" id="aVKaolHc"></path><path d="M314.37 117.36L291.65 144.13" id="cVDT8uxl"></path><path d="M314.37 117.36L291.65 144.13" id="j1otQUU0Hw"></path><path d="M314.37 117.36L291.65 144.13" id="b3rwiBWg3a"></path><path d="M303.44 182.14L337.96 195.62" id="bdt2bdT8V"></path><path d="M303.44 182.14L337.96 195.62" id="h2qYvdzb22"></path><path d="M303.44 182.14L337.96 195.62" id="b1DeZCo43v"></path><path d="M303.44 182.14L337.96 195.62" id="a1iRONd5r"></path><path d="M269.34 205.74L268.44 242.86" id="b1U8WQYSdS"></path><path d="M269.34 205.74L268.44 242.86" id="b18hZJIuC8"></path><path d="M269.34 205.74L268.44 242.86" id="aPCDKLrb"></path><path d="M269.34 205.74L268.44 242.86" id="b2ybJ3iUMK"></path><path d="M236.16 181.18L202.11 191.6" id="c1xHqx66vm"></path><path d="M236.16 181.18L202.11 191.6" id="b1HrHEWe0E"></path><path d="M236.16 181.18L202.11 191.6" id="a3giPvUVS9"></path><path d="M236.16 181.18L202.11 191.6" id="b2sGuq3Vrp"></path><path d="M202.82 227.07C201.18 229.03 231.37 253.98 234.16 252.91" id="a9luigQTh"></path><path d="M202.82 227.07C201.18 229.03 231.37 253.98 234.16 252.91" id="c2mP16nerN"></path><path d="M202.82 227.07C201.18 229.03 231.37 253.98 234.16 252.91" id="c5GdUpWI7f"></path><path d="M202.82 227.07C201.18 229.03 231.37 253.98 234.16 252.91" id="d1j0TlcHdb"></path><path d="M306.04 254.6L337.55 233.43" id="a4aWjYnDo"></path><path d="M306.04 254.6L337.55 233.43" id="a6BJ2Utgq"></path><path d="M306.04 254.6L337.55 233.43" id="gmDrrUxAX"></path><path d="M306.04 254.6L337.55 233.43" id="biu8l0TKN"></path><path d="M272.56 87.9C324.77 87.9 367.09 128.59 367.09 178.78C367.09 228.97 324.77 269.66 272.56 269.66C220.35 269.66 178.02 228.97 178.02 178.78C178.02 128.59 220.35 87.9 272.56 87.9Z" id="bmqiKuac1"></path><path d="M272.56 87.9C324.77 87.9 367.09 128.59 367.09 178.78C367.09 228.97 324.77 269.66 272.56 269.66C220.35 269.66 178.02 228.97 178.02 178.78C178.02 128.59 220.35 87.9 272.56 87.9Z" id="a25DDNo8Cf"></path><path d="M272.56 87.9C324.77 87.9 367.09 128.59 367.09 178.78C367.09 228.97 324.77 269.66 272.56 269.66C220.35 269.66 178.02 228.97 178.02 178.78C178.02 128.59 220.35 87.9 272.56 87.9Z" id="c2TArpjPzI"></path><path d="M272.56 87.9C324.77 87.9 367.09 128.59 367.09 178.78C367.09 228.97 324.77 269.66 272.56 269.66C220.35 269.66 178.02 228.97 178.02 178.78C178.02 128.59 220.35 87.9 272.56 87.9Z" id="ah2d6qA9i"></path><path d="M361.98 165.67L351.87 135.4" id="ch8PcvdI8"></path><path d="M361.98 165.67L351.87 135.4" id="b72zkKNAG3"></path><path d="M361.98 165.67L351.87 135.4" id="cgHPxHDMY"></path><path d="M361.98 165.67L351.87 135.4" id="cFay7NSDK"></path><path d="M273.74 83.61C329.17 83.61 374.11 126.86 374.11 180.22C374.11 233.57 329.17 276.83 273.74 276.83C218.3 276.83 173.36 233.57 173.36 180.22C173.36 126.86 218.3 83.61 273.74 83.61Z" id="hqmXFbeJ8"></path><linearGradient id="gradienta8BUBPHhUd" gradientUnits="userSpaceOnUse" x1="276.9" y1="129.62" x2="311.43" y2="302.64"><stop style="stop-color: #ab2121;stop-opacity: 0" offset="0%"></stop><stop style="stop-color: #2b0707;stop-opacity: 1" offset="100%"></stop></linearGradient><path d="M273.74 83.61C329.17 83.61 374.11 126.86 374.11 180.22C374.11 233.57 329.17 276.83 273.74 276.83C218.3 276.83 173.36 233.57 173.36 180.22C173.36 126.86 218.3 83.61 273.74 83.61Z" id="b4NytPzzMo"></path><path d="M275.65 83.61C331.08 83.61 376.02 126.86 376.02 180.22C376.02 233.57 331.08 276.83 275.65 276.83C220.21 276.83 175.27 233.57 175.27 180.22C175.27 126.86 220.21 83.61 275.65 83.61Z" id="n2W4zLuot"></path><path d="M275.65 83.61C331.08 83.61 376.02 126.86 376.02 180.22C376.02 233.57 331.08 276.83 275.65 276.83C220.21 276.83 175.27 233.57 175.27 180.22C175.27 126.86 220.21 83.61 275.65 83.61Z" id="a3jN5enUqq"></path><path d="M147.09 145.56L76.47 355.76L472.35 355.76L147.09 145.56Z" id="jrUDS6O6a"></path><linearGradient id="gradientb1bJh7y511" gradientUnits="userSpaceOnUse" x1="211.44" y1="135.63" x2="211.44" y2="355.76"><stop style="stop-color: #de2d1d;stop-opacity: 1" offset="0%"></stop><stop style="stop-color: #841b11;stop-opacity: 1" offset="100%"></stop></linearGradient><path d="M147.09 145.56L76.47 355.76L472.35 355.76L147.09 145.56Z" id="c2mQOIN"></path><path d="M147.09 145.56L76.47 355.76L472.35 355.76L147.09 145.56Z" id="b5BU6juwur"></path><path d="M147.09 145.56L76.47 355.76L472.35 355.76L147.09 145.56Z" id="b321e836AQ"></path><path d="M393.5 145.8L474.05 356L78.17 356L393.5 145.8Z" id="b42e43KWj1"></path><linearGradient id="gradientf6JkpMww0" gradientUnits="userSpaceOnUse" x1="288.4" y1="280.97" x2="279.19" y2="523.43"><stop style="stop-color: #dc4b3e;stop-opacity: 1" offset="0%"></stop><stop style="stop-color: #98261c;stop-opacity: 1" offset="100%"></stop></linearGradient><path d="M393.5 145.8L474.05 356L78.17 356L393.5 145.8Z" id="aacCCBu0mI"></path><path d="M393.5 145.8L474.05 356L78.17 356L393.5 145.8Z" id="azRhLVhcc"></path><path d="M393.5 145.8L474.05 356L78.17 356L393.5 145.8Z" id="bNYkdEJ5j"></path><path d="M393.61 145.71L272.81 226.52L473.68 355.31L393.61 145.71Z" id="gQzykz6Rh"></path><linearGradient id="gradientd106VqWoDU" gradientUnits="userSpaceOnUse" x1="381.38" y1="344.62" x2="381.02" y2="171.56"><stop style="stop-color: #de2d1d;stop-opacity: 1" offset="0%"></stop><stop style="stop-color: #841b11;stop-opacity: 1" offset="100%"></stop></linearGradient><path d="M393.61 145.71L272.81 226.52L473.68 355.31L393.61 145.71Z" id="a3mVSN5eRo"></path><path d="M393.61 145.71L272.81 226.52L473.68 355.31L393.61 145.71Z" id="f82o07drVG"></path><path d="M393.61 145.71L272.81 226.52L473.68 355.31L393.61 145.71Z" id="a65M7VySo"></path></defs><g><g><g><use xlink:href="#caegQrJqf" opacity="1" fill="#e2b940" fill-opacity="1"></use><g><use xlink:href="#caegQrJqf" opacity="1" fill-opacity="0" stroke="#000000" stroke-width="1" stroke-opacity="0"></use></g></g><g><use xlink:href="#j2lHPKy9TF" opacity="1" fill="#000000" fill-opacity="0"></use><g><use xlink:href="#j2lHPKy9TF" opacity="1" fill-opacity="0" stroke="#000000" stroke-width="1" stroke-opacity="0"></use></g></g><g><use xlink:href="#dOicYckOW" opacity="1" fill="#000000" fill-opacity="0"></use><g><use xlink:href="#dOicYckOW" opacity="1" fill-opacity="0" stroke="#000000" stroke-width="1" stroke-opacity="0"></use></g></g><g><use xlink:href="#bKuD9CQU" opacity="1" fill="#000000" fill-opacity="0"></use><g><use xlink:href="#bKuD9CQU" opacity="1" fill-opacity="0" stroke="#ce451b" stroke-width="2" stroke-opacity="0"></use></g></g><g><use xlink:href="#daIZewcCr" opacity="1" fill="#e2ba40" fill-opacity="1"></use><g><use xlink:href="#daIZewcCr" opacity="1" fill-opacity="0" stroke="#000000" stroke-width="1" stroke-opacity="0"></use></g></g><g><use xlink:href="#d2LcNDvuY6" opacity="1" fill="#000000" fill-opacity="0"></use><g><use xlink:href="#d2LcNDvuY6" opacity="1" fill-opacity="0" stroke="#000000" stroke-width="1" stroke-opacity="0"></use></g></g><g><use xlink:href="#bpWYBmVTE" opacity="1" fill="#e2ba40" fill-opacity="1"></use><g><use xlink:href="#bpWYBmVTE" opacity="1" fill-opacity="0" stroke="#000000" stroke-width="1" stroke-opacity="0"></use></g></g><g><use xlink:href="#b2I0Z4oYaA" opacity="1" fill="#000000" fill-opacity="0"></use><g><use xlink:href="#b2I0Z4oYaA" opacity="1" fill-opacity="0" stroke="#000000" stroke-width="1" stroke-opacity="0"></use></g></g><g><use xlink:href="#dGAyPOPR" opacity="1" fill="#e2ba40" fill-opacity="1"></use><g><use xlink:href="#dGAyPOPR" opacity="1" fill-opacity="0" stroke="#000000" stroke-width="1" stroke-opacity="0"></use></g></g><g><use xlink:href="#anuacM8XH" opacity="1" fill="#000000" fill-opacity="0"></use><g><use xlink:href="#anuacM8XH" opacity="1" fill-opacity="0" stroke="#000000" stroke-width="1" stroke-opacity="0"></use></g></g><g><use xlink:href="#d8YVSmSMJw" opacity="1" fill="#e2ba40" fill-opacity="1"></use><g><use xlink:href="#d8YVSmSMJw" opacity="1" fill-opacity="0" stroke="#000000" stroke-width="1" stroke-opacity="0"></use></g></g><g><use xlink:href="#d1aiCZkOXF" opacity="1" fill="#000000" fill-opacity="0"></use><g><use xlink:href="#d1aiCZkOXF" opacity="1" fill-opacity="0" stroke="#000000" stroke-width="1" stroke-opacity="0"></use></g></g><g><use xlink:href="#b7SKsUADVe" opacity="1" fill="#e2ba40" fill-opacity="1"></use><g><use xlink:href="#b7SKsUADVe" opacity="1" fill-opacity="0" stroke="#000000" stroke-width="1" stroke-opacity="0"></use></g></g><g><use xlink:href="#aRVDCgBTv" opacity="1" fill="#000000" fill-opacity="0"></use><g><use xlink:href="#aRVDCgBTv" opacity="1" fill-opacity="0" stroke="#000000" stroke-width="1" stroke-opacity="0"></use></g></g><g><use xlink:href="#d1rGKCoE8s" opacity="1" fill="#e2ba40" fill-opacity="1"></use><g><use xlink:href="#d1rGKCoE8s" opacity="1" fill-opacity="0" stroke="#000000" stroke-width="1" stroke-opacity="0"></use></g></g><g><use xlink:href="#csDUZn6ik" opacity="1" fill="#000000" fill-opacity="0"></use><g><use xlink:href="#csDUZn6ik" opacity="1" fill-opacity="0" stroke="#000000" stroke-width="1" stroke-opacity="0"></use></g></g><g><use xlink:href="#c537mVAiV" opacity="1" fill="#000000" fill-opacity="1"></use><g><use xlink:href="#c537mVAiV" opacity="1" fill-opacity="0" stroke="#000000" stroke-width="1" stroke-opacity="0"></use></g></g><g><use xlink:href="#b2oJEiOPxR" opacity="1" fill="#000000" fill-opacity="0"></use><g><use xlink:href="#b2oJEiOPxR" opacity="1" fill-opacity="0" stroke="#000000" stroke-width="1" stroke-opacity="0"></use></g></g><g><use xlink:href="#buGkZeoNb" opacity="1" fill="#000000" fill-opacity="0"></use><g><use xlink:href="#buGkZeoNb" opacity="1" fill-opacity="0" stroke="#000000" stroke-width="1" stroke-opacity="0"></use></g></g><g><use xlink:href="#bfQIjQ9ev" opacity="1" fill="#000000" fill-opacity="0"></use><g><use xlink:href="#bfQIjQ9ev" opacity="1" fill-opacity="0" stroke="#000000" stroke-width="1" stroke-opacity="1"></use></g></g><g><use xlink:href="#a22H5L3L1b" opacity="1" fill="#000000" fill-opacity="1"></use><g><use xlink:href="#a22H5L3L1b" opacity="1" fill-opacity="0" stroke="#000000" stroke-width="1" stroke-opacity="0"></use></g></g><g><use xlink:href="#b4o1cnfuEv" opacity="1" fill="#000000" fill-opacity="0"></use><g><use xlink:href="#b4o1cnfuEv" opacity="1" fill-opacity="0" stroke="#000000" stroke-width="1" stroke-opacity="0"></use></g></g><g><use xlink:href="#dPEDgP8G9" opacity="1" fill="#000000" fill-opacity="0"></use><g><use xlink:href="#dPEDgP8G9" opacity="1" fill-opacity="0" stroke="#000000" stroke-width="1" stroke-opacity="0"></use></g></g><g><use xlink:href="#g4EkB37vgQ" opacity="1" fill="#000000" fill-opacity="0"></use><g><use xlink:href="#g4EkB37vgQ" opacity="1" fill-opacity="0" stroke="#000000" stroke-width="1" stroke-opacity="1"></use></g></g><g><use xlink:href="#c2snDsJkX" opacity="1" fill="#000000" fill-opacity="1"></use><g><use xlink:href="#c2snDsJkX" opacity="1" fill-opacity="0" stroke="#000000" stroke-width="1" stroke-opacity="0"></use></g></g><g><use xlink:href="#k6qyf75D7I" opacity="1" fill="#000000" fill-opacity="0"></use><g><use xlink:href="#k6qyf75D7I" opacity="1" fill-opacity="0" stroke="#000000" stroke-width="1" stroke-opacity="0"></use></g></g><g><use xlink:href="#dhcEdfLzU" opacity="1" fill="#000000" fill-opacity="0"></use><g><use xlink:href="#dhcEdfLzU" opacity="1" fill-opacity="0" stroke="#000000" stroke-width="1" stroke-opacity="0"></use></g></g><g><use xlink:href="#a161JaTrJv" opacity="1" fill="#000000" fill-opacity="0"></use><g><use xlink:href="#a161JaTrJv" opacity="1" fill-opacity="0" stroke="#000000" stroke-width="1" stroke-opacity="1"></use></g></g><g><use xlink:href="#c4kn53tpiy" opacity="1" fill="#000000" fill-opacity="1"></use><g><use xlink:href="#c4kn53tpiy" opacity="1" fill-opacity="0" stroke="#000000" stroke-width="1" stroke-opacity="0"></use></g></g><g><use xlink:href="#b12mxUvkf8" opacity="1" fill="#000000" fill-opacity="0"></use><g><use xlink:href="#b12mxUvkf8" opacity="1" fill-opacity="0" stroke="#000000" stroke-width="1" stroke-opacity="0"></use></g></g><g><use xlink:href="#d15u4OyJgW" opacity="1" fill="#000000" fill-opacity="0"></use><g><use xlink:href="#d15u4OyJgW" opacity="1" fill-opacity="0" stroke="#000000" stroke-width="1" stroke-opacity="0"></use></g></g><g><use xlink:href="#h3gfBEnz9H" opacity="1" fill="#000000" fill-opacity="0"></use><g><use xlink:href="#h3gfBEnz9H" opacity="1" fill-opacity="0" stroke="#000000" stroke-width="1" stroke-opacity="1"></use></g></g><g><use xlink:href="#g1VkHsSZr" opacity="1" fill="#000000" fill-opacity="1"></use><g><use xlink:href="#g1VkHsSZr" opacity="1" fill-opacity="0" stroke="#000000" stroke-width="1" stroke-opacity="0"></use></g></g><g><use xlink:href="#bjtGI2QMi" opacity="1" fill="#000000" fill-opacity="0"></use><g><use xlink:href="#bjtGI2QMi" opacity="1" fill-opacity="0" stroke="#000000" stroke-width="1" stroke-opacity="0"></use></g></g><g><use xlink:href="#byH2izPhc" opacity="1" fill="#000000" fill-opacity="0"></use><g><use xlink:href="#byH2izPhc" opacity="1" fill-opacity="0" stroke="#000000" stroke-width="1" stroke-opacity="0"></use></g></g><g><use xlink:href="#c11C3rL53N" opacity="1" fill="#000000" fill-opacity="0"></use><g><use xlink:href="#c11C3rL53N" opacity="1" fill-opacity="0" stroke="#000000" stroke-width="1" stroke-opacity="1"></use></g></g><g><use xlink:href="#g1ioErRpc1" opacity="1" fill="#000000" fill-opacity="1"></use><g><use xlink:href="#g1ioErRpc1" opacity="1" fill-opacity="0" stroke="#000000" stroke-width="1" stroke-opacity="0"></use></g></g><g><use xlink:href="#bHovQYQu1" opacity="1" fill="#000000" fill-opacity="0"></use><g><use xlink:href="#bHovQYQu1" opacity="1" fill-opacity="0" stroke="#000000" stroke-width="1" stroke-opacity="0"></use></g></g><g><use xlink:href="#a318T4K4V" opacity="1" fill="#e2ba40" fill-opacity="1"></use><g><use xlink:href="#a318T4K4V" opacity="1" fill-opacity="0" stroke="#000000" stroke-width="1" stroke-opacity="0"></use></g></g><g><use xlink:href="#c39d6G4QnR" opacity="1" fill="#000000" fill-opacity="0"></use><g><use xlink:href="#c39d6G4QnR" opacity="1" fill-opacity="0" stroke="#000000" stroke-width="1" stroke-opacity="0"></use></g></g><g><use xlink:href="#br5oUa4ct" opacity="1" fill="#000000" fill-opacity="0"></use><g><use xlink:href="#br5oUa4ct" opacity="1" fill-opacity="0" stroke="#000000" stroke-width="1" stroke-opacity="0"></use></g></g><g><use xlink:href="#k4dEKVTUH7" opacity="1" fill="#000000" fill-opacity="0"></use><g><use xlink:href="#k4dEKVTUH7" opacity="1" fill-opacity="0" stroke="#000000" stroke-width="1" stroke-opacity="1"></use></g></g><g><use xlink:href="#bHJlHp7tO" opacity="1" fill="#bada55" fill-opacity="1"></use><g><use xlink:href="#bHJlHp7tO" opacity="1" fill-opacity="0" stroke="#000000" stroke-width="1" stroke-opacity="0"></use></g></g><g><use xlink:href="#a1UbVDM8zs" opacity="1" fill="#000000" fill-opacity="0"></use><g><use xlink:href="#a1UbVDM8zs" opacity="1" fill-opacity="0" stroke="#000000" stroke-width="1" stroke-opacity="0"></use></g></g><g><use xlink:href="#c9KuDlGtd" opacity="1" fill="#000000" fill-opacity="0"></use><g><use xlink:href="#c9KuDlGtd" opacity="1" fill-opacity="0" stroke="#000000" stroke-width="1" stroke-opacity="0"></use></g></g><g><use xlink:href="#c10kHw4WKk" opacity="1" fill="#000000" fill-opacity="0"></use><g><use xlink:href="#c10kHw4WKk" opacity="1" fill-opacity="0" stroke="#000000" stroke-width="1" stroke-opacity="1"></use></g></g><g><use xlink:href="#aVKaolHc" opacity="1" fill="#000000" fill-opacity="0"></use><g><use xlink:href="#aVKaolHc" opacity="1" fill-opacity="0" stroke="#000000" stroke-width="1" stroke-opacity="0"></use></g></g><g><use xlink:href="#cVDT8uxl" opacity="1" fill="#000000" fill-opacity="0"></use><g><use xlink:href="#cVDT8uxl" opacity="1" fill-opacity="0" stroke="#000000" stroke-width="1" stroke-opacity="0"></use></g></g><g><use xlink:href="#j1otQUU0Hw" opacity="1" fill="#000000" fill-opacity="0"></use><g><use xlink:href="#j1otQUU0Hw" opacity="1" fill-opacity="0" stroke="#000000" stroke-width="1" stroke-opacity="0"></use></g></g><g><use xlink:href="#b3rwiBWg3a" opacity="1" fill="#000000" fill-opacity="0"></use><g><use xlink:href="#b3rwiBWg3a" opacity="1" fill-opacity="0" stroke="#000000" stroke-width="1" stroke-opacity="1"></use></g></g><g><use xlink:href="#bdt2bdT8V" opacity="1" fill="#ffae00" fill-opacity="1"></use><g><use xlink:href="#bdt2bdT8V" opacity="1" fill-opacity="0" stroke="#000000" stroke-width="1" stroke-opacity="0"></use></g></g><g><use xlink:href="#h2qYvdzb22" opacity="1" fill="#000000" fill-opacity="0"></use><g><use xlink:href="#h2qYvdzb22" opacity="1" fill-opacity="0" stroke="#000000" stroke-width="1" stroke-opacity="0"></use></g></g><g><use xlink:href="#b1DeZCo43v" opacity="1" fill="#000000" fill-opacity="0"></use><g><use xlink:href="#b1DeZCo43v" opacity="1" fill-opacity="0" stroke="#000000" stroke-width="1" stroke-opacity="0"></use></g></g><g><use xlink:href="#a1iRONd5r" opacity="1" fill="#000000" fill-opacity="0"></use><g><use xlink:href="#a1iRONd5r" opacity="1" fill-opacity="0" stroke="#000000" stroke-width="1" stroke-opacity="1"></use></g></g><g><use xlink:href="#b1U8WQYSdS" opacity="1" fill="#000000" fill-opacity="0"></use><g><use xlink:href="#b1U8WQYSdS" opacity="1" fill-opacity="0" stroke="#000000" stroke-width="1" stroke-opacity="0"></use></g></g><g><use xlink:href="#b18hZJIuC8" opacity="1" fill="#000000" fill-opacity="0"></use><g><use xlink:href="#b18hZJIuC8" opacity="1" fill-opacity="0" stroke="#000000" stroke-width="1" stroke-opacity="0"></use></g></g><g><use xlink:href="#aPCDKLrb" opacity="1" fill="#000000" fill-opacity="0"></use><g><use xlink:href="#aPCDKLrb" opacity="1" fill-opacity="0" stroke="#000000" stroke-width="1" stroke-opacity="0"></use></g></g><g><use xlink:href="#b2ybJ3iUMK" opacity="1" fill="#000000" fill-opacity="0"></use><g><use xlink:href="#b2ybJ3iUMK" opacity="1" fill-opacity="0" stroke="#000000" stroke-width="1" stroke-opacity="1"></use></g></g><g><use xlink:href="#c1xHqx66vm" opacity="1" fill="#000000" fill-opacity="0"></use><g><use xlink:href="#c1xHqx66vm" opacity="1" fill-opacity="0" stroke="#000000" stroke-width="1" stroke-opacity="0"></use></g></g><g><use xlink:href="#b1HrHEWe0E" opacity="1" fill="#000000" fill-opacity="0"></use><g><use xlink:href="#b1HrHEWe0E" opacity="1" fill-opacity="0" stroke="#000000" stroke-width="1" stroke-opacity="0"></use></g></g><g><use xlink:href="#a3giPvUVS9" opacity="1" fill="#000000" fill-opacity="0"></use><g><use xlink:href="#a3giPvUVS9" opacity="1" fill-opacity="0" stroke="#000000" stroke-width="1" stroke-opacity="0"></use></g></g><g><use xlink:href="#b2sGuq3Vrp" opacity="1" fill="#000000" fill-opacity="0"></use><g><use xlink:href="#b2sGuq3Vrp" opacity="1" fill-opacity="0" stroke="#000000" stroke-width="1" stroke-opacity="1"></use></g></g><g><use xlink:href="#a9luigQTh" opacity="1" fill="#000000" fill-opacity="0"></use><g><use xlink:href="#a9luigQTh" opacity="1" fill-opacity="0" stroke="#000000" stroke-width="1" stroke-opacity="0"></use></g></g><g><use xlink:href="#c2mP16nerN" opacity="1" fill="#000000" fill-opacity="0"></use><g><use xlink:href="#c2mP16nerN" opacity="1" fill-opacity="0" stroke="#000000" stroke-width="1" stroke-opacity="0"></use></g></g><g><use xlink:href="#c5GdUpWI7f" opacity="1" fill="#000000" fill-opacity="0"></use><g><use xlink:href="#c5GdUpWI7f" opacity="1" fill-opacity="0" stroke="#000000" stroke-width="1" stroke-opacity="0"></use></g></g><g><use xlink:href="#d1j0TlcHdb" opacity="1" fill="#000000" fill-opacity="0"></use><g><use xlink:href="#d1j0TlcHdb" opacity="1" fill-opacity="0" stroke="#000000" stroke-width="1" stroke-opacity="1"></use></g></g><g><use xlink:href="#a4aWjYnDo" opacity="1" fill="#000000" fill-opacity="0"></use><g><use xlink:href="#a4aWjYnDo" opacity="1" fill-opacity="0" stroke="#000000" stroke-width="1" stroke-opacity="0"></use></g></g><g><use xlink:href="#a6BJ2Utgq" opacity="1" fill="#000000" fill-opacity="0"></use><g><use xlink:href="#a6BJ2Utgq" opacity="1" fill-opacity="0" stroke="#000000" stroke-width="1" stroke-opacity="0"></use></g></g><g><use xlink:href="#gmDrrUxAX" opacity="1" fill="#000000" fill-opacity="0"></use><g><use xlink:href="#gmDrrUxAX" opacity="1" fill-opacity="0" stroke="#000000" stroke-width="1" stroke-opacity="0"></use></g></g><g><use xlink:href="#biu8l0TKN" opacity="1" fill="#000000" fill-opacity="0"></use><g><use xlink:href="#biu8l0TKN" opacity="1" fill-opacity="0" stroke="#000000" stroke-width="1" stroke-opacity="1"></use></g></g><g><use xlink:href="#bmqiKuac1" opacity="1" fill="#bfb839" fill-opacity="0"></use><g><use xlink:href="#bmqiKuac1" opacity="1" fill-opacity="0" stroke="#000000" stroke-width="1" stroke-opacity="0"></use></g></g><g><use xlink:href="#a25DDNo8Cf" opacity="1" fill="#000000" fill-opacity="0"></use><g><use xlink:href="#a25DDNo8Cf" opacity="1" fill-opacity="0" stroke="#000000" stroke-width="1" stroke-opacity="0"></use></g></g><g><use xlink:href="#c2TArpjPzI" opacity="1" fill="#000000" fill-opacity="0"></use><g><use xlink:href="#c2TArpjPzI" opacity="1" fill-opacity="0" stroke="#000000" stroke-width="1" stroke-opacity="0"></use></g></g><g><use xlink:href="#ah2d6qA9i" opacity="1" fill="#000000" fill-opacity="0"></use><g><use xlink:href="#ah2d6qA9i" opacity="1" fill-opacity="0" stroke="#e2b940" stroke-width="8" stroke-opacity="1"></use></g></g><g><use xlink:href="#ch8PcvdI8" opacity="1" fill="#000000" fill-opacity="0"></use><g><use xlink:href="#ch8PcvdI8" opacity="1" fill-opacity="0" stroke="#000000" stroke-width="1" stroke-opacity="0"></use></g></g><g><use xlink:href="#b72zkKNAG3" opacity="1" fill="#000000" fill-opacity="0"></use><g><use xlink:href="#b72zkKNAG3" opacity="1" fill-opacity="0" stroke="#000000" stroke-width="1" stroke-opacity="0"></use></g></g><g><use xlink:href="#cgHPxHDMY" opacity="1" fill="#000000" fill-opacity="0"></use><g><use xlink:href="#cgHPxHDMY" opacity="1" fill-opacity="0" stroke="#000000" stroke-width="1" stroke-opacity="0"></use></g></g><g><use xlink:href="#cFay7NSDK" opacity="1" fill="#000000" fill-opacity="0"></use><g><use xlink:href="#cFay7NSDK" opacity="1" fill-opacity="0" stroke="#000000" stroke-width="1" stroke-opacity="1"></use></g></g><g><use xlink:href="#hqmXFbeJ8" opacity="1" fill="url(#gradienta8BUBPHhUd)"></use><g><use xlink:href="#hqmXFbeJ8" opacity="1" fill-opacity="0" stroke="#000000" stroke-width="1" stroke-opacity="0"></use></g></g><g><use xlink:href="#b4NytPzzMo" opacity="1" fill="#000000" fill-opacity="0"></use><g><use xlink:href="#b4NytPzzMo" opacity="1" fill-opacity="0" stroke="#000000" stroke-width="1" stroke-opacity="0"></use></g></g><g><use xlink:href="#n2W4zLuot" opacity="1" fill="#000000" fill-opacity="0"></use><g><use xlink:href="#n2W4zLuot" opacity="1" fill-opacity="0" stroke="#000000" stroke-width="1" stroke-opacity="0"></use></g></g><g><use xlink:href="#a3jN5enUqq" opacity="1" fill="#000000" fill-opacity="0"></use><g><use xlink:href="#a3jN5enUqq" opacity="1" fill-opacity="0" stroke="#000000" stroke-width="4" stroke-opacity="1"></use></g></g><g><use xlink:href="#jrUDS6O6a" opacity="1" fill="url(#gradientb1bJh7y511)"></use><g><use xlink:href="#jrUDS6O6a" opacity="1" fill-opacity="0" stroke="#000000" stroke-width="1" stroke-opacity="0"></use></g></g><g><use xlink:href="#c2mQOIN" opacity="1" fill="#000000" fill-opacity="0"></use><g><use xlink:href="#c2mQOIN" opacity="1" fill-opacity="0" stroke="#000000" stroke-width="1" stroke-opacity="0"></use></g></g><g><use xlink:href="#b5BU6juwur" opacity="1" fill="#000000" fill-opacity="0"></use><g><use xlink:href="#b5BU6juwur" opacity="1" fill-opacity="0" stroke="#000000" stroke-width="1" stroke-opacity="0"></use></g></g><g><use xlink:href="#b321e836AQ" opacity="1" fill="#000000" fill-opacity="0"></use><g><use xlink:href="#b321e836AQ" opacity="1" fill-opacity="0" stroke="#bada55" stroke-width="1" stroke-opacity="0"></use></g></g><g><use xlink:href="#b42e43KWj1" opacity="1" fill="url(#gradientf6JkpMww0)"></use><g><use xlink:href="#b42e43KWj1" opacity="1" fill-opacity="0" stroke="#000000" stroke-width="1" stroke-opacity="0"></use></g></g><g><use xlink:href="#aacCCBu0mI" opacity="1" fill="#000000" fill-opacity="0"></use><g><use xlink:href="#aacCCBu0mI" opacity="1" fill-opacity="0" stroke="#000000" stroke-width="1" stroke-opacity="0"></use></g></g><g><use xlink:href="#azRhLVhcc" opacity="1" fill="#000000" fill-opacity="0"></use><g><use xlink:href="#azRhLVhcc" opacity="1" fill-opacity="0" stroke="#000000" stroke-width="1" stroke-opacity="0"></use></g></g><g><use xlink:href="#bNYkdEJ5j" opacity="1" fill="#000000" fill-opacity="0"></use><g><use xlink:href="#bNYkdEJ5j" opacity="1" fill-opacity="0" stroke="#bada55" stroke-width="1" stroke-opacity="0"></use></g></g><g><use xlink:href="#gQzykz6Rh" opacity="1" fill="url(#gradientd106VqWoDU)"></use><g><use xlink:href="#gQzykz6Rh" opacity="1" fill-opacity="0" stroke="#000000" stroke-width="1" stroke-opacity="0"></use></g></g><g><use xlink:href="#a3mVSN5eRo" opacity="1" fill="#000000" fill-opacity="0"></use><g><use xlink:href="#a3mVSN5eRo" opacity="1" fill-opacity="0" stroke="#000000" stroke-width="1" stroke-opacity="0"></use></g></g><g><use xlink:href="#f82o07drVG" opacity="1" fill="#000000" fill-opacity="0"></use><g><use xlink:href="#f82o07drVG" opacity="1" fill-opacity="0" stroke="#000000" stroke-width="1" stroke-opacity="0"></use></g></g><g><use xlink:href="#a65M7VySo" opacity="1" fill="#000000" fill-opacity="0"></use><g><use xlink:href="#a65M7VySo" opacity="1" fill-opacity="0" stroke="#bada55" stroke-width="1" stroke-opacity="0"></use></g></g></g></g></svg>