<?xml version="1.0" encoding="UTF-8" standalone="no"?>
<!DOCTYPE svg PUBLIC "-//W3C//DTD SVG 1.1//EN" "http://www.w3.org/Graphics/SVG/1.1/DTD/svg11.dtd">
<svg version="1.1" xmlns="http://www.w3.org/2000/svg" xmlns:xlink="http://www.w3.org/1999/xlink" preserveAspectRatio="xMidYMid meet" viewBox="0 0 640 500" width="640" height="500"><defs><path d="M229.27 253.5C229.27 203.19 271.01 162.41 322.49 162.41C373.98 162.41 415.72 203.19 415.72 253.5C415.72 303.81 373.98 344.59 322.49 344.59C271.01 344.59 229.27 303.81 229.27 253.5Z" id="e39VMKy5NG"></path><path d="M229.27 253.5C229.27 203.19 271.01 162.41 322.49 162.41C373.98 162.41 415.72 203.19 415.72 253.5C415.72 303.81 373.98 344.59 322.49 344.59C271.01 344.59 229.27 303.81 229.27 253.5Z" id="c1CCTBj6"></path><path d="M342.96 260.23L342.96 216.86L342.96 173.5L407.96 195.19L472.96 216.87L407.96 238.55L342.96 260.23Z" id="ciCet4a0W"></path><path d="M363.08 237.77L327.05 216.97L291.02 196.16L341.54 150.27L392.05 104.39L377.57 171.08L363.08 237.77Z" id="b2Mrpsf4B1"></path><path d="M345.31 199.84L310.88 219.71L276.45 239.59L261.17 173.36L245.89 107.13L295.6 153.48L345.31 199.84Z" id="d29c6fDlF6"></path><path d="M326.84 183.66L306.04 219.69L285.23 255.72L239.34 205.21L193.45 154.69L260.15 169.17L326.84 183.66Z" id="acPWOwFV8"></path><path d="M359.12 214.47L318.4 214.47L277.67 214.47L298.03 149.47L318.4 84.47L338.76 149.47L359.12 214.47Z" id="bu2qGCgMH"></path><path d="M355.07 254.93L333.39 217.37L311.71 179.82L378.84 166.1L445.97 152.38L400.52 203.65L355.07 254.93Z" id="crmxHaRP"></path><path d="M353.14 251.65L318.38 275.12L284.57 250.41L298.79 211.81L341.14 212.43L353.14 251.65Z" id="c69VByGGxI"></path><path d="M353.14 251.65L318.38 275.12L284.57 250.41L298.79 211.81L341.14 212.43L353.14 251.65Z" id="bu7kXryHn"></path><path d="M252.07 298.15C250.77 297.79 240.37 294.93 239.07 294.57C233.61 286.31 223.49 254.1 232.43 230.34C232.04 231.1 251.57 261.49 252.02 260.6C251.07 261.07 251.35 298.5 252.07 298.15Z" id="b1cynIBd7"></path><path d="M252.07 298.15C250.77 297.79 240.37 294.93 239.07 294.57C233.61 286.31 223.49 254.1 232.43 230.34C232.04 231.1 251.57 261.49 252.02 260.6C251.07 261.07 251.35 298.5 252.07 298.15Z" id="b3hojfdeXY"></path><path d="M355.04 323.6C348.6 334.71 345.02 340.89 344.3 342.12C332.06 345.18 311.53 346.26 290.89 339.65C290.22 338.46 286.85 332.49 280.78 321.74C283.2 321.1 295.32 317.91 317.12 312.17C339.87 319.03 352.51 322.84 355.04 323.6Z" id="aBA8prHH3"></path><path d="M355.04 323.6C348.6 334.71 345.02 340.89 344.3 342.12C332.06 345.18 311.53 346.26 290.89 339.65C290.22 338.46 286.85 332.49 280.78 321.74C283.2 321.1 295.32 317.91 317.12 312.17C339.87 319.03 352.51 322.84 355.04 323.6Z" id="eBc4CMKU0"></path><path d="M402.13 300.44C413.32 283.8 417.63 256.05 413.54 237.48C413.28 237.17 411.23 234.67 410.98 234.36C409.66 236.42 384.18 268.66 386.96 264.31C387.47 264.31 386.01 303.22 385.7 303.22C387.34 302.94 400.48 300.71 402.13 300.44Z" id="a7fXzEQwd"></path><path d="M402.13 300.44C413.32 283.8 417.63 256.05 413.54 237.48C413.28 237.17 411.23 234.67 410.98 234.36C409.66 236.42 384.18 268.66 386.96 264.31C387.47 264.31 386.01 303.22 385.7 303.22C387.34 302.94 400.48 300.71 402.13 300.44Z" id="dFdcu0o1"></path><path d="M346.07 165.37C366.54 168.93 386.49 184.9 398.02 200.08C398.02 199.26 362.63 185.97 362.63 186.8C360.97 184.66 347.72 167.51 346.07 165.37Z" id="b7swcmwit"></path><path d="M346.07 165.37C366.54 168.93 386.49 184.9 398.02 200.08C398.02 199.26 362.63 185.97 362.63 186.8C360.97 184.66 347.72 167.51 346.07 165.37Z" id="hyWQkpcWx"></path><path d="M250.31 195.76C259.17 185.2 274.7 171.23 297.35 165.67C294.04 169.77 282.44 184.13 280.78 186.19C280.78 185.66 250.31 195.48 250.31 195.76Z" id="bz9JsmsPn"></path><path d="M302.32 185.98L296.86 227.22L291.4 268.47L229.69 239.33L167.98 210.18L235.15 198.07L302.32 185.98Z" id="c18IwIDbM4"></path><path d="M250.31 195.76C259.17 185.2 274.7 171.23 297.35 165.67C294.04 169.77 282.44 184.13 280.78 186.19C280.78 185.66 250.31 195.48 250.31 195.76Z" id="b1FpNdmx9z"></path><path d="M279.96 185.13L298.95 212.15" id="a9fjfGtXG"></path><path d="M279.96 185.13L298.95 212.15" id="aLrhWhjpE"></path><path d="M363.37 186.36L340.65 213.13" id="a1RYKTYQ6u"></path><path d="M363.37 186.36L340.65 213.13" id="b1PIpOruDe"></path><path d="M352.44 251.14L386.96 264.62" id="a6Yko2so9"></path><path d="M352.44 251.14L386.96 264.62" id="l5owRlEXDr"></path><path d="M318.34 274.74L317.44 311.86" id="b4mOAzxEW"></path><path d="M318.34 274.74L317.44 311.86" id="b1xDNkQ8rf"></path><path d="M285.16 250.18L251.11 260.6" id="ggGvuR4Oq"></path><path d="M285.16 250.18L251.11 260.6" id="a5sy9bxBuk"></path><path d="M251.82 296.07C250.18 298.03 280.37 322.98 283.16 321.91" id="aeHI9VJrF"></path><path d="M251.82 296.07C250.18 298.03 280.37 322.98 283.16 321.91" id="ghLEw9p7d"></path><path d="M355.04 323.6L386.55 302.43" id="d7QKegIQ0"></path><path d="M355.04 323.6L386.55 302.43" id="b1wXJr6da7"></path><path d="M227.02 247.78C227.02 197.59 269.35 156.9 321.56 156.9C373.77 156.9 416.09 197.59 416.09 247.78C416.09 297.97 373.77 338.66 321.56 338.66C269.35 338.66 227.02 297.97 227.02 247.78Z" id="aOER2gytu"></path><path d="M227.02 247.78C227.02 197.59 269.35 156.9 321.56 156.9C373.77 156.9 416.09 197.59 416.09 247.78C416.09 297.97 373.77 338.66 321.56 338.66C269.35 338.66 227.02 297.97 227.02 247.78Z" id="a4bCsXhG6"></path><path d="M410.98 234.67L400.87 204.4" id="c1IGHgXkpU"></path><path d="M410.98 234.67L400.87 204.4" id="b3di0oWxlj"></path><path d="M222.36 249.22C222.36 195.86 267.3 152.61 322.74 152.61C378.17 152.61 423.11 195.86 423.11 249.22C423.11 302.57 378.17 345.83 322.74 345.83C267.3 345.83 222.36 302.57 222.36 249.22Z" id="b15Dk3mT"></path><linearGradient id="gradientaL1h8Pokd" gradientUnits="userSpaceOnUse" x1="325.9" y1="198.62" x2="360.43" y2="371.64"><stop style="stop-color: #ab2121;stop-opacity: 0" offset="0%"></stop><stop style="stop-color: #2b0707;stop-opacity: 1" offset="100%"></stop></linearGradient><path d="M224.27 249.22C224.27 195.86 269.21 152.61 324.65 152.61C380.08 152.61 425.02 195.86 425.02 249.22C425.02 302.57 380.08 345.83 324.65 345.83C269.21 345.83 224.27 302.57 224.27 249.22Z" id="c3OWCxC04"></path><path d="M521.35 424.76L196.09 214.56L125.47 424.76L521.35 424.76Z" id="aV3dFypjF"></path><linearGradient id="gradientcjSkt4tYq" gradientUnits="userSpaceOnUse" x1="260.44" y1="204.63" x2="260.44" y2="424.76"><stop style="stop-color: #de2d1d;stop-opacity: 1" offset="0%"></stop><stop style="stop-color: #841b11;stop-opacity: 1" offset="100%"></stop></linearGradient><path d="M521.35 424.76L196.09 214.56L125.47 424.76L521.35 424.76Z" id="a1UUVU47U"></path><path d="M127.17 425L442.5 214.8L523.05 425L127.17 425Z" id="a15KuuAHb0"></path><linearGradient id="gradientarvLm8sNX" gradientUnits="userSpaceOnUse" x1="337.4" y1="349.97" x2="328.19" y2="592.43"><stop style="stop-color: #dc4b3e;stop-opacity: 1" offset="0%"></stop><stop style="stop-color: #98261c;stop-opacity: 1" offset="100%"></stop></linearGradient><path d="M127.17 425L442.5 214.8L523.05 425L127.17 425Z" id="boiqsVztv"></path><path d="M522.68 424.31L442.61 214.71L321.81 295.52L522.68 424.31Z" id="a60DR1A1ms"></path><linearGradient id="gradientb19vjEv9hX" gradientUnits="userSpaceOnUse" x1="430.38" y1="413.62" x2="430.02" y2="240.56"><stop style="stop-color: #de2d1d;stop-opacity: 1" offset="0%"></stop><stop style="stop-color: #841b11;stop-opacity: 1" offset="100%"></stop></linearGradient><path d="M522.68 424.31L442.61 214.71L321.81 295.52L522.68 424.31Z" id="b2zT8dQunl"></path></defs><g><g><g><use xlink:href="#e39VMKy5NG" opacity="1" fill="#e2b940" fill-opacity="1"></use><g><use xlink:href="#e39VMKy5NG" opacity="1" fill-opacity="0" stroke="#000000" stroke-width="1" stroke-opacity="0"></use></g></g><g><use xlink:href="#c1CCTBj6" opacity="1" fill="#000000" fill-opacity="0"></use><g><use xlink:href="#c1CCTBj6" opacity="1" fill-opacity="0" stroke="#ce451b" stroke-width="2" stroke-opacity="0"></use></g></g><g><use xlink:href="#ciCet4a0W" opacity="1" fill="#e2ba40" fill-opacity="1"></use><g><use xlink:href="#ciCet4a0W" opacity="1" fill-opacity="0" stroke="#000000" stroke-width="1" stroke-opacity="0"></use></g></g><g><use xlink:href="#b2Mrpsf4B1" opacity="1" fill="#e2ba40" fill-opacity="1"></use><g><use xlink:href="#b2Mrpsf4B1" opacity="1" fill-opacity="0" stroke="#000000" stroke-width="1" stroke-opacity="0"></use></g></g><g><use xlink:href="#d29c6fDlF6" opacity="1" fill="#e2ba40" fill-opacity="1"></use><g><use xlink:href="#d29c6fDlF6" opacity="1" fill-opacity="0" stroke="#000000" stroke-width="1" stroke-opacity="0"></use></g></g><g><use xlink:href="#acPWOwFV8" opacity="1" fill="#e2ba40" fill-opacity="1"></use><g><use xlink:href="#acPWOwFV8" opacity="1" fill-opacity="0" stroke="#000000" stroke-width="1" stroke-opacity="0"></use></g></g><g><use xlink:href="#bu2qGCgMH" opacity="1" fill="#e2ba40" fill-opacity="1"></use><g><use xlink:href="#bu2qGCgMH" opacity="1" fill-opacity="0" stroke="#000000" stroke-width="1" stroke-opacity="0"></use></g></g><g><use xlink:href="#crmxHaRP" opacity="1" fill="#e2ba40" fill-opacity="1"></use><g><use xlink:href="#crmxHaRP" opacity="1" fill-opacity="0" stroke="#000000" stroke-width="1" stroke-opacity="0"></use></g></g><g><use xlink:href="#c69VByGGxI" opacity="1" fill="#000000" fill-opacity="1"></use><g><use xlink:href="#c69VByGGxI" opacity="1" fill-opacity="0" stroke="#000000" stroke-width="1" stroke-opacity="0"></use></g></g><g><use xlink:href="#bu7kXryHn" opacity="1" fill="#000000" fill-opacity="0"></use><g><use xlink:href="#bu7kXryHn" opacity="1" fill-opacity="0" stroke="#000000" stroke-width="1" stroke-opacity="1"></use></g></g><g><use xlink:href="#b1cynIBd7" opacity="1" fill="#000000" fill-opacity="1"></use><g><use xlink:href="#b1cynIBd7" opacity="1" fill-opacity="0" stroke="#000000" stroke-width="1" stroke-opacity="0"></use></g></g><g><use xlink:href="#b3hojfdeXY" opacity="1" fill="#000000" fill-opacity="0"></use><g><use xlink:href="#b3hojfdeXY" opacity="1" fill-opacity="0" stroke="#000000" stroke-width="1" stroke-opacity="1"></use></g></g><g><use xlink:href="#aBA8prHH3" opacity="1" fill="#000000" fill-opacity="1"></use><g><use xlink:href="#aBA8prHH3" opacity="1" fill-opacity="0" stroke="#000000" stroke-width="1" stroke-opacity="0"></use></g></g><g><use xlink:href="#eBc4CMKU0" opacity="1" fill="#000000" fill-opacity="0"></use><g><use xlink:href="#eBc4CMKU0" opacity="1" fill-opacity="0" stroke="#000000" stroke-width="1" stroke-opacity="1"></use></g></g><g><use xlink:href="#a7fXzEQwd" opacity="1" fill="#000000" fill-opacity="1"></use><g><use xlink:href="#a7fXzEQwd" opacity="1" fill-opacity="0" stroke="#000000" stroke-width="1" stroke-opacity="0"></use></g></g><g><use xlink:href="#dFdcu0o1" opacity="1" fill="#000000" fill-opacity="0"></use><g><use xlink:href="#dFdcu0o1" opacity="1" fill-opacity="0" stroke="#000000" stroke-width="1" stroke-opacity="1"></use></g></g><g><use xlink:href="#b7swcmwit" opacity="1" fill="#000000" fill-opacity="1"></use><g><use xlink:href="#b7swcmwit" opacity="1" fill-opacity="0" stroke="#000000" stroke-width="1" stroke-opacity="0"></use></g></g><g><use xlink:href="#hyWQkpcWx" opacity="1" fill="#000000" fill-opacity="0"></use><g><use xlink:href="#hyWQkpcWx" opacity="1" fill-opacity="0" stroke="#000000" stroke-width="1" stroke-opacity="1"></use></g></g><g><use xlink:href="#bz9JsmsPn" opacity="1" fill="#000000" fill-opacity="1"></use><g><use xlink:href="#bz9JsmsPn" opacity="1" fill-opacity="0" stroke="#000000" stroke-width="1" stroke-opacity="0"></use></g></g><g><use xlink:href="#c18IwIDbM4" opacity="1" fill="#e2ba40" fill-opacity="1"></use><g><use xlink:href="#c18IwIDbM4" opacity="1" fill-opacity="0" stroke="#000000" stroke-width="1" stroke-opacity="0"></use></g></g><g><use xlink:href="#b1FpNdmx9z" opacity="1" fill="#000000" fill-opacity="0"></use><g><use xlink:href="#b1FpNdmx9z" opacity="1" fill-opacity="0" stroke="#000000" stroke-width="1" stroke-opacity="1"></use></g></g><g><use xlink:href="#a9fjfGtXG" opacity="1" fill="#bada55" fill-opacity="1"></use><g><use xlink:href="#a9fjfGtXG" opacity="1" fill-opacity="0" stroke="#000000" stroke-width="1" stroke-opacity="0"></use></g></g><g><use xlink:href="#aLrhWhjpE" opacity="1" fill="#000000" fill-opacity="0"></use><g><use xlink:href="#aLrhWhjpE" opacity="1" fill-opacity="0" stroke="#000000" stroke-width="1" stroke-opacity="1"></use></g></g><g><use xlink:href="#a1RYKTYQ6u" opacity="1" fill="#000000" fill-opacity="0"></use><g><use xlink:href="#a1RYKTYQ6u" opacity="1" fill-opacity="0" stroke="#000000" stroke-width="1" stroke-opacity="0"></use></g></g><g><use xlink:href="#b1PIpOruDe" opacity="1" fill="#000000" fill-opacity="0"></use><g><use xlink:href="#b1PIpOruDe" opacity="1" fill-opacity="0" stroke="#000000" stroke-width="1" stroke-opacity="1"></use></g></g><g><use xlink:href="#a6Yko2so9" opacity="1" fill="#ffae00" fill-opacity="1"></use><g><use xlink:href="#a6Yko2so9" opacity="1" fill-opacity="0" stroke="#000000" stroke-width="1" stroke-opacity="0"></use></g></g><g><use xlink:href="#l5owRlEXDr" opacity="1" fill="#000000" fill-opacity="0"></use><g><use xlink:href="#l5owRlEXDr" opacity="1" fill-opacity="0" stroke="#000000" stroke-width="1" stroke-opacity="1"></use></g></g><g><use xlink:href="#b4mOAzxEW" opacity="1" fill="#000000" fill-opacity="0"></use><g><use xlink:href="#b4mOAzxEW" opacity="1" fill-opacity="0" stroke="#000000" stroke-width="1" stroke-opacity="0"></use></g></g><g><use xlink:href="#b1xDNkQ8rf" opacity="1" fill="#000000" fill-opacity="0"></use><g><use xlink:href="#b1xDNkQ8rf" opacity="1" fill-opacity="0" stroke="#000000" stroke-width="1" stroke-opacity="1"></use></g></g><g><use xlink:href="#ggGvuR4Oq" opacity="1" fill="#000000" fill-opacity="0"></use><g><use xlink:href="#ggGvuR4Oq" opacity="1" fill-opacity="0" stroke="#000000" stroke-width="1" stroke-opacity="0"></use></g></g><g><use xlink:href="#a5sy9bxBuk" opacity="1" fill="#000000" fill-opacity="0"></use><g><use xlink:href="#a5sy9bxBuk" opacity="1" fill-opacity="0" stroke="#000000" stroke-width="1" stroke-opacity="1"></use></g></g><g><use xlink:href="#aeHI9VJrF" opacity="1" fill="#000000" fill-opacity="0"></use><g><use xlink:href="#aeHI9VJrF" opacity="1" fill-opacity="0" stroke="#000000" stroke-width="1" stroke-opacity="0"></use></g></g><g><use xlink:href="#ghLEw9p7d" opacity="1" fill="#000000" fill-opacity="0"></use><g><use xlink:href="#ghLEw9p7d" opacity="1" fill-opacity="0" stroke="#000000" stroke-width="1" stroke-opacity="1"></use></g></g><g><use xlink:href="#d7QKegIQ0" opacity="1" fill="#000000" fill-opacity="0"></use><g><use xlink:href="#d7QKegIQ0" opacity="1" fill-opacity="0" stroke="#000000" stroke-width="1" stroke-opacity="0"></use></g></g><g><use xlink:href="#b1wXJr6da7" opacity="1" fill="#000000" fill-opacity="0"></use><g><use xlink:href="#b1wXJr6da7" opacity="1" fill-opacity="0" stroke="#000000" stroke-width="1" stroke-opacity="1"></use></g></g><g><use xlink:href="#aOER2gytu" opacity="1" fill="#bfb839" fill-opacity="0"></use><g><use xlink:href="#aOER2gytu" opacity="1" fill-opacity="0" stroke="#000000" stroke-width="1" stroke-opacity="0"></use></g></g><g><use xlink:href="#a4bCsXhG6" opacity="1" fill="#000000" fill-opacity="0"></use><g><use xlink:href="#a4bCsXhG6" opacity="1" fill-opacity="0" stroke="#e2b940" stroke-width="8" stroke-opacity="1"></use></g></g><g><use xlink:href="#c1IGHgXkpU" opacity="1" fill="#000000" fill-opacity="0"></use><g><use xlink:href="#c1IGHgXkpU" opacity="1" fill-opacity="0" stroke="#000000" stroke-width="1" stroke-opacity="0"></use></g></g><g><use xlink:href="#b3di0oWxlj" opacity="1" fill="#000000" fill-opacity="0"></use><g><use xlink:href="#b3di0oWxlj" opacity="1" fill-opacity="0" stroke="#000000" stroke-width="1" stroke-opacity="1"></use></g></g><g><use xlink:href="#b15Dk3mT" opacity="1" fill="url(#gradientaL1h8Pokd)"></use><g><use xlink:href="#b15Dk3mT" opacity="1" fill-opacity="0" stroke="#000000" stroke-width="1" stroke-opacity="0"></use></g></g><g><use xlink:href="#c3OWCxC04" opacity="1" fill="#000000" fill-opacity="0"></use><g><use xlink:href="#c3OWCxC04" opacity="1" fill-opacity="0" stroke="#000000" stroke-width="4" stroke-opacity="1"></use></g></g><g><use xlink:href="#aV3dFypjF" opacity="1" fill="url(#gradientcjSkt4tYq)"></use><g><use xlink:href="#aV3dFypjF" opacity="1" fill-opacity="0" stroke="#000000" stroke-width="1" stroke-opacity="0"></use></g></g><g><use xlink:href="#a1UUVU47U" opacity="1" fill="#000000" fill-opacity="0"></use><g><use xlink:href="#a1UUVU47U" opacity="1" fill-opacity="0" stroke="#bada55" stroke-width="1" stroke-opacity="0"></use></g></g><g><use xlink:href="#a15KuuAHb0" opacity="1" fill="url(#gradientarvLm8sNX)"></use><g><use xlink:href="#a15KuuAHb0" opacity="1" fill-opacity="0" stroke="#000000" stroke-width="1" stroke-opacity="0"></use></g></g><g><use xlink:href="#boiqsVztv" opacity="1" fill="#000000" fill-opacity="0"></use><g><use xlink:href="#boiqsVztv" opacity="1" fill-opacity="0" stroke="#bada55" stroke-width="1" stroke-opacity="0"></use></g></g><g><use xlink:href="#a60DR1A1ms" opacity="1" fill="url(#gradientb19vjEv9hX)"></use><g><use xlink:href="#a60DR1A1ms" opacity="1" fill-opacity="0" stroke="#000000" stroke-width="1" stroke-opacity="0"></use></g></g><g><use xlink:href="#b2zT8dQunl" opacity="1" fill="#000000" fill-opacity="0"></use><g><use xlink:href="#b2zT8dQunl" opacity="1" fill-opacity="0" stroke="#bada55" stroke-width="1" stroke-opacity="0"></use></g></g></g></g></svg>