<?xml version="1.0" encoding="UTF-8" standalone="no"?>
<!DOCTYPE svg PUBLIC "-//W3C//DTD SVG 1.1//EN" "http://www.w3.org/Graphics/SVG/1.1/DTD/svg11.dtd">
<svg version="1.1" xmlns="http://www.w3.org/2000/svg" xmlns:xlink="http://www.w3.org/1999/xlink" preserveAspectRatio="xMidYMid meet" viewBox="0 0 500 500" width="500" height="500"><defs><path d="M159.12 252.03C159.12 201.72 200.86 160.94 252.34 160.94C303.83 160.94 345.57 201.72 345.57 252.03C345.57 302.34 303.83 343.12 252.34 343.12C200.86 343.12 159.12 302.34 159.12 252.03Z" id="aetYJoAo3"></path><path d="M159.12 252.03C159.12 201.72 200.86 160.94 252.34 160.94C303.83 160.94 345.57 201.72 345.57 252.03C345.57 302.34 303.83 343.12 252.34 343.12C200.86 343.12 159.12 302.34 159.12 252.03Z" id="c1ESqe1JXh"></path><path d="M272.81 258.76L272.81 215.39L272.81 172.03L337.81 193.72L402.81 215.4L337.81 237.08L272.81 258.76Z" id="ca0LBNuo"></path><path d="M292.93 236.3L256.9 215.5L220.87 194.69L271.39 148.8L321.9 102.92L307.42 169.61L292.93 236.3Z" id="b6vreIspQ"></path><path d="M275.16 198.37L240.73 218.24L206.3 238.12L191.02 171.89L175.74 105.66L225.45 152.01L275.16 198.37Z" id="lMLdlHcfY"></path><path d="M256.7 182.19L235.9 218.22L215.09 254.25L169.2 203.74L123.31 153.22L190.01 167.7L256.7 182.19Z" id="dN9twcexE"></path><path d="M288.97 213L248.25 213L207.52 213L227.88 148L248.25 83L268.61 148L288.97 213Z" id="c4eceDCnN9"></path><path d="M284.92 253.46L263.24 215.9L241.56 178.35L308.69 164.63L375.82 150.91L330.37 202.18L284.92 253.46Z" id="d4lzR7q1vi"></path><path d="M282.99 250.18L248.23 273.65L214.42 248.94L228.64 210.34L270.99 210.96L282.99 250.18Z" id="a42N5jzJS1"></path><path d="M282.99 250.18L248.23 273.65L214.42 248.94L228.64 210.34L270.99 210.96L282.99 250.18Z" id="dyS7OxYvI"></path><path d="M181.92 296.68C180.62 296.32 170.22 293.46 168.92 293.1C163.46 284.84 153.34 252.63 162.28 228.87C161.89 229.63 181.42 260.02 181.87 259.13C180.92 259.6 181.2 297.03 181.92 296.68Z" id="h2YjWABvx"></path><path d="M181.92 296.68C180.62 296.32 170.22 293.46 168.92 293.1C163.46 284.84 153.34 252.63 162.28 228.87C161.89 229.63 181.42 260.02 181.87 259.13C180.92 259.6 181.2 297.03 181.92 296.68Z" id="bfmwjBTzf"></path><path d="M284.89 322.13C278.45 333.24 274.87 339.42 274.15 340.65C261.91 343.71 241.38 344.79 220.74 338.18C220.07 336.99 216.7 331.02 210.63 320.27C213.05 319.63 225.17 316.44 246.97 310.7C269.72 317.56 282.36 321.37 284.89 322.13Z" id="c1AxzpPPHN"></path><path d="M284.89 322.13C278.45 333.24 274.87 339.42 274.15 340.65C261.91 343.71 241.38 344.79 220.74 338.18C220.07 336.99 216.7 331.02 210.63 320.27C213.05 319.63 225.17 316.44 246.97 310.7C269.72 317.56 282.36 321.37 284.89 322.13Z" id="brVuOM2Bu"></path><path d="M331.98 298.97C343.17 282.33 347.48 254.58 343.39 236.01C343.13 235.7 341.08 233.2 340.83 232.89C339.51 234.95 314.03 267.19 316.81 262.84C317.32 262.84 315.86 301.75 315.55 301.75C317.19 301.47 330.33 299.24 331.98 298.97Z" id="afvaZnMtm"></path><path d="M331.98 298.97C343.17 282.33 347.48 254.58 343.39 236.01C343.13 235.7 341.08 233.2 340.83 232.89C339.51 234.95 314.03 267.19 316.81 262.84C317.32 262.84 315.86 301.75 315.55 301.75C317.19 301.47 330.33 299.24 331.98 298.97Z" id="dL42T5S9i"></path><path d="M275.92 163.9C296.39 167.46 316.34 183.43 327.87 198.61C327.87 197.79 292.48 184.5 292.48 185.33C290.82 183.19 277.57 166.04 275.92 163.9Z" id="bjhfGEggV"></path><path d="M275.92 163.9C296.39 167.46 316.34 183.43 327.87 198.61C327.87 197.79 292.48 184.5 292.48 185.33C290.82 183.19 277.57 166.04 275.92 163.9Z" id="fb1XeiapbX"></path><path d="M180.16 194.29C189.02 183.73 204.55 169.76 227.2 164.2C223.89 168.3 212.29 182.66 210.63 184.72C210.63 184.19 180.16 194.01 180.16 194.29Z" id="c7viRJBpvE"></path><path d="M232.17 184.51L226.72 225.75L221.25 267L159.54 237.86L97.83 208.71L165 196.6L232.17 184.51Z" id="fCciz1m5X"></path><path d="M180.16 194.29C189.02 183.73 204.55 169.76 227.2 164.2C223.89 168.3 212.29 182.66 210.63 184.72C210.63 184.19 180.16 194.01 180.16 194.29Z" id="b67ohVtshQ"></path><path d="M209.81 183.66L228.8 210.68" id="fG25NHjfK"></path><path d="M209.81 183.66L228.8 210.68" id="b1cFkP7Q26"></path><path d="M293.22 184.89L270.5 211.66" id="c1EHeh1XcJ"></path><path d="M293.22 184.89L270.5 211.66" id="a18ro0dq4M"></path><path d="M282.29 249.67L316.81 263.15" id="a17bfPDesP"></path><path d="M282.29 249.67L316.81 263.15" id="a1JpnmgoVG"></path><path d="M248.19 273.27L247.29 310.39" id="dTPMnlT8H"></path><path d="M248.19 273.27L247.29 310.39" id="c2e6jyv2E6"></path><path d="M215.01 248.71L180.96 259.13" id="alo4Ibl5b"></path><path d="M215.01 248.71L180.96 259.13" id="ashfAHebg"></path><path d="M181.67 294.6C180.03 296.56 210.22 321.51 213.01 320.44" id="b59IpuJbQF"></path><path d="M181.67 294.6C180.03 296.56 210.22 321.51 213.01 320.44" id="e4xgwJJtoa"></path><path d="M284.89 322.13L316.4 300.96" id="b40LXerqqd"></path><path d="M284.89 322.13L316.4 300.96" id="c844o8V4X"></path><path d="M156.87 246.31C156.87 196.12 199.2 155.43 251.41 155.43C303.62 155.43 345.94 196.12 345.94 246.31C345.94 296.5 303.62 337.19 251.41 337.19C199.2 337.19 156.87 296.5 156.87 246.31Z" id="d3mEw37pIZ"></path><path d="M156.87 246.31C156.87 196.12 199.2 155.43 251.41 155.43C303.62 155.43 345.94 196.12 345.94 246.31C345.94 296.5 303.62 337.19 251.41 337.19C199.2 337.19 156.87 296.5 156.87 246.31Z" id="a1Ug2Qx5D"></path><path d="M340.83 233.2L330.72 202.93" id="k1ppVGp0Ll"></path><path d="M340.83 233.2L330.72 202.93" id="coXkOJmmr"></path><path d="M152.21 247.75C152.21 194.39 197.15 151.14 252.59 151.14C308.02 151.14 352.96 194.39 352.96 247.75C352.96 301.1 308.02 344.36 252.59 344.36C197.15 344.36 152.21 301.1 152.21 247.75Z" id="a1ES3e9iFb"></path><linearGradient id="gradienta2dHU109iU" gradientUnits="userSpaceOnUse" x1="255.75" y1="197.15" x2="290.28" y2="370.17"><stop style="stop-color: #ab2121;stop-opacity: 0" offset="0%"></stop><stop style="stop-color: #2b0707;stop-opacity: 1" offset="100%"></stop></linearGradient><path d="M154.13 247.75C154.13 194.39 199.07 151.14 254.51 151.14C309.94 151.14 354.88 194.39 354.88 247.75C354.88 301.1 309.94 344.36 254.51 344.36C199.07 344.36 154.13 301.1 154.13 247.75Z" id="a3bfARmKIY"></path><path d="M451.2 423.29L125.94 213.09L55.32 423.29L451.2 423.29Z" id="cB4NxoldD"></path><linearGradient id="gradienta1LenRhgKX" gradientUnits="userSpaceOnUse" x1="190.29" y1="203.16" x2="190.29" y2="423.29"><stop style="stop-color: #de2d1d;stop-opacity: 1" offset="0%"></stop><stop style="stop-color: #841b11;stop-opacity: 1" offset="100%"></stop></linearGradient><path d="M451.2 423.29L125.94 213.09L55.32 423.29L451.2 423.29Z" id="fZxoMMpTN"></path><path d="M57.02 423.53L372.35 213.33L452.9 423.53L57.02 423.53Z" id="b1lmiWfHap"></path><linearGradient id="gradienta8QxjSYvB" gradientUnits="userSpaceOnUse" x1="267.25" y1="348.5" x2="258.04" y2="590.96"><stop style="stop-color: #dc4b3e;stop-opacity: 1" offset="0%"></stop><stop style="stop-color: #98261c;stop-opacity: 1" offset="100%"></stop></linearGradient><path d="M57.02 423.53L372.35 213.33L452.9 423.53L57.02 423.53Z" id="d244Uwh9Xb"></path><path d="M452.53 422.84L372.46 213.24L251.66 294.05L452.53 422.84Z" id="dq6lgVegm"></path><linearGradient id="gradienta1EFEX9Ehx" gradientUnits="userSpaceOnUse" x1="360.23" y1="412.15" x2="359.87" y2="239.09"><stop style="stop-color: #de2d1d;stop-opacity: 1" offset="0%"></stop><stop style="stop-color: #841b11;stop-opacity: 1" offset="100%"></stop></linearGradient><path d="M452.53 422.84L372.46 213.24L251.66 294.05L452.53 422.84Z" id="a1jh8sUIZZ"></path></defs><g><g><g><use xlink:href="#aetYJoAo3" opacity="1" fill="#e2b940" fill-opacity="1"></use><g><use xlink:href="#aetYJoAo3" opacity="1" fill-opacity="0" stroke="#000000" stroke-width="1" stroke-opacity="0"></use></g></g><g><use xlink:href="#c1ESqe1JXh" opacity="1" fill="#000000" fill-opacity="0"></use><g><use xlink:href="#c1ESqe1JXh" opacity="1" fill-opacity="0" stroke="#ce451b" stroke-width="2" stroke-opacity="0"></use></g></g><g><use xlink:href="#ca0LBNuo" opacity="1" fill="#e2ba40" fill-opacity="1"></use><g><use xlink:href="#ca0LBNuo" opacity="1" fill-opacity="0" stroke="#000000" stroke-width="1" stroke-opacity="0"></use></g></g><g><use xlink:href="#b6vreIspQ" opacity="1" fill="#e2ba40" fill-opacity="1"></use><g><use xlink:href="#b6vreIspQ" opacity="1" fill-opacity="0" stroke="#000000" stroke-width="1" stroke-opacity="0"></use></g></g><g><use xlink:href="#lMLdlHcfY" opacity="1" fill="#e2ba40" fill-opacity="1"></use><g><use xlink:href="#lMLdlHcfY" opacity="1" fill-opacity="0" stroke="#000000" stroke-width="1" stroke-opacity="0"></use></g></g><g><use xlink:href="#dN9twcexE" opacity="1" fill="#e2ba40" fill-opacity="1"></use><g><use xlink:href="#dN9twcexE" opacity="1" fill-opacity="0" stroke="#000000" stroke-width="1" stroke-opacity="0"></use></g></g><g><use xlink:href="#c4eceDCnN9" opacity="1" fill="#e2ba40" fill-opacity="1"></use><g><use xlink:href="#c4eceDCnN9" opacity="1" fill-opacity="0" stroke="#000000" stroke-width="1" stroke-opacity="0"></use></g></g><g><use xlink:href="#d4lzR7q1vi" opacity="1" fill="#e2ba40" fill-opacity="1"></use><g><use xlink:href="#d4lzR7q1vi" opacity="1" fill-opacity="0" stroke="#000000" stroke-width="1" stroke-opacity="0"></use></g></g><g><use xlink:href="#a42N5jzJS1" opacity="1" fill="#000000" fill-opacity="1"></use><g><use xlink:href="#a42N5jzJS1" opacity="1" fill-opacity="0" stroke="#000000" stroke-width="1" stroke-opacity="0"></use></g></g><g><use xlink:href="#dyS7OxYvI" opacity="1" fill="#000000" fill-opacity="0"></use><g><use xlink:href="#dyS7OxYvI" opacity="1" fill-opacity="0" stroke="#000000" stroke-width="1" stroke-opacity="1"></use></g></g><g><use xlink:href="#h2YjWABvx" opacity="1" fill="#000000" fill-opacity="1"></use><g><use xlink:href="#h2YjWABvx" opacity="1" fill-opacity="0" stroke="#000000" stroke-width="1" stroke-opacity="0"></use></g></g><g><use xlink:href="#bfmwjBTzf" opacity="1" fill="#000000" fill-opacity="0"></use><g><use xlink:href="#bfmwjBTzf" opacity="1" fill-opacity="0" stroke="#000000" stroke-width="1" stroke-opacity="1"></use></g></g><g><use xlink:href="#c1AxzpPPHN" opacity="1" fill="#000000" fill-opacity="1"></use><g><use xlink:href="#c1AxzpPPHN" opacity="1" fill-opacity="0" stroke="#000000" stroke-width="1" stroke-opacity="0"></use></g></g><g><use xlink:href="#brVuOM2Bu" opacity="1" fill="#000000" fill-opacity="0"></use><g><use xlink:href="#brVuOM2Bu" opacity="1" fill-opacity="0" stroke="#000000" stroke-width="1" stroke-opacity="1"></use></g></g><g><use xlink:href="#afvaZnMtm" opacity="1" fill="#000000" fill-opacity="1"></use><g><use xlink:href="#afvaZnMtm" opacity="1" fill-opacity="0" stroke="#000000" stroke-width="1" stroke-opacity="0"></use></g></g><g><use xlink:href="#dL42T5S9i" opacity="1" fill="#000000" fill-opacity="0"></use><g><use xlink:href="#dL42T5S9i" opacity="1" fill-opacity="0" stroke="#000000" stroke-width="1" stroke-opacity="1"></use></g></g><g><use xlink:href="#bjhfGEggV" opacity="1" fill="#000000" fill-opacity="1"></use><g><use xlink:href="#bjhfGEggV" opacity="1" fill-opacity="0" stroke="#000000" stroke-width="1" stroke-opacity="0"></use></g></g><g><use xlink:href="#fb1XeiapbX" opacity="1" fill="#000000" fill-opacity="0"></use><g><use xlink:href="#fb1XeiapbX" opacity="1" fill-opacity="0" stroke="#000000" stroke-width="1" stroke-opacity="1"></use></g></g><g><use xlink:href="#c7viRJBpvE" opacity="1" fill="#000000" fill-opacity="1"></use><g><use xlink:href="#c7viRJBpvE" opacity="1" fill-opacity="0" stroke="#000000" stroke-width="1" stroke-opacity="0"></use></g></g><g><use xlink:href="#fCciz1m5X" opacity="1" fill="#e2ba40" fill-opacity="1"></use><g><use xlink:href="#fCciz1m5X" opacity="1" fill-opacity="0" stroke="#000000" stroke-width="1" stroke-opacity="0"></use></g></g><g><use xlink:href="#b67ohVtshQ" opacity="1" fill="#000000" fill-opacity="0"></use><g><use xlink:href="#b67ohVtshQ" opacity="1" fill-opacity="0" stroke="#000000" stroke-width="1" stroke-opacity="1"></use></g></g><g><use xlink:href="#fG25NHjfK" opacity="1" fill="#bada55" fill-opacity="1"></use><g><use xlink:href="#fG25NHjfK" opacity="1" fill-opacity="0" stroke="#000000" stroke-width="1" stroke-opacity="0"></use></g></g><g><use xlink:href="#b1cFkP7Q26" opacity="1" fill="#000000" fill-opacity="0"></use><g><use xlink:href="#b1cFkP7Q26" opacity="1" fill-opacity="0" stroke="#000000" stroke-width="1" stroke-opacity="1"></use></g></g><g><use xlink:href="#c1EHeh1XcJ" opacity="1" fill="#000000" fill-opacity="0"></use><g><use xlink:href="#c1EHeh1XcJ" opacity="1" fill-opacity="0" stroke="#000000" stroke-width="1" stroke-opacity="0"></use></g></g><g><use xlink:href="#a18ro0dq4M" opacity="1" fill="#000000" fill-opacity="0"></use><g><use xlink:href="#a18ro0dq4M" opacity="1" fill-opacity="0" stroke="#000000" stroke-width="1" stroke-opacity="1"></use></g></g><g><use xlink:href="#a17bfPDesP" opacity="1" fill="#ffae00" fill-opacity="1"></use><g><use xlink:href="#a17bfPDesP" opacity="1" fill-opacity="0" stroke="#000000" stroke-width="1" stroke-opacity="0"></use></g></g><g><use xlink:href="#a1JpnmgoVG" opacity="1" fill="#000000" fill-opacity="0"></use><g><use xlink:href="#a1JpnmgoVG" opacity="1" fill-opacity="0" stroke="#000000" stroke-width="1" stroke-opacity="1"></use></g></g><g><use xlink:href="#dTPMnlT8H" opacity="1" fill="#000000" fill-opacity="0"></use><g><use xlink:href="#dTPMnlT8H" opacity="1" fill-opacity="0" stroke="#000000" stroke-width="1" stroke-opacity="0"></use></g></g><g><use xlink:href="#c2e6jyv2E6" opacity="1" fill="#000000" fill-opacity="0"></use><g><use xlink:href="#c2e6jyv2E6" opacity="1" fill-opacity="0" stroke="#000000" stroke-width="1" stroke-opacity="1"></use></g></g><g><use xlink:href="#alo4Ibl5b" opacity="1" fill="#000000" fill-opacity="0"></use><g><use xlink:href="#alo4Ibl5b" opacity="1" fill-opacity="0" stroke="#000000" stroke-width="1" stroke-opacity="0"></use></g></g><g><use xlink:href="#ashfAHebg" opacity="1" fill="#000000" fill-opacity="0"></use><g><use xlink:href="#ashfAHebg" opacity="1" fill-opacity="0" stroke="#000000" stroke-width="1" stroke-opacity="1"></use></g></g><g><use xlink:href="#b59IpuJbQF" opacity="1" fill="#000000" fill-opacity="0"></use><g><use xlink:href="#b59IpuJbQF" opacity="1" fill-opacity="0" stroke="#000000" stroke-width="1" stroke-opacity="0"></use></g></g><g><use xlink:href="#e4xgwJJtoa" opacity="1" fill="#000000" fill-opacity="0"></use><g><use xlink:href="#e4xgwJJtoa" opacity="1" fill-opacity="0" stroke="#000000" stroke-width="1" stroke-opacity="1"></use></g></g><g><use xlink:href="#b40LXerqqd" opacity="1" fill="#000000" fill-opacity="0"></use><g><use xlink:href="#b40LXerqqd" opacity="1" fill-opacity="0" stroke="#000000" stroke-width="1" stroke-opacity="0"></use></g></g><g><use xlink:href="#c844o8V4X" opacity="1" fill="#000000" fill-opacity="0"></use><g><use xlink:href="#c844o8V4X" opacity="1" fill-opacity="0" stroke="#000000" stroke-width="1" stroke-opacity="1"></use></g></g><g><use xlink:href="#d3mEw37pIZ" opacity="1" fill="#bfb839" fill-opacity="0"></use><g><use xlink:href="#d3mEw37pIZ" opacity="1" fill-opacity="0" stroke="#000000" stroke-width="1" stroke-opacity="0"></use></g></g><g><use xlink:href="#a1Ug2Qx5D" opacity="1" fill="#000000" fill-opacity="0"></use><g><use xlink:href="#a1Ug2Qx5D" opacity="1" fill-opacity="0" stroke="#e2b940" stroke-width="8" stroke-opacity="1"></use></g></g><g><use xlink:href="#k1ppVGp0Ll" opacity="1" fill="#000000" fill-opacity="0"></use><g><use xlink:href="#k1ppVGp0Ll" opacity="1" fill-opacity="0" stroke="#000000" stroke-width="1" stroke-opacity="0"></use></g></g><g><use xlink:href="#coXkOJmmr" opacity="1" fill="#000000" fill-opacity="0"></use><g><use xlink:href="#coXkOJmmr" opacity="1" fill-opacity="0" stroke="#000000" stroke-width="1" stroke-opacity="1"></use></g></g><g><use xlink:href="#a1ES3e9iFb" opacity="1" fill="url(#gradienta2dHU109iU)"></use><g><use xlink:href="#a1ES3e9iFb" opacity="1" fill-opacity="0" stroke="#000000" stroke-width="1" stroke-opacity="0"></use></g></g><g><use xlink:href="#a3bfARmKIY" opacity="1" fill="#000000" fill-opacity="0"></use><g><use xlink:href="#a3bfARmKIY" opacity="1" fill-opacity="0" stroke="#000000" stroke-width="4" stroke-opacity="1"></use></g></g><g><use xlink:href="#cB4NxoldD" opacity="1" fill="url(#gradienta1LenRhgKX)"></use><g><use xlink:href="#cB4NxoldD" opacity="1" fill-opacity="0" stroke="#000000" stroke-width="1" stroke-opacity="0"></use></g></g><g><use xlink:href="#fZxoMMpTN" opacity="1" fill="#000000" fill-opacity="0"></use><g><use xlink:href="#fZxoMMpTN" opacity="1" fill-opacity="0" stroke="#bada55" stroke-width="1" stroke-opacity="0"></use></g></g><g><use xlink:href="#b1lmiWfHap" opacity="1" fill="url(#gradienta8QxjSYvB)"></use><g><use xlink:href="#b1lmiWfHap" opacity="1" fill-opacity="0" stroke="#000000" stroke-width="1" stroke-opacity="0"></use></g></g><g><use xlink:href="#d244Uwh9Xb" opacity="1" fill="#000000" fill-opacity="0"></use><g><use xlink:href="#d244Uwh9Xb" opacity="1" fill-opacity="0" stroke="#bada55" stroke-width="1" stroke-opacity="0"></use></g></g><g><use xlink:href="#dq6lgVegm" opacity="1" fill="url(#gradienta1EFEX9Ehx)"></use><g><use xlink:href="#dq6lgVegm" opacity="1" fill-opacity="0" stroke="#000000" stroke-width="1" stroke-opacity="0"></use></g></g><g><use xlink:href="#a1jh8sUIZZ" opacity="1" fill="#000000" fill-opacity="0"></use><g><use xlink:href="#a1jh8sUIZZ" opacity="1" fill-opacity="0" stroke="#bada55" stroke-width="1" stroke-opacity="0"></use></g></g></g></g></svg>