<?xml version="1.0" encoding="UTF-8" standalone="no"?>
<!DOCTYPE svg PUBLIC "-//W3C//DTD SVG 1.1//EN" "http://www.w3.org/Graphics/SVG/1.1/DTD/svg11.dtd">
<svg version="1.1" xmlns="http://www.w3.org/2000/svg" xmlns:xlink="http://www.w3.org/1999/xlink" preserveAspectRatio="xMidYMid meet" viewBox="0 0 640 640" width="640" height="640"><defs><path d="" id="b1olLk23h7"></path><path d="" id="a2bR1BP8rO"></path><path d="" id="a22340agx"></path><path d="M345.61 290.1L366.11 384.87L329.09 294.76L323.01 384.42L311.99 294.71L286.01 385.62L295.45 289.94L235.11 385.7L280.61 280.78L177.75 377.44L268.47 267.85L145.48 332.7L259.87 252.04L125.12 280.66L255.39 234.41L118.07 224.86L255.34 216.19L124.8 169.1L259.72 198.59L144.86 117.19L268.23 182.84L176.88 72.66L280.29 169.99L218.68 38.55L295.08 160.92L267.4 17.18L311.59 156.25L319.73 10L328.7 156.31L372.1 17.51L345.24 161.08L420.95 39.2L360.08 170.24L462.94 73.58L372.21 183.17L495.21 118.32L380.81 198.98L515.56 170.36L385.29 216.61L522.61 226.16L385.34 234.83L515.88 281.91L380.97 252.42L495.82 333.83L372.46 268.18L463.8 378.36L360.4 281.03L414.83 386.35L345.61 290.1Z" id="aue5b7X2G"></path><path d="M321.73 317.87C273.23 317.87 233.92 277.09 233.92 226.78C233.92 176.47 273.23 135.69 321.73 135.69C370.22 135.69 409.53 176.47 409.53 226.78C409.53 277.09 370.22 317.87 321.73 317.87Z" id="ckpvzfmEc"></path><path d="M339.29 185.71L350.59 224.93L317.85 248.4L286.01 223.69L299.4 185.09L339.29 185.71Z" id="bWiqseR93"></path><path d="M255.35 233.88C254.45 234.35 254.72 271.78 255.4 271.43C254.17 271.07 244.37 268.21 243.15 267.85C238.01 259.59 228.48 227.38 236.9 203.62C236.53 204.38 254.93 234.77 255.35 233.88Z" id="a3t0ebJVtQ"></path><path d="M316.67 285.45L352.38 296.88C346.31 307.99 342.94 314.17 342.26 315.4C330.74 318.46 311.4 319.54 291.96 312.93C291.33 311.74 288.15 305.77 282.44 295.02L316.67 285.45Z" id="d8I1lPnMpD"></path><path d="M381.25 276.5C382.8 276.22 395.18 273.99 396.73 273.72C407.28 257.08 411.33 229.33 407.48 210.76C407.24 210.45 405.3 207.95 405.06 207.64C403.82 209.7 379.83 241.94 382.44 237.59C382.93 237.59 381.55 276.5 381.25 276.5Z" id="a6fwVqixj"></path><path d="M359.53 160.08C357.97 157.94 345.49 140.79 343.93 138.65C363.21 142.21 382 158.18 392.86 173.36C392.86 172.54 359.53 159.25 359.53 160.08Z" id="a2MLHHpvAl"></path><path d="M282.44 159.47C282.44 158.94 253.73 168.76 253.73 169.04C262.08 158.48 276.71 144.51 298.05 138.95C294.92 143.05 284 157.41 282.44 159.47Z" id="au6hoQUK2"></path><path d="M281.66 158.41L299.55 185.43" id="b28clN7AKH"></path><path d="M360.22 159.64L338.83 186.41" id="akjD87KWn"></path><path d="M349.93 224.42L382.44 237.9" id="f4SdS7375C"></path><path d="M317.81 248.02L316.96 285.14" id="a6sL3ngXSc"></path><path d="M286.57 223.46L254.49 233.88" id="aSw2bcLaJ"></path><path d="M255.16 269.35C253.61 271.31 282.05 296.26 284.68 295.19" id="ffaweDPaG"></path><path d="M352.38 296.88L382.06 275.71" id="beqri5Qvq"></path><path d="M320.84 311.94C271.67 311.94 231.8 271.25 231.8 221.06C231.8 170.87 271.67 130.18 320.84 130.18C370.02 130.18 409.88 170.87 409.88 221.06C409.88 271.25 370.02 311.94 320.84 311.94Z" id="haXMt72Vs"></path><path d="M405.06 207.95L395.54 177.68" id="b1s6NrZq8i"></path><path d="M322.14 317.67C269.93 317.67 227.6 274.41 227.6 221.06C227.6 167.71 269.93 124.45 322.14 124.45C374.35 124.45 416.68 167.71 416.68 221.06C416.68 274.41 374.35 317.67 322.14 317.67Z" id="aMXu3z0SQ"></path><linearGradient id="gradientfpNWiK9LH" gradientUnits="userSpaceOnUse" x1="325.13" y1="170.46" x2="357.64" y2="343.48"><stop style="stop-color: #ab2121;stop-opacity: 0" offset="0%"></stop><stop style="stop-color: #2b0707;stop-opacity: 1" offset="100%"></stop></linearGradient><path d="M128.32 453.05C128.41 452.34 128.45 451.61 128.45 450.85C128.45 450.16 128.4 449.49 128.3 448.83C128.19 448.16 128.08 447.59 127.97 447.12C129.4 447.12 130.55 446.97 131.42 446.67C132.27 446.35 132.93 445.83 133.39 445.11C133.84 444.39 134.14 443.43 134.28 442.23C134.42 441.02 134.5 439.52 134.5 437.73C134.5 436.37 134.31 435.27 133.94 434.44C133.57 433.6 133.13 433.13 132.62 433.02C133.07 432.9 133.45 432.59 133.78 432.08C134.1 431.56 134.36 430.89 134.57 430.07C134.78 429.25 134.94 428.29 135.06 427.2C135.15 426.12 135.2 424.94 135.2 423.65C135.2 422.86 135.06 422.21 134.78 421.71C134.5 421.22 134.13 420.83 133.65 420.55C133.16 420.26 132.6 420.06 131.96 419.97C131.33 419.87 130.64 419.82 129.89 419.82C129.83 419.82 129.33 419.82 129.27 419.82C129.38 419.35 129.49 418.8 129.6 418.17C129.71 417.55 129.77 416.89 129.77 416.19C129.77 415.46 129.72 414.72 129.62 413.96C129.52 413.22 129.4 412.6 129.27 412.11C129.66 412.24 130.25 412.37 131.05 412.5C131.84 412.61 132.76 412.71 133.79 412.82C134.82 412.92 135.92 413 137.08 413.05C138.23 413.11 139.36 413.14 140.46 413.14C141.72 413.14 142.91 413.11 144.04 413.05C145.15 413 146.18 412.92 147.12 412.82C148.06 412.71 148.88 412.61 149.59 412.5C150.29 412.37 150.86 412.24 151.3 412.11C151.32 412.71 151.49 413.53 151.82 414.56C152.14 415.57 152.56 416.69 153.09 417.92C153.61 419.14 154.2 420.43 154.86 421.78C155.53 423.12 156.2 424.41 156.88 425.66C157.57 426.91 158.25 428.07 158.9 429.14C159.57 430.21 160.17 431.08 160.69 431.74C161.2 431.08 161.8 430.21 162.46 429.14C163.13 428.07 163.81 426.91 164.49 425.66C165.17 424.41 165.84 423.12 166.51 421.78C167.18 420.43 167.77 419.14 168.29 417.92C168.81 416.69 169.23 415.57 169.56 414.56C169.89 413.53 170.06 412.71 170.08 412.11C170.49 412.24 171.07 412.37 171.78 412.5C172.5 412.63 173.32 412.74 174.25 412.83C175.19 412.92 176.23 413 177.35 413.05C178.49 413.11 179.68 413.14 180.91 413.14C182.03 413.14 183.16 413.11 184.31 413.05C185.46 413 186.55 412.92 187.57 412.82C188.61 412.71 189.53 412.61 190.32 412.5C191.12 412.37 191.71 412.24 192.1 412.11C191.97 412.6 191.85 413.22 191.75 413.96C191.66 414.72 191.62 415.46 191.62 416.19C191.62 416.89 191.67 417.55 191.77 418.17C191.88 418.8 191.99 419.35 192.1 419.82C192.04 419.82 191.55 419.82 191.49 419.82C190.75 419.82 190.06 419.87 189.41 419.97C188.77 420.06 188.21 420.26 187.72 420.55C187.25 420.83 186.87 421.22 186.59 421.71C186.31 422.21 186.17 422.86 186.17 423.65C186.17 424.94 186.21 426.12 186.31 427.2C186.41 428.29 186.57 429.25 186.78 430.07C187 430.89 187.27 431.56 187.59 432.08C187.93 432.59 188.31 432.9 188.75 433.02C188.24 433.13 187.8 433.6 187.45 434.44C187.07 435.27 186.89 436.37 186.89 437.73C186.89 438.71 187 439.6 187.22 440.38C187.46 441.17 187.65 441.97 187.8 442.77C187.95 443.59 188.16 444.28 188.45 444.84C188.73 445.39 189.12 445.84 189.6 446.17C190.09 446.51 190.71 446.75 191.44 446.9C192.17 447.05 193.04 447.12 194.05 447.12C193.95 447.59 193.85 448.16 193.74 448.83C193.62 449.49 193.57 450.16 193.57 450.85C193.57 451.61 193.62 452.34 193.72 453.05C193.82 453.74 193.93 454.34 194.05 454.84C193.42 454.71 192.63 454.61 191.68 454.53C190.72 454.44 189.68 454.36 188.54 454.28C187.41 454.21 186.24 454.17 185.03 454.14C183.83 454.11 182.68 454.09 181.56 454.09C180.46 454.09 179.3 454.11 178.09 454.14C176.88 454.17 175.71 454.21 174.58 454.28C173.46 454.36 172.41 454.44 171.45 454.53C170.49 454.61 169.72 454.71 169.11 454.84C169.23 454.34 169.35 453.74 169.44 453.05C169.54 452.34 169.59 451.61 169.59 450.85C169.59 450.16 169.54 449.49 169.43 448.83C169.31 448.16 169.21 447.59 169.11 447.12C171.27 447.12 172.86 446.78 173.86 446.09C174.86 445.42 175.36 444.23 175.36 442.53C175.36 441.16 175.33 439.73 175.25 438.24C175.18 436.77 175.07 435.35 174.92 433.99C174.78 432.64 174.61 431.4 174.4 430.27C174.2 429.16 173.97 428.29 173.71 427.66C173.23 427.66 172.69 427.97 172.1 428.6C171.49 429.23 170.87 430.04 170.22 431.03C169.58 432.02 168.95 433.11 168.35 434.31C167.74 435.49 167.2 436.64 166.72 437.77C166.25 438.89 165.86 439.91 165.55 440.82C165.24 441.73 165.08 442.4 165.06 442.82C164.46 442.63 163.77 442.52 163 442.46C162.24 442.41 161.46 442.38 160.69 442.38C159.91 442.38 159.13 442.41 158.37 442.46C157.61 442.52 156.93 442.63 156.32 442.82C156.3 442.42 156.13 441.78 155.82 440.89C155.53 440 155.14 439.01 154.65 437.9C154.17 436.81 153.63 435.68 153.04 434.51C152.44 433.34 151.83 432.28 151.2 431.32C150.57 430.36 149.94 429.56 149.33 428.92C148.72 428.29 148.18 427.96 147.71 427.94C147.49 428.58 147.31 429.46 147.17 430.56C147.03 431.67 146.91 432.9 146.84 434.24C146.77 435.59 146.71 437 146.69 438.48C146.67 439.95 146.65 441.38 146.65 442.77C146.65 443.61 146.78 444.31 147.04 444.88C147.29 445.44 147.67 445.88 148.17 446.21C148.68 446.54 149.33 446.77 150.12 446.92C150.9 447.05 151.84 447.12 152.93 447.12C152.82 447.59 152.7 448.16 152.59 448.83C152.48 449.49 152.43 450.16 152.43 450.85C152.43 451.61 152.48 452.34 152.57 453.05C152.67 453.74 152.79 454.34 152.93 454.84C152.3 454.71 151.5 454.61 150.53 454.53C149.58 454.44 148.54 454.36 147.42 454.28C146.28 454.21 145.11 454.17 143.93 454.14C142.73 454.11 141.57 454.09 140.46 454.09C139.36 454.09 138.2 454.11 136.99 454.14C135.79 454.17 134.62 454.21 133.48 454.28C132.35 454.36 131.31 454.44 130.34 454.53C129.37 454.61 128.57 454.71 127.97 454.84C128.1 454.34 128.22 453.74 128.32 453.05ZM200.09 446.88C200.51 446.37 200.89 445.32 201.24 443.73C201.58 442.13 201.75 439.96 201.75 437.21C201.75 435.96 201.57 435 201.2 434.34C200.83 433.68 200.3 433.24 199.6 433.02C200 432.92 200.33 432.7 200.61 432.35C200.89 431.99 201.13 431.55 201.33 431.03C201.53 430.53 201.67 429.96 201.75 429.33C201.84 428.71 201.88 428.07 201.88 427.42C201.88 425.72 201.73 424.21 201.4 422.89C201.09 421.58 200.66 420.63 200.09 420.06C200.11 420.06 200.32 420.06 200.35 420.06C201.09 420.06 201.91 419.91 202.81 419.6C203.72 419.31 204.64 418.92 205.58 418.44C206.51 417.95 207.42 417.41 208.31 416.8C209.2 416.2 209.99 415.58 210.7 414.94C211.42 414.31 212 413.7 212.44 413.1C212.89 412.5 213.13 411.97 213.17 411.52C213.52 411.69 214.05 411.87 214.78 412.06C215.52 412.25 216.39 412.43 217.4 412.59C218.41 412.77 219.55 412.89 220.8 412.99C222.04 413.09 223.35 413.14 224.71 413.14C226.08 413.14 227.4 413.09 228.65 412.99C229.9 412.89 231.03 412.77 232.04 412.59C233.06 412.43 233.93 412.25 234.66 412.06C235.39 411.87 235.93 411.69 236.27 411.52C236.31 411.97 236.55 412.5 237 413.1C237.44 413.7 238.02 414.31 238.72 414.94C239.44 415.58 240.25 416.2 241.14 416.8C242.03 417.41 242.94 417.95 243.86 418.44C244.8 418.92 245.73 419.31 246.63 419.6C247.53 419.91 248.35 420.06 249.1 420.06C249.12 420.06 249.33 420.06 249.36 420.06C248.79 420.63 248.34 421.58 248.02 422.89C247.71 424.21 247.56 425.72 247.56 427.42C247.56 428.07 247.6 428.71 247.69 429.33C247.77 429.96 247.92 430.53 248.11 431.03C248.31 431.55 248.55 431.99 248.82 432.35C249.11 432.7 249.44 432.92 249.84 433.02C249.15 433.24 248.61 433.68 248.24 434.34C247.87 435 247.69 435.96 247.69 437.21C247.69 439.96 247.86 442.13 248.21 443.73C248.55 445.32 248.94 446.37 249.36 446.88C248.18 447 246.9 447.34 245.5 447.9C244.11 448.45 242.79 449.13 241.54 449.94C240.28 450.75 239.19 451.63 238.26 452.59C237.32 453.56 236.72 454.5 236.46 455.43C236.11 455.25 235.56 455.08 234.81 454.92C234.06 454.76 233.18 454.62 232.13 454.5C231.11 454.36 229.96 454.26 228.68 454.2C227.41 454.13 226.08 454.09 224.71 454.09C223.35 454.09 222.03 454.13 220.76 454.2C219.49 454.26 218.33 454.36 217.31 454.5C216.27 454.62 215.37 454.76 214.62 454.92C213.87 455.08 213.33 455.25 212.98 455.43C212.72 454.5 212.12 453.56 211.18 452.59C210.25 451.63 209.15 450.75 207.9 449.94C206.65 449.13 205.33 448.45 203.95 447.9C202.55 447.34 201.26 447 200.09 446.88M228.13 447.73C229.18 447.35 230.09 446.63 230.87 445.57C231.64 444.51 232.25 443.05 232.69 441.19C233.14 439.35 233.36 436.95 233.36 434C233.36 431.69 233.25 429.7 233.03 428.06C232.79 426.43 232.48 425.05 232.08 423.92C231.67 422.81 231.19 421.92 230.63 421.26C230.09 420.59 229.49 420.09 228.85 419.74C228.21 419.4 227.54 419.18 226.85 419.08C226.14 418.98 225.43 418.93 224.71 418.93C224 418.93 223.29 418.98 222.6 419.08C221.9 419.18 221.24 419.4 220.59 419.74C219.95 420.09 219.35 420.59 218.79 421.26C218.25 421.92 217.77 422.81 217.36 423.92C216.97 425.05 216.65 426.43 216.42 428.06C216.19 429.7 216.08 431.69 216.08 434C216.08 436.95 216.31 439.35 216.75 441.19C217.19 443.05 217.8 444.51 218.57 445.57C219.34 446.63 220.25 447.35 221.32 447.73C222.37 448.11 223.5 448.3 224.71 448.3C225.94 448.3 227.08 448.11 228.13 447.73ZM255.84 454.84C255.97 454.34 256.08 453.74 256.18 453.05C256.27 452.34 256.33 451.61 256.33 450.85C256.33 450.16 256.27 449.49 256.16 448.83C256.06 448.16 255.96 447.59 255.84 447.12C256.82 447.12 257.68 447.05 258.42 446.92C259.15 446.77 259.77 446.54 260.28 446.21C260.77 445.88 261.14 445.44 261.39 444.88C261.65 444.31 261.78 443.61 261.78 442.77C261.78 441.1 261.73 439.67 261.63 438.48C261.53 437.3 261.39 436.31 261.21 435.54C261.02 434.77 260.78 434.19 260.5 433.78C260.21 433.38 259.89 433.13 259.52 433.02C259.91 432.9 260.25 432.72 260.54 432.47C260.82 432.21 261.06 431.76 261.24 431.14C261.43 430.51 261.57 429.65 261.65 428.55C261.74 427.46 261.78 426 261.78 424.18C261.78 423.33 261.65 422.63 261.39 422.05C261.14 421.49 260.77 421.04 260.28 420.72C259.77 420.39 259.15 420.16 258.42 420.02C257.68 419.89 256.82 419.82 255.84 419.82C255.96 419.35 256.06 418.78 256.16 418.12C256.27 417.45 256.33 416.77 256.33 416.07C256.33 415.32 256.27 414.59 256.18 413.9C256.08 413.2 255.97 412.6 255.84 412.11C256.13 412.21 256.68 412.3 257.5 412.4C258.32 412.5 259.3 412.58 260.42 412.65C261.54 412.71 262.75 412.78 264.07 412.85C265.36 412.91 266.65 412.96 267.91 413C269.17 413.06 270.35 413.1 271.45 413.12C272.55 413.13 273.46 413.14 274.18 413.14C276.24 413.14 278.34 413.12 280.45 413.1C282.57 413.07 284.54 413.01 286.39 412.93C288.23 412.86 289.84 412.75 291.2 412.61C292.57 412.47 293.54 412.3 294.11 412.11C294.12 412.5 294.28 412.92 294.57 413.36C294.87 413.81 295.25 414.26 295.73 414.71C296.19 415.15 296.72 415.57 297.3 415.99C297.88 416.41 298.48 416.77 299.08 417.09C299.68 417.4 300.26 417.66 300.83 417.86C301.39 418.06 301.9 418.16 302.33 418.18C302.17 418.47 302.04 418.87 301.92 419.4C301.8 419.94 301.69 420.54 301.61 421.19C301.52 421.84 301.45 422.53 301.4 423.25C301.37 423.97 301.35 424.66 301.35 425.31C301.35 426.06 301.37 426.8 301.4 427.52C301.43 428.24 301.47 428.92 301.53 429.55C301.61 430.19 301.71 430.77 301.83 431.29C301.97 431.82 302.13 432.25 302.33 432.59C301.56 432.7 300.76 432.88 299.94 433.14C299.12 433.4 298.31 433.71 297.51 434.07C296.69 434.44 295.92 434.85 295.2 435.3C294.49 435.76 293.87 436.25 293.35 436.76C293.68 437.17 294.07 437.56 294.52 437.92C294.96 438.28 295.42 438.58 295.89 438.83C296.37 439.08 296.86 439.27 297.36 439.41C297.86 439.54 298.34 439.61 298.77 439.61C298.77 440.8 298.97 441.86 299.38 442.78C299.77 443.72 300.34 444.51 301.09 445.15C301.83 445.79 302.73 446.28 303.8 446.61C304.86 446.95 306.07 447.12 307.42 447.12C307.22 447.59 307.09 448.16 307.03 448.83C306.96 449.49 306.93 450.16 306.93 450.85C306.93 451.61 306.98 452.34 307.06 453.05C307.15 453.74 307.29 454.34 307.47 454.84C307.26 454.76 306.84 454.67 306.21 454.58C305.58 454.49 304.85 454.41 304.04 454.35C303.22 454.28 302.38 454.22 301.52 454.16C300.63 454.12 299.85 454.09 299.16 454.09C298.33 454.09 297.42 454.11 296.43 454.13C295.43 454.15 294.44 454.18 293.48 454.23C292.53 454.27 291.65 454.35 290.86 454.45C290.07 454.55 289.46 454.68 289.04 454.84C289.09 454.44 289.13 454.05 289.15 453.67C289.17 453.28 289.17 452.89 289.17 452.52C289.17 451.71 289.11 450.94 288.99 450.19C288.85 449.45 288.63 448.77 288.34 448.15C288.03 447.52 287.63 446.97 287.15 446.51C286.68 446.05 286.09 445.69 285.39 445.43C285.58 445.09 285.76 444.64 285.91 444.07C286.07 443.49 286.15 442.69 286.15 441.67C286.15 441.11 286.05 440.58 285.85 440.08C285.65 439.59 285.31 439.17 284.83 438.82C284.34 438.46 283.69 438.17 282.88 437.97C282.08 437.76 281.07 437.65 279.86 437.65C279.32 437.65 278.69 437.67 277.96 437.72C277.22 437.75 276.43 437.82 275.61 437.92C275.37 438.46 275.19 439.1 275.05 439.83C274.93 440.57 274.87 441.55 274.87 442.77C274.87 443.61 274.96 444.31 275.16 444.88C275.37 445.44 275.72 445.88 276.2 446.21C276.67 446.54 277.28 446.77 278.04 446.92C278.79 447.05 279.71 447.12 280.81 447.12C280.69 447.59 280.58 448.16 280.47 448.83C280.36 449.49 280.3 450.16 280.3 450.85C280.3 451.61 280.35 452.34 280.45 453.05C280.55 453.74 280.67 454.34 280.81 454.84C280.17 454.71 279.37 454.61 278.41 454.53C277.46 454.44 276.41 454.36 275.27 454.28C274.15 454.21 272.98 454.17 271.79 454.14C270.6 454.11 269.44 454.09 268.33 454.09C267.22 454.09 266.06 454.11 264.86 454.14C263.65 454.17 262.48 454.21 261.35 454.28C260.21 454.36 259.17 454.44 258.2 454.53C257.23 454.61 256.45 454.71 255.84 454.84M277.82 431.67C278.82 431.79 279.92 431.84 281.12 431.84C282.29 431.84 283.35 431.68 284.27 431.35C285.19 431.03 285.96 430.58 286.59 430C287.23 429.43 287.71 428.75 288.04 427.96C288.36 427.18 288.52 426.35 288.52 425.46C288.52 424.63 288.4 423.82 288.15 423.03C287.9 422.23 287.5 421.53 286.95 420.94C286.39 420.33 285.66 419.85 284.76 419.49C283.85 419.11 282.75 418.93 281.45 418.93C280.31 418.93 279.16 419 278 419.13C276.84 419.28 275.8 419.52 274.88 419.86C274.78 420.49 274.71 421.18 274.66 421.93C274.62 422.7 274.61 423.5 274.61 424.33C274.61 425.56 274.63 426.77 274.7 427.96C274.76 429.16 274.83 430.23 274.92 431.15C275.83 431.39 276.8 431.56 277.82 431.67ZM311.73 453.05C311.83 452.34 311.88 451.61 311.88 450.85C311.88 450.16 311.82 449.49 311.71 448.83C311.61 448.16 311.51 447.59 311.39 447.12C312.37 447.12 313.23 447.05 313.97 446.92C314.7 446.77 315.32 446.54 315.83 446.21C316.32 445.88 316.69 445.44 316.94 444.88C317.2 444.31 317.33 443.61 317.33 442.77C317.33 440.96 317.28 439.46 317.18 438.24C317.08 437.04 316.94 436.06 316.76 435.32C316.57 434.58 316.34 434.04 316.05 433.7C315.77 433.35 315.44 433.13 315.07 433.02C315.47 432.9 315.81 432.69 316.09 432.38C316.37 432.08 316.61 431.58 316.8 430.88C316.98 430.19 317.12 429.27 317.2 428.11C317.29 426.95 317.33 425.47 317.33 423.65C317.33 422.86 317.19 422.21 316.91 421.71C316.62 421.22 316.24 420.83 315.76 420.55C315.28 420.26 314.73 420.06 314.09 419.97C313.44 419.87 312.75 419.82 312.01 419.82C311.95 419.82 311.46 419.82 311.39 419.82C311.51 419.35 311.61 418.8 311.71 418.17C311.82 417.55 311.88 416.89 311.88 416.19C311.88 415.46 311.83 414.72 311.73 413.96C311.63 413.22 311.52 412.6 311.39 412.11C312.23 412.38 313.44 412.62 315.01 412.83C316.57 413.04 318.61 413.14 321.12 413.14C322.74 413.14 324.32 413.05 325.87 412.88C327.42 412.71 328.84 412.53 330.16 412.31C330.16 413.25 330.37 414.34 330.81 415.55C331.24 416.75 331.83 418.02 332.57 419.35C333.3 420.67 334.14 422.02 335.09 423.4C336.03 424.77 337.02 426.1 338.06 427.39C339.09 428.67 340.12 429.88 341.16 431.01C342.19 432.15 343.15 433.14 344.06 433.99C344.96 434.83 345.75 435.5 346.43 436C347.1 436.49 347.6 436.74 347.93 436.74C347.94 436.74 347.99 436.74 347.99 436.74C348.02 436.74 348.04 436.74 348.07 436.76C348.1 436.76 348.15 436.76 348.2 436.76C348.37 436.17 348.5 435.42 348.6 434.51C348.69 433.6 348.76 432.57 348.83 431.42C348.87 430.27 348.91 429.04 348.94 427.72C348.96 426.41 348.97 425.05 348.97 423.65C348.97 422.86 348.83 422.21 348.55 421.71C348.26 421.22 347.88 420.83 347.4 420.55C346.93 420.26 346.37 420.06 345.72 419.97C345.08 419.87 344.39 419.82 343.65 419.82C343.59 419.82 343.1 419.82 343.04 419.82C343.15 419.35 343.25 418.8 343.35 418.17C343.46 417.55 343.52 416.89 343.52 416.19C343.52 415.46 343.47 414.72 343.37 413.96C343.27 413.22 343.16 412.6 343.04 412.11C343.44 412.24 344.1 412.37 344.98 412.5C345.88 412.61 346.9 412.71 348.07 412.82C349.22 412.92 350.43 413 351.72 413.05C353.02 413.11 354.29 413.14 355.52 413.14C356.79 413.14 358.07 413.11 359.37 413.05C360.65 413 361.87 412.92 363.02 412.82C364.16 412.71 365.16 412.61 366.03 412.5C366.9 412.37 367.55 412.24 368 412.11C367.86 412.6 367.74 413.22 367.64 413.96C367.54 414.72 367.5 415.46 367.5 416.19C367.5 416.89 367.55 417.55 367.66 418.17C367.77 418.8 367.89 419.35 368 419.82C367.93 419.82 367.38 419.82 367.31 419.82C366.52 419.82 365.8 419.87 365.16 419.97C364.5 420.06 363.94 420.26 363.49 420.55C363.03 420.83 362.68 421.22 362.43 421.71C362.18 422.21 362.06 422.86 362.06 423.65C362.06 425.47 362.11 426.97 362.22 428.16C362.35 429.34 362.52 430.29 362.75 431C362.98 431.72 363.25 432.23 363.56 432.52C363.88 432.81 364.24 432.98 364.64 433.02C364.27 433.21 363.94 433.48 363.65 433.85C363.37 434.23 363.13 434.83 362.95 435.64C362.76 436.45 362.62 437.53 362.52 438.86C362.42 440.22 362.37 441.95 362.37 444.07C362.37 445.48 362.44 446.78 362.58 447.96C362.7 449.14 362.86 450.19 363.04 451.09C363.23 451.99 363.43 452.75 363.65 453.37C363.86 453.99 364.06 454.48 364.23 454.84C363.68 454.68 363.08 454.55 362.41 454.45C361.74 454.35 361.05 454.27 360.35 454.23C359.66 454.18 358.98 454.15 358.33 454.13C357.68 454.11 357.12 454.09 356.64 454.09C356.12 454.09 355.53 454.11 354.88 454.13C354.22 454.15 353.55 454.18 352.87 454.23C352.18 454.27 351.49 454.35 350.79 454.45C350.1 454.55 349.46 454.68 348.88 454.84C348.88 453.84 348.57 452.67 347.93 451.31C347.32 449.94 346.51 448.51 345.5 447C344.49 445.5 343.34 443.97 342.07 442.43C340.8 440.89 339.52 439.43 338.23 438.06C336.93 436.68 335.68 435.44 334.48 434.34C333.29 433.25 332.27 432.4 331.42 431.78C331.01 432.67 330.74 434.06 330.6 435.96C330.48 437.86 330.42 440.13 330.42 442.77C330.42 443.61 330.52 444.31 330.71 444.88C330.92 445.44 331.27 445.88 331.75 446.21C332.22 446.54 332.83 446.77 333.59 446.92C334.35 447.05 335.27 447.12 336.35 447.12C336.25 447.59 336.13 448.16 336.02 448.83C335.91 449.49 335.86 450.16 335.86 450.85C335.86 451.61 335.9 452.34 336 453.05C336.1 453.74 336.22 454.34 336.35 454.84C335.73 454.71 334.93 454.61 333.96 454.53C333.01 454.44 331.96 454.36 330.82 454.28C329.7 454.21 328.54 454.17 327.33 454.14C326.15 454.11 325 454.09 323.88 454.09C322.77 454.09 321.61 454.11 320.41 454.14C319.2 454.17 318.03 454.21 316.91 454.28C315.77 454.36 314.72 454.44 313.75 454.53C312.79 454.61 312 454.71 311.39 454.84C311.52 454.34 311.63 453.74 311.73 453.05ZM373.22 453.05C373.32 452.34 373.37 451.61 373.37 450.85C373.37 450.16 373.32 449.49 373.21 448.83C373.09 448.16 372.98 447.59 372.87 447.12C373.85 447.12 374.76 447.05 375.6 446.92C376.44 446.77 377.17 446.54 377.79 446.21C378.41 445.88 378.9 445.44 379.26 444.88C379.61 444.31 379.8 443.61 379.8 442.77C379.8 441.1 379.74 439.67 379.64 438.48C379.55 437.3 379.4 436.31 379.22 435.54C379.03 434.77 378.8 434.19 378.51 433.78C378.24 433.38 377.92 433.13 377.55 433.02C377.93 432.9 378.27 432.69 378.55 432.38C378.84 432.08 379.07 431.58 379.26 430.88C379.44 430.19 379.58 429.27 379.66 428.11C379.75 426.95 379.8 425.47 379.8 423.65C379.8 422.86 379.59 422.21 379.18 421.71C378.79 421.22 378.27 420.83 377.62 420.55C376.98 420.26 376.27 420.06 375.49 419.97C374.71 419.87 373.93 419.82 373.17 419.82C373.11 419.82 372.62 419.82 372.56 419.82C372.67 419.35 372.77 418.8 372.87 418.17C372.98 417.55 373.04 416.89 373.04 416.19C373.04 415.46 372.99 414.72 372.89 413.96C372.79 413.22 372.68 412.6 372.56 412.11C372.97 412.24 373.69 412.37 374.73 412.5C375.75 412.63 376.92 412.74 378.24 412.83C379.53 412.92 380.9 413 382.34 413.05C383.77 413.11 385.11 413.14 386.35 413.14C387.61 413.14 388.9 413.11 390.24 413.05C391.57 413 392.82 412.92 393.99 412.82C395.17 412.71 396.2 412.61 397.11 412.5C398.02 412.37 398.7 412.24 399.13 412.11C399.01 412.6 398.9 413.22 398.8 413.96C398.7 414.72 398.65 415.46 398.65 416.19C398.65 416.89 398.7 417.55 398.82 418.17C398.93 418.8 399.03 419.35 399.13 419.82C399.06 419.82 398.51 419.82 398.44 419.82C397.64 419.82 396.9 419.87 396.24 419.97C395.56 420.06 394.97 420.26 394.47 420.55C393.98 420.83 393.59 421.22 393.3 421.71C393.02 422.21 392.88 422.86 392.88 423.65C392.88 425.47 392.92 426.95 393.01 428.11C393.1 429.27 393.23 430.19 393.42 430.88C393.6 431.58 393.84 432.08 394.12 432.38C394.4 432.69 394.74 432.9 395.12 433.02C394.75 433.13 394.42 433.38 394.14 433.78C393.87 434.19 393.64 434.77 393.45 435.54C393.27 436.31 393.13 437.3 393.03 438.48C392.93 439.67 392.88 441.1 392.88 442.77C392.88 443.61 393.03 444.31 393.34 444.88C393.66 445.44 394.12 445.88 394.7 446.21C395.29 446.54 396.01 446.77 396.87 446.92C397.73 447.05 398.71 447.12 399.8 447.12C399.69 447.59 399.58 448.16 399.47 448.83C399.35 449.49 399.3 450.16 399.3 450.85C399.3 451.61 399.35 452.34 399.45 453.05C399.55 453.74 399.67 454.34 399.8 454.84C399.17 454.71 398.32 454.61 397.26 454.53C396.2 454.44 395.05 454.36 393.81 454.28C392.56 454.21 391.28 454.17 389.97 454.14C388.67 454.11 387.46 454.09 386.35 454.09C385.24 454.09 384.03 454.11 382.71 454.14C381.4 454.17 380.12 454.21 378.87 454.28C377.62 454.36 376.46 454.44 375.4 454.53C374.33 454.61 373.49 454.71 372.87 454.84C373.01 454.34 373.13 453.74 373.22 453.05ZM406.23 453.05C406.33 452.34 406.38 451.61 406.38 450.85C406.38 450.16 406.32 449.49 406.21 448.83C406.11 448.16 406.01 447.59 405.89 447.12C406.87 447.12 407.73 447.05 408.47 446.92C409.2 446.77 409.82 446.54 410.33 446.21C410.82 445.88 411.19 445.44 411.44 444.88C411.7 444.31 411.83 443.61 411.83 442.77C411.83 440.96 411.78 439.46 411.69 438.24C411.59 437.04 411.44 436.06 411.26 435.32C411.07 434.58 410.83 434.04 410.55 433.7C410.27 433.35 409.94 433.13 409.57 433.02C409.96 432.9 410.3 432.69 410.59 432.38C410.87 432.08 411.11 431.58 411.29 430.88C411.48 430.19 411.62 429.27 411.7 428.11C411.79 426.95 411.83 425.47 411.83 423.65C411.83 422.86 411.69 422.21 411.41 421.71C411.12 421.22 410.74 420.83 410.25 420.55C409.78 420.26 409.23 420.06 408.58 419.97C407.94 419.87 407.25 419.82 406.51 419.82C406.45 419.82 405.96 419.82 405.89 419.82C406.01 419.35 406.11 418.8 406.21 418.17C406.32 417.55 406.38 416.89 406.38 416.19C406.38 415.46 406.33 414.72 406.23 413.96C406.13 413.22 406.02 412.6 405.89 412.11C406.73 412.38 407.94 412.62 409.51 412.83C411.07 413.04 413.11 413.14 415.62 413.14C417.24 413.14 418.82 413.05 420.37 412.88C421.92 412.71 423.34 412.53 424.66 412.31C424.66 413.25 424.87 414.34 425.31 415.55C425.74 416.75 426.33 418.02 427.07 419.35C427.8 420.67 428.64 422.02 429.59 423.4C430.53 424.77 431.52 426.1 432.56 427.39C433.59 428.67 434.62 429.88 435.66 431.01C436.69 432.15 437.65 433.14 438.56 433.99C439.46 434.83 440.25 435.5 440.93 436C441.6 436.49 442.1 436.74 442.44 436.74C442.44 436.74 442.48 436.74 442.49 436.74C442.51 436.74 442.54 436.74 442.56 436.76C442.6 436.76 442.65 436.76 442.7 436.76C442.87 436.17 443 435.42 443.1 434.51C443.19 433.6 443.26 432.57 443.33 431.42C443.37 430.27 443.41 429.04 443.44 427.72C443.46 426.41 443.47 425.05 443.47 423.65C443.47 422.86 443.33 422.21 443.05 421.71C442.76 421.22 442.38 420.83 441.9 420.55C441.43 420.26 440.87 420.06 440.23 419.97C439.58 419.87 438.89 419.82 438.15 419.82C438.09 419.82 437.6 419.82 437.54 419.82C437.65 419.35 437.75 418.8 437.85 418.17C437.96 417.55 438.02 416.89 438.02 416.19C438.02 415.46 437.97 414.72 437.87 413.96C437.77 413.22 437.66 412.6 437.54 412.11C437.94 412.24 438.59 412.37 439.48 412.5C440.38 412.61 441.4 412.71 442.56 412.82C443.72 412.92 444.93 413 446.22 413.05C447.52 413.11 448.79 413.14 450.03 413.14C451.29 413.14 452.57 413.11 453.86 413.05C455.15 413 456.37 412.92 457.52 412.82C458.66 412.71 459.66 412.61 460.53 412.5C461.39 412.37 462.05 412.24 462.5 412.11C462.36 412.6 462.24 413.22 462.14 413.96C462.04 414.72 461.99 415.46 461.99 416.19C461.99 416.89 462.05 417.55 462.16 418.17C462.27 418.8 462.38 419.35 462.5 419.82C462.43 419.82 461.88 419.82 461.81 419.82C461.02 419.82 460.3 419.87 459.65 419.97C459 420.06 458.44 420.26 457.99 420.55C457.53 420.83 457.18 421.22 456.93 421.71C456.68 422.21 456.56 422.86 456.56 423.65C456.56 425.47 456.61 426.97 456.72 428.16C456.85 429.34 457.02 430.29 457.24 431C457.48 431.72 457.75 432.23 458.06 432.52C458.38 432.81 458.74 432.98 459.13 433.02C458.77 433.21 458.44 433.48 458.15 433.85C457.87 434.23 457.63 434.83 457.45 435.64C457.26 436.45 457.12 437.53 457.02 438.86C456.92 440.22 456.87 441.95 456.87 444.07C456.87 445.48 456.94 446.78 457.08 447.96C457.2 449.14 457.36 450.19 457.54 451.09C457.73 451.99 457.93 452.75 458.15 453.37C458.36 453.99 458.56 454.48 458.73 454.84C458.18 454.68 457.58 454.55 456.91 454.45C456.24 454.35 455.56 454.27 454.85 454.23C454.16 454.18 453.48 454.15 452.83 454.13C452.18 454.11 451.62 454.09 451.14 454.09C450.62 454.09 450.03 454.11 449.37 454.13C448.72 454.15 448.05 454.18 447.37 454.23C446.68 454.27 445.99 454.35 445.29 454.45C444.6 454.55 443.96 454.68 443.38 454.84C443.38 453.84 443.07 452.67 442.44 451.31C441.82 449.94 441 448.51 440 447C438.99 445.5 437.84 443.97 436.57 442.43C435.3 440.89 434.02 439.43 432.73 438.06C431.43 436.68 430.18 435.44 428.98 434.34C427.79 433.25 426.77 432.4 425.92 431.78C425.51 432.67 425.24 434.06 425.1 435.96C424.98 437.86 424.91 440.13 424.91 442.77C424.91 443.61 425.01 444.31 425.21 444.88C425.42 445.44 425.77 445.88 426.25 446.21C426.72 446.54 427.34 446.77 428.09 446.92C428.84 447.05 429.76 447.12 430.85 447.12C430.74 447.59 430.63 448.16 430.52 448.83C430.41 449.49 430.35 450.16 430.35 450.85C430.35 451.61 430.4 452.34 430.5 453.05C430.6 453.74 430.72 454.34 430.85 454.84C430.23 454.71 429.42 454.61 428.46 454.53C427.51 454.44 426.46 454.36 425.32 454.28C424.2 454.21 423.03 454.17 421.83 454.14C420.65 454.11 419.5 454.09 418.39 454.09C417.27 454.09 416.11 454.11 414.91 454.14C413.7 454.17 412.53 454.21 411.41 454.28C410.27 454.36 409.22 454.44 408.25 454.53C407.29 454.61 406.5 454.71 405.89 454.84C406.02 454.34 406.13 453.74 406.23 453.05ZM468.19 443.73C468.54 442.13 468.71 439.96 468.71 437.21C468.71 435.96 468.53 435 468.17 434.34C467.8 433.68 467.26 433.24 466.55 433.02C466.95 432.92 467.29 432.7 467.58 432.35C467.86 431.99 468.1 431.55 468.3 431.03C468.48 430.53 468.62 429.96 468.71 429.33C468.8 428.71 468.84 428.07 468.84 427.42C468.84 425.72 468.68 424.21 468.37 422.89C468.05 421.58 467.61 420.63 467.06 420.06C467.08 420.06 467.29 420.06 467.32 420.06C468.06 420.06 468.89 419.91 469.8 419.6C470.73 419.31 471.67 418.92 472.62 418.44C473.59 417.95 474.53 417.41 475.44 416.8C476.35 416.2 477.16 415.58 477.89 414.94C478.62 414.31 479.23 413.7 479.69 413.1C480.16 412.5 480.42 411.97 480.46 411.52C480.8 411.69 481.24 411.87 481.77 412.06C482.32 412.25 482.98 412.43 483.76 412.59C484.54 412.77 485.47 412.89 486.54 412.99C487.62 413.09 488.9 413.14 490.38 413.14C491.1 413.14 491.84 413.1 492.61 413.02C493.38 412.94 494.13 412.83 494.85 412.68C495.59 412.53 496.26 412.36 496.9 412.16C497.53 411.97 498.05 411.75 498.47 411.52C498.73 412.26 499.11 412.91 499.59 413.47C500.08 414.05 500.65 414.51 501.28 414.86C501.8 414.43 502.17 413.96 502.41 413.46C502.65 412.95 502.83 412.5 502.93 412.11C503.13 412.21 503.5 412.29 504.04 412.36C504.59 412.43 505.21 412.48 505.92 412.53C506.62 412.58 507.37 412.63 508.14 412.65C508.91 412.68 509.62 412.7 510.28 412.7C511.92 412.7 513.53 412.5 515.1 412.11C515.07 412.26 515 412.57 514.9 413.02C514.8 413.48 514.71 414 514.62 414.59C514.53 415.18 514.45 415.82 514.38 416.5C514.32 417.17 514.29 417.81 514.29 418.42C514.29 419.69 514.32 420.89 514.38 422.02C514.45 423.14 514.53 424.16 514.6 425.07C514.68 425.98 514.76 426.77 514.86 427.42C514.96 428.07 515.04 428.56 515.1 428.87C514.06 428.71 513.06 428.6 512.08 428.53C511.09 428.47 510.13 428.43 509.2 428.43C508.55 428.43 507.83 428.44 507.07 428.45C506.29 428.47 505.52 428.5 504.77 428.53C504 428.56 503.27 428.6 502.57 428.67C501.88 428.73 501.28 428.79 500.76 428.87C500.76 427.52 500.61 426.24 500.33 425.04C500.05 423.83 499.59 422.78 498.98 421.88C498.36 420.98 497.55 420.27 496.56 419.74C495.57 419.2 494.38 418.93 492.98 418.93C492.23 418.93 491.47 418.99 490.7 419.11C489.94 419.23 489.22 419.47 488.53 419.84C487.85 420.2 487.21 420.72 486.62 421.39C486.01 422.07 485.5 422.96 485.08 424.08C484.66 425.19 484.31 426.56 484.05 428.18C483.81 429.81 483.68 431.75 483.68 434C483.68 436.87 483.96 439.22 484.5 441.03C485.04 442.84 485.78 444.26 486.69 445.3C487.61 446.33 488.66 447.04 489.84 447.43C491.05 447.82 492.31 448.01 493.63 448.01C494.94 448.01 496.02 447.9 496.86 447.66C497.69 447.43 498.34 447.12 498.83 446.73C499.31 446.36 499.64 445.93 499.81 445.45C499.99 444.97 500.07 444.47 500.07 443.95C500.07 443.51 500.01 443.14 499.89 442.83C499.76 442.53 499.53 442.28 499.2 442.07C498.86 441.88 498.39 441.73 497.79 441.63C497.17 441.53 496.38 441.48 495.43 441.48C495.6 440.93 495.73 440.35 495.8 439.76C495.88 439.17 495.91 438.42 495.91 437.53C495.91 436.85 495.87 436.24 495.78 435.71C495.69 435.19 495.57 434.69 495.43 434.21C496.61 434.49 497.88 434.68 499.25 434.8C500.61 434.9 501.95 434.95 503.26 434.95C504.38 434.95 505.56 434.94 506.83 434.92C508.1 434.88 509.34 434.83 510.56 434.76C511.76 434.7 512.87 434.62 513.9 434.52C514.92 434.44 515.73 434.33 516.31 434.21C515.9 435.16 515.56 436.21 515.29 437.35C515.02 438.48 514.8 439.65 514.64 440.86C514.47 442.06 514.34 443.27 514.27 444.49C514.19 445.69 514.16 446.85 514.16 447.95C514.16 449.56 514.22 450.98 514.34 452.2C514.45 453.43 514.6 454.31 514.77 454.84C514.24 454.84 513.57 454.72 512.77 454.5C511.97 454.27 511.15 453.98 510.3 453.62C509.43 453.26 508.59 452.86 507.77 452.41C506.96 451.94 506.26 451.49 505.67 451.04C505.1 451.06 504.47 451.23 503.78 451.56C503.09 451.89 502.44 452.28 501.83 452.73C501.22 453.19 500.71 453.67 500.31 454.16C499.9 454.66 499.7 455.08 499.7 455.43C499.33 455.25 498.8 455.08 498.1 454.92C497.41 454.76 496.65 454.62 495.84 454.5C495.02 454.36 494.21 454.26 493.41 454.2C492.6 454.13 491.92 454.09 491.35 454.09C488.39 454.09 485.98 454.23 484.13 454.5C482.27 454.77 480.99 455.08 480.27 455.43C480.1 454.82 479.76 454.2 479.25 453.55C478.75 452.9 478.15 452.28 477.43 451.68C476.71 451.07 475.91 450.5 475.03 449.96C474.17 449.4 473.27 448.92 472.35 448.49C471.43 448.05 470.51 447.7 469.6 447.43C468.68 447.14 467.83 446.96 467.06 446.88C467.47 446.37 467.84 445.32 468.19 443.73Z" id="b6qv55jrO7"></path><path d="M129.62 493.83C129.67 493.56 129.71 493.23 129.74 492.86C129.79 492.5 129.82 492.1 129.85 491.68C129.88 491.26 129.89 490.84 129.89 490.44C129.89 489.36 129.85 488.41 129.77 487.6C129.69 486.78 129.6 486.22 129.52 485.92C130.23 486.04 130.91 486.12 131.54 486.15C132.17 486.2 132.79 486.22 133.4 486.22C134.5 486.22 135.48 486.12 136.34 485.92C136.34 486.5 136.47 487.04 136.74 487.55C137.01 488.06 137.37 488.51 137.84 488.89C138.31 489.27 138.88 489.56 139.55 489.77C140.2 489.99 140.94 490.11 141.74 490.11C142.28 490.11 142.83 490.08 143.38 490.02C143.94 489.96 144.45 489.83 144.89 489.64C145.34 489.45 145.7 489.17 145.97 488.81C146.25 488.44 146.39 487.96 146.39 487.35C146.39 486.91 146.27 486.45 146.01 485.98C145.75 485.5 145.34 485.08 144.79 484.7C144.25 484.32 143.54 484.01 142.67 483.76C141.82 483.52 140.78 483.4 139.57 483.4C138.54 483.4 137.51 483.43 136.5 483.49C135.49 483.54 134.39 483.73 133.2 484.04C133.18 483.65 133.04 483.22 132.79 482.75C132.55 482.29 132.24 481.85 131.85 481.44C131.47 481.03 131.03 480.69 130.53 480.41C130.03 480.13 129.53 479.99 129.01 479.99C128.99 479.99 128.84 479.99 128.82 479.99C128.97 479.92 129.1 479.77 129.22 479.54C129.33 479.31 129.42 479.02 129.49 478.68C129.56 478.35 129.61 477.97 129.65 477.56C129.69 477.15 129.71 476.74 129.71 476.31C129.71 475.23 129.66 474.26 129.55 473.41C129.44 472.55 129.29 471.94 129.09 471.58C129.1 471.58 129.2 471.58 129.22 471.58C129.58 471.58 129.99 471.48 130.43 471.28C130.87 471.09 131.31 470.84 131.75 470.52C132.2 470.2 132.65 469.84 133.07 469.44C133.5 469.05 133.88 468.65 134.21 468.22C134.55 467.81 134.82 467.41 135.03 467.02C135.25 466.62 135.37 466.27 135.4 465.98C135.58 466.09 135.82 466.21 136.11 466.33C136.39 466.46 136.74 466.58 137.16 466.69C137.58 466.8 138.08 466.88 138.66 466.94C139.25 467.01 139.93 467.04 140.73 467.04C141.2 467.04 141.69 467.02 142.21 466.96C142.73 466.91 143.23 466.84 143.73 466.74C144.22 466.65 144.68 466.53 145.1 466.4C145.53 466.27 145.88 466.13 146.15 465.98C146.25 466.38 146.42 466.79 146.65 467.21C146.9 467.63 147.18 467.99 147.51 468.29C147.83 468 148.07 467.68 148.22 467.32C148.37 466.96 148.48 466.64 148.54 466.36C148.74 466.49 149.02 466.58 149.4 466.64C149.77 466.72 150.26 466.75 150.86 466.75C151.79 466.75 152.65 466.62 153.45 466.36C153.42 466.47 153.38 466.67 153.35 466.96C153.3 467.26 153.27 467.61 153.23 467.99C153.19 468.38 153.16 468.8 153.13 469.24C153.11 469.69 153.1 470.11 153.1 470.51C153.1 471.63 153.14 472.63 153.22 473.47C153.3 474.32 153.38 474.91 153.45 475.22C152.8 475.11 152.2 475.02 151.63 474.98C151.06 474.95 150.5 474.93 149.93 474.93C148.82 474.93 147.84 475.02 147 475.22C147 474.63 146.86 474.06 146.6 473.53C146.33 473 145.97 472.53 145.49 472.12C145.02 471.73 144.45 471.41 143.79 471.18C143.14 470.95 142.4 470.84 141.59 470.84C141.04 470.84 140.49 470.88 139.94 470.96C139.39 471.05 138.89 471.2 138.45 471.41C138 471.63 137.63 471.91 137.36 472.26C137.08 472.61 136.94 473.06 136.94 473.61C136.94 474.06 137.06 474.5 137.28 474.93C137.5 475.35 137.86 475.74 138.36 476.08C138.87 476.42 139.53 476.69 140.35 476.9C141.18 477.1 142.19 477.21 143.41 477.21C143.91 477.21 144.46 477.2 145.05 477.2C145.64 477.19 146.23 477.17 146.82 477.14C147.39 477.1 147.93 477.05 148.45 477C148.97 476.93 149.42 476.84 149.79 476.72C149.84 477.11 149.99 477.55 150.26 478.04C150.54 478.53 150.9 479 151.32 479.43C151.74 479.87 152.22 480.23 152.75 480.53C153.27 480.82 153.8 480.96 154.33 480.96C154.35 480.96 154.5 480.96 154.52 480.96C154.37 481.03 154.24 481.18 154.12 481.41C154.01 481.64 153.92 481.93 153.84 482.27C153.78 482.61 153.73 482.98 153.68 483.38C153.65 483.79 153.63 484.21 153.63 484.64C153.63 485.17 153.64 485.68 153.67 486.18C153.69 486.67 153.73 487.12 153.79 487.54C153.85 487.95 153.92 488.32 154 488.64C154.07 488.96 154.15 489.2 154.25 489.36C154.24 489.36 154.14 489.36 154.12 489.36C153.76 489.36 153.35 489.46 152.91 489.64C152.47 489.83 152.03 490.07 151.58 490.37C151.12 490.67 150.67 491.02 150.24 491.4C149.82 491.78 149.44 492.18 149.09 492.59C148.76 492.98 148.48 493.38 148.28 493.76C148.07 494.14 147.95 494.48 147.94 494.78C147.76 494.66 147.52 494.55 147.23 494.45C146.95 494.34 146.6 494.25 146.18 494.17C145.76 494.08 145.25 494.02 144.67 493.97C144.09 493.93 143.41 493.91 142.61 493.91C142.15 493.91 141.67 493.92 141.19 493.95C140.7 493.99 140.24 494.04 139.79 494.11C139.34 494.18 138.93 494.27 138.55 494.38C138.16 494.49 137.83 494.62 137.57 494.78C137.45 494.38 137.28 493.99 137.05 493.62C136.82 493.24 136.53 492.92 136.2 492.64C135.87 492.9 135.63 493.19 135.48 493.51C135.34 493.82 135.24 494.12 135.17 494.39C135.07 494.34 134.91 494.28 134.69 494.22C134.46 494.17 134.21 494.11 133.94 494.07C133.66 494.03 133.37 493.99 133.05 493.95C132.74 493.92 132.43 493.91 132.13 493.91C131.63 493.91 131.15 493.95 130.69 494.04C130.22 494.13 129.83 494.25 129.52 494.39C129.55 494.29 129.58 494.1 129.62 493.83ZM157.46 489.18C157.71 488.84 157.93 488.15 158.13 487.1C158.33 486.06 158.43 484.63 158.43 482.83C158.43 482.01 158.32 481.39 158.11 480.95C157.89 480.51 157.58 480.23 157.18 480.08C157.41 480.02 157.61 479.87 157.77 479.64C157.93 479.41 158.07 479.12 158.18 478.78C158.3 478.45 158.38 478.07 158.43 477.66C158.48 477.25 158.5 476.84 158.5 476.41C158.5 475.29 158.41 474.31 158.23 473.44C158.05 472.58 157.79 471.96 157.46 471.58C157.48 471.58 157.6 471.58 157.61 471.58C158.04 471.58 158.52 471.48 159.04 471.28C159.57 471.09 160.1 470.84 160.64 470.52C161.18 470.2 161.71 469.84 162.22 469.44C162.74 469.05 163.2 468.65 163.61 468.22C164.03 467.81 164.36 467.41 164.62 467.02C164.88 466.62 165.02 466.27 165.04 465.98C165.24 466.09 165.55 466.21 165.97 466.33C166.4 466.46 166.9 466.58 167.49 466.69C168.08 466.8 168.73 466.88 169.46 466.94C170.18 467.01 170.94 467.04 171.73 467.04C172.52 467.04 173.28 467.01 174 466.94C174.73 466.88 175.39 466.8 175.97 466.69C176.56 466.58 177.07 466.46 177.49 466.33C177.91 466.21 178.22 466.09 178.42 465.98C178.45 466.27 178.59 466.62 178.84 467.02C179.1 467.41 179.43 467.81 179.84 468.22C180.26 468.65 180.72 469.05 181.24 469.44C181.76 469.84 182.28 470.2 182.82 470.52C183.37 470.84 183.9 471.09 184.42 471.28C184.95 471.48 185.42 471.58 185.85 471.58C185.87 471.58 185.99 471.58 186 471.58C185.68 471.96 185.42 472.58 185.23 473.44C185.05 474.31 184.96 475.29 184.96 476.41C184.96 476.84 184.99 477.25 185.04 477.66C185.08 478.07 185.17 478.45 185.28 478.78C185.4 479.12 185.53 479.41 185.69 479.64C185.86 479.87 186.05 480.02 186.28 480.08C185.88 480.23 185.57 480.51 185.36 480.95C185.14 481.39 185.04 482.01 185.04 482.83C185.04 484.63 185.13 486.06 185.34 487.1C185.54 488.15 185.76 488.84 186 489.18C185.32 489.25 184.58 489.47 183.77 489.84C182.96 490.2 182.2 490.65 181.48 491.18C180.75 491.71 180.11 492.29 179.57 492.92C179.03 493.56 178.68 494.17 178.53 494.78C178.33 494.66 178.01 494.55 177.58 494.45C177.14 494.34 176.63 494.25 176.03 494.17C175.43 494.08 174.77 494.02 174.03 493.97C173.29 493.93 172.52 493.91 171.73 493.91C170.94 493.91 170.18 493.93 169.44 493.97C168.7 494.02 168.03 494.08 167.44 494.17C166.83 494.25 166.31 494.34 165.88 494.45C165.45 494.55 165.13 494.66 164.93 494.78C164.78 494.17 164.44 493.56 163.89 492.92C163.34 492.29 162.71 491.71 161.99 491.18C161.26 490.65 160.5 490.2 159.7 489.84C158.89 489.47 158.14 489.25 157.46 489.18M173.71 489.73C174.31 489.48 174.84 489.01 175.3 488.31C175.74 487.62 176.09 486.66 176.35 485.44C176.61 484.24 176.74 482.66 176.74 480.73C176.74 479.21 176.67 477.91 176.54 476.83C176.41 475.76 176.23 474.85 175.99 474.12C175.76 473.38 175.48 472.8 175.15 472.37C174.84 471.93 174.5 471.6 174.12 471.37C173.75 471.15 173.37 471 172.96 470.94C172.55 470.87 172.14 470.84 171.73 470.84C171.31 470.84 170.9 470.87 170.5 470.94C170.1 471 169.71 471.15 169.34 471.37C168.97 471.6 168.62 471.93 168.3 472.37C167.98 472.8 167.71 473.38 167.47 474.12C167.24 474.85 167.06 475.76 166.92 476.83C166.79 477.91 166.73 479.21 166.73 480.73C166.73 482.66 166.86 484.24 167.12 485.44C167.37 486.66 167.72 487.62 168.17 488.31C168.61 489.01 169.14 489.48 169.76 489.73C170.37 489.98 171.02 490.11 171.73 490.11C172.43 490.11 173.1 489.98 173.71 489.73ZM190.53 487.1C190.73 486.06 190.83 484.63 190.83 482.83C190.83 482.01 190.73 481.39 190.51 480.95C190.3 480.51 189.99 480.23 189.59 480.08C189.82 480.02 190.01 479.87 190.17 479.64C190.33 479.41 190.47 479.12 190.59 478.78C190.7 478.45 190.79 478.07 190.83 477.66C190.88 477.25 190.91 476.84 190.91 476.41C190.91 475.29 190.82 474.31 190.64 473.44C190.45 472.58 190.2 471.96 189.87 471.58C189.88 471.58 190 471.58 190.02 471.58C190.43 471.58 190.9 471.48 191.42 471.28C191.94 471.09 192.46 470.84 192.98 470.52C193.51 470.2 194.03 469.84 194.53 469.44C195.03 469.05 195.47 468.65 195.86 468.22C196.27 467.81 196.59 467.41 196.84 467.02C197.1 466.62 197.24 466.27 197.26 465.98C197.68 466.21 198.41 466.44 199.45 466.69C200.48 466.92 201.85 467.04 203.55 467.04C203.95 467.04 204.38 467.02 204.84 466.96C205.3 466.91 205.75 466.84 206.19 466.74C206.62 466.65 207.03 466.53 207.41 466.4C207.78 466.27 208.09 466.13 208.33 465.98C208.46 466.38 208.64 466.79 208.89 467.21C209.15 467.63 209.46 467.99 209.83 468.29C210.18 468 210.43 467.68 210.59 467.32C210.75 466.96 210.86 466.64 210.92 466.36C211.03 466.43 211.21 466.49 211.45 466.53C211.69 466.58 211.96 466.61 212.28 466.64C212.6 466.68 212.94 466.7 213.3 466.72C213.67 466.74 214.04 466.75 214.42 466.75C214.64 466.75 214.91 466.74 215.22 466.72C215.52 466.7 215.82 466.68 216.13 466.64C216.44 466.61 216.74 466.58 217.02 466.53C217.32 466.49 217.57 466.43 217.79 466.36C217.75 466.47 217.71 466.67 217.66 466.96C217.6 467.26 217.54 467.61 217.49 467.99C217.44 468.38 217.4 468.8 217.37 469.24C217.33 469.69 217.31 470.11 217.31 470.51C217.31 471.34 217.33 472.13 217.37 472.86C217.4 473.6 217.44 474.27 217.48 474.87C217.53 475.47 217.58 475.98 217.63 476.41C217.69 476.84 217.74 477.15 217.79 477.36C217.48 477.31 217.15 477.26 216.81 477.23C216.46 477.2 216.11 477.17 215.75 477.15C215.39 477.12 215.04 477.1 214.7 477.08C214.36 477.08 214.06 477.07 213.8 477.07C212.26 477.07 210.88 477.17 209.66 477.36C209.66 476.47 209.54 475.64 209.31 474.85C209.08 474.06 208.76 473.37 208.33 472.78C207.9 472.19 207.38 471.72 206.74 471.37C206.11 471.02 205.4 470.84 204.59 470.84C204.15 470.84 203.71 470.88 203.27 470.96C202.83 471.03 202.4 471.19 201.99 471.44C201.58 471.67 201.2 472.01 200.85 472.46C200.51 472.9 200.21 473.48 199.95 474.22C199.69 474.95 199.49 475.84 199.35 476.91C199.2 477.98 199.13 479.25 199.13 480.73C199.13 482.61 199.27 484.16 199.55 485.37C199.84 486.59 200.23 487.54 200.71 488.25C201.21 488.94 201.78 489.43 202.45 489.69C203.1 489.97 203.82 490.11 204.59 490.11C205.36 490.11 206.04 489.94 206.63 489.61C207.21 489.28 207.7 488.83 208.1 488.25C208.49 487.65 208.79 486.96 208.99 486.15C209.19 485.35 209.29 484.47 209.29 483.51C209.29 483.4 209.29 483.28 209.28 483.16C209.28 483.05 209.28 482.93 209.28 482.81C209.7 482.9 210.09 482.97 210.45 483.04C210.8 483.11 211.15 483.16 211.48 483.2C211.83 483.24 212.19 483.27 212.56 483.27C212.93 483.29 213.34 483.3 213.81 483.3C214.62 483.3 215.37 483.25 216.06 483.16C216.75 483.07 217.33 482.95 217.79 482.81C217.71 482.96 217.64 483.2 217.58 483.51C217.52 483.83 217.47 484.18 217.43 484.58C217.39 484.98 217.35 485.41 217.33 485.85C217.32 486.3 217.31 486.74 217.31 487.17C217.31 487.69 217.36 488.24 217.45 488.81C217.54 489.38 217.66 489.92 217.79 490.44C216.67 490.45 215.7 490.63 214.85 490.98C214 491.32 213.29 491.72 212.71 492.18C212.12 492.64 211.66 493.1 211.32 493.55C210.99 494.01 210.78 494.36 210.69 494.59C210.43 494.49 210.12 494.39 209.77 494.3C209.41 494.22 209 494.15 208.53 494.09C208.06 494.04 207.51 493.99 206.89 493.95C206.28 493.92 205.57 493.91 204.78 493.91C203.93 493.91 203.1 493.93 202.27 493.97C201.45 494.02 200.69 494.08 200 494.17C199.31 494.25 198.71 494.34 198.21 494.45C197.7 494.55 197.34 494.66 197.15 494.78C196.99 494.18 196.66 493.56 196.13 492.93C195.61 492.29 195 491.71 194.3 491.18C193.6 490.65 192.86 490.2 192.07 489.84C191.28 489.47 190.55 489.25 189.87 489.18C190.11 488.84 190.33 488.15 190.53 487.1ZM222.79 487.1C222.99 486.06 223.09 484.63 223.09 482.83C223.09 482.01 222.98 481.39 222.77 480.95C222.55 480.51 222.24 480.23 221.84 480.08C222.07 480.02 222.27 479.87 222.42 479.64C222.59 479.41 222.73 479.12 222.84 478.78C222.96 478.45 223.04 478.07 223.09 477.66C223.14 477.25 223.16 476.84 223.16 476.41C223.16 475.29 223.07 474.31 222.9 473.44C222.71 472.58 222.45 471.96 222.12 471.58C222.14 471.58 222.26 471.58 222.27 471.58C222.69 471.58 223.15 471.48 223.67 471.28C224.19 471.09 224.72 470.84 225.24 470.52C225.77 470.2 226.28 469.84 226.78 469.44C227.28 469.05 227.72 468.65 228.12 468.22C228.52 467.81 228.85 467.41 229.1 467.02C229.35 466.62 229.49 466.27 229.52 465.98C229.93 466.21 230.66 466.44 231.7 466.69C232.74 466.92 234.11 467.04 235.81 467.04C236.21 467.04 236.64 467.02 237.1 466.96C237.56 466.91 238.01 466.84 238.44 466.74C238.88 466.65 239.28 466.53 239.67 466.4C240.04 466.27 240.35 466.13 240.59 465.98C240.71 466.38 240.9 466.79 241.15 467.21C241.41 467.63 241.72 467.99 242.08 468.29C242.43 468 242.69 467.68 242.85 467.32C243 466.96 243.12 466.64 243.18 466.36C243.29 466.43 243.46 466.49 243.71 466.53C243.94 466.58 244.22 466.61 244.53 466.64C244.85 466.68 245.19 466.7 245.56 466.72C245.92 466.74 246.29 466.75 246.67 466.75C246.9 466.75 247.16 466.74 247.47 466.72C247.77 466.7 248.07 466.68 248.38 466.64C248.69 466.61 248.99 466.58 249.27 466.53C249.57 466.49 249.82 466.43 250.04 466.36C250.01 466.47 249.97 466.67 249.91 466.96C249.85 467.26 249.8 467.61 249.75 467.99C249.7 468.38 249.66 468.8 249.62 469.24C249.59 469.69 249.57 470.11 249.57 470.51C249.57 471.34 249.59 472.13 249.62 472.86C249.66 473.6 249.69 474.27 249.74 474.87C249.79 475.47 249.84 475.98 249.89 476.41C249.95 476.84 250 477.15 250.04 477.36C249.73 477.31 249.4 477.26 249.06 477.23C248.72 477.2 248.37 477.17 248.01 477.15C247.65 477.12 247.3 477.1 246.95 477.08C246.62 477.08 246.32 477.07 246.05 477.07C244.51 477.07 243.13 477.17 241.91 477.36C241.91 476.47 241.8 475.64 241.57 474.85C241.34 474.06 241.01 473.37 240.59 472.78C240.16 472.19 239.63 471.72 239 471.37C238.37 471.02 237.65 470.84 236.85 470.84C236.41 470.84 235.96 470.88 235.53 470.96C235.08 471.03 234.66 471.19 234.25 471.44C233.84 471.67 233.46 472.01 233.11 472.46C232.76 472.9 232.46 473.48 232.2 474.22C231.95 474.95 231.75 475.84 231.6 476.91C231.46 477.98 231.39 479.25 231.39 480.73C231.39 482.61 231.53 484.16 231.81 485.37C232.09 486.59 232.48 487.54 232.97 488.25C233.46 488.94 234.04 489.43 234.7 489.69C235.36 489.97 236.08 490.11 236.85 490.11C237.62 490.11 238.29 489.94 238.88 489.61C239.46 489.28 239.95 488.83 240.35 488.25C240.75 487.65 241.05 486.96 241.25 486.15C241.44 485.35 241.55 484.47 241.55 483.51C241.55 483.4 241.54 483.28 241.54 483.16C241.54 483.05 241.54 482.93 241.54 482.81C241.96 482.9 242.35 482.97 242.71 483.04C243.06 483.11 243.4 483.16 243.74 483.2C244.08 483.24 244.44 483.27 244.81 483.27C245.18 483.29 245.59 483.3 246.06 483.3C246.87 483.3 247.62 483.25 248.32 483.16C249.01 483.07 249.58 482.95 250.04 482.81C249.96 482.96 249.89 483.2 249.83 483.51C249.78 483.83 249.73 484.18 249.68 484.58C249.64 484.98 249.61 485.41 249.59 485.85C249.57 486.3 249.57 486.74 249.57 487.17C249.57 487.69 249.61 488.24 249.71 488.81C249.8 489.38 249.91 489.92 250.04 490.44C248.93 490.45 247.95 490.63 247.1 490.98C246.26 491.32 245.54 491.72 244.96 492.18C244.38 492.64 243.92 493.1 243.58 493.55C243.25 494.01 243.04 494.36 242.94 494.59C242.69 494.49 242.38 494.39 242.02 494.3C241.67 494.22 241.26 494.15 240.78 494.09C240.31 494.04 239.76 493.99 239.15 493.95C238.53 493.92 237.83 493.91 237.03 493.91C236.19 493.91 235.35 493.93 234.53 493.97C233.7 494.02 232.94 494.08 232.26 494.17C231.56 494.25 230.97 494.34 230.46 494.45C229.95 494.55 229.6 494.66 229.4 494.78C229.25 494.18 228.91 493.56 228.39 492.93C227.87 492.29 227.26 491.71 226.56 491.18C225.86 490.65 225.12 490.2 224.32 489.84C223.54 489.47 222.8 489.25 222.12 489.18C222.36 488.84 222.59 488.15 222.79 487.1ZM254.46 493.22C254.52 492.75 254.55 492.27 254.55 491.78C254.55 491.33 254.51 490.89 254.45 490.45C254.39 490.01 254.33 489.64 254.27 489.33C254.83 489.33 255.33 489.29 255.76 489.2C256.19 489.1 256.54 488.95 256.84 488.73C257.12 488.52 257.34 488.23 257.48 487.86C257.63 487.49 257.71 487.03 257.71 486.47C257.71 485.38 257.68 484.44 257.62 483.66C257.56 482.89 257.48 482.24 257.37 481.73C257.27 481.23 257.13 480.85 256.97 480.58C256.8 480.32 256.61 480.15 256.4 480.08C256.63 480 256.82 479.88 256.99 479.72C257.15 479.55 257.29 479.26 257.4 478.84C257.5 478.44 257.58 477.87 257.63 477.15C257.68 476.44 257.71 475.48 257.71 474.28C257.71 473.73 257.63 473.26 257.48 472.89C257.34 472.52 257.12 472.23 256.84 472.01C256.54 471.8 256.19 471.65 255.76 471.56C255.33 471.47 254.83 471.43 254.27 471.43C254.33 471.12 254.39 470.74 254.45 470.31C254.51 469.87 254.55 469.42 254.55 468.97C254.55 468.47 254.52 468 254.46 467.54C254.4 467.08 254.34 466.69 254.27 466.36C254.52 466.43 254.95 466.49 255.57 466.54C256.19 466.6 256.9 466.66 257.72 466.71C258.54 466.76 259.42 466.81 260.35 466.85C261.29 466.89 262.2 466.92 263.08 466.95C263.97 466.99 264.79 467.02 265.53 467.03C266.29 467.04 266.89 467.04 267.34 467.04C267.79 467.04 268.37 467.04 269.08 467.03C269.79 467.02 270.54 466.99 271.36 466.95C272.17 466.92 273 466.89 273.85 466.85C274.7 466.81 275.5 466.76 276.25 466.71C277 466.66 277.67 466.6 278.24 466.54C278.81 466.49 279.23 466.43 279.48 466.36C279.38 466.91 279.27 467.6 279.17 468.44C279.06 469.27 279 470.16 279 471.09C279 471.64 279.02 472.18 279.06 472.7C279.09 473.22 279.13 473.7 279.18 474.14C279.23 474.57 279.28 474.95 279.34 475.28C279.39 475.6 279.43 475.84 279.48 476C279.28 475.92 279.05 475.85 278.77 475.79C278.48 475.73 278.18 475.68 277.85 475.63C277.53 475.59 277.18 475.56 276.83 475.55C276.47 475.52 276.13 475.51 275.81 475.51C275.23 475.51 274.65 475.55 274.07 475.62C273.49 475.69 272.93 475.81 272.4 476C272.49 475.73 272.57 475.39 272.62 475C272.68 474.61 272.7 474.22 272.7 473.82C272.7 473.15 272.6 472.63 272.38 472.23C272.16 471.83 271.88 471.53 271.53 471.33C271.2 471.12 270.83 470.99 270.42 470.93C270.02 470.87 269.63 470.84 269.26 470.84C268.98 470.84 268.67 470.85 268.35 470.87C268.03 470.89 267.7 470.93 267.37 471C267.04 471.08 266.71 471.18 266.38 471.29C266.05 471.42 265.75 471.58 265.47 471.79C265.42 472.09 265.38 472.44 265.34 472.82C265.3 473.21 265.29 473.7 265.29 474.28C265.29 475.15 265.3 475.83 265.33 476.32C265.36 476.81 265.4 477.18 265.45 477.44C265.79 477.59 266.19 477.7 266.64 477.77C267.09 477.84 267.56 477.87 268.04 477.87C268.76 477.87 269.44 477.81 270.08 477.69C270.73 477.57 271.19 477.44 271.48 477.28C271.38 477.57 271.31 477.97 271.26 478.47C271.22 478.98 271.2 479.51 271.2 480.06C271.2 480.37 271.21 480.68 271.22 480.99C271.23 481.29 271.25 481.57 271.28 481.82C271.31 482.08 271.34 482.3 271.37 482.49C271.41 482.68 271.44 482.82 271.48 482.91C271.37 482.84 271.18 482.77 270.93 482.7C270.68 482.63 270.39 482.57 270.05 482.5C269.72 482.43 269.35 482.38 268.95 482.33C268.56 482.29 268.15 482.27 267.74 482.27C267.31 482.27 266.9 482.29 266.51 482.34C266.12 482.4 265.76 482.49 265.45 482.63C265.43 482.79 265.41 482.97 265.38 483.17C265.37 483.37 265.35 483.62 265.33 483.93C265.31 484.23 265.3 484.59 265.29 485.01C265.29 485.43 265.29 485.91 265.29 486.47C265.29 487.17 265.31 487.73 265.36 488.17C265.41 488.6 265.47 488.98 265.52 489.29C265.83 489.46 266.15 489.6 266.49 489.71C266.83 489.82 267.18 489.9 267.52 489.96C267.87 490.02 268.2 490.06 268.53 490.08C268.86 490.1 269.17 490.11 269.46 490.11C269.82 490.11 270.2 490.06 270.59 489.96C270.97 489.87 271.31 489.69 271.63 489.42C271.94 489.16 272.2 488.79 272.4 488.31C272.6 487.84 272.7 487.23 272.7 486.49C272.7 486.02 272.68 485.56 272.62 485.11C272.57 484.66 272.49 484.28 272.4 483.98C272.93 484.16 273.49 484.28 274.07 484.36C274.65 484.43 275.23 484.47 275.81 484.47C276.13 484.47 276.47 484.46 276.83 484.44C277.18 484.42 277.53 484.38 277.85 484.34C278.18 484.29 278.48 484.24 278.77 484.18C279.05 484.12 279.28 484.06 279.48 483.98C279.43 484.15 279.39 484.41 279.34 484.76C279.28 485.1 279.23 485.52 279.18 486C279.13 486.47 279.09 486.99 279.06 487.55C279.02 488.12 279 488.69 279 489.28C279 489.78 279.02 490.27 279.05 490.76C279.08 491.25 279.12 491.71 279.17 492.15C279.21 492.6 279.26 493.01 279.32 493.39C279.37 493.77 279.43 494.1 279.48 494.39C279.23 494.34 278.81 494.29 278.24 494.25C277.67 494.21 277 494.16 276.25 494.13C275.5 494.09 274.7 494.06 273.85 494.03C273 493.99 272.17 493.97 271.36 493.95C270.54 493.93 269.79 493.92 269.08 493.91C268.37 493.91 267.79 493.91 267.34 493.91C266.89 493.91 266.29 493.91 265.53 493.91C264.79 493.92 263.97 493.93 263.08 493.95C262.2 493.97 261.29 493.99 260.35 494.03C259.42 494.06 258.54 494.09 257.72 494.13C256.9 494.16 256.19 494.21 255.57 494.25C254.95 494.29 254.52 494.34 254.27 494.39C254.34 494.07 254.4 493.68 254.46 493.22ZM283.23 494.39C283.31 494.07 283.37 493.68 283.43 493.22C283.49 492.75 283.51 492.27 283.51 491.78C283.51 491.33 283.48 490.89 283.42 490.45C283.36 490.01 283.3 489.64 283.23 489.33C283.8 489.33 284.3 489.29 284.73 489.2C285.15 489.1 285.51 488.95 285.8 488.73C286.09 488.52 286.31 488.23 286.45 487.86C286.6 487.49 286.67 487.03 286.67 486.47C286.67 485.38 286.65 484.44 286.59 483.66C286.53 482.89 286.45 482.24 286.34 481.73C286.23 481.23 286.1 480.85 285.93 480.58C285.77 480.32 285.58 480.15 285.36 480.08C285.59 480 285.79 479.88 285.95 479.72C286.12 479.55 286.26 479.26 286.36 478.84C286.47 478.44 286.55 477.87 286.6 477.15C286.65 476.44 286.67 475.48 286.67 474.28C286.67 473.73 286.6 473.26 286.45 472.89C286.31 472.52 286.09 472.23 285.8 472.01C285.51 471.8 285.15 471.65 284.73 471.56C284.3 471.47 283.8 471.43 283.23 471.43C283.3 471.12 283.36 470.74 283.42 470.31C283.48 469.87 283.51 469.42 283.51 468.97C283.51 468.47 283.49 468 283.43 467.54C283.37 467.08 283.31 466.69 283.23 466.36C283.4 466.43 283.72 466.49 284.19 466.55C284.67 466.62 285.24 466.67 285.89 466.72C286.54 466.76 287.24 466.81 288 466.85C288.75 466.89 289.49 466.92 290.22 466.95C290.95 466.99 291.64 467.02 292.28 467.03C292.91 467.04 293.44 467.04 293.85 467.04C295.05 467.04 296.26 467.03 297.49 467.02C298.71 467 299.86 466.96 300.93 466.91C302 466.85 302.92 466.79 303.71 466.7C304.51 466.6 305.07 466.49 305.4 466.36C305.41 466.62 305.5 466.9 305.67 467.19C305.84 467.48 306.06 467.77 306.34 468.07C306.61 468.36 306.91 468.64 307.25 468.91C307.59 469.19 307.93 469.42 308.28 469.63C308.63 469.84 308.96 470.01 309.29 470.14C309.62 470.26 309.91 470.34 310.16 470.35C310.07 470.54 309.99 470.8 309.93 471.15C309.85 471.5 309.79 471.89 309.75 472.32C309.69 472.75 309.65 473.2 309.63 473.67C309.6 474.15 309.59 474.6 309.59 475.02C309.59 475.52 309.6 476 309.63 476.47C309.64 476.95 309.66 477.39 309.7 477.8C309.75 478.22 309.8 478.6 309.87 478.95C309.95 479.29 310.05 479.57 310.16 479.8C309.72 479.87 309.25 479.99 308.78 480.16C308.3 480.33 307.83 480.53 307.37 480.77C306.9 481.01 306.45 481.28 306.03 481.58C305.62 481.88 305.26 482.2 304.96 482.53C305.15 482.81 305.38 483.06 305.64 483.3C305.9 483.53 306.16 483.73 306.43 483.9C306.71 484.06 307 484.18 307.28 484.27C307.58 484.36 307.85 484.41 308.1 484.41C308.1 485.19 308.22 485.88 308.45 486.49C308.68 487.1 309.01 487.61 309.44 488.04C309.87 488.46 310.4 488.78 311.01 489C311.63 489.22 312.33 489.33 313.11 489.33C313 489.64 312.92 490.01 312.88 490.45C312.85 490.89 312.83 491.33 312.83 491.78C312.83 492.27 312.86 492.75 312.9 493.22C312.95 493.68 313.03 494.07 313.14 494.39C313.02 494.34 312.78 494.28 312.41 494.22C312.04 494.17 311.63 494.11 311.15 494.07C310.68 494.03 310.19 493.99 309.69 493.95C309.18 493.92 308.72 493.91 308.33 493.91C307.85 493.91 307.32 493.91 306.75 493.93C306.16 493.94 305.6 493.96 305.03 493.99C304.48 494.02 303.98 494.07 303.52 494.14C303.06 494.21 302.71 494.29 302.47 494.39C302.49 494.13 302.52 493.88 302.53 493.63C302.54 493.37 302.54 493.12 302.54 492.87C302.54 492.34 302.51 491.83 302.43 491.35C302.36 490.86 302.23 490.41 302.06 490.01C301.88 489.59 301.65 489.24 301.37 488.93C301.1 488.63 300.76 488.39 300.35 488.22C300.46 488 300.56 487.7 300.65 487.33C300.74 486.95 300.79 486.42 300.79 485.75C300.79 485.39 300.73 485.04 300.62 484.71C300.5 484.39 300.31 484.11 300.02 483.88C299.74 483.65 299.36 483.46 298.9 483.33C298.43 483.19 297.85 483.12 297.15 483.12C296.84 483.12 296.47 483.13 296.05 483.16C295.62 483.19 295.16 483.23 294.68 483.3C294.55 483.65 294.44 484.07 294.36 484.55C294.29 485.03 294.25 485.68 294.25 486.47C294.25 487.03 294.31 487.49 294.42 487.86C294.55 488.23 294.75 488.52 295.03 488.73C295.3 488.95 295.65 489.1 296.09 489.2C296.53 489.29 297.06 489.33 297.69 489.33C297.63 489.64 297.56 490.01 297.5 490.45C297.44 490.89 297.4 491.33 297.4 491.78C297.4 492.27 297.43 492.75 297.49 493.22C297.55 493.68 297.61 494.07 297.69 494.39C297.33 494.31 296.87 494.24 296.31 494.19C295.75 494.13 295.15 494.08 294.49 494.03C293.84 493.98 293.16 493.95 292.47 493.94C291.78 493.91 291.11 493.91 290.47 493.91C289.82 493.91 289.15 493.91 288.46 493.94C287.76 493.95 287.08 493.98 286.43 494.03C285.77 494.08 285.16 494.13 284.6 494.19C284.04 494.24 283.59 494.31 283.23 494.39M295.96 479.2C296.54 479.27 297.18 479.31 297.88 479.31C298.56 479.31 299.17 479.2 299.7 478.99C300.24 478.78 300.68 478.48 301.05 478.1C301.41 477.73 301.69 477.28 301.88 476.76C302.07 476.25 302.17 475.71 302.17 475.12C302.17 474.58 302.09 474.05 301.95 473.53C301.81 473 301.57 472.55 301.25 472.16C300.93 471.76 300.51 471.44 299.98 471.2C299.46 470.96 298.82 470.84 298.07 470.84C297.41 470.84 296.74 470.88 296.07 470.97C295.4 471.07 294.8 471.23 294.26 471.45C294.21 471.86 294.16 472.32 294.14 472.81C294.11 473.31 294.1 473.84 294.1 474.38C294.1 475.19 294.12 475.98 294.16 476.76C294.19 477.55 294.24 478.25 294.29 478.86C294.82 479.01 295.37 479.13 295.96 479.2ZM331.44 493.22C331.5 492.75 331.53 492.27 331.53 491.78C331.53 491.33 331.5 490.89 331.43 490.45C331.37 490.01 331.31 489.64 331.25 489.33C331.82 489.33 332.31 489.29 332.74 489.2C333.16 489.1 333.52 488.95 333.82 488.73C334.1 488.52 334.32 488.23 334.46 487.86C334.61 487.49 334.69 487.03 334.69 486.47C334.69 485.38 334.66 484.44 334.6 483.66C334.55 482.89 334.46 482.24 334.35 481.73C334.25 481.23 334.11 480.85 333.95 480.58C333.78 480.32 333.59 480.15 333.37 480.08C333.61 480 333.8 479.86 333.97 479.67C334.13 479.47 334.27 479.14 334.38 478.68C334.48 478.23 334.56 477.62 334.61 476.86C334.66 476.1 334.69 475.13 334.69 473.94C334.69 473.42 334.61 472.99 334.44 472.67C334.28 472.34 334.05 472.09 333.77 471.9C333.5 471.71 333.18 471.58 332.81 471.53C332.44 471.46 332.03 471.43 331.6 471.43C331.57 471.43 331.28 471.43 331.25 471.43C331.31 471.12 331.37 470.75 331.43 470.34C331.5 469.94 331.53 469.5 331.53 469.05C331.53 468.57 331.5 468.08 331.44 467.58C331.38 467.1 331.32 466.69 331.25 466.36C331.48 466.45 331.86 466.54 332.38 466.62C332.89 466.69 333.48 466.76 334.15 466.83C334.82 466.9 335.53 466.95 336.28 466.98C337.03 467.02 337.77 467.04 338.48 467.04C339.22 467.04 339.98 467.02 340.79 466.98C341.61 466.95 342.39 466.9 343.13 466.83C343.86 466.76 344.51 466.69 345.08 466.62C345.65 466.54 346.06 466.45 346.31 466.36C346.23 466.69 346.16 467.1 346.1 467.58C346.05 468.08 346.02 468.57 346.02 469.05C346.02 469.5 346.05 469.94 346.11 470.34C346.18 470.75 346.24 471.12 346.31 471.43C346.27 471.43 345.95 471.43 345.91 471.43C345.43 471.43 344.97 471.46 344.54 471.53C344.09 471.58 343.7 471.71 343.36 471.9C343.03 472.09 342.77 472.34 342.57 472.67C342.37 472.99 342.27 473.42 342.27 473.94C342.27 475.13 342.29 476.1 342.34 476.86C342.39 477.62 342.47 478.23 342.58 478.68C342.69 479.14 342.82 479.47 342.98 479.67C343.14 479.86 343.34 480 343.57 480.08C343.35 480.15 343.16 480.32 343 480.58C342.83 480.85 342.7 481.23 342.59 481.73C342.48 482.24 342.4 482.89 342.34 483.66C342.29 484.44 342.27 485.38 342.27 486.47C342.27 487.15 342.29 487.7 342.34 488.15C342.39 488.59 342.45 488.97 342.5 489.29C343.03 489.56 343.61 489.75 344.23 489.86C344.86 489.97 345.44 490.03 345.98 490.03C346.78 490.03 347.44 489.99 347.96 489.92C348.49 489.84 348.92 489.66 349.23 489.39C349.55 489.11 349.77 488.72 349.9 488.19C350.02 487.67 350.08 486.96 350.08 486.06C350.08 485.24 350.05 484.57 349.97 484.03C349.9 483.49 349.8 483.04 349.69 482.69C349.59 482.32 349.48 482.03 349.38 481.81C349.28 481.58 349.22 481.37 349.18 481.16C349.41 481.25 349.74 481.33 350.15 481.39C350.56 481.46 350.99 481.51 351.44 481.55C351.88 481.58 352.32 481.61 352.75 481.63C353.18 481.64 353.53 481.65 353.82 481.65C354.14 481.65 354.48 481.64 354.83 481.61C355.2 481.59 355.55 481.56 355.89 481.52C356.22 481.47 356.54 481.42 356.83 481.36C357.12 481.3 357.36 481.23 357.56 481.16C357.51 481.35 357.39 481.72 357.21 482.27C357.03 482.81 356.86 483.45 356.68 484.17C356.5 484.9 356.35 485.68 356.21 486.51C356.07 487.34 356 488.14 356 488.89C356.01 489.39 356.02 489.9 356.03 490.43C356.03 490.95 356.05 491.46 356.08 491.94C356.1 492.43 356.15 492.89 356.23 493.31C356.32 493.73 356.44 494.09 356.61 494.39C356.36 494.34 355.95 494.29 355.38 494.25C354.81 494.21 354.14 494.16 353.38 494.13C352.62 494.09 351.8 494.06 350.93 494.03C350.06 493.99 349.22 493.97 348.38 493.95C347.55 493.93 346.78 493.92 346.07 493.91C345.35 493.91 344.77 493.91 344.32 493.91C343.87 493.91 343.27 493.91 342.51 493.91C341.77 493.92 340.95 493.93 340.06 493.95C339.17 493.97 338.27 493.99 337.33 494.03C336.4 494.06 335.52 494.09 334.7 494.13C333.88 494.16 333.16 494.21 332.55 494.25C331.93 494.29 331.5 494.34 331.25 494.39C331.32 494.07 331.38 493.68 331.44 493.22ZM360.39 493.22C360.45 492.75 360.47 492.27 360.47 491.78C360.47 491.33 360.44 490.89 360.38 490.45C360.32 490.01 360.26 489.64 360.2 489.33C360.76 489.33 361.26 489.29 361.69 489.2C362.11 489.1 362.47 488.95 362.77 488.73C363.05 488.52 363.27 488.23 363.41 487.86C363.56 487.49 363.64 487.03 363.64 486.47C363.64 485.38 363.61 484.44 363.55 483.66C363.49 482.89 363.41 482.24 363.3 481.73C363.2 481.23 363.06 480.85 362.89 480.58C362.73 480.32 362.54 480.15 362.33 480.08C362.55 480 362.75 479.88 362.91 479.72C363.08 479.55 363.22 479.26 363.32 478.84C363.43 478.44 363.51 477.87 363.56 477.15C363.61 476.44 363.64 475.48 363.64 474.28C363.64 473.73 363.56 473.26 363.41 472.89C363.27 472.52 363.05 472.23 362.77 472.01C362.47 471.8 362.11 471.65 361.69 471.56C361.26 471.47 360.76 471.43 360.2 471.43C360.26 471.12 360.32 470.74 360.38 470.31C360.44 469.87 360.47 469.42 360.47 468.97C360.47 468.47 360.45 468 360.39 467.54C360.33 467.08 360.27 466.69 360.2 466.36C360.45 466.43 360.88 466.49 361.5 466.54C362.11 466.6 362.83 466.66 363.65 466.71C364.47 466.76 365.35 466.81 366.28 466.85C367.21 466.89 368.12 466.92 369.01 466.95C369.9 466.99 370.72 467.02 371.46 467.03C372.21 467.04 372.82 467.04 373.27 467.04C373.72 467.04 374.3 467.04 375.01 467.03C375.71 467.02 376.47 466.99 377.29 466.95C378.1 466.92 378.93 466.89 379.78 466.85C380.63 466.81 381.43 466.76 382.18 466.71C382.93 466.66 383.59 466.6 384.17 466.54C384.74 466.49 385.16 466.43 385.4 466.36C385.3 466.91 385.2 467.6 385.09 468.44C384.98 469.27 384.93 470.16 384.93 471.09C384.93 471.64 384.95 472.18 384.98 472.7C385.02 473.22 385.06 473.7 385.1 474.14C385.16 474.57 385.21 474.95 385.26 475.28C385.31 475.6 385.36 475.84 385.4 476C385.21 475.92 384.97 475.85 384.7 475.79C384.41 475.73 384.1 475.68 383.78 475.63C383.45 475.59 383.11 475.56 382.76 475.55C382.4 475.52 382.06 475.51 381.74 475.51C381.16 475.51 380.58 475.55 380 475.62C379.42 475.69 378.86 475.81 378.33 476C378.43 475.73 378.5 475.39 378.55 475C378.6 474.61 378.63 474.22 378.63 473.82C378.63 473.15 378.52 472.63 378.31 472.23C378.09 471.83 377.8 471.53 377.46 471.33C377.12 471.12 376.75 470.99 376.35 470.93C375.94 470.87 375.56 470.84 375.19 470.84C374.9 470.84 374.6 470.85 374.28 470.87C373.96 470.89 373.63 470.93 373.3 471C372.96 471.08 372.63 471.18 372.31 471.29C371.98 471.42 371.68 471.58 371.4 471.79C371.35 472.09 371.3 472.44 371.27 472.82C371.23 473.21 371.21 473.7 371.21 474.28C371.21 475.15 371.23 475.83 371.26 476.32C371.29 476.81 371.32 477.18 371.37 477.44C371.72 477.59 372.12 477.7 372.57 477.77C373.02 477.84 373.48 477.87 373.97 477.87C374.68 477.87 375.37 477.81 376.01 477.69C376.65 477.57 377.12 477.44 377.4 477.28C377.31 477.57 377.23 477.97 377.19 478.47C377.15 478.98 377.13 479.51 377.13 480.06C377.13 480.37 377.13 480.68 377.15 480.99C377.16 481.29 377.18 481.57 377.21 481.82C377.24 482.08 377.27 482.3 377.3 482.49C377.33 482.68 377.37 482.82 377.4 482.91C377.29 482.84 377.11 482.77 376.86 482.7C376.61 482.63 376.31 482.57 375.98 482.5C375.65 482.43 375.28 482.38 374.88 482.33C374.49 482.29 374.08 482.27 373.67 482.27C373.23 482.27 372.83 482.29 372.44 482.34C372.05 482.4 371.69 482.49 371.37 482.63C371.35 482.79 371.33 482.97 371.31 483.17C371.3 483.37 371.28 483.62 371.26 483.93C371.24 484.23 371.22 484.59 371.21 485.01C371.21 485.43 371.21 485.91 371.21 486.47C371.21 487.17 371.24 487.73 371.29 488.17C371.34 488.6 371.39 488.98 371.45 489.29C371.76 489.46 372.08 489.6 372.42 489.71C372.76 489.82 373.11 489.9 373.45 489.96C373.79 490.02 374.13 490.06 374.46 490.08C374.79 490.1 375.1 490.11 375.39 490.11C375.75 490.11 376.13 490.06 376.51 489.96C376.89 489.87 377.24 489.69 377.55 489.42C377.87 489.16 378.13 488.79 378.33 488.31C378.53 487.84 378.63 487.23 378.63 486.49C378.63 486.02 378.6 485.56 378.55 485.11C378.5 484.66 378.43 484.28 378.33 483.98C378.86 484.16 379.42 484.28 380 484.36C380.58 484.43 381.16 484.47 381.74 484.47C382.06 484.47 382.4 484.46 382.76 484.44C383.11 484.42 383.45 484.38 383.78 484.34C384.1 484.29 384.41 484.24 384.7 484.18C384.97 484.12 385.21 484.06 385.4 483.98C385.36 484.15 385.31 484.41 385.26 484.76C385.21 485.1 385.16 485.52 385.1 486C385.06 486.47 385.02 486.99 384.98 487.55C384.95 488.12 384.93 488.69 384.93 489.28C384.93 489.78 384.95 490.27 384.97 490.76C385.01 491.25 385.05 491.71 385.09 492.15C385.14 492.6 385.19 493.01 385.24 493.39C385.3 493.77 385.35 494.1 385.4 494.39C385.16 494.34 384.74 494.29 384.17 494.25C383.59 494.21 382.93 494.16 382.18 494.13C381.43 494.09 380.63 494.06 379.78 494.03C378.93 493.99 378.1 493.97 377.29 493.95C376.47 493.93 375.71 493.92 375.01 493.91C374.3 493.91 373.72 493.91 373.27 493.91C372.82 493.91 372.21 493.91 371.46 493.91C370.72 493.92 369.9 493.93 369.01 493.95C368.12 493.97 367.21 493.99 366.28 494.03C365.35 494.06 364.47 494.09 363.65 494.13C362.83 494.16 362.11 494.21 361.5 494.25C360.88 494.29 360.45 494.34 360.2 494.39C360.27 494.07 360.33 493.68 360.39 493.22ZM387.42 494.39C387.5 494.07 387.56 493.67 387.6 493.2C387.63 492.72 387.65 492.23 387.65 491.72C387.65 491.26 387.63 490.82 387.6 490.42C387.57 490 387.52 489.64 387.46 489.33C388.1 489.3 388.65 489.18 389.11 488.97C389.56 488.75 389.93 488.52 390.22 488.26C390.52 487.78 390.82 487.24 391.14 486.64C391.46 486.05 391.74 485.44 392 484.8C392.26 484.18 392.47 483.55 392.63 482.92C392.8 482.29 392.88 481.7 392.88 481.16C392.88 480.94 392.85 480.72 392.78 480.49C392.72 480.27 392.61 480.14 392.46 480.08C392.84 479.98 393.22 479.7 393.6 479.23C393.98 478.76 394.35 478.18 394.7 477.49C395.05 476.81 395.38 476.04 395.68 475.2C395.98 474.36 396.24 473.51 396.47 472.64C396.7 471.78 396.88 470.94 397 470.12C397.13 469.3 397.19 468.57 397.19 467.94C397.19 467.72 397.18 467.5 397.15 467.3C397.13 467.09 397.12 466.92 397.12 466.78C397.12 466.71 397.12 466.65 397.13 466.6C397.14 466.55 397.14 466.47 397.14 466.36C397.43 466.49 397.79 466.58 398.22 466.66C398.65 466.75 399.14 466.82 399.69 466.87C400.22 466.93 400.81 466.98 401.43 467.01C402.05 467.03 402.69 467.04 403.35 467.04C403.93 467.04 404.52 467.03 405.13 467.01C405.74 466.98 406.32 466.93 406.89 466.87C407.45 466.82 407.98 466.75 408.47 466.66C408.97 466.58 409.38 466.49 409.71 466.36C409.71 466.37 409.71 466.4 409.71 466.44C409.71 466.55 409.71 466.61 409.71 466.62C409.71 466.76 409.69 466.94 409.65 467.15C409.62 467.37 409.61 467.6 409.61 467.86C409.61 468.46 409.66 469.16 409.77 469.96C409.88 470.77 410.02 471.6 410.21 472.47C410.4 473.33 410.63 474.19 410.9 475.03C411.17 475.88 411.47 476.66 411.8 477.37C412.13 478.08 412.48 478.68 412.86 479.17C413.24 479.65 413.63 479.95 414.05 480.08C413.87 480.15 413.75 480.28 413.68 480.46C413.61 480.65 413.58 480.88 413.58 481.16C413.58 481.7 413.65 482.29 413.81 482.92C413.97 483.55 414.18 484.18 414.44 484.8C414.69 485.44 414.98 486.05 415.29 486.63C415.59 487.21 415.9 487.74 416.2 488.2C416.39 488.32 416.62 488.44 416.88 488.57C417.14 488.7 417.42 488.82 417.72 488.94C418 489.06 418.29 489.16 418.59 489.22C418.87 489.3 419.14 489.33 419.39 489.33C419.33 489.64 419.28 490 419.25 490.42C419.22 490.82 419.21 491.26 419.21 491.72C419.21 492.23 419.23 492.72 419.26 493.2C419.3 493.67 419.35 494.07 419.43 494.39C418.98 494.34 418.46 494.28 417.86 494.22C417.27 494.17 416.63 494.11 415.95 494.07C415.27 494.03 414.57 493.99 413.83 493.95C413.11 493.92 412.38 493.91 411.65 493.91C410.31 493.91 409.04 493.94 407.84 494.03C406.64 494.11 405.62 494.24 404.78 494.39C404.82 494.17 404.86 493.82 404.89 493.35C404.92 492.88 404.94 492.35 404.94 491.77C404.94 491.52 404.94 491.27 404.92 491.01C404.91 490.76 404.89 490.53 404.88 490.31C404.87 490.08 404.86 489.88 404.84 489.71C404.81 489.54 404.8 489.41 404.78 489.33C405.01 489.33 405.25 489.32 405.5 489.3C405.75 489.28 406 489.25 406.26 489.2C406.5 489.15 406.73 489.07 406.96 488.98C407.19 488.89 407.39 488.77 407.57 488.61C407.54 488.09 407.45 487.65 407.32 487.28C407.18 486.91 406.92 486.6 406.53 486.35C406.15 486.11 405.61 485.93 404.93 485.81C404.24 485.69 403.34 485.63 402.24 485.63C401.24 485.63 400.41 485.67 399.75 485.75C399.09 485.83 398.56 485.97 398.15 486.19C397.73 486.4 397.43 486.7 397.24 487.08C397.04 487.47 396.92 487.97 396.87 488.59C397.06 488.74 397.28 488.87 397.55 488.97C397.81 489.05 398.09 489.13 398.37 489.19C398.65 489.25 398.94 489.28 399.22 489.3C399.5 489.32 399.76 489.33 399.99 489.33C399.96 489.41 399.94 489.54 399.92 489.69C399.9 489.87 399.88 490.07 399.87 490.29C399.86 490.53 399.85 490.77 399.85 491.02C399.84 491.28 399.84 491.53 399.84 491.77C399.84 492.35 399.85 492.88 399.88 493.35C399.92 493.82 399.95 494.17 399.99 494.39C399.03 494.21 398.06 494.08 397.08 494.02C396.09 493.94 395.09 493.91 394.08 493.91C392.89 493.91 391.74 493.94 390.63 494.02C389.51 494.08 388.44 494.21 387.42 494.39M399.63 480.86C399.72 481.11 399.87 481.31 400.07 481.45C400.28 481.59 400.56 481.69 400.92 481.75C401.28 481.81 401.74 481.83 402.29 481.83C402.85 481.83 403.31 481.81 403.66 481.75C404.02 481.69 404.3 481.59 404.51 481.45C404.72 481.31 404.86 481.11 404.94 480.86C405.03 480.62 405.07 480.31 405.07 479.93C405.07 479.47 404.96 478.91 404.73 478.26C404.51 477.59 404.24 476.9 403.93 476.18C403.63 475.45 403.33 474.72 403.01 474C402.69 473.26 402.45 472.61 402.29 472.03C402.1 472.61 401.85 473.26 401.54 474C401.22 474.72 400.92 475.45 400.62 476.18C400.33 476.9 400.07 477.59 399.85 478.26C399.63 478.91 399.52 479.47 399.52 479.93C399.52 480.31 399.55 480.62 399.63 480.86ZM422.07 487.1C422.27 486.06 422.37 484.63 422.37 482.83C422.37 482.01 422.27 481.39 422.06 480.95C421.85 480.51 421.54 480.23 421.13 480.08C421.36 480.02 421.55 479.87 421.72 479.64C421.88 479.41 422.02 479.12 422.14 478.78C422.24 478.45 422.32 478.07 422.37 477.66C422.42 477.25 422.45 476.84 422.45 476.41C422.45 475.29 422.36 474.31 422.18 473.44C421.99 472.58 421.74 471.96 421.42 471.58C421.43 471.58 421.55 471.58 421.57 471.58C422 471.58 422.48 471.48 423.01 471.28C423.55 471.09 424.09 470.84 424.64 470.52C425.2 470.2 425.74 469.84 426.28 469.44C426.8 469.05 427.27 468.65 427.69 468.22C428.12 467.81 428.46 467.41 428.74 467.02C429.01 466.62 429.16 466.27 429.18 465.98C429.38 466.09 429.63 466.21 429.94 466.33C430.26 466.46 430.64 466.58 431.09 466.69C431.54 466.8 432.08 466.88 432.7 466.94C433.33 467.01 434.07 467.04 434.93 467.04C435.34 467.04 435.78 467.02 436.22 466.96C436.66 466.91 437.1 466.84 437.52 466.74C437.94 466.65 438.34 466.53 438.7 466.4C439.07 466.27 439.37 466.13 439.62 465.98C439.77 466.46 439.98 466.9 440.26 467.26C440.55 467.64 440.87 467.94 441.24 468.17C441.54 467.89 441.76 467.58 441.9 467.25C442.04 466.92 442.14 466.62 442.2 466.36C442.31 466.43 442.53 466.49 442.84 466.53C443.16 466.58 443.52 466.61 443.93 466.64C444.34 466.68 444.77 466.7 445.22 466.72C445.66 466.74 446.07 466.75 446.45 466.75C447.41 466.75 448.34 466.62 449.25 466.36C449.23 466.47 449.19 466.67 449.13 466.96C449.07 467.26 449.02 467.61 448.97 467.99C448.92 468.38 448.87 468.8 448.83 469.24C448.79 469.69 448.78 470.11 448.78 470.51C448.78 471.34 448.79 472.13 448.83 472.86C448.87 473.6 448.92 474.27 448.96 474.87C449 475.47 449.05 475.98 449.11 476.41C449.17 476.84 449.21 477.15 449.25 477.36C448.65 477.26 448.06 477.18 447.5 477.14C446.92 477.1 446.37 477.07 445.83 477.07C445.45 477.07 445.04 477.08 444.59 477.08C444.14 477.1 443.7 477.12 443.26 477.14C442.82 477.15 442.39 477.18 441.99 477.23C441.59 477.26 441.24 477.31 440.94 477.36C440.94 476.47 440.86 475.64 440.69 474.85C440.53 474.06 440.27 473.37 439.91 472.78C439.55 472.19 439.08 471.72 438.51 471.37C437.93 471.02 437.24 470.84 436.44 470.84C436 470.84 435.56 470.88 435.11 470.96C434.67 471.03 434.25 471.19 433.86 471.44C433.46 471.67 433.09 472.01 432.75 472.46C432.4 472.9 432.1 473.48 431.86 474.22C431.61 474.95 431.41 475.84 431.26 476.91C431.12 477.98 431.05 479.25 431.05 480.73C431.05 482.61 431.21 484.15 431.52 485.33C431.84 486.52 432.26 487.46 432.79 488.14C433.32 488.81 433.93 489.28 434.62 489.53C435.31 489.79 436.04 489.92 436.81 489.92C437.57 489.92 438.19 489.84 438.68 489.69C439.16 489.53 439.54 489.33 439.82 489.08C440.1 488.83 440.29 488.55 440.39 488.24C440.49 487.92 440.54 487.59 440.54 487.25C440.54 486.96 440.5 486.72 440.43 486.52C440.36 486.32 440.23 486.15 440.04 486.02C439.84 485.9 439.57 485.8 439.22 485.73C438.86 485.66 438.4 485.63 437.85 485.63C437.95 485.27 438.03 484.89 438.07 484.5C438.11 484.11 438.13 483.62 438.13 483.04C438.13 482.59 438.11 482.19 438.06 481.85C438 481.51 437.93 481.18 437.85 480.86C438.53 481.05 439.27 481.17 440.07 481.25C440.86 481.31 441.63 481.35 442.39 481.35C443.04 481.35 443.72 481.34 444.45 481.33C445.19 481.3 445.91 481.27 446.61 481.23C447.31 481.18 447.96 481.13 448.55 481.07C449.14 481.01 449.61 480.94 449.95 480.86C449.71 481.49 449.51 482.17 449.36 482.92C449.2 483.67 449.07 484.43 448.98 485.22C448.88 486.01 448.81 486.81 448.77 487.6C448.72 488.39 448.7 489.15 448.7 489.87C448.7 490.93 448.74 491.86 448.81 492.66C448.87 493.47 448.96 494.05 449.06 494.39C448.75 494.39 448.36 494.32 447.89 494.17C447.44 494.02 446.96 493.83 446.46 493.59C445.96 493.36 445.48 493.09 445 492.8C444.53 492.5 444.12 492.2 443.79 491.9C443.46 491.92 443.09 492.03 442.69 492.24C442.29 492.46 441.91 492.71 441.56 493.01C441.2 493.31 440.91 493.62 440.68 493.95C440.44 494.27 440.33 494.55 440.33 494.78C440.11 494.66 439.8 494.55 439.4 494.45C439 494.34 438.56 494.25 438.09 494.17C437.62 494.08 437.15 494.02 436.68 493.97C436.22 493.93 435.82 493.91 435.49 493.91C433.78 493.91 432.38 493.99 431.31 494.17C430.23 494.35 429.49 494.55 429.07 494.78C428.97 494.38 428.77 493.97 428.48 493.55C428.19 493.12 427.84 492.71 427.43 492.32C427.01 491.92 426.55 491.54 426.04 491.19C425.54 490.83 425.02 490.51 424.48 490.23C423.95 489.94 423.42 489.71 422.89 489.53C422.36 489.34 421.87 489.23 421.42 489.18C421.65 488.84 421.87 488.15 422.07 487.1ZM456.58 488.09C456.68 487.65 456.77 487.14 456.84 486.57C456.92 486.01 456.98 485.41 457.02 484.77C457.07 484.13 457.09 483.48 457.09 482.83C457.09 482.01 456.96 481.39 456.71 480.95C456.46 480.51 456.11 480.23 455.65 480.08C456.03 480 456.32 479.84 456.53 479.62C456.74 479.4 456.89 479.06 456.99 478.6C457.09 478.15 457.15 477.55 457.17 476.8C457.2 476.04 457.21 475.09 457.21 473.94C457.21 473.42 457.13 472.99 456.98 472.67C456.84 472.34 456.63 472.09 456.37 471.9C456.1 471.71 455.78 471.58 455.41 471.53C455.03 471.46 454.61 471.43 454.14 471.43C454.11 471.43 453.81 471.43 453.77 471.43C453.82 471.12 453.89 470.75 453.95 470.34C454.01 469.94 454.05 469.5 454.05 469.05C454.05 468.57 454.02 468.08 453.96 467.58C453.9 467.1 453.84 466.69 453.77 466.36C454 466.45 454.38 466.54 454.9 466.62C455.41 466.69 456 466.76 456.67 466.83C457.34 466.9 458.05 466.95 458.8 466.98C459.55 467.02 460.29 467.04 461 467.04C461.7 467.04 462.43 467.02 463.21 466.98C463.98 466.95 464.71 466.9 465.4 466.83C466.1 466.76 466.71 466.69 467.25 466.62C467.79 466.54 468.17 466.45 468.41 466.36C468.32 466.69 468.25 467.1 468.2 467.58C468.15 468.08 468.13 468.57 468.13 469.05C468.13 469.5 468.16 469.94 468.22 470.34C468.28 470.75 468.34 471.12 468.41 471.43C468.37 471.43 468.1 471.43 468.06 471.43C467.65 471.43 467.28 471.46 466.95 471.53C466.61 471.58 466.33 471.71 466.1 471.9C465.86 472.09 465.68 472.34 465.55 472.67C465.41 472.99 465.34 473.42 465.34 473.94C465.34 474.82 465.34 481.89 465.34 482.77C465.34 484.27 465.47 485.5 465.71 486.45C465.95 487.4 466.26 488.14 466.66 488.69C467.06 489.24 467.52 489.61 468.05 489.81C468.58 490.01 469.14 490.11 469.73 490.11C470.31 490.11 470.86 490.01 471.39 489.81C471.91 489.61 472.37 489.24 472.75 488.69C473.15 488.14 473.45 487.4 473.68 486.45C473.9 485.5 474.02 484.27 474.02 482.77C474.02 481.89 474.02 474.82 474.02 473.94C474.02 473.42 473.95 472.99 473.81 472.67C473.66 472.34 473.46 472.09 473.22 471.9C472.97 471.71 472.68 471.58 472.34 471.53C472.01 471.46 471.66 471.43 471.28 471.43C471.25 471.43 470.99 471.43 470.96 471.43C471.02 471.12 471.08 470.75 471.15 470.34C471.21 469.94 471.25 469.5 471.25 469.05C471.25 468.57 471.22 468.08 471.17 467.58C471.12 467.1 471.05 466.69 470.96 466.36C471.2 466.45 471.55 466.54 472.02 466.62C472.49 466.71 473.02 466.78 473.61 466.84C474.21 466.9 474.86 466.95 475.55 466.98C476.24 467.02 476.94 467.04 477.63 467.04C478.36 467.04 479.1 467.02 479.85 466.98C480.6 466.95 481.31 466.9 481.97 466.83C482.62 466.76 483.21 466.69 483.72 466.62C484.22 466.54 484.59 466.45 484.85 466.36C484.76 466.69 484.69 467.1 484.64 467.58C484.59 468.08 484.57 468.57 484.57 469.05C484.57 469.5 484.6 469.94 484.66 470.34C484.72 470.75 484.78 471.12 484.85 471.43C484.81 471.43 484.5 471.43 484.47 471.43C484.02 471.43 483.62 471.46 483.29 471.53C482.96 471.58 482.68 471.71 482.45 471.9C482.22 472.09 482.05 472.34 481.94 472.67C481.84 472.99 481.78 473.42 481.78 473.94C481.78 475.09 481.79 476.04 481.81 476.8C481.84 477.55 481.9 478.15 482 478.6C482.1 479.06 482.25 479.4 482.46 479.62C482.67 479.84 482.96 480 483.34 480.08C482.88 480.23 482.53 480.51 482.28 480.95C482.03 481.39 481.9 482.01 481.9 482.83C481.9 483.48 481.92 484.13 481.97 484.77C482.01 485.41 482.06 486.01 482.14 486.57C482.21 487.14 482.29 487.65 482.39 488.09C482.48 488.54 482.57 488.9 482.67 489.18C482.25 489.23 481.78 489.34 481.29 489.53C480.78 489.71 480.28 489.94 479.77 490.23C479.26 490.51 478.77 490.83 478.28 491.19C477.79 491.54 477.36 491.92 476.95 492.32C476.56 492.71 476.22 493.12 475.94 493.55C475.67 493.97 475.49 494.38 475.4 494.78C475.22 494.66 474.94 494.55 474.55 494.45C474.16 494.34 473.7 494.25 473.16 494.17C472.62 494.08 472.03 494.02 471.38 493.97C470.72 493.93 470.05 493.91 469.35 493.91C468.65 493.91 467.97 493.93 467.32 493.97C466.67 494.02 466.08 494.08 465.55 494.17C465.01 494.25 464.55 494.34 464.15 494.45C463.76 494.55 463.48 494.66 463.3 494.78C463.17 494.18 462.91 493.58 462.55 492.98C462.18 492.38 461.7 491.82 461.11 491.3C460.52 490.79 459.83 490.35 459.02 489.97C458.23 489.6 457.33 489.33 456.31 489.18C456.4 488.9 456.49 488.54 456.58 488.09ZM489.09 493.22C489.14 492.75 489.17 492.27 489.17 491.78C489.17 491.33 489.14 490.89 489.07 490.45C489.02 490.01 488.96 489.64 488.89 489.33C489.46 489.33 489.96 489.29 490.38 489.2C490.81 489.1 491.17 488.95 491.46 488.73C491.75 488.52 491.96 488.23 492.11 487.86C492.26 487.49 492.33 487.03 492.33 486.47C492.33 485.38 492.3 484.44 492.25 483.66C492.19 482.89 492.11 482.24 492 481.73C491.89 481.23 491.76 480.85 491.59 480.58C491.43 480.32 491.23 480.15 491.02 480.08C491.25 480 491.45 479.88 491.61 479.72C491.78 479.55 491.91 479.26 492.02 478.84C492.13 478.44 492.21 477.87 492.26 477.15C492.31 476.44 492.33 475.48 492.33 474.28C492.33 473.73 492.26 473.26 492.11 472.89C491.96 472.52 491.75 472.23 491.46 472.01C491.17 471.8 490.81 471.65 490.38 471.56C489.96 471.47 489.46 471.43 488.89 471.43C488.96 471.12 489.02 470.74 489.07 470.31C489.14 469.87 489.17 469.42 489.17 468.97C489.17 468.47 489.14 468 489.09 467.54C489.03 467.08 488.97 466.69 488.89 466.36C489.14 466.43 489.58 466.49 490.19 466.54C490.81 466.6 491.53 466.66 492.34 466.71C493.17 466.76 494.04 466.81 494.98 466.85C495.91 466.89 496.82 466.92 497.71 466.95C498.6 466.99 499.41 467.02 500.16 467.03C500.91 467.04 501.51 467.04 501.96 467.04C502.42 467.04 503 467.04 503.71 467.03C504.41 467.02 505.17 466.99 505.98 466.95C506.8 466.92 507.63 466.89 508.48 466.85C509.33 466.81 510.12 466.76 510.87 466.71C511.63 466.66 512.29 466.6 512.87 466.54C513.44 466.49 513.85 466.43 514.1 466.36C514 466.91 513.9 467.6 513.79 468.44C513.68 469.27 513.63 470.16 513.63 471.09C513.63 471.64 513.64 472.18 513.68 472.7C513.72 473.22 513.76 473.7 513.8 474.14C513.85 474.57 513.9 474.95 513.96 475.28C514.01 475.6 514.06 475.84 514.1 476C513.91 475.92 513.67 475.85 513.39 475.79C513.1 475.73 512.8 475.68 512.48 475.63C512.15 475.59 511.81 475.56 511.46 475.55C511.1 475.52 510.76 475.51 510.44 475.51C509.85 475.51 509.27 475.55 508.69 475.62C508.11 475.69 507.56 475.81 507.03 476C507.12 475.73 507.19 475.39 507.24 475C507.3 474.61 507.33 474.22 507.33 473.82C507.33 473.15 507.22 472.63 507.01 472.23C506.78 471.83 506.5 471.53 506.15 471.33C505.82 471.12 505.45 470.99 505.05 470.93C504.64 470.87 504.26 470.84 503.89 470.84C503.6 470.84 503.3 470.85 502.97 470.87C502.65 470.89 502.33 470.93 502 471C501.66 471.08 501.33 471.18 501.01 471.29C500.68 471.42 500.37 471.58 500.09 471.79C500.04 472.09 500 472.44 499.96 472.82C499.93 473.21 499.91 473.7 499.91 474.28C499.91 475.15 499.93 475.83 499.95 476.32C499.98 476.81 500.02 477.18 500.07 477.44C500.42 477.59 500.81 477.7 501.27 477.77C501.72 477.84 502.18 477.87 502.66 477.87C503.38 477.87 504.06 477.81 504.7 477.69C505.35 477.57 505.81 477.44 506.1 477.28C506 477.57 505.93 477.97 505.89 478.47C505.85 478.98 505.82 479.51 505.82 480.06C505.82 480.37 505.83 480.68 505.85 480.99C505.85 481.29 505.87 481.57 505.91 481.82C505.94 482.08 505.97 482.3 505.99 482.49C506.03 482.68 506.07 482.82 506.1 482.91C505.99 482.84 505.81 482.77 505.55 482.7C505.3 482.63 505.01 482.57 504.67 482.5C504.34 482.43 503.98 482.38 503.58 482.33C503.18 482.29 502.78 482.27 502.36 482.27C501.93 482.27 501.52 482.29 501.14 482.34C500.74 482.4 500.39 482.49 500.07 482.63C500.05 482.79 500.03 482.97 500.01 483.17C499.99 483.37 499.97 483.62 499.95 483.93C499.93 484.23 499.92 484.59 499.91 485.01C499.91 485.43 499.91 485.91 499.91 486.47C499.91 487.17 499.93 487.73 499.99 488.17C500.04 488.6 500.09 488.98 500.15 489.29C500.46 489.46 500.78 489.6 501.11 489.71C501.46 489.82 501.8 489.9 502.15 489.96C502.49 490.02 502.83 490.06 503.16 490.08C503.49 490.1 503.8 490.11 504.08 490.11C504.45 490.11 504.82 490.06 505.21 489.96C505.59 489.87 505.94 489.69 506.25 489.42C506.57 489.16 506.83 488.79 507.03 488.31C507.23 487.84 507.33 487.23 507.33 486.49C507.33 486.02 507.3 485.56 507.24 485.11C507.19 484.66 507.12 484.28 507.03 483.98C507.56 484.16 508.11 484.28 508.69 484.36C509.27 484.43 509.85 484.47 510.44 484.47C510.76 484.47 511.1 484.46 511.46 484.44C511.81 484.42 512.15 484.38 512.48 484.34C512.8 484.29 513.1 484.24 513.39 484.18C513.67 484.12 513.91 484.06 514.1 483.98C514.06 484.15 514.01 484.41 513.96 484.76C513.9 485.1 513.85 485.52 513.8 486C513.76 486.47 513.72 486.99 513.68 487.55C513.64 488.12 513.63 488.69 513.63 489.28C513.63 489.78 513.64 490.27 513.67 490.76C513.71 491.25 513.75 491.71 513.79 492.15C513.83 492.6 513.88 493.01 513.94 493.39C514 493.77 514.05 494.1 514.1 494.39C513.85 494.34 513.44 494.29 512.87 494.25C512.29 494.21 511.63 494.16 510.87 494.13C510.12 494.09 509.33 494.06 508.48 494.03C507.63 493.99 506.8 493.97 505.98 493.95C505.17 493.93 504.41 493.92 503.71 493.91C503 493.91 502.42 493.91 501.96 493.91C501.51 493.91 500.91 493.91 500.16 493.91C499.41 493.92 498.6 493.93 497.71 493.95C496.82 493.97 495.91 493.99 494.98 494.03C494.04 494.06 493.17 494.09 492.34 494.13C491.53 494.16 490.81 494.21 490.19 494.25C489.58 494.29 489.14 494.34 488.89 494.39C488.97 494.07 489.03 493.68 489.09 493.22Z" id="bbh1mFpJb"></path><path d="M136.15 398.04L509.02 398.04L202.67 187.84L136.15 398.04Z" id="b3KHLU2wnn"></path><linearGradient id="gradienta1eklL3mi" gradientUnits="userSpaceOnUse" x1="263.28" y1="177.91" x2="263.28" y2="398.04"><stop style="stop-color: #de2d1d;stop-opacity: 1" offset="0%"></stop><stop style="stop-color: #841b11;stop-opacity: 1" offset="100%"></stop></linearGradient><path d="M510.62 398.28L137.76 398.28L434.76 188.08L510.62 398.28Z" id="d3RlGh3C7C"></path><linearGradient id="gradientm18XjC6GsA" gradientUnits="userSpaceOnUse" x1="335.77" y1="323.25" x2="327.09" y2="565.71"><stop style="stop-color: #dc4b3e;stop-opacity: 1" offset="0%"></stop><stop style="stop-color: #98261c;stop-opacity: 1" offset="100%"></stop></linearGradient><path d="" id="cB2ryi9Zd"></path><path d="M511.99 505.83L320.47 631.04L133.18 505.83L511.99 505.83Z" id="b1WXACzHj"></path><linearGradient id="gradientgb7WiblnL" gradientUnits="userSpaceOnUse" x1="316.81" y1="518.13" x2="321.15" y2="588.03"><stop style="stop-color: #dc4b3e;stop-opacity: 1" offset="0%"></stop><stop style="stop-color: #98261c;stop-opacity: 1" offset="100%"></stop></linearGradient><path d="" id="b3NZq5DXJ"></path><path d="" id="dE1Ur12lS"></path><path d="" id="a1ESp0Jjon"></path><path d="" id="c1kgASvmJK"></path><path d="M321.08 268.8L510.27 397.59L434.86 187.99L321.08 268.8Z" id="f3G9WvYGIO"></path><linearGradient id="gradientb3nfcOblAP" gradientUnits="userSpaceOnUse" x1="423.34" y1="386.9" x2="423" y2="213.84"><stop style="stop-color: #de2d1d;stop-opacity: 1" offset="0%"></stop><stop style="stop-color: #841b11;stop-opacity: 1" offset="100%"></stop></linearGradient></defs><g><g><g><use xlink:href="#b1olLk23h7" opacity="1" fill="#000000" fill-opacity="0"></use><g><use xlink:href="#b1olLk23h7" opacity="1" fill-opacity="0" stroke="#000000" stroke-width="1" stroke-opacity="1"></use></g></g><g><use xlink:href="#a2bR1BP8rO" opacity="1" fill="#000000" fill-opacity="0"></use><g><use xlink:href="#a2bR1BP8rO" opacity="1" fill-opacity="0" stroke="#000000" stroke-width="1" stroke-opacity="1"></use></g></g><g><use xlink:href="#a22340agx" opacity="1" fill="#000000" fill-opacity="0"></use><g><use xlink:href="#a22340agx" opacity="1" fill-opacity="0" stroke="#000000" stroke-width="1" stroke-opacity="1"></use></g></g><g><use xlink:href="#aue5b7X2G" opacity="1" fill="#e2ba40" fill-opacity="1"></use><g><use xlink:href="#aue5b7X2G" opacity="1" fill-opacity="0" stroke="#000000" stroke-width="1" stroke-opacity="0"></use></g></g><g><use xlink:href="#ckpvzfmEc" opacity="1" fill="#e2b940" fill-opacity="1"></use><g><use xlink:href="#ckpvzfmEc" opacity="1" fill-opacity="0" stroke="#ce451b" stroke-width="2" stroke-opacity="0"></use></g></g><g><use xlink:href="#bWiqseR93" opacity="1" fill="#000000" fill-opacity="1"></use><g><use xlink:href="#bWiqseR93" opacity="1" fill-opacity="0" stroke="#000000" stroke-width="1" stroke-opacity="1"></use></g></g><g><use xlink:href="#a3t0ebJVtQ" opacity="1" fill="#000000" fill-opacity="1"></use><g><use xlink:href="#a3t0ebJVtQ" opacity="1" fill-opacity="0" stroke="#000000" stroke-width="1" stroke-opacity="1"></use></g></g><g><use xlink:href="#d8I1lPnMpD" opacity="1" fill="#000000" fill-opacity="1"></use><g><use xlink:href="#d8I1lPnMpD" opacity="1" fill-opacity="0" stroke="#000000" stroke-width="1" stroke-opacity="1"></use></g></g><g><use xlink:href="#a6fwVqixj" opacity="1" fill="#000000" fill-opacity="1"></use><g><use xlink:href="#a6fwVqixj" opacity="1" fill-opacity="0" stroke="#000000" stroke-width="1" stroke-opacity="1"></use></g></g><g><use xlink:href="#a2MLHHpvAl" opacity="1" fill="#000000" fill-opacity="1"></use><g><use xlink:href="#a2MLHHpvAl" opacity="1" fill-opacity="0" stroke="#000000" stroke-width="1" stroke-opacity="1"></use></g></g><g><use xlink:href="#au6hoQUK2" opacity="1" fill="#000000" fill-opacity="1"></use><g><use xlink:href="#au6hoQUK2" opacity="1" fill-opacity="0" stroke="#000000" stroke-width="1" stroke-opacity="1"></use></g></g><g><use xlink:href="#b28clN7AKH" opacity="1" fill="#bada55" fill-opacity="1"></use><g><use xlink:href="#b28clN7AKH" opacity="1" fill-opacity="0" stroke="#000000" stroke-width="1" stroke-opacity="1"></use></g></g><g><use xlink:href="#akjD87KWn" opacity="1" fill="#000000" fill-opacity="0"></use><g><use xlink:href="#akjD87KWn" opacity="1" fill-opacity="0" stroke="#000000" stroke-width="1" stroke-opacity="1"></use></g></g><g><use xlink:href="#f4SdS7375C" opacity="1" fill="#ffae00" fill-opacity="1"></use><g><use xlink:href="#f4SdS7375C" opacity="1" fill-opacity="0" stroke="#000000" stroke-width="1" stroke-opacity="1"></use></g></g><g><use xlink:href="#a6sL3ngXSc" opacity="1" fill="#000000" fill-opacity="0"></use><g><use xlink:href="#a6sL3ngXSc" opacity="1" fill-opacity="0" stroke="#000000" stroke-width="1" stroke-opacity="1"></use></g></g><g><use xlink:href="#aSw2bcLaJ" opacity="1" fill="#000000" fill-opacity="0"></use><g><use xlink:href="#aSw2bcLaJ" opacity="1" fill-opacity="0" stroke="#000000" stroke-width="1" stroke-opacity="1"></use></g></g><g><use xlink:href="#ffaweDPaG" opacity="1" fill="#000000" fill-opacity="0"></use><g><use xlink:href="#ffaweDPaG" opacity="1" fill-opacity="0" stroke="#000000" stroke-width="1" stroke-opacity="1"></use></g></g><g><use xlink:href="#beqri5Qvq" opacity="1" fill="#000000" fill-opacity="0"></use><g><use xlink:href="#beqri5Qvq" opacity="1" fill-opacity="0" stroke="#000000" stroke-width="1" stroke-opacity="1"></use></g></g><g><use xlink:href="#haXMt72Vs" opacity="1" fill="#bfb839" fill-opacity="0"></use><g><use xlink:href="#haXMt72Vs" opacity="1" fill-opacity="0" stroke="#e2b940" stroke-width="8" stroke-opacity="1"></use></g></g><g><use xlink:href="#b1s6NrZq8i" opacity="1" fill="#000000" fill-opacity="0"></use><g><use xlink:href="#b1s6NrZq8i" opacity="1" fill-opacity="0" stroke="#000000" stroke-width="1" stroke-opacity="1"></use></g></g><g><use xlink:href="#aMXu3z0SQ" opacity="1" fill="url(#gradientfpNWiK9LH)"></use><g><use xlink:href="#aMXu3z0SQ" opacity="1" fill-opacity="0" stroke="#000000" stroke-width="4" stroke-opacity="1"></use></g></g><g><use xlink:href="#b6qv55jrO7" opacity="1" fill="#c33725" fill-opacity="1"></use><g><use xlink:href="#b6qv55jrO7" opacity="1" fill-opacity="0" stroke="#bada55" stroke-width="1" stroke-opacity="0"></use></g></g><g><use xlink:href="#bbh1mFpJb" opacity="1" fill="#c33725" fill-opacity="1"></use><g><use xlink:href="#bbh1mFpJb" opacity="1" fill-opacity="0" stroke="#000000" stroke-width="1" stroke-opacity="0"></use></g></g><g><use xlink:href="#b3KHLU2wnn" opacity="1" fill="url(#gradienta1eklL3mi)"></use><g><use xlink:href="#b3KHLU2wnn" opacity="1" fill-opacity="0" stroke="#bada55" stroke-width="1" stroke-opacity="0"></use></g></g><g><use xlink:href="#d3RlGh3C7C" opacity="1" fill="url(#gradientm18XjC6GsA)"></use><g><use xlink:href="#d3RlGh3C7C" opacity="1" fill-opacity="0" stroke="#bada55" stroke-width="1" stroke-opacity="0"></use></g></g><g><use xlink:href="#cB2ryi9Zd" opacity="1" fill="#000000" fill-opacity="0"></use><g><use xlink:href="#cB2ryi9Zd" opacity="1" fill-opacity="0" stroke="#000000" stroke-width="1" stroke-opacity="1"></use></g></g><g><use xlink:href="#b1WXACzHj" opacity="1" fill="url(#gradientgb7WiblnL)"></use><g><use xlink:href="#b1WXACzHj" opacity="1" fill-opacity="0" stroke="#000000" stroke-width="1" stroke-opacity="0"></use></g></g><g><use xlink:href="#b3NZq5DXJ" opacity="1" fill="#000000" fill-opacity="0"></use><g><use xlink:href="#b3NZq5DXJ" opacity="1" fill-opacity="0" stroke="#000000" stroke-width="1" stroke-opacity="1"></use></g></g><g><use xlink:href="#dE1Ur12lS" opacity="1" fill="#000000" fill-opacity="0"></use><g><use xlink:href="#dE1Ur12lS" opacity="1" fill-opacity="0" stroke="#000000" stroke-width="1" stroke-opacity="1"></use></g></g><g><use xlink:href="#a1ESp0Jjon" opacity="1" fill="#000000" fill-opacity="0"></use><g><use xlink:href="#a1ESp0Jjon" opacity="1" fill-opacity="0" stroke="#000000" stroke-width="1" stroke-opacity="1"></use></g></g><g><use xlink:href="#c1kgASvmJK" opacity="1" fill="#000000" fill-opacity="0"></use><g><use xlink:href="#c1kgASvmJK" opacity="1" fill-opacity="0" stroke="#000000" stroke-width="1" stroke-opacity="1"></use></g></g><g><use xlink:href="#f3G9WvYGIO" opacity="1" fill="url(#gradientb3nfcOblAP)"></use><g><use xlink:href="#f3G9WvYGIO" opacity="1" fill-opacity="0" stroke="#bada55" stroke-width="1" stroke-opacity="0"></use></g></g></g></g></svg>