<?xml version="1.0" encoding="UTF-8" standalone="no"?>
<!DOCTYPE svg PUBLIC "-//W3C//DTD SVG 1.1//EN" "http://www.w3.org/Graphics/SVG/1.1/DTD/svg11.dtd">
<svg xmlns="http://www.w3.org/2000/svg" version="1.1" viewBox="0 0 1000 1000" width="1000.0pt" height="1000.0pt" xmlns:xlink="http://www.w3.org/1999/xlink">
<defs>
<path d="M 0.00 0.00 L 1000.00 0.00 L 1000.00 1000.00 L 0.00 1000.00 L 0.00 0.00 Z M 202.48 250.99 C 201.93 264.18 202.81 277.27 204.00 290.40 C 210.22 349.56 223.98 408.50 241.71 465.23 C 246.17 478.74 250.52 492.34 255.53 505.66 C 254.17 506.66 252.81 507.63 251.25 508.32 C 235.84 514.93 220.74 522.26 205.88 530.02 C 208.79 535.87 211.66 541.75 214.73 547.52 C 214.17 547.82 213.61 548.13 213.05 548.43 C 195.81 556.97 178.84 565.13 163.27 576.81 C 179.38 584.28 195.61 591.53 211.83 598.80 C 208.72 618.28 204.52 637.63 201.25 657.10 C 216.78 647.32 233.02 639.99 249.79 632.62 C 261.30 627.55 273.03 623.12 284.75 618.59 L 286.16 618.41 C 284.78 614.11 282.57 610.21 281.00 605.99 L 281.44 604.64 C 285.97 602.83 290.68 601.40 295.29 599.81 C 328.51 667.43 369.52 730.86 420.80 786.23 C 426.37 792.61 432.52 798.50 438.47 804.54 C 453.81 820.15 470.22 834.71 487.18 848.53 C 487.77 848.96 488.36 849.39 488.95 849.82 C 497.08 842.32 505.98 835.65 514.04 828.05 C 527.47 816.22 540.02 803.32 552.51 790.51 C 605.84 733.70 648.79 668.28 682.83 598.32 C 687.47 599.84 692.02 601.56 696.60 603.25 C 694.77 607.60 692.76 611.87 690.87 616.20 C 690.56 616.89 690.26 617.59 689.95 618.28 C 705.75 623.27 721.03 630.05 736.18 636.72 C 749.28 642.80 762.82 648.93 774.84 656.99 C 774.25 650.28 772.58 643.68 771.47 636.97 C 769.10 624.24 766.61 611.52 764.36 598.76 C 780.60 591.48 796.80 584.08 813.06 576.82 C 807.78 572.42 801.66 568.76 795.76 565.24 C 785.39 559.22 774.74 553.65 763.82 548.72 C 766.39 543.36 769.08 538.11 771.97 532.91 C 772.43 531.80 773.60 530.35 773.29 529.14 C 769.87 526.65 765.84 524.98 762.17 522.88 C 749.53 515.91 736.44 509.89 723.37 503.78 L 723.14 502.82 C 727.41 489.44 732.29 476.23 736.43 462.79 C 753.20 408.58 766.38 352.45 772.83 296.03 C 774.46 281.03 775.30 265.99 774.76 250.90 C 752.43 236.86 728.67 225.46 704.20 215.67 C 652.05 195.12 597.19 183.15 541.42 178.03 C 523.77 176.71 505.95 175.36 488.25 175.50 C 460.42 175.60 432.56 177.88 404.99 181.58 C 341.78 190.47 278.66 208.90 222.37 239.37 C 215.59 242.99 209.09 247.07 202.48 250.99 Z" id="p0" />
<path d="M 488.25 175.50 C 488.29 187.77 488.66 200.11 488.06 212.36 C 480.94 213.03 473.79 212.74 466.67 213.54 C 440.54 215.65 415.21 223.19 391.75 234.77 C 367.93 247.07 346.53 263.74 329.27 284.28 C 319.53 295.42 311.77 307.75 304.76 320.74 C 301.26 327.28 298.66 334.18 295.58 340.91 C 293.14 346.29 291.34 351.99 289.70 357.66 C 285.37 373.95 282.45 391.11 282.78 408.00 C 282.89 418.75 282.72 429.23 284.61 439.60 C 287.05 456.79 292.37 473.61 299.30 489.50 C 287.96 493.45 276.61 497.78 265.50 502.35 C 262.06 503.69 259.27 505.51 255.53 505.66 C 250.52 492.34 246.17 478.74 241.71 465.23 C 223.98 408.50 210.22 349.56 204.00 290.40 C 202.81 277.27 201.93 264.18 202.48 250.99 C 209.09 247.07 215.59 242.99 222.37 239.37 C 278.66 208.90 341.78 190.47 404.99 181.58 C 432.56 177.88 460.42 175.60 488.25 175.50 Z" id="p1" />
<path d="M 488.25 175.50 C 505.95 175.36 523.77 176.71 541.42 178.03 C 597.19 183.15 652.05 195.12 704.20 215.67 C 728.67 225.46 752.43 236.86 774.76 250.90 C 775.30 265.99 774.46 281.03 772.83 296.03 C 766.38 352.45 753.20 408.58 736.43 462.79 C 732.29 476.23 727.41 489.44 723.14 502.82 C 718.48 502.39 714.80 500.17 710.56 498.45 C 698.83 493.58 686.96 489.00 674.90 485.00 C 674.35 484.26 673.79 483.52 673.24 482.78 C 676.24 474.30 679.38 466.13 681.38 457.32 C 689.44 423.86 688.68 388.08 678.75 355.10 C 667.87 318.23 645.71 285.37 616.38 260.62 C 580.81 230.43 534.67 213.33 488.02 212.91 L 488.06 212.36 C 488.66 200.11 488.29 187.77 488.25 175.50 Z" id="p2" />
<path d="M 488.06 212.36 L 488.02 212.91 C 487.70 216.93 487.66 220.96 487.68 225.00 C 487.64 253.33 487.69 281.67 487.69 310.00 C 487.76 315.43 487.17 320.53 488.58 325.86 L 488.28 325.86 C 486.75 325.85 485.22 325.84 483.68 325.82 C 483.47 302.33 483.64 278.83 483.59 255.33 C 469.52 255.36 455.42 255.18 441.35 255.41 C 429.99 264.95 418.75 274.34 407.35 283.82 C 405.39 279.16 402.02 275.40 399.28 270.95 C 400.71 268.85 402.15 266.77 403.75 264.79 C 410.77 256.11 417.62 247.29 424.60 238.58 C 427.90 234.42 431.34 230.45 434.23 225.98 C 428.20 226.85 422.71 229.00 416.99 230.98 C 392.81 239.64 370.40 253.09 351.57 270.56 C 344.74 276.70 338.58 283.45 332.50 290.32 C 326.77 297.08 321.67 304.41 316.93 311.90 C 311.67 320.18 307.61 328.93 303.22 337.66 C 301.09 340.18 299.63 343.02 297.25 345.29 C 296.68 343.84 296.13 342.37 295.58 340.91 C 298.66 334.18 301.26 327.28 304.76 320.74 C 311.77 307.75 319.53 295.42 329.27 284.28 C 346.53 263.74 367.93 247.07 391.75 234.77 C 415.21 223.19 440.54 215.65 466.67 213.54 C 473.79 212.74 480.94 213.03 488.06 212.36 Z" id="p3" />
<path d="M 488.02 212.91 C 534.67 213.33 580.81 230.43 616.38 260.62 C 645.71 285.37 667.87 318.23 678.75 355.10 C 688.68 388.08 689.44 423.86 681.38 457.32 C 679.38 466.13 676.24 474.30 673.24 482.78 C 673.79 483.52 674.35 484.26 674.90 485.00 C 670.91 483.70 666.90 482.45 662.93 481.10 C 664.31 481.19 665.69 481.26 667.08 481.31 C 679.21 452.39 683.09 419.74 679.53 388.66 C 679.04 385.11 679.20 381.05 676.80 378.18 C 674.86 375.59 672.84 373.27 671.88 370.09 C 666.82 353.97 661.29 338.01 656.10 321.92 C 654.74 318.19 653.90 314.18 652.21 310.59 C 651.58 310.33 650.94 310.08 650.28 309.87 C 653.59 321.80 658.02 333.44 661.71 345.27 C 664.46 354.16 667.79 362.90 670.34 371.85 C 671.53 375.11 669.11 376.99 667.44 379.45 C 653.89 396.89 640.39 414.34 626.60 431.58 C 625.00 433.43 623.36 436.26 621.05 437.21 C 616.23 436.09 611.69 433.67 607.05 431.96 C 590.99 425.76 575.08 419.22 559.03 412.99 C 556.51 411.96 553.68 411.14 551.43 409.58 C 550.49 408.09 549.97 406.26 549.45 404.59 C 545.90 392.24 542.06 379.96 538.44 367.62 C 537.57 364.56 536.38 361.62 535.28 358.64 C 535.27 345.30 535.14 331.94 535.36 318.61 C 537.09 319.88 538.80 321.18 540.43 322.60 C 555.14 335.55 569.98 348.35 584.71 361.29 C 586.30 362.66 587.94 363.97 589.60 365.27 C 589.76 343.96 589.66 322.66 589.65 301.35 C 571.46 285.89 552.82 270.94 534.81 255.27 C 520.74 255.35 506.65 255.20 492.58 255.35 C 492.37 278.85 492.71 302.37 492.39 325.87 C 491.12 325.87 489.85 325.87 488.58 325.86 C 487.17 320.53 487.76 315.43 487.69 310.00 C 487.69 281.67 487.64 253.33 487.68 225.00 C 487.66 220.96 487.70 216.93 488.02 212.91 Z M 534.87 225.90 C 536.31 228.17 537.83 230.38 539.48 232.50 C 548.15 243.84 556.66 255.30 565.40 266.59 C 566.71 268.32 568.14 270.15 569.09 272.11 C 568.08 274.77 565.90 276.99 564.64 279.57 C 567.69 278.18 569.39 275.68 571.46 273.20 C 573.97 273.75 576.46 274.34 578.88 275.19 C 601.14 283.21 623.23 291.50 644.92 300.95 C 641.38 294.87 636.44 289.46 631.80 284.20 C 610.32 260.39 583.09 241.93 552.90 231.11 C 546.84 229.06 541.24 226.77 534.87 225.90 Z" id="p4" />
<path d="M 434.23 225.98 C 431.34 230.45 427.90 234.42 424.60 238.58 C 417.62 247.29 410.77 256.11 403.75 264.79 C 402.15 266.77 400.71 268.85 399.28 270.95 C 402.02 275.40 405.39 279.16 407.35 283.82 L 406.42 284.61 C 403.28 280.57 400.93 275.21 396.99 271.94 C 395.00 272.12 393.14 272.62 391.24 273.18 C 377.04 277.51 362.91 282.04 348.85 286.79 C 344.02 288.44 339.27 289.79 334.70 292.00 C 333.98 291.43 333.24 290.87 332.50 290.32 C 338.58 283.45 344.74 276.70 351.57 270.56 C 370.40 253.09 392.81 239.64 416.99 230.98 C 422.71 229.00 428.20 226.85 434.23 225.98 Z" id="p5" />
<path d="M 534.87 225.90 C 541.24 226.77 546.84 229.06 552.90 231.11 C 583.09 241.93 610.32 260.39 631.80 284.20 C 636.44 289.46 641.38 294.87 644.92 300.95 C 623.23 291.50 601.14 283.21 578.88 275.19 C 576.46 274.34 573.97 273.75 571.46 273.20 C 569.39 275.68 567.69 278.18 564.64 279.57 C 565.90 276.99 568.08 274.77 569.09 272.11 C 568.14 270.15 566.71 268.32 565.40 266.59 C 556.66 255.30 548.15 243.84 539.48 232.50 C 537.83 230.38 536.31 228.17 534.87 225.90 Z" id="p6" />
<path d="M 441.35 255.41 C 455.42 255.18 469.52 255.36 483.59 255.33 C 483.64 278.83 483.47 302.33 483.68 325.82 C 483.69 369.00 483.68 412.18 483.70 455.36 C 469.30 455.24 455.04 456.63 440.70 457.72 C 440.61 450.25 440.66 442.78 440.65 435.31 C 440.67 405.20 440.66 375.10 440.66 345.00 C 440.65 336.25 440.75 327.51 440.48 318.77 C 438.32 320.56 436.16 322.34 434.03 324.17 C 418.06 337.89 402.32 351.90 386.32 365.59 C 386.27 344.19 386.24 322.78 386.32 301.38 C 392.98 295.74 399.71 290.18 406.42 284.61 L 407.35 283.82 C 418.75 274.34 429.99 264.95 441.35 255.41 Z" id="p7" />
<path d="M 492.58 255.35 C 506.65 255.20 520.74 255.35 534.81 255.27 C 552.82 270.94 571.46 285.89 589.65 301.35 C 589.66 322.66 589.76 343.96 589.60 365.27 C 587.94 363.97 586.30 362.66 584.71 361.29 C 569.98 348.35 555.14 335.55 540.43 322.60 C 538.80 321.18 537.09 319.88 535.36 318.61 C 535.14 331.94 535.27 345.30 535.28 358.64 C 535.17 380.16 535.34 401.69 535.20 423.22 C 534.95 434.30 535.30 445.40 535.04 456.48 C 523.05 455.32 511.03 455.31 499.00 455.33 C 496.70 455.34 494.46 454.97 492.22 454.50 C 492.43 450.00 492.41 445.50 492.39 441.00 C 492.39 402.62 492.39 364.25 492.39 325.87 C 492.71 302.37 492.37 278.85 492.58 255.35 Z" id="p8" />
<path d="M 396.99 271.94 C 400.93 275.21 403.28 280.57 406.42 284.61 C 399.71 290.18 392.98 295.74 386.32 301.38 C 386.24 322.78 386.27 344.19 386.32 365.59 C 402.32 351.90 418.06 337.89 434.03 324.17 C 434.35 326.15 434.52 327.83 433.75 329.73 C 424.73 354.12 416.03 378.66 407.09 403.08 C 406.44 404.75 405.71 406.38 404.96 408.01 C 398.86 409.30 393.10 411.47 387.14 413.23 C 370.48 418.25 353.93 423.68 337.23 428.55 C 332.67 422.70 328.82 416.45 324.69 410.31 C 315.29 396.21 306.54 381.72 297.86 367.16 C 296.63 365.20 296.76 363.70 297.31 361.53 C 303.38 340.19 312.88 319.97 325.88 301.97 C 328.50 298.22 330.80 294.58 334.70 292.00 C 339.27 289.79 344.02 288.44 348.85 286.79 C 362.91 282.04 377.04 277.51 391.24 273.18 C 393.14 272.62 395.00 272.12 396.99 271.94 Z" id="p9" />
<path d="M 332.50 290.32 C 333.24 290.87 333.98 291.43 334.70 292.00 C 330.80 294.58 328.50 298.22 325.88 301.97 C 312.88 319.97 303.38 340.19 297.31 361.53 C 296.76 363.70 296.63 365.20 297.86 367.16 C 306.54 381.72 315.29 396.21 324.69 410.31 C 328.82 416.45 332.67 422.70 337.23 428.55 C 353.93 423.68 370.48 418.25 387.14 413.23 C 393.10 411.47 398.86 409.30 404.96 408.01 C 405.57 408.57 406.18 409.12 406.80 409.67 C 402.94 410.24 399.27 411.29 395.59 412.57 C 379.34 417.61 363.14 422.81 346.89 427.88 C 344.18 428.74 341.22 429.38 338.70 430.72 C 338.02 431.96 338.03 433.61 337.87 434.99 C 337.07 449.19 337.28 463.29 337.30 477.50 C 327.20 480.36 317.15 483.45 307.21 486.81 C 306.18 486.48 305.15 486.14 304.12 485.81 C 292.39 459.43 287.58 429.77 288.99 401.00 C 289.69 386.67 292.42 372.78 296.15 358.96 C 298.13 351.72 301.39 344.92 303.22 337.66 C 307.61 328.93 311.67 320.18 316.93 311.90 C 321.67 304.41 326.77 297.08 332.50 290.32 Z" id="p10" />
<path d="M 650.28 309.87 C 650.94 310.08 651.58 310.33 652.21 310.59 C 653.90 314.18 654.74 318.19 656.10 321.92 C 661.29 338.01 666.82 353.97 671.88 370.09 C 672.84 373.27 674.86 375.59 676.80 378.18 C 679.20 381.05 679.04 385.11 679.53 388.66 C 683.09 419.74 679.21 452.39 667.08 481.31 C 665.69 481.26 664.31 481.19 662.93 481.10 C 649.79 476.82 636.41 473.07 622.92 470.06 C 622.10 469.20 620.56 468.34 620.72 467.03 C 620.36 458.71 621.65 450.28 621.04 441.97 C 621.07 438.81 618.41 438.85 616.18 437.73 C 601.50 432.25 587.13 425.97 572.46 420.43 C 565.31 417.71 558.33 414.38 551.03 412.12 C 545.84 415.25 540.39 418.98 535.65 422.76 L 535.20 423.22 C 535.34 401.69 535.17 380.16 535.28 358.64 C 536.38 361.62 537.57 364.56 538.44 367.62 C 542.06 379.96 545.90 392.24 549.45 404.59 C 549.97 406.26 550.49 408.09 551.43 409.58 C 553.68 411.14 556.51 411.96 559.03 412.99 C 575.08 419.22 590.99 425.76 607.05 431.96 C 611.69 433.67 616.23 436.09 621.05 437.21 C 623.36 436.26 625.00 433.43 626.60 431.58 C 640.39 414.34 653.89 396.89 667.44 379.45 C 669.11 376.99 671.53 375.11 670.34 371.85 C 667.79 362.90 664.46 354.16 661.71 345.27 C 658.02 333.44 653.59 321.80 650.28 309.87 Z" id="p11" />
<path d="M 440.48 318.77 C 440.75 327.51 440.65 336.25 440.66 345.00 C 440.66 375.10 440.67 405.20 440.65 435.31 C 433.51 429.77 426.20 424.47 418.99 419.03 C 414.87 415.91 410.64 413.16 406.80 409.67 C 406.18 409.12 405.57 408.57 404.96 408.01 C 405.71 406.38 406.44 404.75 407.09 403.08 C 416.03 378.66 424.73 354.12 433.75 329.73 C 434.52 327.83 434.35 326.15 434.03 324.17 C 436.16 322.34 438.32 320.56 440.48 318.77 Z" id="p12" />
<path d="M 483.68 325.82 C 485.22 325.84 486.75 325.85 488.28 325.86 C 488.45 330.57 488.45 335.29 488.43 340.00 C 488.41 374.67 488.44 409.33 488.40 444.00 C 488.41 447.68 488.35 451.36 488.20 455.04 C 486.71 455.19 485.20 455.29 483.70 455.36 C 483.68 412.18 483.69 369.00 483.68 325.82 Z" id="p13" />
<path d="M 488.28 325.86 L 488.58 325.86 C 489.85 325.87 491.12 325.87 492.39 325.87 C 492.39 364.25 492.39 402.62 492.39 441.00 C 492.41 445.50 492.43 450.00 492.22 454.50 C 490.88 454.68 489.54 454.87 488.20 455.04 C 488.35 451.36 488.41 447.68 488.40 444.00 C 488.44 409.33 488.41 374.67 488.43 340.00 C 488.45 335.29 488.45 330.57 488.28 325.86 Z" id="p14" />
<path d="M 303.22 337.66 C 301.39 344.92 298.13 351.72 296.15 358.96 C 292.42 372.78 289.69 386.67 288.99 401.00 C 287.58 429.77 292.39 459.43 304.12 485.81 C 305.15 486.14 306.18 486.48 307.21 486.81 C 304.58 487.72 301.94 488.60 299.30 489.50 C 292.37 473.61 287.05 456.79 284.61 439.60 C 282.72 429.23 282.89 418.75 282.78 408.00 C 282.45 391.11 285.37 373.95 289.70 357.66 C 291.34 351.99 293.14 346.29 295.58 340.91 C 296.13 342.37 296.68 343.84 297.25 345.29 C 299.63 343.02 301.09 340.18 303.22 337.66 Z" id="p15" />
<path d="M 406.80 409.67 C 410.64 413.16 414.87 415.91 418.99 419.03 C 426.20 424.47 433.51 429.77 440.65 435.31 C 440.66 442.78 440.61 450.25 440.70 457.72 C 405.59 461.41 371.30 468.03 337.30 477.50 C 337.28 463.29 337.07 449.19 337.87 434.99 C 338.03 433.61 338.02 431.96 338.70 430.72 C 341.22 429.38 344.18 428.74 346.89 427.88 C 363.14 422.81 379.34 417.61 395.59 412.57 C 399.27 411.29 402.94 410.24 406.80 409.67 Z" id="p16" />
<path d="M 551.03 412.12 C 558.33 414.38 565.31 417.71 572.46 420.43 C 587.13 425.97 601.50 432.25 616.18 437.73 C 618.41 438.85 621.07 438.81 621.04 441.97 C 621.65 450.28 620.36 458.71 620.72 467.03 C 620.56 468.34 622.10 469.20 622.92 470.06 C 601.05 464.74 578.71 461.00 556.36 458.48 C 549.56 457.37 542.71 457.40 535.88 456.62 C 535.16 445.39 535.64 434.02 535.65 422.76 C 540.39 418.98 545.84 415.25 551.03 412.12 Z" id="p17" />
<path d="M 535.20 423.22 L 535.65 422.76 C 535.64 434.02 535.16 445.39 535.88 456.62 C 542.71 457.40 549.56 457.37 556.36 458.48 C 578.71 461.00 601.05 464.74 622.92 470.06 C 636.41 473.07 649.79 476.82 662.93 481.10 C 666.90 482.45 670.91 483.70 674.90 485.00 C 686.96 489.00 698.83 493.58 710.56 498.45 C 714.80 500.17 718.48 502.39 723.14 502.82 L 723.37 503.78 C 736.44 509.89 749.53 515.91 762.17 522.88 C 765.84 524.98 769.87 526.65 773.29 529.14 C 773.60 530.35 772.43 531.80 771.97 532.91 C 769.08 538.11 766.39 543.36 763.82 548.72 C 762.22 551.53 760.61 554.31 759.15 557.19 C 750.82 573.48 742.37 589.71 734.00 605.98 C 732.09 609.48 730.97 613.28 727.77 615.76 C 717.61 611.11 707.08 607.13 696.60 603.25 C 692.02 601.56 687.47 599.84 682.83 598.32 C 656.56 588.48 629.41 580.84 602.08 574.57 C 586.38 571.17 570.58 568.28 554.65 566.18 C 548.45 565.45 542.24 564.70 536.02 564.12 L 535.19 564.05 C 520.92 562.72 506.69 562.30 492.38 561.88 C 490.99 561.88 489.61 561.92 488.22 561.98 C 486.71 562.06 485.20 562.13 483.69 562.19 C 469.32 562.24 454.94 563.20 440.66 564.74 C 425.33 566.28 410.08 568.66 395.01 571.81 C 368.16 577.04 341.85 584.36 315.84 592.76 C 308.96 595.03 302.05 597.18 295.29 599.81 C 290.68 601.40 285.97 602.83 281.44 604.64 L 281.00 605.99 C 280.40 605.75 279.79 605.53 279.18 605.31 C 270.13 608.54 261.08 611.84 252.12 615.31 C 251.16 615.42 250.19 615.53 249.23 615.63 C 239.58 596.93 230.19 578.10 220.70 559.32 C 218.98 556.07 217.62 552.44 215.42 549.49 C 214.83 548.95 214.03 548.60 213.05 548.43 C 213.61 548.13 214.17 547.82 214.73 547.52 C 211.66 541.75 208.79 535.87 205.88 530.02 C 220.74 522.26 235.84 514.93 251.25 508.32 C 252.81 507.63 254.17 506.66 255.53 505.66 C 259.27 505.51 262.06 503.69 265.50 502.35 C 276.61 497.78 287.96 493.45 299.30 489.50 C 301.94 488.60 304.58 487.72 307.21 486.81 C 317.15 483.45 327.20 480.36 337.30 477.50 C 371.30 468.03 405.59 461.41 440.70 457.72 C 455.04 456.63 469.30 455.24 483.70 455.36 C 485.20 455.29 486.71 455.19 488.20 455.04 C 489.54 454.87 490.88 454.68 492.22 454.50 C 494.46 454.97 496.70 455.34 499.00 455.33 C 511.03 455.31 523.05 455.32 535.04 456.48 C 535.30 445.40 534.95 434.30 535.20 423.22 Z M 480.32 532.46 C 481.42 532.47 482.52 532.47 483.62 532.48 C 483.65 533.77 483.68 535.06 483.71 536.35 C 486.95 536.35 490.19 536.35 493.43 536.34 C 493.46 531.39 493.44 526.45 493.50 521.50 C 494.52 521.52 495.55 521.54 496.58 521.56 C 496.58 525.17 496.61 528.78 496.65 532.39 C 499.85 532.30 503.05 532.28 506.26 532.38 C 504.27 532.48 502.28 532.56 500.29 532.64 C 500.32 533.87 500.34 535.11 500.37 536.35 C 503.44 536.35 506.51 536.36 509.58 536.42 C 509.90 524.61 509.64 512.79 509.74 500.98 C 509.65 497.91 509.56 493.64 505.64 493.18 C 504.58 490.78 503.69 488.82 500.89 488.22 C 496.31 487.33 490.63 487.37 486.01 488.05 C 482.09 488.87 480.25 492.14 480.37 495.97 C 480.37 508.13 480.21 520.30 480.32 532.46 Z M 461.27 489.54 C 461.43 495.58 462.12 501.56 462.51 507.58 C 460.96 507.67 459.41 507.75 457.86 507.81 C 457.78 503.03 457.59 498.26 457.39 493.49 L 454.38 493.69 C 454.37 498.42 454.76 503.13 454.60 507.86 C 453.40 501.78 453.38 495.69 453.53 489.53 C 450.43 489.70 447.38 490.01 444.31 490.45 C 444.58 504.90 446.22 519.33 446.53 533.79 C 447.81 533.78 449.08 533.77 450.36 533.76 C 450.35 535.12 450.35 536.47 450.34 537.83 C 453.45 537.73 456.56 537.61 459.67 537.50 C 459.54 531.84 459.49 526.21 458.58 520.61 C 460.01 520.42 461.45 520.25 462.88 520.07 C 463.35 524.32 463.60 528.52 463.64 532.80 C 466.60 532.66 469.55 532.46 472.50 532.23 C 472.18 527.17 472.33 522.09 472.03 517.03 C 471.06 507.57 470.49 498.02 470.56 488.51 C 467.43 488.67 464.36 489.01 461.27 489.54 Z M 513.38 532.57 C 514.55 532.63 515.72 532.71 516.89 532.78 C 516.84 534.02 516.79 535.26 516.74 536.50 C 523.49 536.65 530.34 537.84 537.06 537.40 C 540.96 536.88 542.88 533.47 543.23 529.84 C 543.55 525.47 544.31 520.41 542.89 516.19 C 542.12 515.38 541.33 514.57 540.54 513.78 C 540.21 518.68 540.37 524.10 539.05 528.83 C 539.26 523.39 540.31 517.34 538.92 512.04 C 539.59 512.65 540.26 513.26 540.93 513.87 C 544.51 509.87 544.71 505.01 544.18 499.91 C 543.84 497.53 541.99 495.73 540.46 494.00 C 538.38 491.97 536.63 490.03 533.54 489.78 C 528.68 489.43 523.83 489.39 518.99 488.80 C 517.89 488.73 515.63 488.44 515.70 490.11 C 515.10 504.27 513.76 518.40 513.38 532.57 Z M 419.10 537.35 C 421.72 540.33 423.85 541.74 428.02 541.12 C 432.84 540.31 440.43 541.04 442.99 536.01 C 444.20 532.86 443.45 528.69 443.28 525.36 C 442.37 525.02 441.46 524.68 440.54 524.36 C 440.34 527.40 440.71 530.13 439.09 532.86 C 439.45 528.80 439.48 524.74 439.43 520.67 C 436.44 521.02 433.46 521.40 430.49 521.79 C 430.61 524.47 430.73 527.16 430.84 529.85 C 428.64 530.26 426.44 530.63 424.22 530.94 C 422.65 524.28 422.54 517.33 421.48 510.56 C 421.13 506.83 420.40 503.03 420.48 499.28 C 421.12 497.02 424.98 497.44 426.79 497.20 L 427.45 498.11 C 425.38 498.29 423.31 498.47 421.24 498.66 C 421.95 508.46 423.27 518.23 424.45 527.98 C 424.40 530.05 425.29 530.75 427.13 530.08 C 427.64 527.84 426.99 525.28 426.74 522.99 C 425.91 516.29 425.22 509.56 424.42 502.85 C 425.48 502.51 426.53 502.15 427.58 501.78 C 427.64 500.73 427.68 499.67 427.70 498.62 C 428.18 500.39 428.48 502.19 428.76 504.00 C 431.43 503.60 434.10 503.21 436.77 502.82 C 435.94 499.10 436.61 493.46 432.48 491.75 C 427.58 490.78 422.03 491.58 417.15 492.56 C 413.99 493.25 411.66 495.67 411.49 498.97 C 411.29 503.62 412.33 508.38 412.81 513.01 C 413.64 518.99 413.80 525.13 415.00 531.04 C 415.51 533.79 417.34 535.34 419.10 537.35 Z M 471.36 492.67 C 471.89 506.04 472.99 519.39 473.52 532.76 C 471.52 532.81 469.52 532.86 467.52 532.90 C 467.47 534.23 467.43 535.56 467.39 536.89 C 470.50 536.78 473.61 536.67 476.72 536.56 C 476.73 529.49 476.33 522.58 475.64 515.55 C 475.65 507.83 474.54 500.21 474.49 492.50 C 473.44 492.55 472.40 492.61 471.36 492.67 Z M 550.49 491.26 C 548.97 501.80 548.21 512.42 546.89 522.99 C 546.62 526.80 545.70 530.80 546.12 534.59 C 547.28 534.89 548.45 535.13 549.63 535.29 C 549.52 536.40 549.41 537.50 549.30 538.61 C 555.92 539.46 562.59 540.09 569.24 540.75 C 569.42 538.04 569.61 535.33 569.79 532.61 C 568.49 532.62 567.19 532.62 565.89 532.63 C 566.03 531.35 566.16 530.08 566.29 528.80 C 563.00 528.70 559.68 528.66 556.42 528.27 C 557.65 528.06 558.88 527.86 560.11 527.67 C 561.11 517.01 562.48 506.39 563.44 495.72 C 562.16 495.68 560.87 495.63 559.58 495.59 C 559.21 500.46 558.67 505.30 557.88 510.12 C 557.94 503.94 558.81 497.94 559.62 491.83 C 556.58 491.64 553.53 491.45 550.49 491.26 Z M 570.29 537.42 C 571.47 537.68 572.65 537.95 573.83 538.18 C 573.74 539.24 573.65 540.29 573.56 541.35 C 580.15 542.49 586.79 543.35 593.39 544.42 C 593.82 541.81 594.26 539.19 594.66 536.57 C 593.36 536.45 592.06 536.35 590.77 536.24 C 590.38 537.57 590.01 538.90 589.65 540.24 C 590.04 537.71 590.36 535.17 590.69 532.63 C 587.16 532.27 583.63 531.88 580.10 531.50 C 580.43 527.63 581.00 523.88 581.91 520.10 C 585.04 520.55 588.17 521.04 591.30 521.56 C 591.90 519.37 592.47 517.17 593.02 514.97 C 591.12 514.59 589.22 514.24 587.32 513.91 C 587.68 511.64 588.07 509.37 588.47 507.11 C 592.05 507.57 595.61 508.10 599.18 508.57 C 599.39 505.92 599.59 503.27 599.77 500.62 C 598.46 500.56 597.15 500.51 595.83 500.46 C 595.88 499.24 595.91 498.01 595.93 496.78 C 589.44 496.43 583.12 494.49 576.65 494.38 C 575.79 497.46 575.48 500.83 575.02 503.99 C 573.47 515.13 571.36 526.23 570.29 537.42 Z M 392.51 496.75 C 394.18 509.04 396.56 521.27 398.64 533.50 C 397.58 533.88 396.52 534.27 395.44 534.59 C 394.02 527.08 392.86 519.53 391.53 512.00 C 390.87 508.55 390.74 504.71 389.34 501.47 L 387.47 501.70 C 387.29 504.16 387.53 506.57 387.89 508.99 C 386.98 505.33 386.39 501.82 386.16 498.05 C 383.11 498.32 380.07 498.64 377.03 499.07 C 377.78 508.12 379.90 517.04 381.23 526.02 C 382.47 532.06 381.93 537.47 386.97 541.86 C 388.38 543.21 389.94 545.57 391.99 545.68 C 396.23 546.10 400.69 545.16 404.83 544.29 C 407.77 543.62 410.38 542.19 411.32 539.13 C 411.79 536.55 411.32 533.72 410.87 531.17 C 408.91 520.46 407.26 509.70 405.29 498.99 C 404.36 499.24 403.43 499.49 402.51 499.76 L 402.85 502.07 C 402.41 499.74 401.89 497.42 401.38 495.11 C 398.40 495.61 395.45 496.08 392.51 496.75 Z M 436.76 495.87 C 436.88 497.10 437.01 498.34 437.15 499.57 C 437.29 500.84 437.43 502.12 437.56 503.39 C 435.48 503.70 433.38 503.97 431.35 504.56 C 431.48 505.65 431.70 506.70 432.01 507.73 C 434.88 507.89 437.85 507.58 440.72 507.37 C 440.55 502.80 440.76 498.94 436.76 495.87 Z M 606.26 525.34 L 604.21 525.47 C 606.98 528.39 609.77 529.35 613.68 530.05 C 613.41 532.42 613.11 534.99 612.11 537.17 C 610.85 538.50 608.73 537.60 607.24 537.17 C 609.77 537.56 609.76 536.47 610.87 534.70 C 609.23 534.34 607.59 533.98 605.94 533.63 C 606.13 532.63 606.31 531.62 606.50 530.62 C 603.57 529.92 600.64 529.45 597.65 529.13 C 597.22 531.72 596.58 534.41 596.63 537.04 C 596.74 539.55 598.83 541.45 600.37 543.24 C 602.07 545.08 603.61 546.79 606.17 547.35 C 610.04 548.27 614.05 549.33 618.04 549.44 C 621.29 549.32 623.59 547.10 624.47 544.07 C 625.77 539.70 626.72 534.52 627.26 529.98 C 627.44 527.13 625.79 525.46 623.96 523.57 C 623.31 529.60 622.94 536.61 620.07 542.07 C 620.85 537.85 621.61 533.65 622.62 529.48 C 623.24 526.88 623.53 523.43 621.88 521.15 C 619.98 519.09 616.52 518.39 613.90 517.79 C 614.20 515.80 614.48 513.81 614.76 511.82 C 615.23 511.55 615.69 511.27 616.15 511.00 C 618.64 513.79 621.74 513.18 625.13 513.73 C 626.17 510.36 626.70 507.15 625.23 503.78 C 623.36 501.37 619.61 500.74 616.80 500.10 C 613.65 499.55 609.83 498.71 606.73 499.69 C 603.09 501.45 602.57 505.42 601.74 508.96 C 601.11 512.50 599.97 516.48 600.55 520.06 C 601.22 523.15 603.77 523.99 606.26 525.34 Z M 360.10 548.53 C 358.35 548.77 356.58 548.91 354.82 549.08 C 356.79 550.85 358.01 552.82 360.98 552.62 C 365.36 552.37 369.77 551.20 373.97 549.98 C 377.19 549.06 379.64 546.53 379.43 543.01 C 379.03 537.29 377.05 531.67 376.00 526.03 C 374.38 519.92 373.83 512.80 370.60 507.43 C 370.01 507.44 369.41 507.46 368.82 507.47 C 367.88 505.60 366.87 502.96 364.59 502.47 C 360.58 501.68 355.93 502.93 352.00 503.87 C 349.49 504.60 346.10 505.27 344.75 507.75 C 343.03 510.69 343.95 513.71 344.52 516.83 C 346.25 524.30 347.96 531.77 349.59 539.25 C 350.23 541.79 350.90 545.25 352.96 547.04 C 354.87 548.39 357.84 548.44 360.10 548.53 Z M 626.94 505.78 C 626.68 508.48 626.78 511.41 626.02 514.02 C 623.59 515.27 621.07 512.25 620.06 516.34 C 623.14 517.08 626.24 517.64 629.37 518.08 C 630.18 514.54 631.07 511.42 629.24 507.98 C 628.48 507.24 627.71 506.51 626.94 505.78 Z M 313.14 514.70 C 313.87 517.90 313.59 520.79 316.93 522.52 C 317.72 523.77 318.35 525.09 318.99 526.42 C 320.26 526.05 321.54 525.70 322.81 525.34 C 323.11 526.16 323.40 526.99 323.69 527.81 C 326.76 536.68 328.86 545.88 331.51 554.88 C 332.36 554.73 333.22 554.57 334.07 554.40 C 334.39 555.92 334.71 557.45 335.04 558.97 C 338.24 558.30 341.37 557.46 344.49 556.45 C 341.21 544.97 337.83 533.46 334.99 521.85 C 337.20 521.29 339.40 520.73 341.62 520.18 C 341.09 517.86 340.60 515.54 340.08 513.22 L 339.56 512.95 C 338.60 512.48 337.60 512.08 336.62 511.67 C 336.41 510.61 336.21 509.55 336.00 508.50 C 328.34 510.40 320.77 512.67 313.14 514.70 Z M 639.59 551.01 C 640.87 551.39 642.15 551.76 643.44 552.14 C 643.45 553.14 643.46 554.14 643.48 555.14 C 646.43 555.85 649.39 556.54 652.38 557.07 C 653.85 551.72 655.29 546.36 656.75 541.01 C 659.96 541.61 663.13 542.36 666.30 543.08 C 666.93 540.57 667.51 538.05 668.01 535.51 C 666.62 535.15 665.23 534.78 663.83 534.43 C 664.06 533.55 664.29 532.68 664.51 531.81 C 662.28 531.19 660.06 530.54 657.84 529.90 L 659.81 529.69 C 660.49 527.49 661.05 525.25 661.63 523.03 C 664.95 523.72 668.22 524.60 671.46 525.59 C 672.38 522.97 673.18 520.32 673.90 517.63 C 672.57 517.27 671.23 516.93 669.89 516.60 C 669.23 518.27 668.63 519.96 668.00 521.63 C 668.32 518.85 668.94 516.44 669.96 513.84 C 665.34 512.45 660.68 511.20 656.02 509.93 C 654.37 509.52 652.56 509.05 650.86 509.31 C 646.99 523.16 643.12 537.07 639.59 551.01 Z M 671.49 560.36 C 671.61 561.18 671.71 562.01 671.87 562.82 C 674.88 565.06 679.02 565.94 682.57 567.09 C 685.42 567.88 689.80 568.58 691.92 565.93 C 694.20 563.24 695.12 559.14 695.96 555.78 C 694.50 555.40 693.04 555.01 691.58 554.63 C 691.76 553.75 691.93 552.87 692.08 551.99 C 689.38 551.07 686.67 550.20 683.93 549.39 C 683.08 551.85 682.22 554.30 681.37 556.76 C 680.46 556.65 679.55 556.54 678.64 556.39 C 680.97 552.44 681.72 548.30 683.18 544.00 C 684.82 539.02 686.27 533.97 687.99 529.02 L 689.88 528.46 C 689.77 529.96 689.67 531.48 689.59 532.99 C 692.18 533.49 694.77 533.99 697.36 534.53 C 698.57 531.32 699.91 528.53 698.94 525.00 C 698.55 522.02 695.32 521.02 692.92 520.07 C 689.01 518.83 684.28 516.73 680.14 517.40 C 676.74 518.24 675.42 521.81 674.40 524.77 C 671.86 532.84 669.25 540.89 666.71 548.96 C 665.95 551.86 664.94 554.54 666.69 557.33 C 667.73 559.31 669.61 559.51 671.49 560.36 Z M 592.78 518.29 C 592.49 519.69 592.19 521.08 591.89 522.48 C 588.73 521.96 585.56 521.46 582.39 521.02 C 581.78 524.45 581.07 527.68 581.36 531.19 L 584.41 531.53 C 585.34 529.27 585.46 526.97 585.75 524.56 C 588.98 525.10 592.22 525.56 595.48 525.94 C 595.91 523.50 596.31 521.05 596.66 518.60 C 595.37 518.50 594.08 518.39 592.78 518.29 Z M 278.92 532.28 C 279.90 534.76 280.89 537.18 282.36 539.41 L 284.01 540.09 C 285.01 541.53 285.87 543.04 286.75 544.55 C 289.41 543.02 292.09 541.52 294.79 540.05 C 294.22 538.55 293.65 537.04 293.08 535.54 C 292.53 535.69 291.98 535.86 291.43 536.02 C 292.28 535.64 293.16 535.29 294.02 534.93 C 295.62 541.36 298.17 547.35 300.89 553.36 C 297.04 555.29 293.08 556.98 289.10 558.63 C 290.10 561.70 291.24 564.70 292.82 567.52 L 295.17 567.04 C 295.38 568.59 295.60 570.14 295.83 571.69 C 306.19 569.14 316.18 565.07 326.43 562.06 C 325.24 558.31 324.41 554.18 322.66 550.66 L 320.62 549.66 C 320.79 550.78 320.98 551.90 321.18 553.01 C 320.37 550.66 319.56 548.32 318.80 545.95 C 315.12 547.16 311.69 548.92 308.11 550.38 C 306.77 543.64 304.40 537.19 302.68 530.51 C 301.92 528.37 301.83 525.78 299.41 524.84 C 299.46 526.62 299.58 528.40 299.75 530.18 C 298.65 527.24 297.95 524.19 297.28 521.13 C 291.03 524.61 285.04 528.57 278.92 532.28 Z M 700.26 525.13 C 699.80 528.60 699.18 531.97 698.08 535.30 C 695.73 535.15 694.01 533.79 692.27 536.16 C 695.35 537.42 698.37 538.35 701.62 539.00 C 702.34 536.40 703.32 533.68 703.42 530.97 C 703.38 528.40 701.77 526.97 700.26 525.13 Z" id="p18" />
<path d="M 486.01 488.05 C 490.63 487.37 496.31 487.33 500.89 488.22 C 503.69 488.82 504.58 490.78 505.64 493.18 C 506.55 497.49 506.23 501.64 506.25 506.00 C 506.25 514.79 506.24 523.59 506.26 532.38 C 503.05 532.28 499.85 532.30 496.65 532.39 C 496.61 528.78 496.58 525.17 496.58 521.56 C 496.58 520.26 496.58 518.96 496.58 517.66 C 494.27 517.67 491.95 517.68 489.63 517.69 C 489.64 522.61 489.65 527.54 489.61 532.47 C 487.62 532.48 485.62 532.48 483.62 532.48 C 482.52 532.47 481.42 532.47 480.32 532.46 C 480.21 520.30 480.37 508.13 480.37 495.97 C 480.25 492.14 482.09 488.87 486.01 488.05 Z M 489.64 494.40 C 489.60 499.82 489.65 505.24 489.66 510.66 C 491.79 510.70 494.21 510.89 496.24 510.23 C 497.12 505.16 496.84 499.41 496.63 494.23 C 494.72 493.00 491.53 493.12 489.64 494.40 Z" id="p19" />
<path d="M 470.56 488.51 C 470.49 498.02 471.06 507.57 472.03 517.03 C 472.33 522.09 472.18 527.17 472.50 532.23 C 469.55 532.46 466.60 532.66 463.64 532.80 C 463.60 528.52 463.35 524.32 462.88 520.07 C 462.78 518.76 462.68 517.44 462.59 516.13 C 460.16 516.23 457.74 516.33 455.31 516.42 C 455.48 522.14 455.60 527.83 456.45 533.50 C 454.42 533.61 452.39 533.71 450.36 533.76 C 449.08 533.77 447.81 533.78 446.53 533.79 C 446.22 519.33 444.58 504.90 444.31 490.45 C 447.38 490.01 450.43 489.70 453.53 489.53 C 453.38 495.69 453.40 501.78 454.60 507.86 C 455.69 507.85 456.77 507.83 457.86 507.81 C 459.41 507.75 460.96 507.67 462.51 507.58 C 462.12 501.56 461.43 495.58 461.27 489.54 C 464.36 489.01 467.43 488.67 470.56 488.51 Z" id="p20" />
<path d="M 518.99 488.80 C 523.83 489.39 528.68 489.43 533.54 489.78 C 536.63 490.03 538.38 491.97 540.46 494.00 C 540.46 497.87 540.90 502.11 539.93 505.87 C 539.40 507.86 537.94 508.75 536.50 510.03 C 537.32 510.69 538.14 511.34 538.92 512.04 C 540.31 517.34 539.26 523.39 539.05 528.83 C 538.05 531.51 535.97 533.31 533.06 533.51 C 527.69 533.78 522.24 533.19 516.89 532.78 C 515.72 532.71 514.55 532.63 513.38 532.57 C 513.76 518.40 515.10 504.27 515.70 490.11 C 515.63 488.44 517.89 488.73 518.99 488.80 Z M 524.18 507.93 C 526.25 507.82 528.33 507.71 530.41 507.58 C 530.66 503.95 531.68 500.13 531.29 496.51 C 530.48 494.64 526.60 495.24 524.91 495.08 C 523.97 499.20 524.31 503.71 524.18 507.93 Z M 523.79 514.37 C 523.55 518.47 523.48 522.58 523.26 526.68 C 524.55 526.69 525.84 526.70 527.12 526.71 C 528.07 526.72 529.02 526.73 529.96 526.74 C 530.26 523.88 530.48 521.01 530.53 518.12 C 530.54 516.93 530.54 515.74 530.53 514.55 C 528.29 514.45 526.03 514.34 523.79 514.37 Z" id="p21" />
<path d="M 432.48 491.75 C 436.61 493.46 435.94 499.10 436.77 502.82 C 434.10 503.21 431.43 503.60 428.76 504.00 C 428.48 502.19 428.18 500.39 427.70 498.62 L 427.64 498.41 L 427.45 498.11 L 426.79 497.20 C 424.98 497.44 421.12 497.02 420.48 499.28 C 420.40 503.03 421.13 506.83 421.48 510.56 C 422.54 517.33 422.65 524.28 424.22 530.94 C 426.44 530.63 428.64 530.26 430.84 529.85 C 430.73 527.16 430.61 524.47 430.49 521.79 C 433.46 521.40 436.44 521.02 439.43 520.67 C 439.48 524.74 439.45 528.80 439.09 532.86 C 437.48 535.09 435.14 535.87 432.53 536.29 C 428.08 536.90 423.61 537.37 419.10 537.35 C 417.34 535.34 415.51 533.79 415.00 531.04 C 413.80 525.13 413.64 518.99 412.81 513.01 C 412.33 508.38 411.29 503.62 411.49 498.97 C 411.66 495.67 413.99 493.25 417.15 492.56 C 422.03 491.58 427.58 490.78 432.48 491.75 Z" id="p22" />
<path d="M 474.49 492.50 C 474.54 500.21 475.65 507.83 475.64 515.55 C 476.33 522.58 476.73 529.49 476.72 536.56 C 473.61 536.67 470.50 536.78 467.39 536.89 C 467.43 535.56 467.47 534.23 467.52 532.90 C 469.52 532.86 471.52 532.81 473.52 532.76 C 472.99 519.39 471.89 506.04 471.36 492.67 C 472.40 492.61 473.44 492.55 474.49 492.50 Z" id="p23" />
<path d="M 550.49 491.26 C 553.53 491.45 556.58 491.64 559.62 491.83 C 558.81 497.94 557.94 503.94 557.88 510.12 C 557.41 516.14 556.09 522.29 556.42 528.27 C 559.68 528.66 563.00 528.70 566.29 528.80 C 566.16 530.08 566.03 531.35 565.89 532.63 C 565.75 534.04 565.60 535.46 565.45 536.87 C 560.16 536.49 554.92 535.66 549.63 535.29 C 548.45 535.13 547.28 534.89 546.12 534.59 C 545.70 530.80 546.62 526.80 546.89 522.99 C 548.21 512.42 548.97 501.80 550.49 491.26 Z" id="p24" />
<path d="M 496.63 494.23 C 496.84 499.41 497.12 505.16 496.24 510.23 C 494.21 510.89 491.79 510.70 489.66 510.66 C 490.95 510.30 492.23 509.94 493.52 509.59 C 493.45 506.02 493.42 502.45 493.49 498.88 C 494.54 498.32 495.56 497.71 496.56 497.06 L 496.32 494.83 C 494.11 494.43 491.91 494.48 489.64 494.40 C 491.53 493.12 494.72 493.00 496.63 494.23 Z" id="p25" />
<path d="M 509.74 500.98 C 509.64 512.79 509.90 524.61 509.58 536.42 C 506.51 536.36 503.44 536.35 500.37 536.35 C 500.34 535.11 500.32 533.87 500.29 532.64 C 502.28 532.56 504.27 532.48 506.26 532.38 C 506.24 523.59 506.25 514.79 506.25 506.00 C 506.23 501.64 506.55 497.49 505.64 493.18 C 509.56 493.64 509.65 497.91 509.74 500.98 Z" id="p26" />
<path d="M 454.38 493.69 L 457.39 493.49 C 457.59 498.26 457.78 503.03 457.86 507.81 C 456.77 507.83 455.69 507.85 454.60 507.86 C 454.76 503.13 454.37 498.42 454.38 493.69 Z" id="p27" />
<path d="M 540.46 494.00 C 541.99 495.73 543.84 497.53 544.18 499.91 C 544.71 505.01 544.51 509.87 540.93 513.87 C 540.26 513.26 539.59 512.65 538.92 512.04 C 538.14 511.34 537.32 510.69 536.50 510.03 C 537.94 508.75 539.40 507.86 539.93 505.87 C 540.90 502.11 540.46 497.87 540.46 494.00 Z" id="p28" />
<path d="M 576.65 494.38 C 583.12 494.49 589.44 496.43 595.93 496.78 C 595.91 498.01 595.88 499.24 595.83 500.46 C 595.65 501.88 595.46 503.29 595.26 504.70 C 591.76 504.18 588.26 503.59 584.72 503.29 C 584.28 506.65 583.71 509.99 583.27 513.34 C 584.62 513.52 585.97 513.70 587.32 513.91 C 589.22 514.24 591.12 514.59 593.02 514.97 C 592.47 517.17 591.90 519.37 591.30 521.56 C 588.17 521.04 585.04 520.55 581.91 520.10 C 581.00 523.88 580.43 527.63 580.10 531.50 C 583.63 531.88 587.16 532.27 590.69 532.63 C 590.36 535.17 590.04 537.71 589.65 540.24 L 589.58 540.58 C 584.36 539.55 579.09 538.97 573.83 538.18 C 572.65 537.95 571.47 537.68 570.29 537.42 C 571.36 526.23 573.47 515.13 575.02 503.99 C 575.48 500.83 575.79 497.46 576.65 494.38 Z" id="p29" />
<path d="M 489.64 494.40 C 491.91 494.48 494.11 494.43 496.32 494.83 L 496.56 497.06 C 495.56 497.71 494.54 498.32 493.49 498.88 C 493.42 502.45 493.45 506.02 493.52 509.59 C 492.23 509.94 490.95 510.30 489.66 510.66 C 489.65 505.24 489.60 499.82 489.64 494.40 Z" id="p30" />
<path d="M 524.91 495.08 C 526.60 495.24 530.48 494.64 531.29 496.51 C 531.68 500.13 530.66 503.95 530.41 507.58 C 528.33 507.71 526.25 507.82 524.18 507.93 C 524.31 503.71 523.97 499.20 524.91 495.08 Z M 524.89 496.19 C 524.75 499.95 524.58 503.70 524.43 507.46 C 525.69 507.46 526.95 507.46 528.20 507.45 C 528.32 504.94 528.44 502.43 528.61 499.92 C 529.44 499.67 530.25 499.40 531.06 499.10 L 530.79 496.79 C 528.99 496.10 526.80 496.28 524.89 496.19 Z" id="p31" />
<path d="M 401.38 495.11 C 401.89 497.42 402.41 499.74 402.85 502.07 C 403.85 508.05 404.99 514.01 405.91 520.00 C 406.68 524.82 408.18 530.15 407.57 535.00 C 407.34 537.63 404.75 539.48 402.38 540.11 C 397.35 541.43 392.16 541.98 386.97 541.86 C 381.93 537.47 382.47 532.06 381.23 526.02 C 379.90 517.04 377.78 508.12 377.03 499.07 C 380.07 498.64 383.11 498.32 386.16 498.05 C 386.39 501.82 386.98 505.33 387.89 508.99 C 389.63 517.57 390.67 526.29 392.53 534.84 C 393.50 534.76 394.47 534.68 395.44 534.59 C 396.52 534.27 397.58 533.88 398.64 533.50 C 396.56 521.27 394.18 509.04 392.51 496.75 C 395.45 496.08 398.40 495.61 401.38 495.11 Z" id="p32" />
<path d="M 559.58 495.59 C 560.87 495.63 562.16 495.68 563.44 495.72 C 562.48 506.39 561.11 517.01 560.11 527.67 C 558.88 527.86 557.65 528.06 556.42 528.27 C 556.09 522.29 557.41 516.14 557.88 510.12 C 558.67 505.30 559.21 500.46 559.58 495.59 Z" id="p33" />
<path d="M 436.76 495.87 C 440.76 498.94 440.55 502.80 440.72 507.37 C 437.85 507.58 434.88 507.89 432.01 507.73 C 431.70 506.70 431.48 505.65 431.35 504.56 C 433.38 503.97 435.48 503.70 437.56 503.39 C 437.43 502.12 437.29 500.84 437.15 499.57 C 437.01 498.34 436.88 497.10 436.76 495.87 Z" id="p34" />
<path d="M 524.89 496.19 C 526.80 496.28 528.99 496.10 530.79 496.79 L 531.06 499.10 C 530.25 499.40 529.44 499.67 528.61 499.92 C 528.44 502.43 528.32 504.94 528.20 507.45 C 526.95 507.46 525.69 507.46 524.43 507.46 C 524.58 503.70 524.75 499.95 524.89 496.19 Z" id="p35" />
<path d="M 427.45 498.11 L 427.64 498.41 L 427.70 498.62 C 427.68 499.67 427.64 500.73 427.58 501.78 C 426.53 502.15 425.48 502.51 424.42 502.85 C 425.22 509.56 425.91 516.29 426.74 522.99 C 426.99 525.28 427.64 527.84 427.13 530.08 C 425.29 530.75 424.40 530.05 424.45 527.98 C 423.27 518.23 421.95 508.46 421.24 498.66 C 423.31 498.47 425.38 498.29 427.45 498.11 Z" id="p36" />
<path d="M 405.29 498.99 C 407.26 509.70 408.91 520.46 410.87 531.17 C 411.32 533.72 411.79 536.55 411.32 539.13 C 410.38 542.19 407.77 543.62 404.83 544.29 C 400.69 545.16 396.23 546.10 391.99 545.68 C 389.94 545.57 388.38 543.21 386.97 541.86 C 392.16 541.98 397.35 541.43 402.38 540.11 C 404.75 539.48 407.34 537.63 407.57 535.00 C 408.18 530.15 406.68 524.82 405.91 520.00 C 404.99 514.01 403.85 508.05 402.85 502.07 L 402.51 499.76 C 403.43 499.49 404.36 499.24 405.29 498.99 Z" id="p37" />
<path d="M 616.80 500.10 C 619.61 500.74 623.36 501.37 625.23 503.78 C 626.70 507.15 626.17 510.36 625.13 513.73 C 621.74 513.18 618.64 513.79 616.15 511.00 L 617.39 510.21 C 617.43 509.38 617.47 508.56 617.48 507.74 C 615.52 507.19 613.55 506.70 611.54 506.40 C 610.70 509.35 608.32 514.49 610.11 517.28 C 611.37 517.44 612.64 517.62 613.90 517.79 C 616.52 518.39 619.98 519.09 621.88 521.15 C 623.53 523.43 623.24 526.88 622.62 529.48 C 621.61 533.65 620.85 537.85 620.07 542.07 C 618.63 544.15 616.67 545.70 614.00 545.53 C 609.42 545.38 604.94 543.73 600.37 543.24 C 598.83 541.45 596.74 539.55 596.63 537.04 C 596.58 534.41 597.22 531.72 597.65 529.13 C 600.64 529.45 603.57 529.92 606.50 530.62 C 606.31 531.62 606.13 532.63 605.94 533.63 C 605.77 534.59 605.60 535.55 605.42 536.51 L 607.24 537.17 C 608.73 537.60 610.85 538.50 612.11 537.17 C 613.11 534.99 613.41 532.42 613.68 530.05 C 613.73 528.96 613.74 527.88 613.75 526.80 C 611.25 526.33 608.77 525.79 606.26 525.34 C 603.77 523.99 601.22 523.15 600.55 520.06 C 599.97 516.48 601.11 512.50 601.74 508.96 C 602.57 505.42 603.09 501.45 606.73 499.69 C 609.83 498.71 613.65 499.55 616.80 500.10 Z" id="p38" />
<path d="M 595.83 500.46 C 597.15 500.51 598.46 500.56 599.77 500.62 C 599.59 503.27 599.39 505.92 599.18 508.57 C 595.61 508.10 592.05 507.57 588.47 507.11 C 588.07 509.37 587.68 511.64 587.32 513.91 C 585.97 513.70 584.62 513.52 583.27 513.34 C 583.71 509.99 584.28 506.65 584.72 503.29 C 588.26 503.59 591.76 504.18 595.26 504.70 C 595.46 503.29 595.65 501.88 595.83 500.46 Z" id="p39" />
<path d="M 364.59 502.47 C 366.87 502.96 367.88 505.60 368.82 507.47 C 371.30 516.19 372.89 525.18 375.06 534.00 C 375.85 537.94 376.77 542.39 372.87 545.01 C 369.02 547.01 364.30 547.54 360.10 548.53 C 357.84 548.44 354.87 548.39 352.96 547.04 C 350.90 545.25 350.23 541.79 349.59 539.25 C 347.96 531.77 346.25 524.30 344.52 516.83 C 343.95 513.71 343.03 510.69 344.75 507.75 C 346.10 505.27 349.49 504.60 352.00 503.87 C 355.93 502.93 360.58 501.68 364.59 502.47 Z M 353.14 510.34 C 354.88 520.86 357.70 531.26 359.98 541.67 C 362.29 541.46 364.41 540.99 366.62 540.28 C 364.56 530.48 362.28 520.73 360.10 510.96 L 359.63 509.07 C 357.44 509.38 355.27 509.72 353.14 510.34 Z" id="p40" />
<path d="M 387.47 501.70 L 389.34 501.47 C 390.74 504.71 390.87 508.55 391.53 512.00 C 392.86 519.53 394.02 527.08 395.44 534.59 C 394.47 534.68 393.50 534.76 392.53 534.84 C 390.67 526.29 389.63 517.57 387.89 508.99 C 387.53 506.57 387.29 504.16 387.47 501.70 Z" id="p41" />
<path d="M 611.54 506.40 C 613.55 506.70 615.52 507.19 617.48 507.74 C 615.57 507.66 613.65 507.56 611.74 507.46 C 611.05 510.71 610.58 513.99 610.11 517.28 C 608.32 514.49 610.70 509.35 611.54 506.40 Z" id="p42" />
<path d="M 370.60 507.43 C 373.83 512.80 374.38 519.92 376.00 526.03 C 377.05 531.67 379.03 537.29 379.43 543.01 C 379.64 546.53 377.19 549.06 373.97 549.98 C 369.77 551.20 365.36 552.37 360.98 552.62 C 358.01 552.82 356.79 550.85 354.82 549.08 C 356.58 548.91 358.35 548.77 360.10 548.53 C 364.30 547.54 369.02 547.01 372.87 545.01 C 376.77 542.39 375.85 537.94 375.06 534.00 C 372.89 525.18 371.30 516.19 368.82 507.47 C 369.41 507.46 370.01 507.44 370.60 507.43 Z" id="p43" />
<path d="M 626.94 505.78 C 627.71 506.51 628.48 507.24 629.24 507.98 C 631.07 511.42 630.18 514.54 629.37 518.08 C 626.24 517.64 623.14 517.08 620.06 516.34 C 621.07 512.25 623.59 515.27 626.02 514.02 C 626.78 511.41 626.68 508.48 626.94 505.78 Z" id="p44" />
<path d="M 611.74 507.46 C 613.65 507.56 615.57 507.66 617.48 507.74 C 617.47 508.56 617.43 509.38 617.39 510.21 L 616.15 511.00 C 615.69 511.27 615.23 511.55 614.76 511.82 C 614.48 513.81 614.20 515.80 613.90 517.79 C 612.64 517.62 611.37 517.44 610.11 517.28 C 610.58 513.99 611.05 510.71 611.74 507.46 Z" id="p45" />
<path d="M 336.00 508.50 C 336.21 509.55 336.41 510.61 336.62 511.67 C 337.60 512.08 338.60 512.48 339.56 512.95 C 338.86 512.77 338.16 512.60 337.46 512.43 C 337.56 513.72 337.66 515.01 337.76 516.29 C 335.64 516.83 333.42 517.34 331.40 518.18 C 334.00 529.85 338.02 541.25 340.63 552.93 C 338.44 553.41 336.26 553.94 334.07 554.40 C 333.22 554.57 332.36 554.73 331.51 554.88 C 328.86 545.88 326.76 536.68 323.69 527.81 C 323.08 525.38 322.57 522.92 322.07 520.46 C 320.32 521.05 318.59 521.71 316.93 522.52 C 313.59 520.79 313.87 517.90 313.14 514.70 C 320.77 512.67 328.34 510.40 336.00 508.50 Z" id="p46" />
<path d="M 359.63 509.07 L 360.10 510.96 L 360.40 513.02 C 359.12 513.62 357.83 514.18 356.54 514.75 C 358.33 521.99 359.85 529.28 361.56 536.54 C 361.87 538.03 362.39 539.63 362.26 541.15 L 359.98 541.67 C 357.70 531.26 354.88 520.86 353.14 510.34 C 355.27 509.72 357.44 509.38 359.63 509.07 Z" id="p47" />
<path d="M 650.86 509.31 C 652.56 509.05 654.37 509.52 656.02 509.93 C 660.68 511.20 665.34 512.45 669.96 513.84 C 668.94 516.44 668.32 518.85 668.00 521.63 C 664.64 520.75 661.30 519.84 657.89 519.14 C 657.09 522.52 656.19 525.87 655.29 529.23 C 656.14 529.45 656.99 529.68 657.84 529.90 C 660.06 530.54 662.28 531.19 664.51 531.81 C 664.29 532.68 664.06 533.55 663.83 534.43 C 663.39 536.11 662.90 537.78 662.40 539.45 C 659.28 538.42 656.15 537.55 652.87 537.19 C 651.69 542.71 650.26 548.20 648.43 553.55 C 646.77 553.07 645.10 552.61 643.44 552.14 C 642.15 551.76 640.87 551.39 639.59 551.01 C 643.12 537.07 646.99 523.16 650.86 509.31 Z" id="p48" />
<path d="M 360.10 510.96 C 362.28 520.73 364.56 530.48 366.62 540.28 C 364.41 540.99 362.29 541.46 359.98 541.67 L 362.26 541.15 C 362.39 539.63 361.87 538.03 361.56 536.54 C 359.85 529.28 358.33 521.99 356.54 514.75 C 357.83 514.18 359.12 513.62 360.40 513.02 L 360.10 510.96 Z" id="p49" />
<path d="M 339.56 512.95 L 340.08 513.22 C 340.60 515.54 341.09 517.86 341.62 520.18 C 339.40 520.73 337.20 521.29 334.99 521.85 C 337.83 533.46 341.21 544.97 344.49 556.45 C 341.37 557.46 338.24 558.30 335.04 558.97 C 334.71 557.45 334.39 555.92 334.07 554.40 C 336.26 553.94 338.44 553.41 340.63 552.93 C 338.02 541.25 334.00 529.85 331.40 518.18 C 333.42 517.34 335.64 516.83 337.76 516.29 C 337.66 515.01 337.56 513.72 337.46 512.43 C 338.16 512.60 338.86 512.77 339.56 512.95 Z" id="p50" />
<path d="M 530.53 514.55 C 530.54 515.74 530.54 516.93 530.53 518.12 C 529.54 518.19 528.55 518.27 527.57 518.36 C 527.32 521.13 527.23 523.93 527.12 526.71 C 525.84 526.70 524.55 526.69 523.26 526.68 C 523.48 522.58 523.55 518.47 523.79 514.37 C 526.03 514.34 528.29 514.45 530.53 514.55 Z" id="p51" />
<path d="M 540.54 513.78 C 541.33 514.57 542.12 515.38 542.89 516.19 C 544.31 520.41 543.55 525.47 543.23 529.84 C 542.88 533.47 540.96 536.88 537.06 537.40 C 530.34 537.84 523.49 536.65 516.74 536.50 C 516.79 535.26 516.84 534.02 516.89 532.78 C 522.24 533.19 527.69 533.78 533.06 533.51 C 535.97 533.31 538.05 531.51 539.05 528.83 C 540.37 524.10 540.21 518.68 540.54 513.78 Z" id="p52" />
<path d="M 462.59 516.13 C 462.68 517.44 462.78 518.76 462.88 520.07 C 461.45 520.25 460.01 520.42 458.58 520.61 C 459.49 526.21 459.54 531.84 459.67 537.50 C 456.56 537.61 453.45 537.73 450.34 537.83 C 450.35 536.47 450.35 535.12 450.36 533.76 C 452.39 533.71 454.42 533.61 456.45 533.50 C 455.60 527.83 455.48 522.14 455.31 516.42 C 457.74 516.33 460.16 516.23 462.59 516.13 Z" id="p53" />
<path d="M 496.58 517.66 C 496.58 518.96 496.58 520.26 496.58 521.56 C 495.55 521.54 494.52 521.52 493.50 521.50 C 493.44 526.45 493.46 531.39 493.43 536.34 C 490.19 536.35 486.95 536.35 483.71 536.35 C 483.68 535.06 483.65 533.77 483.62 532.48 C 485.62 532.48 487.62 532.48 489.61 532.47 C 489.65 527.54 489.64 522.61 489.63 517.69 C 491.95 517.68 494.27 517.67 496.58 517.66 Z" id="p54" />
<path d="M 669.89 516.60 C 671.23 516.93 672.57 517.27 673.90 517.63 C 673.18 520.32 672.38 522.97 671.46 525.59 C 668.22 524.60 664.95 523.72 661.63 523.03 C 661.05 525.25 660.49 527.49 659.81 529.69 L 657.84 529.90 C 656.99 529.68 656.14 529.45 655.29 529.23 C 656.19 525.87 657.09 522.52 657.89 519.14 C 661.30 519.84 664.64 520.75 668.00 521.63 C 668.63 519.96 669.23 518.27 669.89 516.60 Z" id="p55" />
<path d="M 680.14 517.40 C 684.28 516.73 689.01 518.83 692.92 520.07 C 695.32 521.02 698.55 522.02 698.94 525.00 C 699.91 528.53 698.57 531.32 697.36 534.53 C 694.77 533.99 692.18 533.49 689.59 532.99 C 689.67 531.48 689.77 529.96 689.88 528.46 L 690.86 528.15 C 690.68 527.38 690.48 526.60 690.29 525.82 C 688.44 525.35 686.59 524.85 684.72 524.43 C 682.55 529.80 681.10 535.47 679.26 540.97 C 677.82 545.87 675.91 550.16 675.19 555.17 C 676.34 555.58 677.49 555.99 678.64 556.39 C 679.55 556.54 680.46 556.65 681.37 556.76 C 682.22 554.30 683.08 551.85 683.93 549.39 C 686.67 550.20 689.38 551.07 692.08 551.99 C 691.93 552.87 691.76 553.75 691.58 554.63 C 690.71 557.97 689.61 561.44 686.49 563.35 C 681.89 564.91 676.89 562.52 672.59 561.04 C 672.35 561.63 672.11 562.23 671.87 562.82 C 671.71 562.01 671.61 561.18 671.49 560.36 C 669.61 559.51 667.73 559.31 666.69 557.33 C 664.94 554.54 665.95 551.86 666.71 548.96 C 669.25 540.89 671.86 532.84 674.40 524.77 C 675.42 521.81 676.74 518.24 680.14 517.40 Z" id="p56" />
<path d="M 527.57 518.36 C 528.55 518.27 529.54 518.19 530.53 518.12 C 530.48 521.01 530.26 523.88 529.96 526.74 C 529.02 526.73 528.07 526.72 527.12 526.71 C 527.23 523.93 527.32 521.13 527.57 518.36 Z" id="p57" />
<path d="M 592.78 518.29 C 594.08 518.39 595.37 518.50 596.66 518.60 C 596.31 521.05 595.91 523.50 595.48 525.94 C 592.22 525.56 588.98 525.10 585.75 524.56 C 585.46 526.97 585.34 529.27 584.41 531.53 L 581.36 531.19 C 581.07 527.68 581.78 524.45 582.39 521.02 C 585.56 521.46 588.73 521.96 591.89 522.48 C 592.19 521.08 592.49 519.69 592.78 518.29 Z" id="p58" />
<path d="M 322.07 520.46 C 322.57 522.92 323.08 525.38 323.69 527.81 C 323.40 526.99 323.11 526.16 322.81 525.34 C 321.54 525.70 320.26 526.05 318.99 526.42 C 318.35 525.09 317.72 523.77 316.93 522.52 C 318.59 521.71 320.32 521.05 322.07 520.46 Z" id="p59" />
<path d="M 297.28 521.13 C 297.95 524.19 298.65 527.24 299.75 530.18 C 302.08 537.02 303.99 544.03 305.91 551.00 C 306.64 550.80 307.38 550.59 308.11 550.38 C 311.69 548.92 315.12 547.16 318.80 545.95 C 319.56 548.32 320.37 550.66 321.18 553.01 C 321.72 554.71 322.28 556.41 322.82 558.11 C 313.58 560.99 304.47 564.36 295.17 567.04 L 292.82 567.52 C 291.24 564.70 290.10 561.70 289.10 558.63 C 293.08 556.98 297.04 555.29 300.89 553.36 C 298.17 547.35 295.62 541.36 294.02 534.93 C 293.16 535.29 292.28 535.64 291.43 536.02 C 288.90 537.25 286.51 538.79 284.01 540.09 L 282.36 539.41 C 280.89 537.18 279.90 534.76 278.92 532.28 C 285.04 528.57 291.03 524.61 297.28 521.13 Z" id="p60" />
<path d="M 623.96 523.57 C 625.79 525.46 627.44 527.13 627.26 529.98 C 626.72 534.52 625.77 539.70 624.47 544.07 C 623.59 547.10 621.29 549.32 618.04 549.44 C 614.05 549.33 610.04 548.27 606.17 547.35 C 603.61 546.79 602.07 545.08 600.37 543.24 C 604.94 543.73 609.42 545.38 614.00 545.53 C 616.67 545.70 618.63 544.15 620.07 542.07 C 622.94 536.61 623.31 529.60 623.96 523.57 Z" id="p61" />
<path d="M 440.54 524.36 C 441.46 524.68 442.37 525.02 443.28 525.36 C 443.45 528.69 444.20 532.86 442.99 536.01 C 440.43 541.04 432.84 540.31 428.02 541.12 C 423.85 541.74 421.72 540.33 419.10 537.35 C 423.61 537.37 428.08 536.90 432.53 536.29 C 435.14 535.87 437.48 535.09 439.09 532.86 C 440.71 530.13 440.34 527.40 440.54 524.36 Z" id="p62" />
<path d="M 604.21 525.47 L 606.26 525.34 C 608.77 525.79 611.25 526.33 613.75 526.80 C 613.74 527.88 613.73 528.96 613.68 530.05 C 609.77 529.35 606.98 528.39 604.21 525.47 Z" id="p63" />
<path d="M 684.72 524.43 C 686.59 524.85 688.44 525.35 690.29 525.82 C 690.48 526.60 690.68 527.38 690.86 528.15 L 689.88 528.46 L 687.99 529.02 C 686.27 533.97 684.82 539.02 683.18 544.00 C 681.72 548.30 680.97 552.44 678.64 556.39 C 677.49 555.99 676.34 555.58 675.19 555.17 C 675.91 550.16 677.82 545.87 679.26 540.97 C 681.10 535.47 682.55 529.80 684.72 524.43 Z" id="p64" />
<path d="M 299.41 524.84 C 301.83 525.78 301.92 528.37 302.68 530.51 C 304.40 537.19 306.77 543.64 308.11 550.38 C 307.38 550.59 306.64 550.80 305.91 551.00 C 303.99 544.03 302.08 537.02 299.75 530.18 C 299.58 528.40 299.46 526.62 299.41 524.84 Z" id="p65" />
<path d="M 700.26 525.13 C 701.77 526.97 703.38 528.40 703.42 530.97 C 703.32 533.68 702.34 536.40 701.62 539.00 C 698.37 538.35 695.35 537.42 692.27 536.16 C 694.01 533.79 695.73 535.15 698.08 535.30 C 699.18 531.97 699.80 528.60 700.26 525.13 Z" id="p66" />
<path d="M 565.89 532.63 C 567.19 532.62 568.49 532.62 569.79 532.61 C 569.61 535.33 569.42 538.04 569.24 540.75 C 562.59 540.09 555.92 539.46 549.30 538.61 C 549.41 537.50 549.52 536.40 549.63 535.29 C 554.92 535.66 560.16 536.49 565.45 536.87 C 565.60 535.46 565.75 534.04 565.89 532.63 Z" id="p67" />
<path d="M 605.94 533.63 C 607.59 533.98 609.23 534.34 610.87 534.70 C 609.76 536.47 609.77 537.56 607.24 537.17 L 605.42 536.51 C 605.60 535.55 605.77 534.59 605.94 533.63 Z" id="p68" />
<path d="M 663.83 534.43 C 665.23 534.78 666.62 535.15 668.01 535.51 C 667.51 538.05 666.93 540.57 666.30 543.08 C 663.13 542.36 659.96 541.61 656.75 541.01 C 655.29 546.36 653.85 551.72 652.38 557.07 C 649.39 556.54 646.43 555.85 643.48 555.14 C 643.46 554.14 643.45 553.14 643.44 552.14 C 645.10 552.61 646.77 553.07 648.43 553.55 C 650.26 548.20 651.69 542.71 652.87 537.19 C 656.15 537.55 659.28 538.42 662.40 539.45 C 662.90 537.78 663.39 536.11 663.83 534.43 Z" id="p69" />
<path d="M 291.43 536.02 C 291.98 535.86 292.53 535.69 293.08 535.54 C 293.65 537.04 294.22 538.55 294.79 540.05 C 292.09 541.52 289.41 543.02 286.75 544.55 C 285.87 543.04 285.01 541.53 284.01 540.09 C 286.51 538.79 288.90 537.25 291.43 536.02 Z" id="p70" />
<path d="M 590.77 536.24 C 592.06 536.35 593.36 536.45 594.66 536.57 C 594.26 539.19 593.82 541.81 593.39 544.42 C 586.79 543.35 580.15 542.49 573.56 541.35 C 573.65 540.29 573.74 539.24 573.83 538.18 C 579.09 538.97 584.36 539.55 589.58 540.58 L 589.65 540.24 C 590.01 538.90 590.38 537.57 590.77 536.24 Z" id="p71" />
<path d="M 213.05 548.43 C 214.03 548.60 214.83 548.95 215.42 549.49 C 217.62 552.44 218.98 556.07 220.70 559.32 C 230.19 578.10 239.58 596.93 249.23 615.63 C 250.19 615.53 251.16 615.42 252.12 615.31 L 250.91 616.30 C 258.97 616.49 266.96 617.47 275.03 617.56 C 278.31 617.62 281.51 618.17 284.75 618.59 C 273.03 623.12 261.30 627.55 249.79 632.62 C 233.02 639.99 216.78 647.32 201.25 657.10 C 204.52 637.63 208.72 618.28 211.83 598.80 C 195.61 591.53 179.38 584.28 163.27 576.81 C 178.84 565.13 195.81 556.97 213.05 548.43 Z" id="p72" />
<path d="M 763.82 548.72 C 774.74 553.65 785.39 559.22 795.76 565.24 C 801.66 568.76 807.78 572.42 813.06 576.82 C 796.80 584.08 780.60 591.48 764.36 598.76 C 766.61 611.52 769.10 624.24 771.47 636.97 C 772.58 643.68 774.25 650.28 774.84 656.99 C 762.82 648.93 749.28 642.80 736.18 636.72 C 721.03 630.05 705.75 623.27 689.95 618.28 C 690.26 617.59 690.56 616.89 690.87 616.20 L 691.05 617.82 C 698.36 617.62 705.70 617.44 712.99 616.77 C 717.87 616.32 723.07 616.86 727.77 615.76 C 730.97 613.28 732.09 609.48 734.00 605.98 C 742.37 589.71 750.82 573.48 759.15 557.19 C 760.61 554.31 762.22 551.53 763.82 548.72 Z" id="p73" />
<path d="M 320.62 549.66 L 322.66 550.66 C 324.41 554.18 325.24 558.31 326.43 562.06 C 316.18 565.07 306.19 569.14 295.83 571.69 C 295.60 570.14 295.38 568.59 295.17 567.04 C 304.47 564.36 313.58 560.99 322.82 558.11 C 322.28 556.41 321.72 554.71 321.18 553.01 C 320.98 551.90 320.79 550.78 320.62 549.66 Z" id="p74" />
<path d="M 691.58 554.63 C 693.04 555.01 694.50 555.40 695.96 555.78 C 695.12 559.14 694.20 563.24 691.92 565.93 C 689.80 568.58 685.42 567.88 682.57 567.09 C 679.02 565.94 674.88 565.06 671.87 562.82 C 672.11 562.23 672.35 561.63 672.59 561.04 C 676.89 562.52 681.89 564.91 686.49 563.35 C 689.61 561.44 690.71 557.97 691.58 554.63 Z" id="p75" />
<path d="M 483.69 562.19 C 483.69 627.46 483.69 692.73 483.69 758.00 C 483.64 764.11 483.89 770.12 483.41 776.22 C 470.56 739.51 457.27 702.94 444.26 666.28 C 442.83 661.98 440.50 657.53 440.63 653.00 C 440.68 623.59 440.64 594.15 440.66 564.74 C 454.94 563.20 469.32 562.24 483.69 562.19 Z" id="p76" />
<path d="M 483.69 562.19 C 485.20 562.13 486.71 562.06 488.22 561.98 C 488.62 572.31 488.25 582.66 488.45 593.00 C 488.56 597.03 488.11 601.01 487.76 605.01 C 487.57 606.54 487.87 607.75 488.43 609.15 C 489.22 609.45 490.01 609.74 490.80 610.03 C 490.05 610.67 489.30 611.32 488.55 611.96 C 488.46 689.59 488.61 767.38 488.63 845.02 C 488.54 846.80 488.64 847.36 487.18 848.53 C 470.22 834.71 453.81 820.15 438.47 804.54 C 432.52 798.50 426.37 792.61 420.80 786.23 C 369.52 730.86 328.51 667.43 295.29 599.81 C 302.05 597.18 308.96 595.03 315.84 592.76 C 341.85 584.36 368.16 577.04 395.01 571.81 C 410.08 568.66 425.33 566.28 440.66 564.74 C 440.64 594.15 440.68 623.59 440.63 653.00 C 440.50 657.53 442.83 661.98 444.26 666.28 C 457.27 702.94 470.56 739.51 483.41 776.22 C 483.89 770.12 483.64 764.11 483.69 758.00 C 483.69 692.73 483.69 627.46 483.69 562.19 Z" id="p77" />
<path d="M 488.22 561.98 C 489.61 561.92 490.99 561.88 492.38 561.88 C 492.39 575.11 492.41 588.34 492.36 601.57 C 491.28 602.12 490.24 602.71 489.22 603.36 C 488.43 605.05 488.67 607.30 488.43 609.15 C 487.87 607.75 487.57 606.54 487.76 605.01 C 488.11 601.01 488.56 597.03 488.45 593.00 C 488.25 582.66 488.62 572.31 488.22 561.98 Z" id="p78" />
<path d="M 492.38 561.88 C 506.69 562.30 520.92 562.72 535.19 564.05 C 535.24 594.16 535.26 623.89 535.25 654.01 C 535.19 657.95 533.44 661.52 532.17 665.21 C 519.00 702.22 505.79 739.21 492.63 776.22 C 492.22 770.13 492.42 764.09 492.39 758.00 C 492.35 705.86 492.45 653.71 492.36 601.57 C 492.41 588.34 492.39 575.11 492.38 561.88 Z" id="p79" />
<path d="M 535.19 564.05 L 536.02 564.12 C 535.63 574.90 535.68 585.84 536.04 596.62 C 536.11 599.00 536.16 601.39 536.23 603.78 C 557.57 598.27 578.21 588.84 596.36 576.35 C 598.11 575.22 600.05 574.84 602.08 574.57 C 629.41 580.84 656.56 588.48 682.83 598.32 C 648.79 668.28 605.84 733.70 552.51 790.51 C 540.02 803.32 527.47 816.22 514.04 828.05 C 505.98 835.65 497.08 842.32 488.95 849.82 C 488.36 849.39 487.77 848.96 487.18 848.53 C 488.64 847.36 488.54 846.80 488.63 845.02 C 488.61 767.38 488.46 689.59 488.55 611.96 C 489.30 611.32 490.05 610.67 490.80 610.03 C 490.01 609.74 489.22 609.45 488.43 609.15 C 488.67 607.30 488.43 605.05 489.22 603.36 C 490.24 602.71 491.28 602.12 492.36 601.57 C 492.45 653.71 492.35 705.86 492.39 758.00 C 492.42 764.09 492.22 770.13 492.63 776.22 C 505.79 739.21 519.00 702.22 532.17 665.21 C 533.44 661.52 535.19 657.95 535.25 654.01 C 535.26 623.89 535.24 594.16 535.19 564.05 Z" id="p80" />
<path d="M 536.02 564.12 C 542.24 564.70 548.45 565.45 554.65 566.18 C 551.92 572.94 547.75 578.85 544.31 585.32 C 541.67 589.58 540.52 593.92 536.04 596.62 C 535.68 585.84 535.63 574.90 536.02 564.12 Z" id="p81" />
<path d="M 554.65 566.18 C 570.58 568.28 586.38 571.17 602.08 574.57 C 600.05 574.84 598.11 575.22 596.36 576.35 C 578.21 588.84 557.57 598.27 536.23 603.78 C 536.16 601.39 536.11 599.00 536.04 596.62 C 540.52 593.92 541.67 589.58 544.31 585.32 C 547.75 578.85 551.92 572.94 554.65 566.18 Z" id="p82" />
<path d="M 696.60 603.25 C 707.08 607.13 717.61 611.11 727.77 615.76 C 723.07 616.86 717.87 616.32 712.99 616.77 C 705.70 617.44 698.36 617.62 691.05 617.82 L 690.87 616.20 C 692.76 611.87 694.77 607.60 696.60 603.25 Z" id="p83" />
<path d="M 279.18 605.31 C 279.79 605.53 280.40 605.75 281.00 605.99 C 282.57 610.21 284.78 614.11 286.16 618.41 L 284.75 618.59 C 281.51 618.17 278.31 617.62 275.03 617.56 C 266.96 617.47 258.97 616.49 250.91 616.30 L 252.12 615.31 C 261.08 611.84 270.13 608.54 279.18 605.31 Z" id="p84" />
</defs>
<g stroke-width="10pt">
<use stroke="#ffffff" xlink:href="#p0" />
<use stroke="#3b4252" xlink:href="#p1" />
<use stroke="#5c606b" xlink:href="#p2" />
<use stroke="#4e5663" xlink:href="#p3" />
<use stroke="#6b6f7a" xlink:href="#p4" />
<use stroke="#343c49" xlink:href="#p5" />
<use stroke="#515560" xlink:href="#p6" />
<use stroke="#e2d5c2" xlink:href="#p7" />
<use stroke="#d8d5ce" xlink:href="#p8" />
<use stroke="#4b5360" xlink:href="#p9" />
<use stroke="#373f4c" xlink:href="#p10" />
<use stroke="#525661" xlink:href="#p11" />
<use stroke="#343c49" xlink:href="#p12" />
<use stroke="#313a4a" xlink:href="#p13" />
<use stroke="#505560" xlink:href="#p14" />
<use stroke="#454d5a" xlink:href="#p15" />
<use stroke="#48505d" xlink:href="#p16" />
<use stroke="#696d78" xlink:href="#p17" />
<use stroke="#909090" xlink:href="#p18" />
<use stroke="#e2d5c2" xlink:href="#p19" />
<use stroke="#e2d5c2" xlink:href="#p20" />
<use stroke="#e2d5c1" xlink:href="#p21" />
<use stroke="#e2d5c1" xlink:href="#p22" />
<use stroke="#060503" xlink:href="#p23" />
<use stroke="#e1d5c1" xlink:href="#p24" />
<use stroke="#929192" xlink:href="#p25" />
<use stroke="#070504" xlink:href="#p26" />
<use stroke="#0e0c0a" xlink:href="#p27" />
<use stroke="#070504" xlink:href="#p28" />
<use stroke="#e2d5c1" xlink:href="#p29" />
<use stroke="#030301" xlink:href="#p30" />
<use stroke="#92918f" xlink:href="#p31" />
<use stroke="#e2d5c1" xlink:href="#p32" />
<use stroke="#060505" xlink:href="#p33" />
<use stroke="#070504" xlink:href="#p34" />
<use stroke="#060605" xlink:href="#p35" />
<use stroke="#070504" xlink:href="#p36" />
<use stroke="#070605" xlink:href="#p37" />
<use stroke="#e2d5c1" xlink:href="#p38" />
<use stroke="#050402" xlink:href="#p39" />
<use stroke="#e2d5c1" xlink:href="#p40" />
<use stroke="#0d0b08" xlink:href="#p41" />
<use stroke="#787166" xlink:href="#p42" />
<use stroke="#070604" xlink:href="#p43" />
<use stroke="#040302" xlink:href="#p44" />
<use stroke="#070503" xlink:href="#p45" />
<use stroke="#e2d5c1" xlink:href="#p46" />
<use stroke="#060505" xlink:href="#p47" />
<use stroke="#e2d5c1" xlink:href="#p48" />
<use stroke="#8f8f8f" xlink:href="#p49" />
<use stroke="#070504" xlink:href="#p50" />
<use stroke="#060503" xlink:href="#p51" />
<use stroke="#070504" xlink:href="#p52" />
<use stroke="#050403" xlink:href="#p53" />
<use stroke="#060402" xlink:href="#p54" />
<use stroke="#060403" xlink:href="#p55" />
<use stroke="#e2d5c1" xlink:href="#p56" />
<use stroke="#939190" xlink:href="#p57" />
<use stroke="#050402" xlink:href="#p58" />
<use stroke="#090807" xlink:href="#p59" />
<use stroke="#e2d5c1" xlink:href="#p60" />
<use stroke="#060504" xlink:href="#p61" />
<use stroke="#060504" xlink:href="#p62" />
<use stroke="#060402" xlink:href="#p63" />
<use stroke="#070504" xlink:href="#p64" />
<use stroke="#0c0b07" xlink:href="#p65" />
<use stroke="#070604" xlink:href="#p66" />
<use stroke="#060503" xlink:href="#p67" />
<use stroke="#10100e" xlink:href="#p68" />
<use stroke="#060403" xlink:href="#p69" />
<use stroke="#060504" xlink:href="#p70" />
<use stroke="#070604" xlink:href="#p71" />
<use stroke="#6b6b6b" xlink:href="#p72" />
<use stroke="#6b6b6b" xlink:href="#p73" />
<use stroke="#070604" xlink:href="#p74" />
<use stroke="#070604" xlink:href="#p75" />
<use stroke="#e2d5c2" xlink:href="#p76" />
<use stroke="#38404d" xlink:href="#p77" />
<use stroke="#525761" xlink:href="#p78" />
<use stroke="#d8d5ce" xlink:href="#p79" />
<use stroke="#5f636f" xlink:href="#p80" />
<use stroke="#545863" xlink:href="#p81" />
<use stroke="#686c77" xlink:href="#p82" />
<use stroke="#2c2c2c" xlink:href="#p83" />
<use stroke="#2c2c2c" xlink:href="#p84" />
</g>
<g>
<use fill="#ffffff" xlink:href="#p0" />
<use fill="#3b4252" xlink:href="#p1" />
<use fill="#5c606b" xlink:href="#p2" />
<use fill="#4e5663" xlink:href="#p3" />
<use fill="#6b6f7a" xlink:href="#p4" />
<use fill="#343c49" xlink:href="#p5" />
<use fill="#515560" xlink:href="#p6" />
<use fill="#e2d5c2" xlink:href="#p7" />
<use fill="#d8d5ce" xlink:href="#p8" />
<use fill="#4b5360" xlink:href="#p9" />
<use fill="#373f4c" xlink:href="#p10" />
<use fill="#525661" xlink:href="#p11" />
<use fill="#343c49" xlink:href="#p12" />
<use fill="#313a4a" xlink:href="#p13" />
<use fill="#505560" xlink:href="#p14" />
<use fill="#454d5a" xlink:href="#p15" />
<use fill="#48505d" xlink:href="#p16" />
<use fill="#696d78" xlink:href="#p17" />
<use fill="#909090" xlink:href="#p18" />
<use fill="#e2d5c2" xlink:href="#p19" />
<use fill="#e2d5c2" xlink:href="#p20" />
<use fill="#e2d5c1" xlink:href="#p21" />
<use fill="#e2d5c1" xlink:href="#p22" />
<use fill="#060503" xlink:href="#p23" />
<use fill="#e1d5c1" xlink:href="#p24" />
<use fill="#929192" xlink:href="#p25" />
<use fill="#070504" xlink:href="#p26" />
<use fill="#0e0c0a" xlink:href="#p27" />
<use fill="#070504" xlink:href="#p28" />
<use fill="#e2d5c1" xlink:href="#p29" />
<use fill="#030301" xlink:href="#p30" />
<use fill="#92918f" xlink:href="#p31" />
<use fill="#e2d5c1" xlink:href="#p32" />
<use fill="#060505" xlink:href="#p33" />
<use fill="#070504" xlink:href="#p34" />
<use fill="#060605" xlink:href="#p35" />
<use fill="#070504" xlink:href="#p36" />
<use fill="#070605" xlink:href="#p37" />
<use fill="#e2d5c1" xlink:href="#p38" />
<use fill="#050402" xlink:href="#p39" />
<use fill="#e2d5c1" xlink:href="#p40" />
<use fill="#0d0b08" xlink:href="#p41" />
<use fill="#787166" xlink:href="#p42" />
<use fill="#070604" xlink:href="#p43" />
<use fill="#040302" xlink:href="#p44" />
<use fill="#070503" xlink:href="#p45" />
<use fill="#e2d5c1" xlink:href="#p46" />
<use fill="#060505" xlink:href="#p47" />
<use fill="#e2d5c1" xlink:href="#p48" />
<use fill="#8f8f8f" xlink:href="#p49" />
<use fill="#070504" xlink:href="#p50" />
<use fill="#060503" xlink:href="#p51" />
<use fill="#070504" xlink:href="#p52" />
<use fill="#050403" xlink:href="#p53" />
<use fill="#060402" xlink:href="#p54" />
<use fill="#060403" xlink:href="#p55" />
<use fill="#e2d5c1" xlink:href="#p56" />
<use fill="#939190" xlink:href="#p57" />
<use fill="#050402" xlink:href="#p58" />
<use fill="#090807" xlink:href="#p59" />
<use fill="#e2d5c1" xlink:href="#p60" />
<use fill="#060504" xlink:href="#p61" />
<use fill="#060504" xlink:href="#p62" />
<use fill="#060402" xlink:href="#p63" />
<use fill="#070504" xlink:href="#p64" />
<use fill="#0c0b07" xlink:href="#p65" />
<use fill="#070604" xlink:href="#p66" />
<use fill="#060503" xlink:href="#p67" />
<use fill="#10100e" xlink:href="#p68" />
<use fill="#060403" xlink:href="#p69" />
<use fill="#060504" xlink:href="#p70" />
<use fill="#070604" xlink:href="#p71" />
<use fill="#6b6b6b" xlink:href="#p72" />
<use fill="#6b6b6b" xlink:href="#p73" />
<use fill="#070604" xlink:href="#p74" />
<use fill="#070604" xlink:href="#p75" />
<use fill="#e2d5c2" xlink:href="#p76" />
<use fill="#38404d" xlink:href="#p77" />
<use fill="#525761" xlink:href="#p78" />
<use fill="#d8d5ce" xlink:href="#p79" />
<use fill="#5f636f" xlink:href="#p80" />
<use fill="#545863" xlink:href="#p81" />
<use fill="#686c77" xlink:href="#p82" />
<use fill="#2c2c2c" xlink:href="#p83" />
<use fill="#2c2c2c" xlink:href="#p84" />
</g>
</svg>