<?xml version="1.0" encoding="UTF-8" standalone="no"?>
<!DOCTYPE svg PUBLIC "-//W3C//DTD SVG 1.1//EN" "http://www.w3.org/Graphics/SVG/1.1/DTD/svg11.dtd">
<svg xmlns="http://www.w3.org/2000/svg" version="1.1" viewBox="0 0 84 82" width="84.0pt" height="82.0pt" xmlns:xlink="http://www.w3.org/1999/xlink">
<defs>
<path d="M 0.00 0.00 L 84.00 0.00 L 84.00 82.00 L 0.00 82.00 L 0.00 0.00 Z M 38.98 8.00 C 33.14 13.55 25.81 16.98 17.99 18.68 C 15.66 19.20 13.14 19.17 10.86 19.85 C 9.10 29.14 10.15 39.16 12.87 48.17 C 14.48 53.76 17.57 58.35 20.10 63.50 C 16.68 65.08 13.38 66.84 10.11 68.69 C 11.80 69.78 14.23 70.71 15.45 72.34 C 15.90 74.19 16.06 76.11 16.30 77.99 C 20.48 75.36 24.87 73.46 29.58 71.98 C 33.21 74.41 36.95 76.39 40.98 78.06 C 44.91 76.28 48.70 74.33 52.28 71.92 C 57.03 73.43 61.48 75.33 65.70 78.00 C 65.96 76.02 66.24 74.04 66.51 72.06 C 68.35 70.97 70.16 69.85 71.94 68.67 C 68.69 66.67 65.40 64.90 61.87 63.45 C 64.61 58.11 67.71 53.34 69.34 47.49 C 71.88 38.67 72.87 28.90 71.14 19.86 C 69.19 19.24 67.00 19.25 64.98 18.86 C 55.89 17.13 47.36 12.91 40.99 6.11 C 40.32 6.75 39.65 7.38 38.98 8.00 Z" id="p0" />
<path d="M 40.99 6.11 C 47.36 12.91 55.89 17.13 64.98 18.86 C 67.00 19.25 69.19 19.24 71.14 19.86 C 72.87 28.90 71.88 38.67 69.34 47.49 C 67.71 53.34 64.61 58.11 61.87 63.45 C 65.40 64.90 68.69 66.67 71.94 68.67 C 70.16 69.85 68.35 70.97 66.51 72.06 C 66.24 74.04 65.96 76.02 65.70 78.00 C 61.48 75.33 57.03 73.43 52.28 71.92 C 48.70 74.33 44.91 76.28 40.98 78.06 C 36.95 76.39 33.21 74.41 29.58 71.98 C 24.87 73.46 20.48 75.36 16.30 77.99 C 16.06 76.11 15.90 74.19 15.45 72.34 C 14.23 70.71 11.80 69.78 10.11 68.69 C 13.38 66.84 16.68 65.08 20.10 63.50 C 17.57 58.35 14.48 53.76 12.87 48.17 C 10.15 39.16 9.10 29.14 10.86 19.85 C 13.14 19.17 15.66 19.20 17.99 18.68 C 25.81 16.98 33.14 13.55 38.98 8.00 C 39.65 7.38 40.32 6.75 40.99 6.11 Z M 13.62 22.65 C 12.49 35.62 14.58 48.52 21.90 59.48 C 31.05 56.33 40.59 55.00 50.17 56.84 C 53.54 57.48 56.78 58.46 60.05 59.44 C 67.49 48.85 69.46 35.40 68.35 22.74 C 61.61 21.80 55.16 20.19 49.21 16.79 C 46.22 15.11 43.73 12.91 40.99 10.88 C 37.55 13.23 34.44 15.84 30.64 17.65 C 25.19 20.41 19.54 21.46 13.62 22.65 Z M 20.18 61.51 C 21.58 64.32 22.92 67.16 24.21 70.02 C 34.46 65.62 47.51 65.76 57.79 69.98 C 59.08 67.07 60.41 64.18 61.79 61.31 C 49.15 55.55 32.76 55.56 20.18 61.51 Z M 12.30 68.72 C 13.66 69.59 15.02 70.46 16.38 71.32 C 16.61 72.97 16.84 74.61 17.08 76.25 C 20.33 74.69 23.58 73.26 26.96 72.00 C 28.08 71.65 29.04 70.96 29.84 69.93 C 27.68 70.04 25.56 70.35 23.44 70.76 C 22.54 68.72 21.67 66.67 20.72 64.65 C 17.64 65.51 14.98 67.03 12.30 68.72 Z M 58.16 71.00 C 56.22 70.53 54.28 70.13 52.31 69.84 C 53.33 71.57 55.08 71.68 56.79 72.39 C 59.67 73.34 62.25 74.79 64.92 76.18 C 65.16 74.60 65.40 73.02 65.63 71.43 C 67.11 70.55 68.59 69.66 70.06 68.76 C 67.30 67.19 64.51 65.68 61.59 64.41 C 60.35 66.56 59.21 68.75 58.16 71.00 Z M 31.63 68.97 C 34.41 71.42 37.67 72.95 40.99 74.54 C 44.24 72.74 47.76 71.56 50.14 68.71 C 43.96 67.36 37.76 67.49 31.63 68.97 Z" id="p1" />
<path d="M 40.99 10.88 C 43.73 12.91 46.22 15.11 49.21 16.79 C 55.16 20.19 61.61 21.80 68.35 22.74 C 69.46 35.40 67.49 48.85 60.05 59.44 C 56.78 58.46 53.54 57.48 50.17 56.84 C 40.59 55.00 31.05 56.33 21.90 59.48 C 14.58 48.52 12.49 35.62 13.62 22.65 C 19.54 21.46 25.19 20.41 30.64 17.65 C 34.44 15.84 37.55 13.23 40.99 10.88 Z M 16.18 23.47 C 16.20 25.36 16.24 27.25 16.30 29.14 C 16.61 28.53 16.92 27.91 17.22 27.30 C 17.91 27.42 18.61 27.54 19.30 27.65 C 18.26 26.26 17.22 24.86 16.18 23.47 Z M 20.79 28.82 C 21.23 27.72 21.76 23.51 19.59 24.17 C 18.78 25.46 19.98 27.73 20.79 28.82 Z M 22.46 24.10 C 22.33 25.69 22.20 27.29 22.08 28.88 C 23.10 28.90 24.11 28.92 25.13 28.95 C 24.26 28.33 23.40 27.72 22.54 27.10 L 24.82 26.60 C 24.07 26.30 23.32 26.00 22.57 25.71 C 23.20 25.29 23.82 24.88 24.45 24.46 L 24.01 24.38 L 22.46 24.10 Z M 28.19 27.83 C 27.35 28.18 26.50 28.53 25.66 28.88 C 26.72 28.84 27.78 28.81 28.84 28.77 C 28.76 28.03 28.69 27.29 28.61 26.55 C 28.02 26.09 27.43 25.63 26.85 25.17 L 29.09 24.24 C 27.99 24.29 26.90 24.35 25.81 24.43 C 26.47 25.66 27.33 26.73 28.19 27.83 Z M 29.66 24.44 C 30.54 25.55 31.37 26.70 32.20 27.86 C 31.36 28.19 30.52 28.53 29.68 28.87 C 30.82 28.82 31.96 28.78 33.09 28.73 C 32.67 27.19 32.08 26.20 31.02 25.01 C 31.71 24.74 32.40 24.46 33.08 24.18 C 31.94 24.26 30.80 24.35 29.66 24.44 Z M 41.18 23.46 C 41.20 25.36 41.24 27.25 41.30 29.14 C 41.61 28.52 41.92 27.91 42.22 27.30 C 42.91 27.42 43.60 27.53 44.29 27.65 C 43.25 26.25 42.22 24.86 41.18 23.46 Z M 45.76 28.85 C 46.05 27.57 46.55 24.62 45.06 23.96 C 43.26 24.39 44.89 28.06 45.76 28.85 Z M 47.15 28.82 C 48.15 28.87 49.15 28.92 50.16 28.97 C 49.32 28.35 48.47 27.74 47.63 27.12 C 48.43 26.89 49.24 26.66 50.04 26.42 L 47.55 25.80 C 48.42 25.42 49.20 24.86 49.88 24.10 C 49.01 24.16 48.14 24.24 47.27 24.35 C 47.16 25.83 47.17 27.34 47.15 28.82 Z M 53.29 27.97 L 50.68 28.62 C 51.81 28.63 52.94 28.73 54.07 28.91 C 53.68 27.24 53.47 26.41 52.04 25.34 C 52.53 25.05 53.00 24.73 53.44 24.38 L 53.24 24.39 L 50.96 24.37 C 51.39 25.83 52.39 26.79 53.29 27.97 Z M 37.32 32.39 C 29.69 34.96 27.62 45.22 33.11 50.88 C 36.33 54.53 42.15 55.08 45.84 51.84 C 51.35 47.61 51.36 38.38 45.84 34.16 C 43.49 32.06 40.31 31.63 37.32 32.39 Z" id="p2" />
<path d="M 16.18 23.47 C 17.22 24.86 18.26 26.26 19.30 27.65 C 18.61 27.54 17.91 27.42 17.22 27.30 C 16.92 27.91 16.61 28.53 16.30 29.14 C 16.24 27.25 16.20 25.36 16.18 23.47 Z" id="p3" />
<path d="M 19.59 24.17 C 21.76 23.51 21.23 27.72 20.79 28.82 C 19.98 27.73 18.78 25.46 19.59 24.17 Z" id="p4" />
<path d="M 22.46 24.10 L 24.01 24.38 L 24.45 24.46 C 23.82 24.88 23.20 25.29 22.57 25.71 C 23.32 26.00 24.07 26.30 24.82 26.60 L 22.54 27.10 C 23.40 27.72 24.26 28.33 25.13 28.95 C 24.11 28.92 23.10 28.90 22.08 28.88 C 22.20 27.29 22.33 25.69 22.46 24.10 Z" id="p5" />
<path d="M 25.81 24.43 C 26.90 24.35 27.99 24.29 29.09 24.24 L 26.85 25.17 C 27.43 25.63 28.02 26.09 28.61 26.55 C 28.69 27.29 28.76 28.03 28.84 28.77 C 27.78 28.81 26.72 28.84 25.66 28.88 C 26.50 28.53 27.35 28.18 28.19 27.83 C 27.33 26.73 26.47 25.66 25.81 24.43 Z" id="p6" />
<path d="M 29.66 24.44 C 30.80 24.35 31.94 24.26 33.08 24.18 C 32.40 24.46 31.71 24.74 31.02 25.01 C 32.08 26.20 32.67 27.19 33.09 28.73 C 31.96 28.78 30.82 28.82 29.68 28.87 C 30.52 28.53 31.36 28.19 32.20 27.86 C 31.37 26.70 30.54 25.55 29.66 24.44 Z" id="p7" />
<path d="M 41.18 23.46 C 42.22 24.86 43.25 26.25 44.29 27.65 C 43.60 27.53 42.91 27.42 42.22 27.30 C 41.92 27.91 41.61 28.52 41.30 29.14 C 41.24 27.25 41.20 25.36 41.18 23.46 Z" id="p8" />
<path d="M 45.06 23.96 C 46.55 24.62 46.05 27.57 45.76 28.85 C 44.89 28.06 43.26 24.39 45.06 23.96 Z" id="p9" />
<path d="M 47.27 24.35 C 48.14 24.24 49.01 24.16 49.88 24.10 C 49.20 24.86 48.42 25.42 47.55 25.80 L 50.04 26.42 C 49.24 26.66 48.43 26.89 47.63 27.12 C 48.47 27.74 49.32 28.35 50.16 28.97 C 49.15 28.92 48.15 28.87 47.15 28.82 C 47.17 27.34 47.16 25.83 47.27 24.35 Z" id="p10" />
<path d="M 50.96 24.37 L 53.24 24.39 L 53.44 24.38 C 53.00 24.73 52.53 25.05 52.04 25.34 C 53.47 26.41 53.68 27.24 54.07 28.91 C 52.94 28.73 51.81 28.63 50.68 28.62 L 53.29 27.97 C 52.39 26.79 51.39 25.83 50.96 24.37 Z" id="p11" />
<path d="M 37.32 32.39 C 40.31 31.63 43.49 32.06 45.84 34.16 C 51.36 38.38 51.35 47.61 45.84 51.84 C 42.15 55.08 36.33 54.53 33.11 50.88 C 27.62 45.22 29.69 34.96 37.32 32.39 Z M 35.24 50.51 C 35.34 49.33 35.37 48.15 35.34 46.96 C 35.23 45.34 33.30 44.12 32.33 42.94 C 32.66 41.39 33.00 39.85 33.33 38.30 C 34.54 38.22 35.74 38.13 36.95 38.05 C 37.27 39.38 37.60 40.71 37.93 42.03 C 39.26 42.45 40.60 42.87 41.93 43.28 C 42.69 42.39 43.44 41.50 44.19 40.60 C 45.32 41.36 46.46 42.12 47.59 42.87 C 46.89 44.34 47.05 47.66 44.91 47.73 C 42.39 48.32 39.42 49.47 40.33 52.71 C 44.60 52.51 47.34 49.26 48.60 45.49 C 48.88 41.68 48.45 38.02 45.14 35.62 C 44.57 36.28 44.00 36.94 43.43 37.60 C 42.58 37.04 41.74 36.48 40.89 35.92 C 39.89 36.27 38.89 36.62 37.90 36.97 C 38.53 36.26 39.16 35.55 39.79 34.83 C 37.82 32.15 34.99 34.89 33.55 36.62 C 30.57 39.74 30.85 43.95 32.24 47.73 C 32.78 49.24 33.98 49.72 35.24 50.51 Z M 35.24 44.92 C 35.49 46.28 35.75 47.64 36.03 48.99 C 37.22 49.31 38.57 50.09 39.81 49.87 C 40.72 49.32 41.60 48.73 42.47 48.11 C 42.13 46.57 41.80 45.04 41.47 43.51 C 40.31 43.18 39.15 42.88 37.98 42.59 C 37.04 43.33 36.13 44.11 35.24 44.92 Z" id="p12" />
<path d="M 39.79 34.83 C 39.16 35.55 38.53 36.26 37.90 36.97 C 38.89 36.62 39.89 36.27 40.89 35.92 C 41.74 36.48 42.58 37.04 43.43 37.60 C 44.00 36.94 44.57 36.28 45.14 35.62 C 48.45 38.02 48.88 41.68 48.60 45.49 C 47.34 49.26 44.60 52.51 40.33 52.71 C 39.42 49.47 42.39 48.32 44.91 47.73 C 47.05 47.66 46.89 44.34 47.59 42.87 C 46.46 42.12 45.32 41.36 44.19 40.60 C 43.44 41.50 42.69 42.39 41.93 43.28 C 40.60 42.87 39.26 42.45 37.93 42.03 C 37.60 40.71 37.27 39.38 36.95 38.05 C 35.74 38.13 34.54 38.22 33.33 38.30 C 33.00 39.85 32.66 41.39 32.33 42.94 C 33.30 44.12 35.23 45.34 35.34 46.96 C 35.37 48.15 35.34 49.33 35.24 50.51 C 33.98 49.72 32.78 49.24 32.24 47.73 C 30.85 43.95 30.57 39.74 33.55 36.62 C 34.99 34.89 37.82 32.15 39.79 34.83 Z" id="p13" />
<path d="M 37.98 42.59 C 39.15 42.88 40.31 43.18 41.47 43.51 C 41.80 45.04 42.13 46.57 42.47 48.11 C 41.60 48.73 40.72 49.32 39.81 49.87 C 38.57 50.09 37.22 49.31 36.03 48.99 C 35.75 47.64 35.49 46.28 35.24 44.92 C 36.13 44.11 37.04 43.33 37.98 42.59 Z" id="p14" />
<path d="M 61.79 61.31 C 60.41 64.18 59.08 67.07 57.79 69.98 C 47.51 65.76 34.46 65.62 24.21 70.02 C 22.92 67.16 21.58 64.32 20.18 61.51 C 32.76 55.56 49.15 55.55 61.79 61.31 Z M 37.63 60.56 C 38.01 61.76 38.33 62.98 38.65 64.19 C 40.00 63.93 41.15 64.06 42.49 64.29 C 42.87 63.08 43.25 61.86 43.63 60.65 C 42.70 60.15 41.77 59.66 40.83 59.18 C 39.75 59.61 38.69 60.09 37.63 60.56 Z M 29.15 63.79 C 30.36 63.72 31.57 63.75 32.77 63.90 C 32.70 62.98 32.63 62.07 32.55 61.15 C 31.54 61.03 30.58 61.11 29.68 61.38 C 29.49 62.18 29.31 62.98 29.15 63.79 Z M 48.96 64.17 C 50.58 64.65 51.42 64.58 53.01 64.05 C 52.62 63.06 52.23 62.06 51.85 61.07 C 49.21 61.68 49.51 61.52 48.96 64.17 Z" id="p15" />
<path d="M 40.83 59.18 C 41.77 59.66 42.70 60.15 43.63 60.65 C 43.25 61.86 42.87 63.08 42.49 64.29 C 41.15 64.06 40.00 63.93 38.65 64.19 C 38.33 62.98 38.01 61.76 37.63 60.56 C 38.69 60.09 39.75 59.61 40.83 59.18 Z" id="p16" />
<path d="M 29.68 61.38 C 30.58 61.11 31.54 61.03 32.55 61.15 C 32.63 62.07 32.70 62.98 32.77 63.90 C 31.57 63.75 30.36 63.72 29.15 63.79 C 29.31 62.98 29.49 62.18 29.68 61.38 Z" id="p17" />
<path d="M 51.85 61.07 C 52.23 62.06 52.62 63.06 53.01 64.05 C 51.42 64.58 50.58 64.65 48.96 64.17 C 49.51 61.52 49.21 61.68 51.85 61.07 Z" id="p18" />
<path d="M 20.72 64.65 C 21.67 66.67 22.54 68.72 23.44 70.76 C 25.56 70.35 27.68 70.04 29.84 69.93 C 29.04 70.96 28.08 71.65 26.96 72.00 C 23.58 73.26 20.33 74.69 17.08 76.25 C 16.84 74.61 16.61 72.97 16.38 71.32 C 15.02 70.46 13.66 69.59 12.30 68.72 C 14.98 67.03 17.64 65.51 20.72 64.65 Z" id="p19" />
<path d="M 61.59 64.41 C 64.51 65.68 67.30 67.19 70.06 68.76 C 68.59 69.66 67.11 70.55 65.63 71.43 C 65.40 73.02 65.16 74.60 64.92 76.18 C 62.25 74.79 59.67 73.34 56.79 72.39 C 55.08 71.68 53.33 71.57 52.31 69.84 C 54.28 70.13 56.22 70.53 58.16 71.00 C 59.21 68.75 60.35 66.56 61.59 64.41 Z" id="p20" />
<path d="M 50.14 68.71 C 47.76 71.56 44.24 72.74 40.99 74.54 C 37.67 72.95 34.41 71.42 31.63 68.97 C 37.76 67.49 43.96 67.36 50.14 68.71 Z" id="p21" />
</defs>
<g stroke-width="10pt">
<use stroke="#ffffff" xlink:href="#p0" />
<use stroke="#20243c" xlink:href="#p1" />
<use stroke="#50abc2" xlink:href="#p2" />
<use stroke="#20243c" xlink:href="#p3" />
<use stroke="#20243c" xlink:href="#p4" />
<use stroke="#20243c" xlink:href="#p5" />
<use stroke="#20243c" xlink:href="#p6" />
<use stroke="#20243c" xlink:href="#p7" />
<use stroke="#20243c" xlink:href="#p8" />
<use stroke="#20243c" xlink:href="#p9" />
<use stroke="#20243c" xlink:href="#p10" />
<use stroke="#20243c" xlink:href="#p11" />
<use stroke="#20243c" xlink:href="#p12" />
<use stroke="#50abc2" xlink:href="#p13" />
<use stroke="#50abc2" xlink:href="#p14" />
<use stroke="#50abc2" xlink:href="#p15" />
<use stroke="#20243c" xlink:href="#p16" />
<use stroke="#20243c" xlink:href="#p17" />
<use stroke="#20243c" xlink:href="#p18" />
<use stroke="#50abc2" xlink:href="#p19" />
<use stroke="#50abc2" xlink:href="#p20" />
<use stroke="#50abc2" xlink:href="#p21" />
</g>
<g>
<use fill="#ffffff" xlink:href="#p0" />
<use fill="#20243c" xlink:href="#p1" />
<use fill="#50abc2" xlink:href="#p2" />
<use fill="#20243c" xlink:href="#p3" />
<use fill="#20243c" xlink:href="#p4" />
<use fill="#20243c" xlink:href="#p5" />
<use fill="#20243c" xlink:href="#p6" />
<use fill="#20243c" xlink:href="#p7" />
<use fill="#20243c" xlink:href="#p8" />
<use fill="#20243c" xlink:href="#p9" />
<use fill="#20243c" xlink:href="#p10" />
<use fill="#20243c" xlink:href="#p11" />
<use fill="#20243c" xlink:href="#p12" />
<use fill="#50abc2" xlink:href="#p13" />
<use fill="#50abc2" xlink:href="#p14" />
<use fill="#50abc2" xlink:href="#p15" />
<use fill="#20243c" xlink:href="#p16" />
<use fill="#20243c" xlink:href="#p17" />
<use fill="#20243c" xlink:href="#p18" />
<use fill="#50abc2" xlink:href="#p19" />
<use fill="#50abc2" xlink:href="#p20" />
<use fill="#50abc2" xlink:href="#p21" />
</g>
</svg>