<?xml version="1.0" encoding="UTF-8" standalone="no"?>
<!DOCTYPE svg PUBLIC "-//W3C//DTD SVG 1.1//EN" "http://www.w3.org/Graphics/SVG/1.1/DTD/svg11.dtd">
<svg xmlns="http://www.w3.org/2000/svg" version="1.1" viewBox="0 0 301 307" width="301.0pt" height="307.0pt" xmlns:xlink="http://www.w3.org/1999/xlink">
<defs>
<path d="M 0.00 0.00 L 143.24 0.00 C 109.51 6.70 73.06 13.42 39.00 19.98 C 33.69 21.59 25.55 20.98 22.06 26.01 C 18.56 30.08 18.70 35.08 19.96 40.01 C 23.40 60.00 26.85 79.99 30.24 100.00 C 30.69 104.54 32.56 109.44 32.14 114.00 C 21.94 130.84 11.63 147.62 1.39 164.45 C 0.99 164.98 0.52 165.46 0.00 165.90 L 0.00 0.00 Z" id="p0" />
<path d="M 143.24 0.00 L 156.14 0.00 L 156.67 0.35 C 191.42 6.80 226.17 13.49 260.87 20.20 C 265.63 21.32 270.01 21.29 274.49 23.59 C 278.38 26.65 280.65 31.50 279.66 36.48 C 276.26 56.65 272.62 76.80 269.31 96.99 C 267.89 101.51 268.26 106.40 266.73 110.84 C 266.40 112.61 266.26 114.65 266.40 116.44 C 267.82 116.84 269.16 116.49 269.86 118.06 C 279.67 133.99 289.49 150.00 299.15 166.02 C 300.21 167.48 298.78 168.84 298.18 170.16 C 289.09 185.64 279.67 201.08 270.63 216.57 C 269.71 217.91 268.98 219.68 267.59 220.56 C 264.88 220.95 262.18 220.72 259.49 221.34 C 255.85 222.07 251.28 221.15 248.06 222.99 C 245.96 229.40 245.82 236.45 243.80 242.90 C 242.93 244.88 241.79 246.69 239.88 247.80 C 216.92 263.41 193.56 278.98 170.47 294.42 C 164.94 297.91 159.93 302.24 154.03 305.15 C 150.72 305.94 146.54 306.16 143.46 304.49 C 116.45 286.35 86.95 266.70 60.39 248.66 C 56.63 246.56 54.13 242.29 53.98 238.01 C 53.24 233.01 51.99 228.14 51.47 223.10 C 51.48 222.49 51.19 221.95 50.60 221.49 C 45.28 220.35 39.77 220.60 34.41 219.54 C 22.89 203.20 11.54 186.03 0.00 169.83 L 0.00 165.90 C 0.52 165.46 0.99 164.98 1.39 164.45 C 11.63 147.62 21.94 130.84 32.14 114.00 C 32.56 109.44 30.69 104.54 30.24 100.00 C 26.85 79.99 23.40 60.00 19.96 40.01 C 18.70 35.08 18.56 30.08 22.06 26.01 C 25.55 20.98 33.69 21.59 39.00 19.98 C 73.06 13.42 109.51 6.70 143.24 0.00 Z M 149.23 7.54 C 110.04 15.04 71.24 22.46 32.00 29.87 C 30.71 30.21 29.25 30.38 28.08 31.02 C 27.29 33.59 28.83 37.27 29.13 40.00 C 31.99 58.99 35.83 78.04 38.81 97.01 C 39.87 101.84 40.43 106.77 41.45 111.61 C 42.50 112.13 43.69 112.26 45.00 112.02 C 58.47 110.18 72.15 109.40 85.61 107.66 C 86.17 105.98 86.11 104.75 88.09 104.24 C 91.07 102.91 93.87 104.88 96.70 103.66 C 95.02 101.52 91.40 100.99 88.90 100.32 C 84.29 99.79 79.42 100.85 75.01 101.99 C 71.34 102.76 68.50 101.72 66.21 98.80 C 65.36 97.43 62.23 96.16 63.29 94.33 C 66.52 92.83 69.38 94.33 72.63 93.61 C 73.08 91.63 70.34 91.61 69.03 91.26 C 62.55 89.92 55.21 90.03 51.55 83.45 C 50.21 81.01 51.48 80.34 52.52 78.34 C 50.20 74.73 47.59 69.62 48.27 65.23 C 49.19 65.25 50.13 65.49 51.08 65.95 C 51.56 64.42 51.64 61.37 53.78 61.22 C 53.98 64.02 52.60 66.21 54.04 68.94 C 55.13 71.23 56.19 75.36 58.54 76.55 C 59.03 75.90 59.53 75.26 60.04 74.63 C 61.87 74.68 62.16 77.51 63.27 78.67 C 66.19 82.44 71.94 85.99 76.65 86.62 C 76.49 84.92 75.06 84.00 75.40 82.41 C 76.73 81.18 78.07 81.65 79.23 82.80 C 80.84 84.61 81.78 86.70 83.73 88.26 C 86.95 90.84 90.42 93.04 94.06 94.98 C 95.18 95.65 96.37 95.71 97.63 95.78 C 96.96 94.58 94.59 92.49 96.09 91.24 C 98.70 90.47 101.71 91.48 103.68 93.28 C 107.25 96.57 108.47 101.91 112.22 104.72 C 116.33 105.10 120.89 103.86 125.01 103.66 C 127.10 103.58 129.10 103.16 131.12 102.65 C 135.37 102.87 139.51 102.63 143.02 99.99 C 147.00 100.01 150.99 100.00 154.98 99.99 C 157.01 101.14 158.41 102.29 160.91 102.32 C 168.28 103.26 175.63 104.43 183.02 105.24 C 183.84 105.40 184.62 105.11 185.37 104.36 C 188.79 101.14 190.12 95.97 193.80 92.78 C 195.75 91.30 198.67 90.64 201.06 91.09 C 202.68 92.60 199.98 94.46 199.27 95.82 C 201.46 96.04 203.05 94.85 204.89 93.87 C 208.03 92.13 211.06 90.11 213.80 87.79 C 215.81 86.11 216.76 83.08 219.02 81.83 C 219.95 81.34 220.83 81.51 221.65 82.35 C 222.25 83.84 220.21 85.26 220.23 86.75 C 225.28 85.80 231.22 82.39 234.12 78.06 C 234.95 76.96 235.57 73.72 237.42 74.45 C 237.74 75.42 238.24 76.11 238.94 76.51 C 241.25 74.25 242.14 70.45 243.45 67.52 C 244.28 65.63 242.75 63.06 243.12 61.11 C 243.88 61.04 244.42 61.40 244.76 62.18 C 246.76 67.23 244.58 71.56 241.63 75.60 C 236.61 81.78 229.17 85.83 221.98 88.99 C 213.29 92.00 205.01 95.85 196.65 99.64 C 193.39 101.35 190.09 103.38 187.25 105.74 C 190.59 106.76 192.11 104.16 194.88 102.82 C 205.76 97.30 217.08 93.06 228.30 88.33 C 235.44 84.55 242.61 79.40 245.54 71.54 C 246.66 69.53 246.24 67.20 247.23 65.21 C 249.57 64.33 248.91 66.60 248.86 68.01 C 248.16 71.61 246.76 75.04 244.61 78.02 C 244.72 79.65 246.57 80.27 246.05 82.01 C 244.90 85.67 241.69 88.05 238.16 89.23 C 233.85 90.79 228.61 90.54 224.28 92.29 L 224.26 93.71 C 227.48 94.45 230.47 92.72 233.75 94.29 C 235.24 96.15 231.54 97.31 230.79 98.81 C 228.49 102.09 224.80 102.83 221.05 101.82 C 217.18 100.63 213.01 100.33 209.00 100.14 C 206.50 100.86 201.69 101.31 200.32 103.72 C 203.33 105.03 206.27 102.31 209.56 104.46 C 212.07 105.53 210.48 106.98 210.11 108.80 C 223.82 111.01 238.22 112.45 251.98 114.51 C 253.57 114.61 255.31 115.17 256.87 114.83 C 259.06 105.70 260.22 94.55 262.22 85.14 C 265.20 66.72 268.71 48.86 271.58 30.57 C 256.02 28.05 240.53 24.62 224.99 21.90 C 200.02 17.18 174.89 12.28 149.91 7.63 L 149.51 7.57 L 149.23 7.54 Z M 107.75 105.60 L 107.75 104.28 C 103.17 100.60 98.06 98.58 92.75 96.24 C 84.56 91.97 75.61 90.10 67.68 85.35 C 60.98 81.86 53.53 75.84 51.59 68.21 C 50.19 67.47 51.36 71.02 51.50 71.54 C 54.28 79.23 61.69 84.68 68.69 88.31 C 78.46 92.60 88.51 96.13 98.10 100.88 C 101.50 102.09 104.28 104.74 107.75 105.60 Z M 37.52 121.53 C 28.08 137.02 18.89 152.02 9.46 167.46 C 8.99 168.50 10.23 169.48 10.70 170.32 C 19.88 183.50 28.94 196.75 38.04 209.99 C 38.43 210.58 38.89 211.10 39.40 211.55 C 76.13 215.34 113.25 219.38 150.00 223.20 C 187.30 219.85 225.22 216.03 262.60 212.56 C 263.55 211.91 264.09 210.64 264.71 209.69 C 273.01 195.73 281.43 181.75 289.66 167.76 L 289.67 167.24 C 281.82 154.15 273.79 141.13 265.90 128.05 C 265.19 126.90 264.55 125.53 263.53 124.63 C 225.89 119.95 187.61 114.48 150.00 109.80 C 112.50 113.69 75.01 117.60 37.52 121.53 Z M 149.69 297.62 C 150.11 297.25 150.55 296.89 150.98 296.54 C 174.81 280.52 198.78 264.66 222.66 248.69 C 226.91 245.95 231.01 242.96 235.37 240.39 C 236.19 234.91 237.45 229.40 237.95 223.90 L 237.04 223.53 C 221.72 225.14 206.32 226.39 191.00 228.03 C 177.30 229.59 163.45 230.50 149.77 232.15 C 143.33 230.84 136.52 230.76 129.99 229.85 C 123.34 228.87 116.61 228.94 110.02 227.70 C 99.14 226.66 88.36 225.19 77.45 224.43 C 73.31 223.53 69.21 223.36 65.00 222.98 C 63.82 223.03 60.85 222.02 60.92 224.01 C 61.66 227.80 61.73 231.98 63.27 235.53 C 63.52 237.00 63.48 238.51 63.75 239.99 C 65.13 241.64 67.36 242.62 69.10 243.87 C 95.84 261.76 123.06 279.80 149.69 297.62 Z" id="p1" />
<path d="M 156.14 0.00 L 301.00 0.00 L 301.00 307.00 L 0.00 307.00 L 0.00 169.83 C 11.54 186.03 22.89 203.20 34.41 219.54 C 39.77 220.60 45.28 220.35 50.60 221.49 C 51.19 221.95 51.48 222.49 51.47 223.10 C 51.99 228.14 53.24 233.01 53.98 238.01 C 54.13 242.29 56.63 246.56 60.39 248.66 C 86.95 266.70 116.45 286.35 143.46 304.49 C 146.54 306.16 150.72 305.94 154.03 305.15 C 159.93 302.24 164.94 297.91 170.47 294.42 C 193.56 278.98 216.92 263.41 239.88 247.80 C 241.79 246.69 242.93 244.88 243.80 242.90 C 245.82 236.45 245.96 229.40 248.06 222.99 C 251.28 221.15 255.85 222.07 259.49 221.34 C 262.18 220.72 264.88 220.95 267.59 220.56 C 268.98 219.68 269.71 217.91 270.63 216.57 C 279.67 201.08 289.09 185.64 298.18 170.16 C 298.78 168.84 300.21 167.48 299.15 166.02 C 289.49 150.00 279.67 133.99 269.86 118.06 C 269.16 116.49 267.82 116.84 266.40 116.44 C 266.26 114.65 266.40 112.61 266.73 110.84 C 268.26 106.40 267.89 101.51 269.31 96.99 C 272.62 76.80 276.26 56.65 279.66 36.48 C 280.65 31.50 278.38 26.65 274.49 23.59 C 270.01 21.29 265.63 21.32 260.87 20.20 C 226.17 13.49 191.42 6.80 156.67 0.35 L 156.14 0.00 Z" id="p2" />
<path d="M 149.23 7.54 L 149.51 7.57 L 149.91 7.63 C 149.47 15.23 149.58 23.10 149.84 30.72 C 145.87 31.62 141.99 31.09 138.14 32.64 C 131.81 34.96 125.12 38.46 120.79 43.78 C 119.67 45.36 118.41 46.78 117.11 48.21 C 114.63 52.54 112.62 57.03 111.70 61.99 C 111.30 66.33 111.01 70.54 111.53 74.90 C 113.20 84.13 117.90 92.81 125.47 98.53 C 127.35 100.00 129.44 100.92 131.12 102.65 C 129.10 103.16 127.10 103.58 125.01 103.66 C 120.89 103.86 116.33 105.10 112.22 104.72 C 108.47 101.91 107.25 96.57 103.68 93.28 C 101.71 91.48 98.70 90.47 96.09 91.24 C 94.59 92.49 96.96 94.58 97.63 95.78 C 96.37 95.71 95.18 95.65 94.06 94.98 C 90.42 93.04 86.95 90.84 83.73 88.26 C 81.78 86.70 80.84 84.61 79.23 82.80 C 78.07 81.65 76.73 81.18 75.40 82.41 C 75.06 84.00 76.49 84.92 76.65 86.62 C 71.94 85.99 66.19 82.44 63.27 78.67 C 62.16 77.51 61.87 74.68 60.04 74.63 C 59.53 75.26 59.03 75.90 58.54 76.55 C 56.19 75.36 55.13 71.23 54.04 68.94 C 52.60 66.21 53.98 64.02 53.78 61.22 C 51.64 61.37 51.56 64.42 51.08 65.95 C 50.13 65.49 49.19 65.25 48.27 65.23 C 47.59 69.62 50.20 74.73 52.52 78.34 C 51.48 80.34 50.21 81.01 51.55 83.45 C 55.21 90.03 62.55 89.92 69.03 91.26 C 70.34 91.61 73.08 91.63 72.63 93.61 C 69.38 94.33 66.52 92.83 63.29 94.33 C 62.23 96.16 65.36 97.43 66.21 98.80 C 68.50 101.72 71.34 102.76 75.01 101.99 C 79.42 100.85 84.29 99.79 88.90 100.32 C 91.40 100.99 95.02 101.52 96.70 103.66 C 93.87 104.88 91.07 102.91 88.09 104.24 C 86.11 104.75 86.17 105.98 85.61 107.66 C 72.15 109.40 58.47 110.18 45.00 112.02 C 43.69 112.26 42.50 112.13 41.45 111.61 C 40.43 106.77 39.87 101.84 38.81 97.01 C 35.83 78.04 31.99 58.99 29.13 40.00 C 28.83 37.27 27.29 33.59 28.08 31.02 C 29.25 30.38 30.71 30.21 32.00 29.87 C 71.24 22.46 110.04 15.04 149.23 7.54 Z" id="p3" />
<path d="M 149.91 7.63 C 174.89 12.28 200.02 17.18 224.99 21.90 C 240.53 24.62 256.02 28.05 271.58 30.57 C 268.71 48.86 265.20 66.72 262.22 85.14 C 260.22 94.55 259.06 105.70 256.87 114.83 C 255.31 115.17 253.57 114.61 251.98 114.51 C 238.22 112.45 223.82 111.01 210.11 108.80 C 210.48 106.98 212.07 105.53 209.56 104.46 C 206.27 102.31 203.33 105.03 200.32 103.72 C 201.69 101.31 206.50 100.86 209.00 100.14 C 213.01 100.33 217.18 100.63 221.05 101.82 C 224.80 102.83 228.49 102.09 230.79 98.81 C 231.54 97.31 235.24 96.15 233.75 94.29 C 230.47 92.72 227.48 94.45 224.26 93.71 L 224.28 92.29 C 228.61 90.54 233.85 90.79 238.16 89.23 C 241.69 88.05 244.90 85.67 246.05 82.01 C 246.57 80.27 244.72 79.65 244.61 78.02 C 246.76 75.04 248.16 71.61 248.86 68.01 C 248.91 66.60 249.57 64.33 247.23 65.21 C 246.24 67.20 246.66 69.53 245.54 71.54 C 242.61 79.40 235.44 84.55 228.30 88.33 C 217.08 93.06 205.76 97.30 194.88 102.82 C 192.11 104.16 190.59 106.76 187.25 105.74 C 190.09 103.38 193.39 101.35 196.65 99.64 C 205.01 95.85 213.29 92.00 221.98 88.99 C 229.17 85.83 236.61 81.78 241.63 75.60 C 244.58 71.56 246.76 67.23 244.76 62.18 C 244.42 61.40 243.88 61.04 243.12 61.11 C 242.75 63.06 244.28 65.63 243.45 67.52 C 242.14 70.45 241.25 74.25 238.94 76.51 C 238.24 76.11 237.74 75.42 237.42 74.45 C 235.57 73.72 234.95 76.96 234.12 78.06 C 231.22 82.39 225.28 85.80 220.23 86.75 C 220.21 85.26 222.25 83.84 221.65 82.35 C 220.83 81.51 219.95 81.34 219.02 81.83 C 216.76 83.08 215.81 86.11 213.80 87.79 C 211.06 90.11 208.03 92.13 204.89 93.87 C 203.05 94.85 201.46 96.04 199.27 95.82 C 199.98 94.46 202.68 92.60 201.06 91.09 C 198.67 90.64 195.75 91.30 193.80 92.78 C 190.12 95.97 188.79 101.14 185.37 104.36 C 184.62 105.11 183.84 105.40 183.02 105.24 C 175.63 104.43 168.28 103.26 160.91 102.32 C 163.31 102.07 166.44 103.01 168.41 101.50 C 175.36 96.89 181.15 91.00 184.14 83.07 C 188.02 73.94 187.56 64.01 184.25 54.78 C 180.98 47.96 176.75 41.93 170.41 37.63 C 166.64 35.63 163.04 33.55 158.90 32.36 C 155.94 31.30 152.87 31.56 149.84 30.72 C 149.58 23.10 149.47 15.23 149.91 7.63 Z" id="p4" />
<path d="M 149.84 30.72 C 152.87 31.56 155.94 31.30 158.90 32.36 C 163.04 33.55 166.64 35.63 170.41 37.63 C 176.75 41.93 180.98 47.96 184.25 54.78 C 187.56 64.01 188.02 73.94 184.14 83.07 C 181.15 91.00 175.36 96.89 168.41 101.50 C 166.44 103.01 163.31 102.07 160.91 102.32 C 158.41 102.29 157.01 101.14 154.98 99.99 C 150.99 100.00 147.00 100.01 143.02 99.99 C 139.51 102.63 135.37 102.87 131.12 102.65 C 129.44 100.92 127.35 100.00 125.47 98.53 C 117.90 92.81 113.20 84.13 111.53 74.90 C 111.01 70.54 111.30 66.33 111.70 61.99 C 112.62 57.03 114.63 52.54 117.11 48.21 C 118.41 46.78 119.67 45.36 120.79 43.78 C 125.12 38.46 131.81 34.96 138.14 32.64 C 141.99 31.09 145.87 31.62 149.84 30.72 Z M 121.23 47.65 C 122.33 47.57 123.42 47.50 124.52 47.42 C 128.34 44.55 132.34 41.90 136.10 38.96 C 136.51 37.93 137.45 36.33 136.48 35.38 C 131.50 38.14 126.73 40.51 122.85 44.87 C 122.09 45.81 121.21 46.31 121.23 47.65 Z M 160.92 35.73 C 161.33 37.13 161.21 38.57 162.47 39.47 C 166.15 42.11 169.83 44.74 173.49 47.41 C 174.58 47.49 175.68 47.57 176.78 47.65 C 176.82 46.10 175.07 44.99 174.19 43.82 C 170.87 40.48 165.55 36.38 160.92 35.73 Z M 126.25 47.87 C 127.95 52.73 129.23 57.96 131.30 62.63 C 132.79 63.04 134.28 63.70 135.81 63.90 C 139.90 60.93 144.05 57.92 148.13 54.96 C 148.74 53.60 148.41 51.46 148.31 49.97 C 144.23 46.92 140.09 43.90 135.96 40.92 C 132.60 42.80 129.27 45.46 126.25 47.87 Z M 149.73 49.97 C 149.66 51.50 149.28 53.57 149.90 54.96 C 154.01 57.93 158.11 60.91 162.22 63.88 C 163.86 63.45 167.11 63.21 167.39 61.19 C 168.83 56.75 170.32 52.32 171.73 47.87 C 168.70 45.49 165.39 42.75 162.03 40.92 C 157.94 43.94 153.77 46.88 149.73 49.97 Z M 118.43 72.88 C 119.76 76.53 120.82 80.28 122.09 83.95 C 127.04 84.05 132.02 84.00 136.97 83.98 C 138.08 83.14 140.15 80.48 140.17 79.04 C 138.52 74.53 137.13 69.91 135.63 65.34 C 134.03 64.92 131.75 63.60 130.14 64.14 C 126.39 66.79 122.67 69.49 118.87 72.08 L 118.43 72.88 Z M 162.36 65.35 C 160.88 70.21 159.09 75.11 157.73 79.99 C 158.73 81.19 159.62 83.32 161.03 83.98 C 165.98 83.99 170.96 84.05 175.91 83.95 C 177.15 80.27 178.25 76.53 179.58 72.88 C 176.50 69.76 171.49 66.91 167.86 64.13 C 166.24 63.64 163.97 64.91 162.36 65.35 Z M 157.00 70.00 L 157.00 71.00 L 158.00 71.00 L 158.00 70.01 L 157.00 70.00 Z M 113.51 70.41 C 113.65 77.04 116.04 82.98 119.30 88.65 L 119.84 88.72 C 120.53 87.09 121.50 85.23 120.68 83.48 C 119.35 79.76 118.34 75.86 116.85 72.22 L 116.25 71.74 C 115.44 70.82 114.52 70.38 113.51 70.41 Z M 178.12 88.76 C 179.11 88.88 179.44 86.72 180.16 86.09 C 182.83 81.36 184.29 75.87 184.45 70.45 C 183.09 70.20 181.29 71.83 180.76 73.01 C 179.47 77.00 178.15 80.99 176.94 85.00 C 177.05 86.30 177.59 87.57 178.12 88.76 Z M 138.29 84.88 C 139.85 89.55 141.25 94.34 142.97 98.95 C 146.97 99.03 151.04 99.03 155.04 98.95 C 156.76 94.34 158.10 89.54 159.70 84.87 C 158.77 83.34 157.58 81.95 156.50 80.52 C 151.49 80.50 146.46 80.49 141.45 80.51 C 140.37 81.93 139.16 83.32 138.29 84.88 Z" id="p5" />
<path d="M 136.48 35.38 C 137.45 36.33 136.51 37.93 136.10 38.96 C 132.34 41.90 128.34 44.55 124.52 47.42 C 123.42 47.50 122.33 47.57 121.23 47.65 C 121.21 46.31 122.09 45.81 122.85 44.87 C 126.73 40.51 131.50 38.14 136.48 35.38 Z" id="p6" />
<path d="M 160.92 35.73 C 165.55 36.38 170.87 40.48 174.19 43.82 C 175.07 44.99 176.82 46.10 176.78 47.65 C 175.68 47.57 174.58 47.49 173.49 47.41 C 169.83 44.74 166.15 42.11 162.47 39.47 C 161.21 38.57 161.33 37.13 160.92 35.73 Z" id="p7" />
<path d="M 135.96 40.92 C 140.09 43.90 144.23 46.92 148.31 49.97 C 148.41 51.46 148.74 53.60 148.13 54.96 C 144.05 57.92 139.90 60.93 135.81 63.90 C 134.28 63.70 132.79 63.04 131.30 62.63 C 129.23 57.96 127.95 52.73 126.25 47.87 C 129.27 45.46 132.60 42.80 135.96 40.92 Z" id="p8" />
<path d="M 162.03 40.92 C 165.39 42.75 168.70 45.49 171.73 47.87 C 170.32 52.32 168.83 56.75 167.39 61.19 C 167.11 63.21 163.86 63.45 162.22 63.88 C 158.11 60.91 154.01 57.93 149.90 54.96 C 149.28 53.57 149.66 51.50 149.73 49.97 C 153.77 46.88 157.94 43.94 162.03 40.92 Z" id="p9" />
<path d="M 130.14 64.14 C 131.75 63.60 134.03 64.92 135.63 65.34 C 137.13 69.91 138.52 74.53 140.17 79.04 C 140.15 80.48 138.08 83.14 136.97 83.98 C 132.02 84.00 127.04 84.05 122.09 83.95 C 120.82 80.28 119.76 76.53 118.43 72.88 L 118.87 72.08 C 122.67 69.49 126.39 66.79 130.14 64.14 Z" id="p10" />
<path d="M 167.86 64.13 C 171.49 66.91 176.50 69.76 179.58 72.88 C 178.25 76.53 177.15 80.27 175.91 83.95 C 170.96 84.05 165.98 83.99 161.03 83.98 C 159.62 83.32 158.73 81.19 157.73 79.99 C 159.09 75.11 160.88 70.21 162.36 65.35 C 163.97 64.91 166.24 63.64 167.86 64.13 Z" id="p11" />
<path d="M 51.59 68.21 C 53.53 75.84 60.98 81.86 67.68 85.35 C 75.61 90.10 84.56 91.97 92.75 96.24 C 98.06 98.58 103.17 100.60 107.75 104.28 L 107.75 105.60 C 104.28 104.74 101.50 102.09 98.10 100.88 C 88.51 96.13 78.46 92.60 68.69 88.31 C 61.69 84.68 54.28 79.23 51.50 71.54 C 51.36 71.02 50.19 67.47 51.59 68.21 Z" id="p12" />
<path d="M 157.00 70.00 L 158.00 70.01 L 158.00 71.00 L 157.00 71.00 L 157.00 70.00 Z" id="p13" />
<path d="M 113.51 70.41 C 114.52 70.38 115.44 70.82 116.25 71.74 L 116.85 72.22 C 118.34 75.86 119.35 79.76 120.68 83.48 C 121.50 85.23 120.53 87.09 119.84 88.72 L 119.30 88.65 C 116.04 82.98 113.65 77.04 113.51 70.41 Z" id="p14" />
<path d="M 184.45 70.45 C 184.29 75.87 182.83 81.36 180.16 86.09 C 179.44 86.72 179.11 88.88 178.12 88.76 C 177.59 87.57 177.05 86.30 176.94 85.00 C 178.15 80.99 179.47 77.00 180.76 73.01 C 181.29 71.83 183.09 70.20 184.45 70.45 Z" id="p15" />
<path d="M 141.45 80.51 C 146.46 80.49 151.49 80.50 156.50 80.52 C 157.58 81.95 158.77 83.34 159.70 84.87 C 158.10 89.54 156.76 94.34 155.04 98.95 C 151.04 99.03 146.97 99.03 142.97 98.95 C 141.25 94.34 139.85 89.55 138.29 84.88 C 139.16 83.32 140.37 81.93 141.45 80.51 Z" id="p16" />
<path d="M 150.00 109.80 C 187.61 114.48 225.89 119.95 263.53 124.63 C 264.55 125.53 265.19 126.90 265.90 128.05 C 273.79 141.13 281.82 154.15 289.67 167.24 L 289.66 167.76 C 281.43 181.75 273.01 195.73 264.71 209.69 C 264.09 210.64 263.55 211.91 262.60 212.56 C 225.22 216.03 187.30 219.85 150.00 223.20 C 113.25 219.38 76.13 215.34 39.40 211.55 C 38.89 211.10 38.43 210.58 38.04 209.99 C 28.94 196.75 19.88 183.50 10.70 170.32 C 10.23 169.48 8.99 168.50 9.46 167.46 C 18.89 152.02 28.08 137.02 37.52 121.53 C 75.01 117.60 112.50 113.69 150.00 109.80 Z M 30.28 160.72 C 31.65 161.13 33.31 161.11 34.67 160.67 C 35.87 157.95 35.08 154.06 35.13 151.08 C 37.65 152.16 37.91 156.95 41.90 155.85 C 43.90 154.60 44.80 151.83 46.58 150.21 C 46.20 153.48 46.46 156.82 46.39 160.11 C 46.94 161.33 51.09 161.39 51.60 160.11 C 51.66 154.38 51.56 148.66 51.64 142.93 C 51.78 140.59 48.62 140.92 47.15 141.34 C 44.90 143.55 43.13 146.80 40.97 149.04 L 40.19 148.95 C 38.34 146.46 36.59 143.80 34.50 141.51 C 32.86 140.78 29.98 140.54 29.65 142.91 C 29.61 147.94 29.66 152.98 29.63 158.02 C 29.55 158.92 29.77 159.83 30.28 160.72 Z M 53.00 149.39 C 51.49 154.48 55.63 160.59 60.97 161.31 C 66.67 162.69 72.73 157.82 72.78 151.97 C 73.28 147.65 71.02 143.70 67.15 141.81 C 61.18 139.07 53.62 142.59 53.00 149.39 Z M 74.31 160.69 C 75.62 161.15 77.35 161.12 78.67 160.67 C 79.73 159.01 78.98 157.47 79.43 155.71 C 80.46 155.80 81.50 155.81 82.55 155.73 C 84.12 157.00 83.96 160.33 86.01 161.26 C 87.33 161.39 89.67 160.74 89.91 159.18 C 89.58 157.23 88.61 155.35 87.60 153.66 C 90.51 150.67 90.54 145.50 87.14 142.84 C 84.22 140.06 79.78 141.31 75.97 141.07 C 74.14 140.83 73.53 142.44 73.63 143.98 C 73.64 148.66 73.64 153.34 73.64 158.02 C 73.55 159.00 73.78 159.89 74.31 160.69 Z M 91.27 160.68 C 92.94 160.97 93.52 160.99 94.85 162.06 C 97.17 158.61 96.06 155.07 96.15 151.12 L 96.79 151.33 C 98.70 154.07 100.82 156.67 102.72 159.41 C 103.62 161.55 106.74 161.25 108.48 160.52 C 108.77 154.52 108.55 148.38 108.60 142.36 C 108.05 140.63 104.48 140.66 103.52 141.91 C 103.32 145.10 103.24 148.61 103.60 151.78 C 100.47 148.87 98.43 144.60 95.51 141.51 C 93.80 140.75 91.17 140.59 90.63 142.90 C 90.64 147.94 90.64 152.98 90.64 158.02 C 90.55 159.06 90.76 159.94 91.27 160.68 Z M 110.37 160.64 C 111.71 161.05 114.63 161.51 115.44 160.05 C 115.63 154.36 115.40 148.62 115.55 142.93 C 115.36 140.40 112.11 140.94 110.45 141.45 C 109.92 147.72 110.09 154.35 110.37 160.64 Z M 117.43 141.41 L 116.64 142.90 C 116.62 147.94 116.65 152.98 116.63 158.02 C 116.56 159.06 116.78 159.95 117.29 160.71 C 118.61 161.15 120.36 161.15 121.68 160.68 C 122.87 157.95 122.05 154.10 122.15 151.11 L 122.79 151.33 C 124.96 154.46 127.34 157.33 129.49 160.46 C 130.52 161.23 133.95 161.42 134.58 160.10 C 134.55 154.09 134.79 147.89 134.46 141.91 C 133.44 140.77 130.50 140.66 129.53 141.91 C 129.30 145.11 129.25 148.62 129.60 151.81 C 128.30 150.65 127.33 149.08 126.12 147.81 C 126.57 147.21 126.90 146.59 127.12 145.94 L 125.08 146.49 C 123.14 143.49 121.85 139.71 117.43 141.41 Z M 153.57 149.43 C 151.23 148.66 148.47 149.06 146.03 149.06 C 144.04 148.75 144.10 151.94 145.06 152.84 C 146.31 152.85 147.49 153.02 148.60 153.33 C 148.55 154.11 148.55 154.88 148.59 155.66 C 145.27 157.53 140.89 154.78 141.24 151.00 C 140.72 147.80 144.06 145.28 147.03 145.89 C 148.37 146.23 149.60 147.45 150.97 147.20 C 152.12 146.61 153.45 145.01 153.35 143.66 C 149.60 139.94 143.15 139.70 139.23 143.25 C 136.17 145.74 134.70 150.30 136.23 154.01 C 138.09 161.44 148.21 163.93 153.55 158.60 C 153.88 155.72 153.83 152.32 153.57 149.43 Z M 161.53 157.04 C 163.59 160.82 167.98 162.21 171.99 160.95 C 176.26 159.97 178.01 154.69 175.67 151.17 C 174.02 148.45 168.71 149.47 167.22 147.02 C 168.27 144.27 170.42 146.00 172.09 146.91 C 174.46 147.20 174.77 145.73 175.72 143.98 C 174.23 140.66 169.11 140.38 166.08 141.17 C 161.45 142.53 160.54 149.87 165.05 151.96 C 166.81 153.27 170.75 152.82 171.53 154.98 C 170.28 157.96 167.81 156.42 166.17 154.80 C 164.41 152.87 161.80 155.11 161.53 157.04 Z M 180.01 141.96 L 180.27 143.84 C 176.09 147.43 176.22 155.03 180.36 158.64 C 184.74 163.18 192.58 162.16 195.81 156.83 C 197.16 153.94 198.41 150.91 196.81 147.80 C 195.16 141.57 187.10 138.82 181.95 142.53 L 180.01 141.96 Z M 215.67 158.06 C 215.27 157.22 214.84 156.38 214.38 155.56 C 211.92 153.80 210.59 156.66 207.98 156.19 C 203.71 156.08 202.19 151.44 204.06 148.10 C 205.66 146.26 208.23 145.16 210.51 146.49 C 211.32 147.01 212.16 147.37 213.06 147.57 C 214.27 146.71 215.76 145.57 215.56 143.90 C 210.71 138.40 200.23 140.94 198.33 147.96 C 197.80 152.03 197.76 155.98 201.30 158.71 C 204.96 162.25 212.75 162.48 215.67 158.06 Z M 227.91 163.02 C 227.84 159.92 230.76 161.53 232.60 159.58 C 234.75 158.60 233.49 155.88 231.92 155.09 C 229.96 154.47 228.90 156.31 227.02 156.20 C 225.37 156.33 222.96 155.57 222.32 153.86 C 220.70 151.28 221.69 147.73 224.49 146.48 C 227.04 145.08 228.76 146.51 231.00 147.58 C 232.57 146.98 234.41 145.32 233.57 143.45 C 228.26 138.55 218.49 141.13 216.50 148.14 C 216.10 151.05 216.02 153.91 217.61 156.49 C 219.47 159.31 222.97 161.41 226.40 161.27 C 226.83 162.47 227.33 163.06 227.91 163.02 Z M 235.28 160.73 C 239.41 161.31 243.82 160.85 248.02 161.00 C 248.96 161.08 249.81 160.94 250.56 160.57 C 250.71 159.43 251.25 156.73 249.82 156.23 C 246.67 155.70 243.30 156.45 240.17 155.79 C 240.12 155.10 240.21 154.40 240.45 153.69 C 242.59 153.87 245.00 154.03 247.06 153.36 C 248.23 152.65 247.61 150.50 247.66 149.33 C 245.81 147.97 242.49 148.88 240.26 148.70 C 240.23 147.86 240.19 147.02 240.16 146.18 C 243.41 145.74 246.79 146.19 250.07 145.90 C 250.72 145.23 250.95 144.24 250.75 142.95 C 250.86 140.60 248.57 141.15 247.01 141.05 C 243.37 141.12 239.70 140.92 236.08 141.16 C 235.43 141.37 234.95 141.95 234.65 142.90 C 234.62 147.94 234.65 152.98 234.63 158.03 C 234.55 158.94 234.76 159.84 235.28 160.73 Z M 252.32 160.70 C 253.68 161.14 255.30 161.12 256.66 160.66 C 257.71 159.01 256.98 157.46 257.42 155.70 C 258.46 155.80 259.50 155.81 260.55 155.72 C 261.93 156.86 261.97 159.42 263.23 160.71 C 264.47 162.01 266.08 160.76 267.47 160.40 C 268.79 157.86 265.77 155.44 266.10 153.15 C 268.24 150.51 268.45 145.61 265.64 143.36 C 262.52 139.87 258.21 141.37 253.97 141.06 C 252.12 140.89 251.56 142.40 251.63 143.98 C 251.64 148.66 251.63 153.34 251.64 158.03 C 251.55 158.94 251.77 159.83 252.32 160.70 Z M 196.00 142.00 L 196.00 143.00 L 197.00 143.00 L 197.00 142.00 L 196.00 142.00 Z M 71.00 160.00 L 71.00 161.00 L 72.00 161.00 L 72.00 160.00 L 71.00 160.00 Z M 178.01 162.00 L 178.00 163.00 L 179.00 163.00 L 179.00 162.00 L 178.01 162.00 Z M 261.00 163.00 L 261.00 164.00 L 262.00 164.00 L 262.00 163.00 L 261.00 163.00 Z M 116.51 176.49 C 115.18 175.97 111.87 175.47 111.48 177.41 C 111.27 180.97 111.46 184.54 111.39 188.10 C 110.66 189.80 110.15 191.22 108.00 191.30 C 105.86 191.46 104.48 189.95 104.40 187.90 C 103.73 184.27 105.11 179.69 103.58 176.40 C 102.37 175.84 100.64 175.97 99.39 176.37 C 98.06 178.15 98.85 180.84 98.64 183.00 C 98.51 187.45 98.96 192.36 102.95 195.10 C 108.30 198.63 115.63 195.28 116.58 189.02 C 116.78 184.92 116.95 180.57 116.51 176.49 Z M 118.48 195.58 C 119.80 196.07 122.75 196.50 123.59 195.10 C 123.55 191.85 123.80 188.53 123.43 185.30 C 126.18 188.65 128.53 192.35 131.31 195.69 C 132.57 196.24 134.37 196.08 135.68 195.68 C 136.17 194.79 136.37 193.91 136.27 193.02 C 136.25 187.99 136.26 182.95 136.26 177.92 L 135.55 176.44 C 134.17 175.94 132.80 175.92 131.41 176.39 C 130.00 179.35 131.07 183.56 130.75 186.85 C 128.25 183.57 125.90 179.93 123.20 176.78 C 122.02 175.52 118.11 175.69 118.29 178.07 C 118.33 183.89 118.03 189.78 118.48 195.58 Z M 142.16 195.95 L 142.81 195.12 C 142.82 189.04 142.90 182.94 142.76 176.86 C 141.61 175.59 137.60 175.50 137.51 177.92 C 137.48 183.29 137.47 188.67 137.52 194.04 C 137.49 196.76 140.41 195.85 142.16 195.95 Z M 144.19 176.24 C 143.31 177.48 143.26 178.69 144.05 179.87 C 146.23 180.23 148.60 179.68 150.72 180.23 C 150.63 185.12 150.52 190.11 150.76 195.00 C 151.92 197.11 155.08 195.16 157.13 196.04 C 156.84 195.37 156.40 194.71 155.80 194.05 C 155.96 189.42 155.63 184.62 155.96 180.03 C 159.07 179.55 161.77 181.17 163.97 178.43 C 164.54 184.09 163.79 189.95 164.38 195.63 C 169.13 196.24 174.91 196.21 179.66 195.67 C 180.66 194.04 180.50 193.02 179.57 191.41 C 176.55 190.59 172.99 191.35 169.85 190.98 L 169.17 190.01 C 169.70 187.87 173.32 189.26 175.02 188.69 C 177.88 188.90 178.02 184.85 176.03 183.70 C 173.83 183.55 171.61 183.68 169.43 183.63 C 169.45 182.86 169.44 182.09 169.40 181.34 C 172.54 180.40 176.47 181.58 179.68 180.68 C 180.68 179.14 180.44 177.93 179.57 176.41 C 175.38 175.60 170.34 176.27 165.97 176.06 C 163.97 176.87 163.91 177.48 161.90 176.12 C 156.04 176.08 150.03 175.85 144.19 176.24 Z M 182.04 176.18 L 181.33 176.87 C 181.03 182.91 181.15 189.05 181.26 195.11 L 181.85 195.94 C 185.83 195.75 191.15 196.94 194.47 194.44 C 197.70 192.26 199.25 188.88 198.80 184.99 C 198.83 180.76 194.96 177.08 191.02 176.22 C 188.10 175.94 184.97 175.99 182.04 176.18 Z" id="p17" />
<path d="M 34.50 141.51 C 36.59 143.80 38.34 146.46 40.19 148.95 L 40.97 149.04 C 43.13 146.80 44.90 143.55 47.15 141.34 C 48.62 140.92 51.78 140.59 51.64 142.93 C 51.56 148.66 51.66 154.38 51.60 160.11 C 51.09 161.39 46.94 161.33 46.39 160.11 C 46.46 156.82 46.20 153.48 46.58 150.21 C 44.80 151.83 43.90 154.60 41.90 155.85 C 37.91 156.95 37.65 152.16 35.13 151.08 C 35.08 154.06 35.87 157.95 34.67 160.67 C 33.31 161.11 31.65 161.13 30.28 160.72 C 29.77 159.83 29.55 158.92 29.63 158.02 C 29.66 152.98 29.61 147.94 29.65 142.91 C 29.98 140.54 32.86 140.78 34.50 141.51 Z" id="p18" />
<path d="M 67.15 141.81 C 71.02 143.70 73.28 147.65 72.78 151.97 C 72.73 157.82 66.67 162.69 60.97 161.31 C 55.63 160.59 51.49 154.48 53.00 149.39 C 53.62 142.59 61.18 139.07 67.15 141.81 Z M 66.68 148.15 C 64.49 144.36 58.74 145.80 58.29 149.98 C 57.73 153.30 59.46 156.28 63.01 156.34 C 67.13 156.05 68.68 151.43 66.68 148.15 Z" id="p19" />
<path d="M 75.97 141.07 C 79.78 141.31 84.22 140.06 87.14 142.84 C 90.54 145.50 90.51 150.67 87.60 153.66 C 88.61 155.35 89.58 157.23 89.91 159.18 C 89.67 160.74 87.33 161.39 86.01 161.26 C 83.96 160.33 84.12 157.00 82.55 155.73 C 81.50 155.81 80.46 155.80 79.43 155.71 C 78.98 157.47 79.73 159.01 78.67 160.67 C 77.35 161.12 75.62 161.15 74.31 160.69 C 73.78 159.89 73.55 159.00 73.64 158.02 C 73.64 153.34 73.64 148.66 73.63 143.98 C 73.53 142.44 74.14 140.83 75.97 141.07 Z M 79.19 146.17 C 79.27 147.69 79.22 149.20 79.27 150.72 C 81.26 150.52 82.84 151.08 84.38 149.46 C 85.03 145.97 81.84 145.63 79.19 146.17 Z" id="p20" />
<path d="M 95.51 141.51 C 98.43 144.60 100.47 148.87 103.60 151.78 C 103.24 148.61 103.32 145.10 103.52 141.91 C 104.48 140.66 108.05 140.63 108.60 142.36 C 108.55 148.38 108.77 154.52 108.48 160.52 C 106.74 161.25 103.62 161.55 102.72 159.41 C 100.82 156.67 98.70 154.07 96.79 151.33 L 96.15 151.12 C 96.06 155.07 97.17 158.61 94.85 162.06 C 93.52 160.99 92.94 160.97 91.27 160.68 C 90.76 159.94 90.55 159.06 90.64 158.02 C 90.64 152.98 90.64 147.94 90.63 142.90 C 91.17 140.59 93.80 140.75 95.51 141.51 Z" id="p21" />
<path d="M 110.45 141.45 C 112.11 140.94 115.36 140.40 115.55 142.93 C 115.40 148.62 115.63 154.36 115.44 160.05 C 114.63 161.51 111.71 161.05 110.37 160.64 C 110.09 154.35 109.92 147.72 110.45 141.45 Z" id="p22" />
<path d="M 125.08 146.49 L 127.12 145.94 C 126.90 146.59 126.57 147.21 126.12 147.81 C 127.33 149.08 128.30 150.65 129.60 151.81 C 129.25 148.62 129.30 145.11 129.53 141.91 C 130.50 140.66 133.44 140.77 134.46 141.91 C 134.79 147.89 134.55 154.09 134.58 160.10 C 133.95 161.42 130.52 161.23 129.49 160.46 C 127.34 157.33 124.96 154.46 122.79 151.33 L 122.15 151.11 C 122.05 154.10 122.87 157.95 121.68 160.68 C 120.36 161.15 118.61 161.15 117.29 160.71 C 116.78 159.95 116.56 159.06 116.63 158.02 C 116.65 152.98 116.62 147.94 116.64 142.90 L 117.43 141.41 C 121.85 139.71 123.14 143.49 125.08 146.49 Z" id="p23" />
<path d="M 153.35 143.66 C 153.45 145.01 152.12 146.61 150.97 147.20 C 149.60 147.45 148.37 146.23 147.03 145.89 C 144.06 145.28 140.72 147.80 141.24 151.00 C 140.89 154.78 145.27 157.53 148.59 155.66 C 148.55 154.88 148.55 154.11 148.60 153.33 C 147.49 153.02 146.31 152.85 145.06 152.84 C 144.10 151.94 144.04 148.75 146.03 149.06 C 148.47 149.06 151.23 148.66 153.57 149.43 C 153.83 152.32 153.88 155.72 153.55 158.60 C 148.21 163.93 138.09 161.44 136.23 154.01 C 134.70 150.30 136.17 145.74 139.23 143.25 C 143.15 139.70 149.60 139.94 153.35 143.66 Z" id="p24" />
<path d="M 166.08 141.17 C 169.11 140.38 174.23 140.66 175.72 143.98 C 174.77 145.73 174.46 147.20 172.09 146.91 C 170.42 146.00 168.27 144.27 167.22 147.02 C 168.71 149.47 174.02 148.45 175.67 151.17 C 178.01 154.69 176.26 159.97 171.99 160.95 C 167.98 162.21 163.59 160.82 161.53 157.04 C 161.80 155.11 164.41 152.87 166.17 154.80 C 167.81 156.42 170.28 157.96 171.53 154.98 C 170.75 152.82 166.81 153.27 165.05 151.96 C 160.54 149.87 161.45 142.53 166.08 141.17 Z" id="p25" />
<path d="M 196.81 147.80 C 198.41 150.91 197.16 153.94 195.81 156.83 C 192.58 162.16 184.74 163.18 180.36 158.64 C 176.22 155.03 176.09 147.43 180.27 143.84 L 180.01 141.96 L 181.95 142.53 C 187.10 138.82 195.16 141.57 196.81 147.80 Z M 183.30 153.86 C 184.32 156.12 187.61 157.09 189.68 155.65 C 193.31 153.46 192.47 146.74 188.00 145.99 C 183.87 145.38 181.13 150.50 183.30 153.86 Z" id="p26" />
<path d="M 215.56 143.90 C 215.76 145.57 214.27 146.71 213.06 147.57 C 212.16 147.37 211.32 147.01 210.51 146.49 C 208.23 145.16 205.66 146.26 204.06 148.10 C 202.19 151.44 203.71 156.08 207.98 156.19 C 210.59 156.66 211.92 153.80 214.38 155.56 C 214.84 156.38 215.27 157.22 215.67 158.06 C 212.75 162.48 204.96 162.25 201.30 158.71 C 197.76 155.98 197.80 152.03 198.33 147.96 C 200.23 140.94 210.71 138.40 215.56 143.90 Z" id="p27" />
<path d="M 233.57 143.45 C 234.41 145.32 232.57 146.98 231.00 147.58 C 228.76 146.51 227.04 145.08 224.49 146.48 C 221.69 147.73 220.70 151.28 222.32 153.86 C 222.96 155.57 225.37 156.33 227.02 156.20 C 228.90 156.31 229.96 154.47 231.92 155.09 C 233.49 155.88 234.75 158.60 232.60 159.58 C 230.76 161.53 227.84 159.92 227.91 163.02 C 227.33 163.06 226.83 162.47 226.40 161.27 C 222.97 161.41 219.47 159.31 217.61 156.49 C 216.02 153.91 216.10 151.05 216.50 148.14 C 218.49 141.13 228.26 138.55 233.57 143.45 Z" id="p28" />
<path d="M 236.08 141.16 C 239.70 140.92 243.37 141.12 247.01 141.05 C 248.57 141.15 250.86 140.60 250.75 142.95 C 250.95 144.24 250.72 145.23 250.07 145.90 C 246.79 146.19 243.41 145.74 240.16 146.18 C 240.19 147.02 240.23 147.86 240.26 148.70 C 242.49 148.88 245.81 147.97 247.66 149.33 C 247.61 150.50 248.23 152.65 247.06 153.36 C 245.00 154.03 242.59 153.87 240.45 153.69 C 240.21 154.40 240.12 155.10 240.17 155.79 C 243.30 156.45 246.67 155.70 249.82 156.23 C 251.25 156.73 250.71 159.43 250.56 160.57 C 249.81 160.94 248.96 161.08 248.02 161.00 C 243.82 160.85 239.41 161.31 235.28 160.73 C 234.76 159.84 234.55 158.94 234.63 158.03 C 234.65 152.98 234.62 147.94 234.65 142.90 C 234.95 141.95 235.43 141.37 236.08 141.16 Z" id="p29" />
<path d="M 253.97 141.06 C 258.21 141.37 262.52 139.87 265.64 143.36 C 268.45 145.61 268.24 150.51 266.10 153.15 C 265.77 155.44 268.79 157.86 267.47 160.40 C 266.08 160.76 264.47 162.01 263.23 160.71 C 261.97 159.42 261.93 156.86 260.55 155.72 C 259.50 155.81 258.46 155.80 257.42 155.70 C 256.98 157.46 257.71 159.01 256.66 160.66 C 255.30 161.12 253.68 161.14 252.32 160.70 C 251.77 159.83 251.55 158.94 251.64 158.03 C 251.63 153.34 251.64 148.66 251.63 143.98 C 251.56 142.40 252.12 140.89 253.97 141.06 Z M 257.18 146.19 C 257.25 147.71 257.25 149.22 257.26 150.74 C 259.24 150.52 260.84 151.06 262.37 149.46 C 263.03 145.96 259.83 145.61 257.18 146.19 Z" id="p30" />
<path d="M 196.00 142.00 L 197.00 142.00 L 197.00 143.00 L 196.00 143.00 L 196.00 142.00 Z" id="p31" />
<path d="M 66.68 148.15 C 68.68 151.43 67.13 156.05 63.01 156.34 C 59.46 156.28 57.73 153.30 58.29 149.98 C 58.74 145.80 64.49 144.36 66.68 148.15 Z" id="p32" />
<path d="M 79.19 146.17 C 81.84 145.63 85.03 145.97 84.38 149.46 C 82.84 151.08 81.26 150.52 79.27 150.72 C 79.22 149.20 79.27 147.69 79.19 146.17 Z" id="p33" />
<path d="M 188.00 145.99 C 192.47 146.74 193.31 153.46 189.68 155.65 C 187.61 157.09 184.32 156.12 183.30 153.86 C 181.13 150.50 183.87 145.38 188.00 145.99 Z" id="p34" />
<path d="M 257.18 146.19 C 259.83 145.61 263.03 145.96 262.37 149.46 C 260.84 151.06 259.24 150.52 257.26 150.74 C 257.25 149.22 257.25 147.71 257.18 146.19 Z M 257.97 147.01 L 257.99 148.01 L 258.99 147.99 L 258.96 146.99 L 257.97 147.01 Z" id="p35" />
<path d="M 257.97 147.01 L 258.96 146.99 L 258.99 147.99 L 257.99 148.01 L 257.97 147.01 Z" id="p36" />
<path d="M 71.00 160.00 L 72.00 160.00 L 72.00 161.00 L 71.00 161.00 L 71.00 160.00 Z" id="p37" />
<path d="M 178.01 162.00 L 179.00 162.00 L 179.00 163.00 L 178.00 163.00 L 178.01 162.00 Z" id="p38" />
<path d="M 261.00 163.00 L 262.00 163.00 L 262.00 164.00 L 261.00 164.00 L 261.00 163.00 Z" id="p39" />
<path d="M 99.39 176.37 C 100.64 175.97 102.37 175.84 103.58 176.40 C 105.11 179.69 103.73 184.27 104.40 187.90 C 104.48 189.95 105.86 191.46 108.00 191.30 C 110.15 191.22 110.66 189.80 111.39 188.10 C 111.46 184.54 111.27 180.97 111.48 177.41 C 111.87 175.47 115.18 175.97 116.51 176.49 C 116.95 180.57 116.78 184.92 116.58 189.02 C 115.63 195.28 108.30 198.63 102.95 195.10 C 98.96 192.36 98.51 187.45 98.64 183.00 C 98.85 180.84 98.06 178.15 99.39 176.37 Z" id="p40" />
<path d="M 123.20 176.78 C 125.90 179.93 128.25 183.57 130.75 186.85 C 131.07 183.56 130.00 179.35 131.41 176.39 C 132.80 175.92 134.17 175.94 135.55 176.44 L 136.26 177.92 C 136.26 182.95 136.25 187.99 136.27 193.02 C 136.37 193.91 136.17 194.79 135.68 195.68 C 134.37 196.08 132.57 196.24 131.31 195.69 C 128.53 192.35 126.18 188.65 123.43 185.30 C 123.80 188.53 123.55 191.85 123.59 195.10 C 122.75 196.50 119.80 196.07 118.48 195.58 C 118.03 189.78 118.33 183.89 118.29 178.07 C 118.11 175.69 122.02 175.52 123.20 176.78 Z" id="p41" />
<path d="M 142.76 176.86 C 142.90 182.94 142.82 189.04 142.81 195.12 L 142.16 195.95 C 140.41 195.85 137.49 196.76 137.52 194.04 C 137.47 188.67 137.48 183.29 137.51 177.92 C 137.60 175.50 141.61 175.59 142.76 176.86 Z" id="p42" />
<path d="M 144.19 176.24 C 150.03 175.85 156.04 176.08 161.90 176.12 C 163.91 177.48 163.97 176.87 165.97 176.06 C 170.34 176.27 175.38 175.60 179.57 176.41 C 180.44 177.93 180.68 179.14 179.68 180.68 C 176.47 181.58 172.54 180.40 169.40 181.34 C 169.44 182.09 169.45 182.86 169.43 183.63 C 171.61 183.68 173.83 183.55 176.03 183.70 C 178.02 184.85 177.88 188.90 175.02 188.69 C 173.32 189.26 169.70 187.87 169.17 190.01 L 169.85 190.98 C 172.99 191.35 176.55 190.59 179.57 191.41 C 180.50 193.02 180.66 194.04 179.66 195.67 C 174.91 196.21 169.13 196.24 164.38 195.63 C 163.79 189.95 164.54 184.09 163.97 178.43 C 161.77 181.17 159.07 179.55 155.96 180.03 C 155.63 184.62 155.96 189.42 155.80 194.05 C 156.40 194.71 156.84 195.37 157.13 196.04 C 155.08 195.16 151.92 197.11 150.76 195.00 C 150.52 190.11 150.63 185.12 150.72 180.23 C 148.60 179.68 146.23 180.23 144.05 179.87 C 143.26 178.69 143.31 177.48 144.19 176.24 Z" id="p43" />
<path d="M 182.04 176.18 C 184.97 175.99 188.10 175.94 191.02 176.22 C 194.96 177.08 198.83 180.76 198.80 184.99 C 199.25 188.88 197.70 192.26 194.47 194.44 C 191.15 196.94 185.83 195.75 181.85 195.94 L 181.26 195.11 C 181.15 189.05 181.03 182.91 181.33 176.87 L 182.04 176.18 Z M 186.40 190.69 C 189.65 192.13 193.86 189.72 193.51 186.00 C 193.82 182.48 189.42 180.06 186.40 181.32 C 186.56 184.42 186.57 187.59 186.40 190.69 Z" id="p44" />
<path d="M 186.40 181.32 C 189.42 180.06 193.82 182.48 193.51 186.00 C 193.86 189.72 189.65 192.13 186.40 190.69 C 186.57 187.59 186.56 184.42 186.40 181.32 Z" id="p45" />
<path d="M 65.00 222.98 C 69.21 223.36 73.31 223.53 77.45 224.43 C 88.36 225.19 99.14 226.66 110.02 227.70 C 116.61 228.94 123.34 228.87 129.99 229.85 C 136.52 230.76 143.33 230.84 149.77 232.15 C 149.62 234.06 149.60 235.96 149.66 237.87 C 148.01 237.40 147.50 238.65 146.15 238.76 C 144.71 238.11 143.69 236.98 142.01 237.30 C 139.94 237.67 137.46 237.04 136.16 239.11 C 134.63 241.30 135.06 244.58 137.96 245.26 C 140.31 245.97 142.85 243.91 141.50 241.50 C 139.88 240.22 139.11 241.66 137.40 241.62 C 137.27 240.81 137.16 240.00 137.09 239.20 C 137.74 239.53 138.39 239.88 139.02 240.25 C 140.02 240.03 141.03 239.83 142.03 239.63 C 144.37 239.93 145.08 241.89 144.81 244.01 C 144.88 246.71 142.26 247.80 140.02 248.25 C 134.72 248.35 129.79 245.58 126.44 241.60 C 125.59 240.00 126.55 238.83 126.82 237.23 C 126.04 237.08 125.24 237.14 124.40 237.41 C 123.87 238.33 123.59 239.39 123.58 240.58 C 122.47 239.77 121.97 238.70 120.39 239.36 C 120.00 240.29 119.91 241.18 120.13 242.03 C 121.11 242.79 122.93 241.92 122.56 243.58 C 119.89 243.76 118.54 239.71 116.30 241.24 C 116.55 242.16 117.10 242.86 117.58 243.67 C 116.53 243.95 115.48 244.24 114.44 244.54 C 114.17 245.59 114.08 246.68 114.18 247.84 L 114.91 247.84 C 115.04 246.91 115.14 245.98 115.23 245.05 C 123.41 243.57 128.63 247.92 136.04 249.84 C 139.54 250.83 143.32 250.81 145.92 247.93 C 147.99 245.87 147.46 242.89 147.24 240.27 C 148.24 240.84 148.66 240.72 149.72 240.48 C 149.44 242.17 149.51 243.82 149.52 245.52 C 147.44 246.56 147.52 247.89 146.85 249.86 C 144.47 250.98 142.82 252.79 140.00 251.86 C 137.24 251.07 137.34 253.80 139.20 254.74 C 142.59 256.25 143.45 253.54 145.95 252.29 C 146.55 253.73 144.72 255.81 143.72 256.73 C 142.03 257.87 140.99 257.12 139.21 257.28 C 137.10 258.98 140.23 261.15 142.00 260.17 C 145.25 258.87 145.62 254.49 147.87 253.03 C 147.78 257.28 145.99 260.63 148.31 264.74 C 148.83 264.71 149.32 264.52 149.79 264.16 C 149.52 274.06 149.74 284.08 149.65 294.01 C 149.52 295.32 149.96 296.16 150.98 296.54 C 150.55 296.89 150.11 297.25 149.69 297.62 C 123.06 279.80 95.84 261.76 69.10 243.87 C 67.36 242.62 65.13 241.64 63.75 239.99 C 63.48 238.51 63.52 237.00 63.27 235.53 C 61.73 231.98 61.66 227.80 60.92 224.01 C 60.85 222.02 63.82 223.03 65.00 222.98 Z M 102.72 243.21 C 101.85 243.11 101.00 243.13 100.16 243.25 C 99.85 244.05 99.65 244.90 99.57 245.79 C 98.69 245.07 97.87 244.20 97.16 243.31 C 99.40 241.51 101.88 241.17 104.09 239.28 C 108.33 238.67 112.87 239.38 117.03 240.21 L 117.89 239.90 C 118.17 238.66 115.80 238.45 115.01 238.05 C 109.55 236.35 102.75 236.71 97.86 239.84 C 96.21 241.23 93.35 243.27 94.32 245.76 C 95.00 247.16 96.97 247.25 98.33 247.48 C 100.69 247.43 101.70 244.96 102.72 243.21 Z" id="p46" />
<path d="M 237.04 223.53 L 237.95 223.90 C 237.45 229.40 236.19 234.91 235.37 240.39 C 231.01 242.96 226.91 245.95 222.66 248.69 C 198.78 264.66 174.81 280.52 150.98 296.54 C 149.96 296.16 149.52 295.32 149.65 294.01 C 149.74 284.08 149.52 274.06 149.79 264.16 C 151.40 259.52 149.42 255.95 149.50 251.41 L 150.85 251.20 C 152.36 253.50 154.75 256.25 157.79 254.76 C 159.25 254.00 160.36 252.10 158.06 251.50 C 155.67 252.04 154.05 252.57 151.90 251.03 C 151.33 250.66 150.76 250.28 150.21 249.89 C 150.15 248.97 150.14 248.05 150.18 247.14 C 152.11 248.59 153.31 250.23 155.98 250.37 C 165.13 250.68 171.37 243.55 181.01 244.86 C 180.70 244.29 180.18 243.86 179.46 243.57 C 179.92 242.73 180.53 242.09 180.80 241.17 C 178.75 240.59 176.34 243.17 174.18 243.56 C 174.42 242.14 175.79 242.71 176.90 242.01 C 176.85 241.13 176.74 240.26 176.56 239.39 C 174.92 238.40 174.50 239.76 173.40 240.64 C 173.41 238.40 172.74 236.46 170.09 237.14 C 170.09 239.00 171.83 239.59 170.48 241.50 C 167.42 245.76 162.21 248.28 156.98 248.25 C 155.34 248.07 153.14 247.21 152.47 245.56 C 151.77 243.49 151.67 240.86 154.01 239.84 C 155.69 238.84 157.47 240.98 158.92 239.97 C 158.95 238.24 156.47 237.24 155.00 237.24 C 153.05 236.94 151.93 238.47 150.21 238.90 L 149.66 237.87 C 149.60 235.96 149.62 234.06 149.77 232.15 C 163.45 230.50 177.30 229.59 191.00 228.03 C 206.32 226.39 221.72 225.14 237.04 223.53 Z M 178.99 240.01 C 183.56 239.62 190.91 237.51 194.93 240.50 C 197.55 240.67 200.39 242.91 201.85 244.88 C 200.91 244.61 199.98 244.32 199.05 244.02 C 198.44 244.58 197.87 245.20 197.33 245.87 C 197.31 244.93 197.18 244.02 196.93 243.14 C 195.97 243.07 195.02 243.05 194.09 243.08 C 194.99 244.65 195.98 246.44 197.44 247.55 C 199.11 247.61 201.81 247.30 202.70 245.71 C 203.54 243.40 201.20 241.62 199.70 240.26 C 194.40 236.48 186.49 236.30 180.53 238.53 C 179.43 238.79 178.91 239.28 178.99 240.01 Z M 159.52 241.59 C 158.07 242.13 157.03 240.35 155.39 241.38 C 153.86 244.29 157.50 246.51 159.94 244.95 C 162.30 244.36 162.32 239.29 160.13 239.10 C 159.93 239.93 159.73 240.76 159.52 241.59 Z M 182.69 248.57 C 183.42 247.21 183.48 246.08 182.87 245.17 C 181.54 244.79 180.59 248.87 182.69 248.57 Z M 158.49 259.46 C 158.60 258.69 158.40 257.93 157.87 257.17 C 155.84 256.90 154.43 258.11 152.76 256.23 C 152.26 255.55 151.68 255.14 151.02 255.00 C 151.26 257.08 153.14 259.16 154.88 260.23 C 155.91 261.01 157.55 259.96 158.49 259.46 Z" id="p47" />
<path d="M 115.01 238.05 C 115.80 238.45 118.17 238.66 117.89 239.90 L 117.03 240.21 C 112.87 239.38 108.33 238.67 104.09 239.28 C 101.88 241.17 99.40 241.51 97.16 243.31 C 97.87 244.20 98.69 245.07 99.57 245.79 C 99.65 244.90 99.85 244.05 100.16 243.25 C 101.00 243.13 101.85 243.11 102.72 243.21 C 101.70 244.96 100.69 247.43 98.33 247.48 C 96.97 247.25 95.00 247.16 94.32 245.76 C 93.35 243.27 96.21 241.23 97.86 239.84 C 102.75 236.71 109.55 236.35 115.01 238.05 Z M 95.53 244.50 C 95.50 244.49 95.50 244.49 95.53 244.50 Z" id="p48" />
<path d="M 124.40 237.41 C 125.24 237.14 126.04 237.08 126.82 237.23 C 126.55 238.83 125.59 240.00 126.44 241.60 C 129.79 245.58 134.72 248.35 140.02 248.25 C 142.26 247.80 144.88 246.71 144.81 244.01 C 145.08 241.89 144.37 239.93 142.03 239.63 C 141.03 239.83 140.02 240.03 139.02 240.25 C 138.39 239.88 137.74 239.53 137.09 239.20 C 137.16 240.00 137.27 240.81 137.40 241.62 C 139.11 241.66 139.88 240.22 141.50 241.50 C 142.85 243.91 140.31 245.97 137.96 245.26 C 135.06 244.58 134.63 241.30 136.16 239.11 C 137.46 237.04 139.94 237.67 142.01 237.30 C 143.69 236.98 144.71 238.11 146.15 238.76 C 147.50 238.65 148.01 237.40 149.66 237.87 L 150.21 238.90 C 151.93 238.47 153.05 236.94 155.00 237.24 C 156.47 237.24 158.95 238.24 158.92 239.97 C 157.47 240.98 155.69 238.84 154.01 239.84 C 151.67 240.86 151.77 243.49 152.47 245.56 C 153.14 247.21 155.34 248.07 156.98 248.25 C 162.21 248.28 167.42 245.76 170.48 241.50 C 171.83 239.59 170.09 239.00 170.09 237.14 C 172.74 236.46 173.41 238.40 173.40 240.64 C 174.50 239.76 174.92 238.40 176.56 239.39 C 176.74 240.26 176.85 241.13 176.90 242.01 C 175.79 242.71 174.42 242.14 174.18 243.56 C 176.34 243.17 178.75 240.59 180.80 241.17 C 180.53 242.09 179.92 242.73 179.46 243.57 C 180.18 243.86 180.70 244.29 181.01 244.86 C 171.37 243.55 165.13 250.68 155.98 250.37 C 153.31 250.23 152.11 248.59 150.18 247.14 C 150.14 248.05 150.15 248.97 150.21 249.89 C 150.76 250.28 151.33 250.66 151.90 251.03 L 150.85 251.20 L 149.50 251.41 C 149.42 255.95 151.40 259.52 149.79 264.16 C 149.32 264.52 148.83 264.71 148.31 264.74 C 145.99 260.63 147.78 257.28 147.87 253.03 C 145.62 254.49 145.25 258.87 142.00 260.17 C 140.23 261.15 137.10 258.98 139.21 257.28 C 140.99 257.12 142.03 257.87 143.72 256.73 C 144.72 255.81 146.55 253.73 145.95 252.29 C 143.45 253.54 142.59 256.25 139.20 254.74 C 137.34 253.80 137.24 251.07 140.00 251.86 C 142.82 252.79 144.47 250.98 146.85 249.86 C 147.52 247.89 147.44 246.56 149.52 245.52 C 149.51 243.82 149.44 242.17 149.72 240.48 C 148.66 240.72 148.24 240.84 147.24 240.27 C 147.46 242.89 147.99 245.87 145.92 247.93 C 143.32 250.81 139.54 250.83 136.04 249.84 C 128.63 247.92 123.41 243.57 115.23 245.05 C 115.14 245.98 115.04 246.91 114.91 247.84 L 114.18 247.84 C 114.08 246.68 114.17 245.59 114.44 244.54 C 115.48 244.24 116.53 243.95 117.58 243.67 C 117.10 242.86 116.55 242.16 116.30 241.24 C 118.54 239.71 119.89 243.76 122.56 243.58 C 122.93 241.92 121.11 242.79 120.13 242.03 C 119.91 241.18 120.00 240.29 120.39 239.36 C 121.97 238.70 122.47 239.77 123.58 240.58 C 123.59 239.39 123.87 238.33 124.40 237.41 Z" id="p49" />
<path d="M 199.70 240.26 C 201.20 241.62 203.54 243.40 202.70 245.71 C 201.81 247.30 199.11 247.61 197.44 247.55 C 195.98 246.44 194.99 244.65 194.09 243.08 C 195.02 243.05 195.97 243.07 196.93 243.14 C 197.18 244.02 197.31 244.93 197.33 245.87 C 197.87 245.20 198.44 244.58 199.05 244.02 C 199.98 244.32 200.91 244.61 201.85 244.88 C 200.39 242.91 197.55 240.67 194.93 240.50 C 190.91 237.51 183.56 239.62 178.99 240.01 C 178.91 239.28 179.43 238.79 180.53 238.53 C 186.49 236.30 194.40 236.48 199.70 240.26 Z" id="p50" />
<path d="M 160.13 239.10 C 162.32 239.29 162.30 244.36 159.94 244.95 C 157.50 246.51 153.86 244.29 155.39 241.38 C 157.03 240.35 158.07 242.13 159.52 241.59 C 159.73 240.76 159.93 239.93 160.13 239.10 Z" id="p51" />
<path d="M 95.53 244.50 C 95.50 244.49 95.50 244.49 95.53 244.50 Z" id="p52" />
<path d="M 182.87 245.17 C 183.48 246.08 183.42 247.21 182.69 248.57 C 180.59 248.87 181.54 244.79 182.87 245.17 Z" id="p53" />
<path d="M 150.85 251.20 L 151.90 251.03 C 154.05 252.57 155.67 252.04 158.06 251.50 C 160.36 252.10 159.25 254.00 157.79 254.76 C 154.75 256.25 152.36 253.50 150.85 251.20 Z" id="p54" />
<path d="M 151.02 255.00 C 151.68 255.14 152.26 255.55 152.76 256.23 C 154.43 258.11 155.84 256.90 157.87 257.17 C 158.40 257.93 158.60 258.69 158.49 259.46 C 157.55 259.96 155.91 261.01 154.88 260.23 C 153.14 259.16 151.26 257.08 151.02 255.00 Z" id="p55" />
</defs>
<g stroke-width="10pt">
<use stroke="#ffffff" xlink:href="#p0" />
<use stroke="#deba49" xlink:href="#p1" />
<use stroke="#ffffff" xlink:href="#p2" />
<use stroke="#e7262b" xlink:href="#p3" />
<use stroke="#201c1b" xlink:href="#p4" />
<use stroke="#070707" xlink:href="#p5" />
<use stroke="#ffffff" xlink:href="#p6" />
<use stroke="#ffffff" xlink:href="#p7" />
<use stroke="#ffffff" xlink:href="#p8" />
<use stroke="#ffffff" xlink:href="#p9" />
<use stroke="#ffffff" xlink:href="#p10" />
<use stroke="#ffffff" xlink:href="#p11" />
<use stroke="#e7262b" xlink:href="#p12" />
<use stroke="#ffffff" xlink:href="#p13" />
<use stroke="#ffffff" xlink:href="#p14" />
<use stroke="#ffffff" xlink:href="#p15" />
<use stroke="#ffffff" xlink:href="#p16" />
<use stroke="#070707" xlink:href="#p17" />
<use stroke="#ffffff" xlink:href="#p18" />
<use stroke="#ffffff" xlink:href="#p19" />
<use stroke="#ffffff" xlink:href="#p20" />
<use stroke="#ffffff" xlink:href="#p21" />
<use stroke="#ffffff" xlink:href="#p22" />
<use stroke="#ffffff" xlink:href="#p23" />
<use stroke="#ffffff" xlink:href="#p24" />
<use stroke="#ffffff" xlink:href="#p25" />
<use stroke="#ffffff" xlink:href="#p26" />
<use stroke="#ffffff" xlink:href="#p27" />
<use stroke="#ffffff" xlink:href="#p28" />
<use stroke="#ffffff" xlink:href="#p29" />
<use stroke="#ffffff" xlink:href="#p30" />
<use stroke="#ffffff" xlink:href="#p31" />
<use stroke="#070707" xlink:href="#p32" />
<use stroke="#070707" xlink:href="#p33" />
<use stroke="#070707" xlink:href="#p34" />
<use stroke="#070707" xlink:href="#p35" />
<use stroke="#ffffff" xlink:href="#p36" />
<use stroke="#ffffff" xlink:href="#p37" />
<use stroke="#ffffff" xlink:href="#p38" />
<use stroke="#ffffff" xlink:href="#p39" />
<use stroke="#ffffff" xlink:href="#p40" />
<use stroke="#ffffff" xlink:href="#p41" />
<use stroke="#ffffff" xlink:href="#p42" />
<use stroke="#ffffff" xlink:href="#p43" />
<use stroke="#ffffff" xlink:href="#p44" />
<use stroke="#070707" xlink:href="#p45" />
<use stroke="#e7262b" xlink:href="#p46" />
<use stroke="#201c1b" xlink:href="#p47" />
<use stroke="#deba49" xlink:href="#p48" />
<use stroke="#deba49" xlink:href="#p49" />
<use stroke="#deba49" xlink:href="#p50" />
<use stroke="#deba49" xlink:href="#p51" />
<use stroke="#e7262b" xlink:href="#p52" />
<use stroke="#deba49" xlink:href="#p53" />
<use stroke="#deba49" xlink:href="#p54" />
<use stroke="#deba49" xlink:href="#p55" />
</g>
<g>
<use fill="#ffffff" xlink:href="#p0" />
<use fill="#deba49" xlink:href="#p1" />
<use fill="#ffffff" xlink:href="#p2" />
<use fill="#e7262b" xlink:href="#p3" />
<use fill="#201c1b" xlink:href="#p4" />
<use fill="#070707" xlink:href="#p5" />
<use fill="#ffffff" xlink:href="#p6" />
<use fill="#ffffff" xlink:href="#p7" />
<use fill="#ffffff" xlink:href="#p8" />
<use fill="#ffffff" xlink:href="#p9" />
<use fill="#ffffff" xlink:href="#p10" />
<use fill="#ffffff" xlink:href="#p11" />
<use fill="#e7262b" xlink:href="#p12" />
<use fill="#ffffff" xlink:href="#p13" />
<use fill="#ffffff" xlink:href="#p14" />
<use fill="#ffffff" xlink:href="#p15" />
<use fill="#ffffff" xlink:href="#p16" />
<use fill="#070707" xlink:href="#p17" />
<use fill="#ffffff" xlink:href="#p18" />
<use fill="#ffffff" xlink:href="#p19" />
<use fill="#ffffff" xlink:href="#p20" />
<use fill="#ffffff" xlink:href="#p21" />
<use fill="#ffffff" xlink:href="#p22" />
<use fill="#ffffff" xlink:href="#p23" />
<use fill="#ffffff" xlink:href="#p24" />
<use fill="#ffffff" xlink:href="#p25" />
<use fill="#ffffff" xlink:href="#p26" />
<use fill="#ffffff" xlink:href="#p27" />
<use fill="#ffffff" xlink:href="#p28" />
<use fill="#ffffff" xlink:href="#p29" />
<use fill="#ffffff" xlink:href="#p30" />
<use fill="#ffffff" xlink:href="#p31" />
<use fill="#070707" xlink:href="#p32" />
<use fill="#070707" xlink:href="#p33" />
<use fill="#070707" xlink:href="#p34" />
<use fill="#070707" xlink:href="#p35" />
<use fill="#ffffff" xlink:href="#p36" />
<use fill="#ffffff" xlink:href="#p37" />
<use fill="#ffffff" xlink:href="#p38" />
<use fill="#ffffff" xlink:href="#p39" />
<use fill="#ffffff" xlink:href="#p40" />
<use fill="#ffffff" xlink:href="#p41" />
<use fill="#ffffff" xlink:href="#p42" />
<use fill="#ffffff" xlink:href="#p43" />
<use fill="#ffffff" xlink:href="#p44" />
<use fill="#070707" xlink:href="#p45" />
<use fill="#e7262b" xlink:href="#p46" />
<use fill="#201c1b" xlink:href="#p47" />
<use fill="#deba49" xlink:href="#p48" />
<use fill="#deba49" xlink:href="#p49" />
<use fill="#deba49" xlink:href="#p50" />
<use fill="#deba49" xlink:href="#p51" />
<use fill="#e7262b" xlink:href="#p52" />
<use fill="#deba49" xlink:href="#p53" />
<use fill="#deba49" xlink:href="#p54" />
<use fill="#deba49" xlink:href="#p55" />
</g>
</svg>