<?xml version="1.0" encoding="UTF-8" standalone="no"?>
<!DOCTYPE svg PUBLIC "-//W3C//DTD SVG 1.1//EN" "http://www.w3.org/Graphics/SVG/1.1/DTD/svg11.dtd">
<svg version="1.1" xmlns="http://www.w3.org/2000/svg" xmlns:xlink="http://www.w3.org/1999/xlink" preserveAspectRatio="xMidYMid meet" viewBox="0 0 640 460" width="640" height="460"><defs><path d="M366.11 384.87L329.09 294.76L323.01 384.42L311.99 294.71L286.01 385.62L295.45 289.94L235.11 385.7L280.61 280.78L177.75 377.44L268.47 267.85L145.48 332.7L259.87 252.04L125.12 280.66L255.39 234.41L118.07 224.86L255.34 216.19L124.8 169.1L259.72 198.59L144.86 117.19L268.23 182.84L176.88 72.66L280.29 169.99L218.68 38.55L295.08 160.92L267.4 17.18L311.59 156.25L319.73 10L328.7 156.31L372.1 17.51L345.24 161.08L420.95 39.2L360.08 170.24L462.94 73.58L372.21 183.17L495.21 118.32L380.81 198.98L515.56 170.36L385.29 216.61L522.61 226.16L385.34 234.83L515.88 281.91L380.97 252.42L495.82 333.83L372.46 268.18L463.8 378.36L360.4 281.03L414.83 386.35L345.61 290.1L366.11 384.87Z" id="b1hL5i8mVu"></path><path d="M366.11 384.87L329.09 294.76L323.01 384.42L311.99 294.71L286.01 385.62L295.45 289.94L235.11 385.7L280.61 280.78L177.75 377.44L268.47 267.85L145.48 332.7L259.87 252.04L125.12 280.66L255.39 234.41L118.07 224.86L255.34 216.19L124.8 169.1L259.72 198.59L144.86 117.19L268.23 182.84L176.88 72.66L280.29 169.99L218.68 38.55L295.08 160.92L267.4 17.18L311.59 156.25L319.73 10L328.7 156.31L372.1 17.51L345.24 161.08L420.95 39.2L360.08 170.24L462.94 73.58L372.21 183.17L495.21 118.32L380.81 198.98L515.56 170.36L385.29 216.61L522.61 226.16L385.34 234.83L515.88 281.91L380.97 252.42L495.82 333.83L372.46 268.18L463.8 378.36L360.4 281.03L414.83 386.35L345.61 290.1L366.11 384.87Z" id="b3C2YXZtb"></path><path d="M233.92 226.78C233.92 176.47 273.23 135.69 321.73 135.69C370.22 135.69 409.53 176.47 409.53 226.78C409.53 277.09 370.22 317.87 321.73 317.87C273.23 317.87 233.92 277.09 233.92 226.78Z" id="aWaIatfA9"></path><path d="M233.92 226.78C233.92 176.47 273.23 135.69 321.73 135.69C370.22 135.69 409.53 176.47 409.53 226.78C409.53 277.09 370.22 317.87 321.73 317.87C273.23 317.87 233.92 277.09 233.92 226.78Z" id="b2X6LVjCqp"></path><path d="M350.59 224.93L317.85 248.4L286.01 223.69L299.4 185.09L339.29 185.71L350.59 224.93Z" id="a2PEvPmgHM"></path><path d="M350.59 224.93L317.85 248.4L286.01 223.69L299.4 185.09L339.29 185.71L350.59 224.93Z" id="bDG93EBJ"></path><path d="M255.4 271.43C254.17 271.07 244.37 268.21 243.15 267.85C238.01 259.59 228.48 227.38 236.9 203.62C236.53 204.38 254.93 234.77 255.35 233.88C254.45 234.35 254.72 271.78 255.4 271.43Z" id="i14TRjrWs"></path><path d="M255.4 271.43C254.17 271.07 244.37 268.21 243.15 267.85C238.01 259.59 228.48 227.38 236.9 203.62C236.53 204.38 254.93 234.77 255.35 233.88C254.45 234.35 254.72 271.78 255.4 271.43Z" id="a2RwY7dRYI"></path><path d="M352.38 296.88C346.31 307.99 342.94 314.17 342.26 315.4C330.74 318.46 311.4 319.54 291.96 312.93C291.33 311.74 288.15 305.77 282.44 295.02C284.72 294.38 296.13 291.19 316.67 285.45C338.1 292.31 350 296.12 352.38 296.88Z" id="a5WA0x9acu"></path><path d="M352.38 296.88C346.31 307.99 342.94 314.17 342.26 315.4C330.74 318.46 311.4 319.54 291.96 312.93C291.33 311.74 288.15 305.77 282.44 295.02C284.72 294.38 296.13 291.19 316.67 285.45C338.1 292.31 350 296.12 352.38 296.88Z" id="b2iDfcg6X"></path><path d="M396.73 273.72C407.28 257.08 411.33 229.33 407.48 210.76C407.24 210.45 405.3 207.95 405.06 207.64C403.82 209.7 379.83 241.94 382.44 237.59C382.93 237.59 381.55 276.5 381.25 276.5C382.8 276.22 395.18 273.99 396.73 273.72Z" id="b251FqsfLr"></path><path d="M396.73 273.72C407.28 257.08 411.33 229.33 407.48 210.76C407.24 210.45 405.3 207.95 405.06 207.64C403.82 209.7 379.83 241.94 382.44 237.59C382.93 237.59 381.55 276.5 381.25 276.5C382.8 276.22 395.18 273.99 396.73 273.72Z" id="a5iKXMurtw"></path><path d="M343.93 138.65C363.21 142.21 382 158.18 392.86 173.36C392.86 172.54 359.53 159.25 359.53 160.08C357.97 157.94 345.49 140.79 343.93 138.65Z" id="b4E80hJh"></path><path d="M343.93 138.65C363.21 142.21 382 158.18 392.86 173.36C392.86 172.54 359.53 159.25 359.53 160.08C357.97 157.94 345.49 140.79 343.93 138.65Z" id="bPGSgLyTG"></path><path d="M253.73 169.04C262.08 158.48 276.71 144.51 298.05 138.95C294.92 143.05 284 157.41 282.44 159.47C282.44 158.94 253.73 168.76 253.73 169.04Z" id="b1z4wmBT6Q"></path><path d="M253.73 169.04C262.08 158.48 276.71 144.51 298.05 138.95C294.92 143.05 284 157.41 282.44 159.47C282.44 158.94 253.73 168.76 253.73 169.04Z" id="a5BBE362Fg"></path><path d="M281.66 158.41L299.55 185.43" id="b3pT29Bwno"></path><path d="M281.66 158.41L299.55 185.43" id="b254LjRIPM"></path><path d="M360.22 159.64L338.83 186.41" id="hOuYFTA9O"></path><path d="M360.22 159.64L338.83 186.41" id="i1pXg5idxw"></path><path d="M349.93 224.42L382.44 237.9" id="ciRAg7dPI"></path><path d="M349.93 224.42L382.44 237.9" id="c3ys56uNgn"></path><path d="M317.81 248.02L316.96 285.14" id="f1lyYaucLt"></path><path d="M317.81 248.02L316.96 285.14" id="bGhXcsDL"></path><path d="M286.57 223.46L254.49 233.88" id="ap6A07asN"></path><path d="M286.57 223.46L254.49 233.88" id="b2Fg9MffLx"></path><path d="M255.16 269.35C253.61 271.31 282.05 296.26 284.68 295.19" id="fbTS1olkN"></path><path d="M255.16 269.35C253.61 271.31 282.05 296.26 284.68 295.19" id="b1Y3kajGeM"></path><path d="M352.38 296.88L382.06 275.71" id="b1pCD7wZT0"></path><path d="M352.38 296.88L382.06 275.71" id="d2JlveVfgh"></path><path d="M231.8 221.06C231.8 170.87 271.67 130.18 320.84 130.18C370.02 130.18 409.88 170.87 409.88 221.06C409.88 271.25 370.02 311.94 320.84 311.94C271.67 311.94 231.8 271.25 231.8 221.06Z" id="f1elLPOhLE"></path><path d="M231.8 221.06C231.8 170.87 271.67 130.18 320.84 130.18C370.02 130.18 409.88 170.87 409.88 221.06C409.88 271.25 370.02 311.94 320.84 311.94C271.67 311.94 231.8 271.25 231.8 221.06Z" id="d48Fw5h1Y8"></path><path d="M405.06 207.95L395.54 177.68" id="f4L2AG1Eh"></path><path d="M405.06 207.95L395.54 177.68" id="a5jgRfbl2"></path><path d="M227.6 221.06C227.6 167.71 269.93 124.45 322.14 124.45C374.35 124.45 416.68 167.71 416.68 221.06C416.68 274.41 374.35 317.67 322.14 317.67C269.93 317.67 227.6 274.41 227.6 221.06Z" id="c3P6loCyww"></path><linearGradient id="gradienth16ZWu0BBV" gradientUnits="userSpaceOnUse" x1="325.13" y1="170.46" x2="357.64" y2="343.48"><stop style="stop-color: #ab2121;stop-opacity: 0" offset="0%"></stop><stop style="stop-color: #2b0707;stop-opacity: 1" offset="100%"></stop></linearGradient><path d="M227.6 221.06C227.6 167.71 269.93 124.45 322.14 124.45C374.35 124.45 416.68 167.71 416.68 221.06C416.68 274.41 374.35 317.67 322.14 317.67C269.93 317.67 227.6 274.41 227.6 221.06Z" id="auYYTMxAD"></path><path d="M509.02 398.04L202.67 187.84L136.15 398.04L509.02 398.04Z" id="aGWje3Oh2"></path><linearGradient id="gradienta6YHVAx1K" gradientUnits="userSpaceOnUse" x1="263.28" y1="177.91" x2="263.28" y2="398.04"><stop style="stop-color: #de2d1d;stop-opacity: 1" offset="0%"></stop><stop style="stop-color: #841b11;stop-opacity: 1" offset="100%"></stop></linearGradient><path d="M509.02 398.04L202.67 187.84L136.15 398.04L509.02 398.04Z" id="a1bS0DMzHh"></path><path d="M137.76 398.28L434.76 188.08L510.62 398.28L137.76 398.28Z" id="btuuynNON"></path><linearGradient id="gradientc1kguYlbJs" gradientUnits="userSpaceOnUse" x1="335.77" y1="323.25" x2="327.09" y2="565.71"><stop style="stop-color: #dc4b3e;stop-opacity: 1" offset="0%"></stop><stop style="stop-color: #98261c;stop-opacity: 1" offset="100%"></stop></linearGradient><path d="M137.76 396.28L434.76 186.08L510.62 396.28L137.76 396.28Z" id="a12NCj0aJ"></path><path d="M510.27 397.59L434.86 187.99L321.08 268.8L510.27 397.59Z" id="e4d0CEtBxQ"></path><linearGradient id="gradientb3TlRcQye" gradientUnits="userSpaceOnUse" x1="423.34" y1="386.9" x2="423" y2="213.84"><stop style="stop-color: #de2d1d;stop-opacity: 1" offset="0%"></stop><stop style="stop-color: #841b11;stop-opacity: 1" offset="100%"></stop></linearGradient><path d="M510.27 397.59L434.86 187.99L321.08 268.8L510.27 397.59Z" id="c1RHRhzdou"></path></defs><g><g><g><use xlink:href="#b1hL5i8mVu" opacity="1" fill="#e2ba40" fill-opacity="1"></use><g><use xlink:href="#b1hL5i8mVu" opacity="1" fill-opacity="0" stroke="#000000" stroke-width="1" stroke-opacity="0"></use></g></g><g><use xlink:href="#b3C2YXZtb" opacity="1" fill="#000000" fill-opacity="0"></use><g><use xlink:href="#b3C2YXZtb" opacity="1" fill-opacity="0" stroke="#000000" stroke-width="1" stroke-opacity="0"></use></g></g><g><use xlink:href="#aWaIatfA9" opacity="1" fill="#e2b940" fill-opacity="1"></use><g><use xlink:href="#aWaIatfA9" opacity="1" fill-opacity="0" stroke="#000000" stroke-width="1" stroke-opacity="0"></use></g></g><g><use xlink:href="#b2X6LVjCqp" opacity="1" fill="#000000" fill-opacity="0"></use><g><use xlink:href="#b2X6LVjCqp" opacity="1" fill-opacity="0" stroke="#ce451b" stroke-width="2" stroke-opacity="0"></use></g></g><g><use xlink:href="#a2PEvPmgHM" opacity="1" fill="#000000" fill-opacity="1"></use><g><use xlink:href="#a2PEvPmgHM" opacity="1" fill-opacity="0" stroke="#000000" stroke-width="1" stroke-opacity="0"></use></g></g><g><use xlink:href="#bDG93EBJ" opacity="1" fill="#000000" fill-opacity="0"></use><g><use xlink:href="#bDG93EBJ" opacity="1" fill-opacity="0" stroke="#000000" stroke-width="1" stroke-opacity="1"></use></g></g><g><use xlink:href="#i14TRjrWs" opacity="1" fill="#000000" fill-opacity="1"></use><g><use xlink:href="#i14TRjrWs" opacity="1" fill-opacity="0" stroke="#000000" stroke-width="1" stroke-opacity="0"></use></g></g><g><use xlink:href="#a2RwY7dRYI" opacity="1" fill="#000000" fill-opacity="0"></use><g><use xlink:href="#a2RwY7dRYI" opacity="1" fill-opacity="0" stroke="#000000" stroke-width="1" stroke-opacity="1"></use></g></g><g><use xlink:href="#a5WA0x9acu" opacity="1" fill="#000000" fill-opacity="1"></use><g><use xlink:href="#a5WA0x9acu" opacity="1" fill-opacity="0" stroke="#000000" stroke-width="1" stroke-opacity="0"></use></g></g><g><use xlink:href="#b2iDfcg6X" opacity="1" fill="#000000" fill-opacity="0"></use><g><use xlink:href="#b2iDfcg6X" opacity="1" fill-opacity="0" stroke="#000000" stroke-width="1" stroke-opacity="1"></use></g></g><g><use xlink:href="#b251FqsfLr" opacity="1" fill="#000000" fill-opacity="1"></use><g><use xlink:href="#b251FqsfLr" opacity="1" fill-opacity="0" stroke="#000000" stroke-width="1" stroke-opacity="0"></use></g></g><g><use xlink:href="#a5iKXMurtw" opacity="1" fill="#000000" fill-opacity="0"></use><g><use xlink:href="#a5iKXMurtw" opacity="1" fill-opacity="0" stroke="#000000" stroke-width="1" stroke-opacity="1"></use></g></g><g><use xlink:href="#b4E80hJh" opacity="1" fill="#000000" fill-opacity="1"></use><g><use xlink:href="#b4E80hJh" opacity="1" fill-opacity="0" stroke="#000000" stroke-width="1" stroke-opacity="0"></use></g></g><g><use xlink:href="#bPGSgLyTG" opacity="1" fill="#000000" fill-opacity="0"></use><g><use xlink:href="#bPGSgLyTG" opacity="1" fill-opacity="0" stroke="#000000" stroke-width="1" stroke-opacity="1"></use></g></g><g><use xlink:href="#b1z4wmBT6Q" opacity="1" fill="#000000" fill-opacity="1"></use><g><use xlink:href="#b1z4wmBT6Q" opacity="1" fill-opacity="0" stroke="#000000" stroke-width="1" stroke-opacity="0"></use></g></g><g><use xlink:href="#a5BBE362Fg" opacity="1" fill="#000000" fill-opacity="0"></use><g><use xlink:href="#a5BBE362Fg" opacity="1" fill-opacity="0" stroke="#000000" stroke-width="1" stroke-opacity="1"></use></g></g><g><use xlink:href="#b3pT29Bwno" opacity="1" fill="#bada55" fill-opacity="1"></use><g><use xlink:href="#b3pT29Bwno" opacity="1" fill-opacity="0" stroke="#000000" stroke-width="1" stroke-opacity="0"></use></g></g><g><use xlink:href="#b254LjRIPM" opacity="1" fill="#000000" fill-opacity="0"></use><g><use xlink:href="#b254LjRIPM" opacity="1" fill-opacity="0" stroke="#000000" stroke-width="1" stroke-opacity="1"></use></g></g><g><use xlink:href="#hOuYFTA9O" opacity="1" fill="#000000" fill-opacity="0"></use><g><use xlink:href="#hOuYFTA9O" opacity="1" fill-opacity="0" stroke="#000000" stroke-width="1" stroke-opacity="0"></use></g></g><g><use xlink:href="#i1pXg5idxw" opacity="1" fill="#000000" fill-opacity="0"></use><g><use xlink:href="#i1pXg5idxw" opacity="1" fill-opacity="0" stroke="#000000" stroke-width="1" stroke-opacity="1"></use></g></g><g><use xlink:href="#ciRAg7dPI" opacity="1" fill="#ffae00" fill-opacity="1"></use><g><use xlink:href="#ciRAg7dPI" opacity="1" fill-opacity="0" stroke="#000000" stroke-width="1" stroke-opacity="0"></use></g></g><g><use xlink:href="#c3ys56uNgn" opacity="1" fill="#000000" fill-opacity="0"></use><g><use xlink:href="#c3ys56uNgn" opacity="1" fill-opacity="0" stroke="#000000" stroke-width="1" stroke-opacity="1"></use></g></g><g><use xlink:href="#f1lyYaucLt" opacity="1" fill="#000000" fill-opacity="0"></use><g><use xlink:href="#f1lyYaucLt" opacity="1" fill-opacity="0" stroke="#000000" stroke-width="1" stroke-opacity="0"></use></g></g><g><use xlink:href="#bGhXcsDL" opacity="1" fill="#000000" fill-opacity="0"></use><g><use xlink:href="#bGhXcsDL" opacity="1" fill-opacity="0" stroke="#000000" stroke-width="1" stroke-opacity="1"></use></g></g><g><use xlink:href="#ap6A07asN" opacity="1" fill="#000000" fill-opacity="0"></use><g><use xlink:href="#ap6A07asN" opacity="1" fill-opacity="0" stroke="#000000" stroke-width="1" stroke-opacity="0"></use></g></g><g><use xlink:href="#b2Fg9MffLx" opacity="1" fill="#000000" fill-opacity="0"></use><g><use xlink:href="#b2Fg9MffLx" opacity="1" fill-opacity="0" stroke="#000000" stroke-width="1" stroke-opacity="1"></use></g></g><g><use xlink:href="#fbTS1olkN" opacity="1" fill="#000000" fill-opacity="0"></use><g><use xlink:href="#fbTS1olkN" opacity="1" fill-opacity="0" stroke="#000000" stroke-width="1" stroke-opacity="0"></use></g></g><g><use xlink:href="#b1Y3kajGeM" opacity="1" fill="#000000" fill-opacity="0"></use><g><use xlink:href="#b1Y3kajGeM" opacity="1" fill-opacity="0" stroke="#000000" stroke-width="1" stroke-opacity="1"></use></g></g><g><use xlink:href="#b1pCD7wZT0" opacity="1" fill="#000000" fill-opacity="0"></use><g><use xlink:href="#b1pCD7wZT0" opacity="1" fill-opacity="0" stroke="#000000" stroke-width="1" stroke-opacity="0"></use></g></g><g><use xlink:href="#d2JlveVfgh" opacity="1" fill="#000000" fill-opacity="0"></use><g><use xlink:href="#d2JlveVfgh" opacity="1" fill-opacity="0" stroke="#000000" stroke-width="1" stroke-opacity="1"></use></g></g><g><use xlink:href="#f1elLPOhLE" opacity="1" fill="#bfb839" fill-opacity="0"></use><g><use xlink:href="#f1elLPOhLE" opacity="1" fill-opacity="0" stroke="#000000" stroke-width="1" stroke-opacity="0"></use></g></g><g><use xlink:href="#d48Fw5h1Y8" opacity="1" fill="#000000" fill-opacity="0"></use><g><use xlink:href="#d48Fw5h1Y8" opacity="1" fill-opacity="0" stroke="#e2b940" stroke-width="8" stroke-opacity="1"></use></g></g><g><use xlink:href="#f4L2AG1Eh" opacity="1" fill="#000000" fill-opacity="0"></use><g><use xlink:href="#f4L2AG1Eh" opacity="1" fill-opacity="0" stroke="#000000" stroke-width="1" stroke-opacity="0"></use></g></g><g><use xlink:href="#a5jgRfbl2" opacity="1" fill="#000000" fill-opacity="0"></use><g><use xlink:href="#a5jgRfbl2" opacity="1" fill-opacity="0" stroke="#000000" stroke-width="1" stroke-opacity="1"></use></g></g><g><use xlink:href="#c3P6loCyww" opacity="1" fill="url(#gradienth16ZWu0BBV)"></use><g><use xlink:href="#c3P6loCyww" opacity="1" fill-opacity="0" stroke="#000000" stroke-width="1" stroke-opacity="0"></use></g></g><g><use xlink:href="#auYYTMxAD" opacity="1" fill="#000000" fill-opacity="0"></use><g><use xlink:href="#auYYTMxAD" opacity="1" fill-opacity="0" stroke="#000000" stroke-width="4" stroke-opacity="1"></use></g></g><g><use xlink:href="#aGWje3Oh2" opacity="1" fill="url(#gradienta6YHVAx1K)"></use><g><use xlink:href="#aGWje3Oh2" opacity="1" fill-opacity="0" stroke="#000000" stroke-width="1" stroke-opacity="0"></use></g></g><g><use xlink:href="#a1bS0DMzHh" opacity="1" fill="#000000" fill-opacity="0"></use><g><use xlink:href="#a1bS0DMzHh" opacity="1" fill-opacity="0" stroke="#bada55" stroke-width="1" stroke-opacity="0"></use></g></g><g><use xlink:href="#btuuynNON" opacity="1" fill="url(#gradientc1kguYlbJs)"></use><g><use xlink:href="#btuuynNON" opacity="1" fill-opacity="0" stroke="#000000" stroke-width="1" stroke-opacity="0"></use></g></g><g><use xlink:href="#a12NCj0aJ" opacity="1" fill="#000000" fill-opacity="0"></use><g><use xlink:href="#a12NCj0aJ" opacity="1" fill-opacity="0" stroke="#bada55" stroke-width="1" stroke-opacity="0"></use></g></g><g><use xlink:href="#e4d0CEtBxQ" opacity="1" fill="url(#gradientb3TlRcQye)"></use><g><use xlink:href="#e4d0CEtBxQ" opacity="1" fill-opacity="0" stroke="#000000" stroke-width="1" stroke-opacity="0"></use></g></g><g><use xlink:href="#c1RHRhzdou" opacity="1" fill="#000000" fill-opacity="0"></use><g><use xlink:href="#c1RHRhzdou" opacity="1" fill-opacity="0" stroke="#bada55" stroke-width="1" stroke-opacity="0"></use></g></g></g></g></svg>