<?xml version="1.0" encoding="UTF-8" standalone="no"?>
<!DOCTYPE svg PUBLIC "-//W3C//DTD SVG 1.1//EN" "http://www.w3.org/Graphics/SVG/1.1/DTD/svg11.dtd">
<svg version="1.1" xmlns="http://www.w3.org/2000/svg" xmlns:xlink="http://www.w3.org/1999/xlink" preserveAspectRatio="xMidYMid meet" viewBox="0 0 600 500" width="600" height="500"><defs><path d="M302.49 127.41C353.98 127.41 395.72 168.19 395.72 218.5C395.72 268.81 353.98 309.59 302.49 309.59C251.01 309.59 209.27 268.81 209.27 218.5C209.27 168.19 251.01 127.41 302.49 127.41Z" id="acyESyLL"></path><path d="M302.49 127.41C353.98 127.41 395.72 168.19 395.72 218.5C395.72 268.81 353.98 309.59 302.49 309.59C251.01 309.59 209.27 268.81 209.27 218.5C209.27 168.19 251.01 127.41 302.49 127.41Z" id="blvOkn1B1"></path><path d="M302.49 127.41C353.98 127.41 395.72 168.19 395.72 218.5C395.72 268.81 353.98 309.59 302.49 309.59C251.01 309.59 209.27 268.81 209.27 218.5C209.27 168.19 251.01 127.41 302.49 127.41Z" id="dgeRz9rTo"></path><path d="M302.49 127.41C353.98 127.41 395.72 168.19 395.72 218.5C395.72 268.81 353.98 309.59 302.49 309.59C251.01 309.59 209.27 268.81 209.27 218.5C209.27 168.19 251.01 127.41 302.49 127.41Z" id="bNOCcmmKo"></path><path d="M322.96 181.86L322.96 138.5L387.96 160.19L452.96 181.87L387.96 203.55L322.96 225.23L322.96 181.86Z" id="a3tR41kmlG"></path><path d="M322.96 181.86L322.96 138.5L387.96 160.19L452.96 181.87L387.96 203.55L322.96 225.23L322.96 181.86Z" id="b13A6rf6gI"></path><path d="M307.05 181.97L271.02 161.16L321.54 115.27L372.05 69.39L357.57 136.08L343.08 202.77L307.05 181.97Z" id="d15z8NzRDV"></path><path d="M307.05 181.97L271.02 161.16L321.54 115.27L372.05 69.39L357.57 136.08L343.08 202.77L307.05 181.97Z" id="d1pY7VaiXg"></path><path d="M290.88 184.71L256.45 204.59L241.17 138.36L225.89 72.13L275.6 118.48L325.31 164.84L290.88 184.71Z" id="a3pt2hqvXH"></path><path d="M290.88 184.71L256.45 204.59L241.17 138.36L225.89 72.13L275.6 118.48L325.31 164.84L290.88 184.71Z" id="coqyYdyFk"></path><path d="M286.04 184.69L265.23 220.72L219.34 170.21L173.45 119.69L240.15 134.17L306.84 148.66L286.04 184.69Z" id="b7R1PrzHa1"></path><path d="M286.04 184.69L265.23 220.72L219.34 170.21L173.45 119.69L240.15 134.17L306.84 148.66L286.04 184.69Z" id="c46KRRr22c"></path><path d="M298.4 179.47L257.67 179.47L278.03 114.47L298.4 49.47L318.76 114.47L339.12 179.47L298.4 179.47Z" id="c2JuzVkYVl"></path><path d="M298.4 179.47L257.67 179.47L278.03 114.47L298.4 49.47L318.76 114.47L339.12 179.47L298.4 179.47Z" id="gWiVg3y1K"></path><path d="M313.39 182.37L291.71 144.82L358.84 131.1L425.97 117.38L380.52 168.65L335.07 219.93L313.39 182.37Z" id="dSy615iXL"></path><path d="M313.39 182.37L291.71 144.82L358.84 131.1L425.97 117.38L380.52 168.65L335.07 219.93L313.39 182.37Z" id="b1ui40ZIAf"></path><path d="M298.38 240.12L264.57 215.41L278.79 176.81L321.14 177.43L333.14 216.65L298.38 240.12Z" id="a1uuffZiCN"></path><path d="M298.38 240.12L264.57 215.41L278.79 176.81L321.14 177.43L333.14 216.65L298.38 240.12Z" id="d3wu0MwWhq"></path><path d="M298.38 240.12L264.57 215.41L278.79 176.81L321.14 177.43L333.14 216.65L298.38 240.12Z" id="c19isy4rAT"></path><path d="M298.38 240.12L264.57 215.41L278.79 176.81L321.14 177.43L333.14 216.65L298.38 240.12Z" id="b1qvEsy4sk"></path><path d="M219.07 259.57C213.61 251.31 203.49 219.1 212.43 195.34C212.04 196.1 231.57 226.49 232.02 225.6C231.07 226.07 231.35 263.5 232.07 263.15C230.77 262.79 220.37 259.93 219.07 259.57Z" id="f4wqXzYgY"></path><path d="M219.07 259.57C213.61 251.31 203.49 219.1 212.43 195.34C212.04 196.1 231.57 226.49 232.02 225.6C231.07 226.07 231.35 263.5 232.07 263.15C230.77 262.79 220.37 259.93 219.07 259.57Z" id="b88PjjqjPi"></path><path d="M219.07 259.57C213.61 251.31 203.49 219.1 212.43 195.34C212.04 196.1 231.57 226.49 232.02 225.6C231.07 226.07 231.35 263.5 232.07 263.15C230.77 262.79 220.37 259.93 219.07 259.57Z" id="d2SM5ZG5ib"></path><path d="M219.07 259.57C213.61 251.31 203.49 219.1 212.43 195.34C212.04 196.1 231.57 226.49 232.02 225.6C231.07 226.07 231.35 263.5 232.07 263.15C230.77 262.79 220.37 259.93 219.07 259.57Z" id="f1ImdtLGbe"></path><path d="M324.3 307.12C312.06 310.18 291.53 311.26 270.89 304.65C270.22 303.46 266.85 297.49 260.78 286.74C263.2 286.1 275.32 282.91 297.12 277.17C319.87 284.03 332.51 287.84 335.04 288.6C328.6 299.71 325.02 305.89 324.3 307.12Z" id="a1o2y70evu"></path><path d="M324.3 307.12C312.06 310.18 291.53 311.26 270.89 304.65C270.22 303.46 266.85 297.49 260.78 286.74C263.2 286.1 275.32 282.91 297.12 277.17C319.87 284.03 332.51 287.84 335.04 288.6C328.6 299.71 325.02 305.89 324.3 307.12Z" id="kwypeZzX8"></path><path d="M324.3 307.12C312.06 310.18 291.53 311.26 270.89 304.65C270.22 303.46 266.85 297.49 260.78 286.74C263.2 286.1 275.32 282.91 297.12 277.17C319.87 284.03 332.51 287.84 335.04 288.6C328.6 299.71 325.02 305.89 324.3 307.12Z" id="b3usKCIERN"></path><path d="M324.3 307.12C312.06 310.18 291.53 311.26 270.89 304.65C270.22 303.46 266.85 297.49 260.78 286.74C263.2 286.1 275.32 282.91 297.12 277.17C319.87 284.03 332.51 287.84 335.04 288.6C328.6 299.71 325.02 305.89 324.3 307.12Z" id="e8jaIHtGtN"></path><path d="M393.54 202.48C393.28 202.17 391.23 199.67 390.98 199.36C389.66 201.42 364.18 233.66 366.96 229.31C367.47 229.31 366.01 268.22 365.7 268.22C367.34 267.94 380.48 265.71 382.13 265.44C393.32 248.8 397.63 221.05 393.54 202.48Z" id="a4MOQTf3rB"></path><path d="M393.54 202.48C393.28 202.17 391.23 199.67 390.98 199.36C389.66 201.42 364.18 233.66 366.96 229.31C367.47 229.31 366.01 268.22 365.7 268.22C367.34 267.94 380.48 265.71 382.13 265.44C393.32 248.8 397.63 221.05 393.54 202.48Z" id="b1V2haAdqO"></path><path d="M393.54 202.48C393.28 202.17 391.23 199.67 390.98 199.36C389.66 201.42 364.18 233.66 366.96 229.31C367.47 229.31 366.01 268.22 365.7 268.22C367.34 267.94 380.48 265.71 382.13 265.44C393.32 248.8 397.63 221.05 393.54 202.48Z" id="l1lB5WzkdZ"></path><path d="M393.54 202.48C393.28 202.17 391.23 199.67 390.98 199.36C389.66 201.42 364.18 233.66 366.96 229.31C367.47 229.31 366.01 268.22 365.7 268.22C367.34 267.94 380.48 265.71 382.13 265.44C393.32 248.8 397.63 221.05 393.54 202.48Z" id="a1igaHdFfA"></path><path d="M378.02 165.08C378.02 164.26 342.63 150.97 342.63 151.8C340.97 149.66 327.72 132.51 326.07 130.37C346.54 133.93 366.49 149.9 378.02 165.08Z" id="a2RdVDAsy"></path><path d="M378.02 165.08C378.02 164.26 342.63 150.97 342.63 151.8C340.97 149.66 327.72 132.51 326.07 130.37C346.54 133.93 366.49 149.9 378.02 165.08Z" id="aayaiS4pA"></path><path d="M378.02 165.08C378.02 164.26 342.63 150.97 342.63 151.8C340.97 149.66 327.72 132.51 326.07 130.37C346.54 133.93 366.49 149.9 378.02 165.08Z" id="aaG7jFzZ4"></path><path d="M378.02 165.08C378.02 164.26 342.63 150.97 342.63 151.8C340.97 149.66 327.72 132.51 326.07 130.37C346.54 133.93 366.49 149.9 378.02 165.08Z" id="k3xW2oR5HX"></path><path d="M277.35 130.67C274.04 134.77 262.44 149.13 260.78 151.19C260.78 150.66 230.31 160.48 230.31 160.76C239.17 150.2 254.7 136.23 277.35 130.67Z" id="gj4fXl47A"></path><path d="M277.35 130.67C274.04 134.77 262.44 149.13 260.78 151.19C260.78 150.66 230.31 160.48 230.31 160.76C239.17 150.2 254.7 136.23 277.35 130.67Z" id="bvUrmhtOt"></path><path d="M276.86 192.22L271.4 233.47L209.69 204.33L147.98 175.18L215.15 163.07L282.32 150.98L276.86 192.22Z" id="baTUEvOai"></path><path d="M276.86 192.22L271.4 233.47L209.69 204.33L147.98 175.18L215.15 163.07L282.32 150.98L276.86 192.22Z" id="c3UdOfQOhn"></path><path d="M277.35 130.67C274.04 134.77 262.44 149.13 260.78 151.19C260.78 150.66 230.31 160.48 230.31 160.76C239.17 150.2 254.7 136.23 277.35 130.67Z" id="fVCpv8Vxs"></path><path d="M277.35 130.67C274.04 134.77 262.44 149.13 260.78 151.19C260.78 150.66 230.31 160.48 230.31 160.76C239.17 150.2 254.7 136.23 277.35 130.67Z" id="g9zgmwXijS"></path><path d="M259.96 150.13L278.95 177.15" id="a1Rqwj8EVS"></path><path d="M259.96 150.13L278.95 177.15" id="adyD0s7LQ"></path><path d="M259.96 150.13L278.95 177.15" id="c298e1XoY4"></path><path d="M259.96 150.13L278.95 177.15" id="c60X9O8t"></path><path d="M343.37 151.36L320.65 178.13" id="e1WfvCq7J"></path><path d="M343.37 151.36L320.65 178.13" id="a1fVNIvsok"></path><path d="M343.37 151.36L320.65 178.13" id="a6KNorQYoY"></path><path d="M343.37 151.36L320.65 178.13" id="asJNFraXo"></path><path d="M332.44 216.14L366.96 229.62" id="bhk0Ewy1u"></path><path d="M332.44 216.14L366.96 229.62" id="dEbRzeh5s"></path><path d="M332.44 216.14L366.96 229.62" id="c4aRmwnq3C"></path><path d="M332.44 216.14L366.96 229.62" id="c1TPlIbE9"></path><path d="M298.34 239.74L297.44 276.86" id="aEiDvlYn"></path><path d="M298.34 239.74L297.44 276.86" id="a5zPPgGKA"></path><path d="M298.34 239.74L297.44 276.86" id="a2sL9nnv90"></path><path d="M298.34 239.74L297.44 276.86" id="d1W0ujaU7U"></path><path d="M265.16 215.18L231.11 225.6" id="chvRfNzhm"></path><path d="M265.16 215.18L231.11 225.6" id="b2sJbnS62Q"></path><path d="M265.16 215.18L231.11 225.6" id="a4PQIS6yYv"></path><path d="M265.16 215.18L231.11 225.6" id="b1XYaWcDhy"></path><path d="M231.82 261.07C230.18 263.03 260.37 287.98 263.16 286.91" id="bglZMmDl9"></path><path d="M231.82 261.07C230.18 263.03 260.37 287.98 263.16 286.91" id="cbAZLd96"></path><path d="M231.82 261.07C230.18 263.03 260.37 287.98 263.16 286.91" id="b3NgG72kf"></path><path d="M231.82 261.07C230.18 263.03 260.37 287.98 263.16 286.91" id="d7hrL2Tmj"></path><path d="M335.04 288.6L366.55 267.43" id="f5uDXcFDA"></path><path d="M335.04 288.6L366.55 267.43" id="d1WleQEx31"></path><path d="M335.04 288.6L366.55 267.43" id="bGaLkzQyf"></path><path d="M335.04 288.6L366.55 267.43" id="aJYQ3t4yZ"></path><path d="M301.56 121.9C353.77 121.9 396.09 162.59 396.09 212.78C396.09 262.97 353.77 303.66 301.56 303.66C249.35 303.66 207.02 262.97 207.02 212.78C207.02 162.59 249.35 121.9 301.56 121.9Z" id="emUUe1tpx"></path><path d="M301.56 121.9C353.77 121.9 396.09 162.59 396.09 212.78C396.09 262.97 353.77 303.66 301.56 303.66C249.35 303.66 207.02 262.97 207.02 212.78C207.02 162.59 249.35 121.9 301.56 121.9Z" id="bimxxm448"></path><path d="M301.56 121.9C353.77 121.9 396.09 162.59 396.09 212.78C396.09 262.97 353.77 303.66 301.56 303.66C249.35 303.66 207.02 262.97 207.02 212.78C207.02 162.59 249.35 121.9 301.56 121.9Z" id="d2pMyOsf6"></path><path d="M301.56 121.9C353.77 121.9 396.09 162.59 396.09 212.78C396.09 262.97 353.77 303.66 301.56 303.66C249.35 303.66 207.02 262.97 207.02 212.78C207.02 162.59 249.35 121.9 301.56 121.9Z" id="c1wqMfjyfj"></path><path d="M390.98 199.67L380.87 169.4" id="j1Zkj6CHI5"></path><path d="M390.98 199.67L380.87 169.4" id="c2jyZZIkib"></path><path d="M390.98 199.67L380.87 169.4" id="b2PYE9KTtI"></path><path d="M390.98 199.67L380.87 169.4" id="dqrYf7uXl"></path><path d="M302.74 117.61C358.17 117.61 403.11 160.86 403.11 214.22C403.11 267.57 358.17 310.83 302.74 310.83C247.3 310.83 202.36 267.57 202.36 214.22C202.36 160.86 247.3 117.61 302.74 117.61Z" id="e2rbc1I8Sm"></path><linearGradient id="gradientc5ILIaW4Hy" gradientUnits="userSpaceOnUse" x1="305.9" y1="163.62" x2="340.43" y2="336.64"><stop style="stop-color: #ab2121;stop-opacity: 0" offset="0%"></stop><stop style="stop-color: #2b0707;stop-opacity: 1" offset="100%"></stop></linearGradient><path d="M302.74 117.61C358.17 117.61 403.11 160.86 403.11 214.22C403.11 267.57 358.17 310.83 302.74 310.83C247.3 310.83 202.36 267.57 202.36 214.22C202.36 160.86 247.3 117.61 302.74 117.61Z" id="c19DLx2eYL"></path><path d="M304.65 117.61C360.08 117.61 405.02 160.86 405.02 214.22C405.02 267.57 360.08 310.83 304.65 310.83C249.21 310.83 204.27 267.57 204.27 214.22C204.27 160.86 249.21 117.61 304.65 117.61Z" id="a5D8ndkto"></path><path d="M304.65 117.61C360.08 117.61 405.02 160.86 405.02 214.22C405.02 267.57 360.08 310.83 304.65 310.83C249.21 310.83 204.27 267.57 204.27 214.22C204.27 160.86 249.21 117.61 304.65 117.61Z" id="b1yPrXY6NE"></path><path d="M176.09 179.56L105.47 389.76L501.35 389.76L176.09 179.56Z" id="bdYB2wy80"></path><linearGradient id="gradientc5jmwrUQ8" gradientUnits="userSpaceOnUse" x1="240.44" y1="169.63" x2="240.44" y2="389.76"><stop style="stop-color: #de2d1d;stop-opacity: 1" offset="0%"></stop><stop style="stop-color: #841b11;stop-opacity: 1" offset="100%"></stop></linearGradient><path d="M176.09 179.56L105.47 389.76L501.35 389.76L176.09 179.56Z" id="a1P3Rzsm7R"></path><path d="M176.09 179.56L105.47 389.76L501.35 389.76L176.09 179.56Z" id="bKQO5gpv"></path><path d="M176.09 179.56L105.47 389.76L501.35 389.76L176.09 179.56Z" id="b1nWYzElPQ"></path><path d="M422.5 179.8L503.05 390L107.17 390L422.5 179.8Z" id="aoWraFuyE"></path><linearGradient id="gradientepaZh4fwA" gradientUnits="userSpaceOnUse" x1="317.4" y1="314.97" x2="308.19" y2="557.43"><stop style="stop-color: #dc4b3e;stop-opacity: 1" offset="0%"></stop><stop style="stop-color: #98261c;stop-opacity: 1" offset="100%"></stop></linearGradient><path d="M422.5 179.8L503.05 390L107.17 390L422.5 179.8Z" id="cskww2V6a"></path><path d="M422.5 179.8L503.05 390L107.17 390L422.5 179.8Z" id="e22d0hbJHa"></path><path d="M422.5 179.8L503.05 390L107.17 390L422.5 179.8Z" id="b2YvCm7NXV"></path><path d="M422.61 179.71L301.81 260.52L502.68 389.31L422.61 179.71Z" id="bn0PHGE05"></path><linearGradient id="gradiente1wLU7hxGo" gradientUnits="userSpaceOnUse" x1="410.38" y1="378.62" x2="410.02" y2="205.56"><stop style="stop-color: #de2d1d;stop-opacity: 1" offset="0%"></stop><stop style="stop-color: #841b11;stop-opacity: 1" offset="100%"></stop></linearGradient><path d="M422.61 179.71L301.81 260.52L502.68 389.31L422.61 179.71Z" id="a3vcLwk7Ol"></path><path d="M422.61 179.71L301.81 260.52L502.68 389.31L422.61 179.71Z" id="c6dQLDTg0s"></path><path d="M422.61 179.71L301.81 260.52L502.68 389.31L422.61 179.71Z" id="b5ayezof1o"></path></defs><g><g><g><use xlink:href="#acyESyLL" opacity="1" fill="#e2b940" fill-opacity="1"></use><g><use xlink:href="#acyESyLL" opacity="1" fill-opacity="0" stroke="#000000" stroke-width="1" stroke-opacity="0"></use></g></g><g><use xlink:href="#blvOkn1B1" opacity="1" fill="#000000" fill-opacity="0"></use><g><use xlink:href="#blvOkn1B1" opacity="1" fill-opacity="0" stroke="#000000" stroke-width="1" stroke-opacity="0"></use></g></g><g><use xlink:href="#dgeRz9rTo" opacity="1" fill="#000000" fill-opacity="0"></use><g><use xlink:href="#dgeRz9rTo" opacity="1" fill-opacity="0" stroke="#000000" stroke-width="1" stroke-opacity="0"></use></g></g><g><use xlink:href="#bNOCcmmKo" opacity="1" fill="#000000" fill-opacity="0"></use><g><use xlink:href="#bNOCcmmKo" opacity="1" fill-opacity="0" stroke="#ce451b" stroke-width="2" stroke-opacity="0"></use></g></g><g><use xlink:href="#a3tR41kmlG" opacity="1" fill="#e2ba40" fill-opacity="1"></use><g><use xlink:href="#a3tR41kmlG" opacity="1" fill-opacity="0" stroke="#000000" stroke-width="1" stroke-opacity="0"></use></g></g><g><use xlink:href="#b13A6rf6gI" opacity="1" fill="#000000" fill-opacity="0"></use><g><use xlink:href="#b13A6rf6gI" opacity="1" fill-opacity="0" stroke="#000000" stroke-width="1" stroke-opacity="0"></use></g></g><g><use xlink:href="#d15z8NzRDV" opacity="1" fill="#e2ba40" fill-opacity="1"></use><g><use xlink:href="#d15z8NzRDV" opacity="1" fill-opacity="0" stroke="#000000" stroke-width="1" stroke-opacity="0"></use></g></g><g><use xlink:href="#d1pY7VaiXg" opacity="1" fill="#000000" fill-opacity="0"></use><g><use xlink:href="#d1pY7VaiXg" opacity="1" fill-opacity="0" stroke="#000000" stroke-width="1" stroke-opacity="0"></use></g></g><g><use xlink:href="#a3pt2hqvXH" opacity="1" fill="#e2ba40" fill-opacity="1"></use><g><use xlink:href="#a3pt2hqvXH" opacity="1" fill-opacity="0" stroke="#000000" stroke-width="1" stroke-opacity="0"></use></g></g><g><use xlink:href="#coqyYdyFk" opacity="1" fill="#000000" fill-opacity="0"></use><g><use xlink:href="#coqyYdyFk" opacity="1" fill-opacity="0" stroke="#000000" stroke-width="1" stroke-opacity="0"></use></g></g><g><use xlink:href="#b7R1PrzHa1" opacity="1" fill="#e2ba40" fill-opacity="1"></use><g><use xlink:href="#b7R1PrzHa1" opacity="1" fill-opacity="0" stroke="#000000" stroke-width="1" stroke-opacity="0"></use></g></g><g><use xlink:href="#c46KRRr22c" opacity="1" fill="#000000" fill-opacity="0"></use><g><use xlink:href="#c46KRRr22c" opacity="1" fill-opacity="0" stroke="#000000" stroke-width="1" stroke-opacity="0"></use></g></g><g><use xlink:href="#c2JuzVkYVl" opacity="1" fill="#e2ba40" fill-opacity="1"></use><g><use xlink:href="#c2JuzVkYVl" opacity="1" fill-opacity="0" stroke="#000000" stroke-width="1" stroke-opacity="0"></use></g></g><g><use xlink:href="#gWiVg3y1K" opacity="1" fill="#000000" fill-opacity="0"></use><g><use xlink:href="#gWiVg3y1K" opacity="1" fill-opacity="0" stroke="#000000" stroke-width="1" stroke-opacity="0"></use></g></g><g><use xlink:href="#dSy615iXL" opacity="1" fill="#e2ba40" fill-opacity="1"></use><g><use xlink:href="#dSy615iXL" opacity="1" fill-opacity="0" stroke="#000000" stroke-width="1" stroke-opacity="0"></use></g></g><g><use xlink:href="#b1ui40ZIAf" opacity="1" fill="#000000" fill-opacity="0"></use><g><use xlink:href="#b1ui40ZIAf" opacity="1" fill-opacity="0" stroke="#000000" stroke-width="1" stroke-opacity="0"></use></g></g><g><use xlink:href="#a1uuffZiCN" opacity="1" fill="#000000" fill-opacity="1"></use><g><use xlink:href="#a1uuffZiCN" opacity="1" fill-opacity="0" stroke="#000000" stroke-width="1" stroke-opacity="0"></use></g></g><g><use xlink:href="#d3wu0MwWhq" opacity="1" fill="#000000" fill-opacity="0"></use><g><use xlink:href="#d3wu0MwWhq" opacity="1" fill-opacity="0" stroke="#000000" stroke-width="1" stroke-opacity="0"></use></g></g><g><use xlink:href="#c19isy4rAT" opacity="1" fill="#000000" fill-opacity="0"></use><g><use xlink:href="#c19isy4rAT" opacity="1" fill-opacity="0" stroke="#000000" stroke-width="1" stroke-opacity="0"></use></g></g><g><use xlink:href="#b1qvEsy4sk" opacity="1" fill="#000000" fill-opacity="0"></use><g><use xlink:href="#b1qvEsy4sk" opacity="1" fill-opacity="0" stroke="#000000" stroke-width="1" stroke-opacity="1"></use></g></g><g><use xlink:href="#f4wqXzYgY" opacity="1" fill="#000000" fill-opacity="1"></use><g><use xlink:href="#f4wqXzYgY" opacity="1" fill-opacity="0" stroke="#000000" stroke-width="1" stroke-opacity="0"></use></g></g><g><use xlink:href="#b88PjjqjPi" opacity="1" fill="#000000" fill-opacity="0"></use><g><use xlink:href="#b88PjjqjPi" opacity="1" fill-opacity="0" stroke="#000000" stroke-width="1" stroke-opacity="0"></use></g></g><g><use xlink:href="#d2SM5ZG5ib" opacity="1" fill="#000000" fill-opacity="0"></use><g><use xlink:href="#d2SM5ZG5ib" opacity="1" fill-opacity="0" stroke="#000000" stroke-width="1" stroke-opacity="0"></use></g></g><g><use xlink:href="#f1ImdtLGbe" opacity="1" fill="#000000" fill-opacity="0"></use><g><use xlink:href="#f1ImdtLGbe" opacity="1" fill-opacity="0" stroke="#000000" stroke-width="1" stroke-opacity="1"></use></g></g><g><use xlink:href="#a1o2y70evu" opacity="1" fill="#000000" fill-opacity="1"></use><g><use xlink:href="#a1o2y70evu" opacity="1" fill-opacity="0" stroke="#000000" stroke-width="1" stroke-opacity="0"></use></g></g><g><use xlink:href="#kwypeZzX8" opacity="1" fill="#000000" fill-opacity="0"></use><g><use xlink:href="#kwypeZzX8" opacity="1" fill-opacity="0" stroke="#000000" stroke-width="1" stroke-opacity="0"></use></g></g><g><use xlink:href="#b3usKCIERN" opacity="1" fill="#000000" fill-opacity="0"></use><g><use xlink:href="#b3usKCIERN" opacity="1" fill-opacity="0" stroke="#000000" stroke-width="1" stroke-opacity="0"></use></g></g><g><use xlink:href="#e8jaIHtGtN" opacity="1" fill="#000000" fill-opacity="0"></use><g><use xlink:href="#e8jaIHtGtN" opacity="1" fill-opacity="0" stroke="#000000" stroke-width="1" stroke-opacity="1"></use></g></g><g><use xlink:href="#a4MOQTf3rB" opacity="1" fill="#000000" fill-opacity="1"></use><g><use xlink:href="#a4MOQTf3rB" opacity="1" fill-opacity="0" stroke="#000000" stroke-width="1" stroke-opacity="0"></use></g></g><g><use xlink:href="#b1V2haAdqO" opacity="1" fill="#000000" fill-opacity="0"></use><g><use xlink:href="#b1V2haAdqO" opacity="1" fill-opacity="0" stroke="#000000" stroke-width="1" stroke-opacity="0"></use></g></g><g><use xlink:href="#l1lB5WzkdZ" opacity="1" fill="#000000" fill-opacity="0"></use><g><use xlink:href="#l1lB5WzkdZ" opacity="1" fill-opacity="0" stroke="#000000" stroke-width="1" stroke-opacity="0"></use></g></g><g><use xlink:href="#a1igaHdFfA" opacity="1" fill="#000000" fill-opacity="0"></use><g><use xlink:href="#a1igaHdFfA" opacity="1" fill-opacity="0" stroke="#000000" stroke-width="1" stroke-opacity="1"></use></g></g><g><use xlink:href="#a2RdVDAsy" opacity="1" fill="#000000" fill-opacity="1"></use><g><use xlink:href="#a2RdVDAsy" opacity="1" fill-opacity="0" stroke="#000000" stroke-width="1" stroke-opacity="0"></use></g></g><g><use xlink:href="#aayaiS4pA" opacity="1" fill="#000000" fill-opacity="0"></use><g><use xlink:href="#aayaiS4pA" opacity="1" fill-opacity="0" stroke="#000000" stroke-width="1" stroke-opacity="0"></use></g></g><g><use xlink:href="#aaG7jFzZ4" opacity="1" fill="#000000" fill-opacity="0"></use><g><use xlink:href="#aaG7jFzZ4" opacity="1" fill-opacity="0" stroke="#000000" stroke-width="1" stroke-opacity="0"></use></g></g><g><use xlink:href="#k3xW2oR5HX" opacity="1" fill="#000000" fill-opacity="0"></use><g><use xlink:href="#k3xW2oR5HX" opacity="1" fill-opacity="0" stroke="#000000" stroke-width="1" stroke-opacity="1"></use></g></g><g><use xlink:href="#gj4fXl47A" opacity="1" fill="#000000" fill-opacity="1"></use><g><use xlink:href="#gj4fXl47A" opacity="1" fill-opacity="0" stroke="#000000" stroke-width="1" stroke-opacity="0"></use></g></g><g><use xlink:href="#bvUrmhtOt" opacity="1" fill="#000000" fill-opacity="0"></use><g><use xlink:href="#bvUrmhtOt" opacity="1" fill-opacity="0" stroke="#000000" stroke-width="1" stroke-opacity="0"></use></g></g><g><use xlink:href="#baTUEvOai" opacity="1" fill="#e2ba40" fill-opacity="1"></use><g><use xlink:href="#baTUEvOai" opacity="1" fill-opacity="0" stroke="#000000" stroke-width="1" stroke-opacity="0"></use></g></g><g><use xlink:href="#c3UdOfQOhn" opacity="1" fill="#000000" fill-opacity="0"></use><g><use xlink:href="#c3UdOfQOhn" opacity="1" fill-opacity="0" stroke="#000000" stroke-width="1" stroke-opacity="0"></use></g></g><g><use xlink:href="#fVCpv8Vxs" opacity="1" fill="#000000" fill-opacity="0"></use><g><use xlink:href="#fVCpv8Vxs" opacity="1" fill-opacity="0" stroke="#000000" stroke-width="1" stroke-opacity="0"></use></g></g><g><use xlink:href="#g9zgmwXijS" opacity="1" fill="#000000" fill-opacity="0"></use><g><use xlink:href="#g9zgmwXijS" opacity="1" fill-opacity="0" stroke="#000000" stroke-width="1" stroke-opacity="1"></use></g></g><g><use xlink:href="#a1Rqwj8EVS" opacity="1" fill="#bada55" fill-opacity="1"></use><g><use xlink:href="#a1Rqwj8EVS" opacity="1" fill-opacity="0" stroke="#000000" stroke-width="1" stroke-opacity="0"></use></g></g><g><use xlink:href="#adyD0s7LQ" opacity="1" fill="#000000" fill-opacity="0"></use><g><use xlink:href="#adyD0s7LQ" opacity="1" fill-opacity="0" stroke="#000000" stroke-width="1" stroke-opacity="0"></use></g></g><g><use xlink:href="#c298e1XoY4" opacity="1" fill="#000000" fill-opacity="0"></use><g><use xlink:href="#c298e1XoY4" opacity="1" fill-opacity="0" stroke="#000000" stroke-width="1" stroke-opacity="0"></use></g></g><g><use xlink:href="#c60X9O8t" opacity="1" fill="#000000" fill-opacity="0"></use><g><use xlink:href="#c60X9O8t" opacity="1" fill-opacity="0" stroke="#000000" stroke-width="1" stroke-opacity="1"></use></g></g><g><use xlink:href="#e1WfvCq7J" opacity="1" fill="#000000" fill-opacity="0"></use><g><use xlink:href="#e1WfvCq7J" opacity="1" fill-opacity="0" stroke="#000000" stroke-width="1" stroke-opacity="0"></use></g></g><g><use xlink:href="#a1fVNIvsok" opacity="1" fill="#000000" fill-opacity="0"></use><g><use xlink:href="#a1fVNIvsok" opacity="1" fill-opacity="0" stroke="#000000" stroke-width="1" stroke-opacity="0"></use></g></g><g><use xlink:href="#a6KNorQYoY" opacity="1" fill="#000000" fill-opacity="0"></use><g><use xlink:href="#a6KNorQYoY" opacity="1" fill-opacity="0" stroke="#000000" stroke-width="1" stroke-opacity="0"></use></g></g><g><use xlink:href="#asJNFraXo" opacity="1" fill="#000000" fill-opacity="0"></use><g><use xlink:href="#asJNFraXo" opacity="1" fill-opacity="0" stroke="#000000" stroke-width="1" stroke-opacity="1"></use></g></g><g><use xlink:href="#bhk0Ewy1u" opacity="1" fill="#ffae00" fill-opacity="1"></use><g><use xlink:href="#bhk0Ewy1u" opacity="1" fill-opacity="0" stroke="#000000" stroke-width="1" stroke-opacity="0"></use></g></g><g><use xlink:href="#dEbRzeh5s" opacity="1" fill="#000000" fill-opacity="0"></use><g><use xlink:href="#dEbRzeh5s" opacity="1" fill-opacity="0" stroke="#000000" stroke-width="1" stroke-opacity="0"></use></g></g><g><use xlink:href="#c4aRmwnq3C" opacity="1" fill="#000000" fill-opacity="0"></use><g><use xlink:href="#c4aRmwnq3C" opacity="1" fill-opacity="0" stroke="#000000" stroke-width="1" stroke-opacity="0"></use></g></g><g><use xlink:href="#c1TPlIbE9" opacity="1" fill="#000000" fill-opacity="0"></use><g><use xlink:href="#c1TPlIbE9" opacity="1" fill-opacity="0" stroke="#000000" stroke-width="1" stroke-opacity="1"></use></g></g><g><use xlink:href="#aEiDvlYn" opacity="1" fill="#000000" fill-opacity="0"></use><g><use xlink:href="#aEiDvlYn" opacity="1" fill-opacity="0" stroke="#000000" stroke-width="1" stroke-opacity="0"></use></g></g><g><use xlink:href="#a5zPPgGKA" opacity="1" fill="#000000" fill-opacity="0"></use><g><use xlink:href="#a5zPPgGKA" opacity="1" fill-opacity="0" stroke="#000000" stroke-width="1" stroke-opacity="0"></use></g></g><g><use xlink:href="#a2sL9nnv90" opacity="1" fill="#000000" fill-opacity="0"></use><g><use xlink:href="#a2sL9nnv90" opacity="1" fill-opacity="0" stroke="#000000" stroke-width="1" stroke-opacity="0"></use></g></g><g><use xlink:href="#d1W0ujaU7U" opacity="1" fill="#000000" fill-opacity="0"></use><g><use xlink:href="#d1W0ujaU7U" opacity="1" fill-opacity="0" stroke="#000000" stroke-width="1" stroke-opacity="1"></use></g></g><g><use xlink:href="#chvRfNzhm" opacity="1" fill="#000000" fill-opacity="0"></use><g><use xlink:href="#chvRfNzhm" opacity="1" fill-opacity="0" stroke="#000000" stroke-width="1" stroke-opacity="0"></use></g></g><g><use xlink:href="#b2sJbnS62Q" opacity="1" fill="#000000" fill-opacity="0"></use><g><use xlink:href="#b2sJbnS62Q" opacity="1" fill-opacity="0" stroke="#000000" stroke-width="1" stroke-opacity="0"></use></g></g><g><use xlink:href="#a4PQIS6yYv" opacity="1" fill="#000000" fill-opacity="0"></use><g><use xlink:href="#a4PQIS6yYv" opacity="1" fill-opacity="0" stroke="#000000" stroke-width="1" stroke-opacity="0"></use></g></g><g><use xlink:href="#b1XYaWcDhy" opacity="1" fill="#000000" fill-opacity="0"></use><g><use xlink:href="#b1XYaWcDhy" opacity="1" fill-opacity="0" stroke="#000000" stroke-width="1" stroke-opacity="1"></use></g></g><g><use xlink:href="#bglZMmDl9" opacity="1" fill="#000000" fill-opacity="0"></use><g><use xlink:href="#bglZMmDl9" opacity="1" fill-opacity="0" stroke="#000000" stroke-width="1" stroke-opacity="0"></use></g></g><g><use xlink:href="#cbAZLd96" opacity="1" fill="#000000" fill-opacity="0"></use><g><use xlink:href="#cbAZLd96" opacity="1" fill-opacity="0" stroke="#000000" stroke-width="1" stroke-opacity="0"></use></g></g><g><use xlink:href="#b3NgG72kf" opacity="1" fill="#000000" fill-opacity="0"></use><g><use xlink:href="#b3NgG72kf" opacity="1" fill-opacity="0" stroke="#000000" stroke-width="1" stroke-opacity="0"></use></g></g><g><use xlink:href="#d7hrL2Tmj" opacity="1" fill="#000000" fill-opacity="0"></use><g><use xlink:href="#d7hrL2Tmj" opacity="1" fill-opacity="0" stroke="#000000" stroke-width="1" stroke-opacity="1"></use></g></g><g><use xlink:href="#f5uDXcFDA" opacity="1" fill="#000000" fill-opacity="0"></use><g><use xlink:href="#f5uDXcFDA" opacity="1" fill-opacity="0" stroke="#000000" stroke-width="1" stroke-opacity="0"></use></g></g><g><use xlink:href="#d1WleQEx31" opacity="1" fill="#000000" fill-opacity="0"></use><g><use xlink:href="#d1WleQEx31" opacity="1" fill-opacity="0" stroke="#000000" stroke-width="1" stroke-opacity="0"></use></g></g><g><use xlink:href="#bGaLkzQyf" opacity="1" fill="#000000" fill-opacity="0"></use><g><use xlink:href="#bGaLkzQyf" opacity="1" fill-opacity="0" stroke="#000000" stroke-width="1" stroke-opacity="0"></use></g></g><g><use xlink:href="#aJYQ3t4yZ" opacity="1" fill="#000000" fill-opacity="0"></use><g><use xlink:href="#aJYQ3t4yZ" opacity="1" fill-opacity="0" stroke="#000000" stroke-width="1" stroke-opacity="1"></use></g></g><g><use xlink:href="#emUUe1tpx" opacity="1" fill="#bfb839" fill-opacity="0"></use><g><use xlink:href="#emUUe1tpx" opacity="1" fill-opacity="0" stroke="#000000" stroke-width="1" stroke-opacity="0"></use></g></g><g><use xlink:href="#bimxxm448" opacity="1" fill="#000000" fill-opacity="0"></use><g><use xlink:href="#bimxxm448" opacity="1" fill-opacity="0" stroke="#000000" stroke-width="1" stroke-opacity="0"></use></g></g><g><use xlink:href="#d2pMyOsf6" opacity="1" fill="#000000" fill-opacity="0"></use><g><use xlink:href="#d2pMyOsf6" opacity="1" fill-opacity="0" stroke="#000000" stroke-width="1" stroke-opacity="0"></use></g></g><g><use xlink:href="#c1wqMfjyfj" opacity="1" fill="#000000" fill-opacity="0"></use><g><use xlink:href="#c1wqMfjyfj" opacity="1" fill-opacity="0" stroke="#e2b940" stroke-width="8" stroke-opacity="1"></use></g></g><g><use xlink:href="#j1Zkj6CHI5" opacity="1" fill="#000000" fill-opacity="0"></use><g><use xlink:href="#j1Zkj6CHI5" opacity="1" fill-opacity="0" stroke="#000000" stroke-width="1" stroke-opacity="0"></use></g></g><g><use xlink:href="#c2jyZZIkib" opacity="1" fill="#000000" fill-opacity="0"></use><g><use xlink:href="#c2jyZZIkib" opacity="1" fill-opacity="0" stroke="#000000" stroke-width="1" stroke-opacity="0"></use></g></g><g><use xlink:href="#b2PYE9KTtI" opacity="1" fill="#000000" fill-opacity="0"></use><g><use xlink:href="#b2PYE9KTtI" opacity="1" fill-opacity="0" stroke="#000000" stroke-width="1" stroke-opacity="0"></use></g></g><g><use xlink:href="#dqrYf7uXl" opacity="1" fill="#000000" fill-opacity="0"></use><g><use xlink:href="#dqrYf7uXl" opacity="1" fill-opacity="0" stroke="#000000" stroke-width="1" stroke-opacity="1"></use></g></g><g><use xlink:href="#e2rbc1I8Sm" opacity="1" fill="url(#gradientc5ILIaW4Hy)"></use><g><use xlink:href="#e2rbc1I8Sm" opacity="1" fill-opacity="0" stroke="#000000" stroke-width="1" stroke-opacity="0"></use></g></g><g><use xlink:href="#c19DLx2eYL" opacity="1" fill="#000000" fill-opacity="0"></use><g><use xlink:href="#c19DLx2eYL" opacity="1" fill-opacity="0" stroke="#000000" stroke-width="1" stroke-opacity="0"></use></g></g><g><use xlink:href="#a5D8ndkto" opacity="1" fill="#000000" fill-opacity="0"></use><g><use xlink:href="#a5D8ndkto" opacity="1" fill-opacity="0" stroke="#000000" stroke-width="1" stroke-opacity="0"></use></g></g><g><use xlink:href="#b1yPrXY6NE" opacity="1" fill="#000000" fill-opacity="0"></use><g><use xlink:href="#b1yPrXY6NE" opacity="1" fill-opacity="0" stroke="#000000" stroke-width="4" stroke-opacity="1"></use></g></g><g><use xlink:href="#bdYB2wy80" opacity="1" fill="url(#gradientc5jmwrUQ8)"></use><g><use xlink:href="#bdYB2wy80" opacity="1" fill-opacity="0" stroke="#000000" stroke-width="1" stroke-opacity="0"></use></g></g><g><use xlink:href="#a1P3Rzsm7R" opacity="1" fill="#000000" fill-opacity="0"></use><g><use xlink:href="#a1P3Rzsm7R" opacity="1" fill-opacity="0" stroke="#000000" stroke-width="1" stroke-opacity="0"></use></g></g><g><use xlink:href="#bKQO5gpv" opacity="1" fill="#000000" fill-opacity="0"></use><g><use xlink:href="#bKQO5gpv" opacity="1" fill-opacity="0" stroke="#000000" stroke-width="1" stroke-opacity="0"></use></g></g><g><use xlink:href="#b1nWYzElPQ" opacity="1" fill="#000000" fill-opacity="0"></use><g><use xlink:href="#b1nWYzElPQ" opacity="1" fill-opacity="0" stroke="#bada55" stroke-width="1" stroke-opacity="0"></use></g></g><g><use xlink:href="#aoWraFuyE" opacity="1" fill="url(#gradientepaZh4fwA)"></use><g><use xlink:href="#aoWraFuyE" opacity="1" fill-opacity="0" stroke="#000000" stroke-width="1" stroke-opacity="0"></use></g></g><g><use xlink:href="#cskww2V6a" opacity="1" fill="#000000" fill-opacity="0"></use><g><use xlink:href="#cskww2V6a" opacity="1" fill-opacity="0" stroke="#000000" stroke-width="1" stroke-opacity="0"></use></g></g><g><use xlink:href="#e22d0hbJHa" opacity="1" fill="#000000" fill-opacity="0"></use><g><use xlink:href="#e22d0hbJHa" opacity="1" fill-opacity="0" stroke="#000000" stroke-width="1" stroke-opacity="0"></use></g></g><g><use xlink:href="#b2YvCm7NXV" opacity="1" fill="#000000" fill-opacity="0"></use><g><use xlink:href="#b2YvCm7NXV" opacity="1" fill-opacity="0" stroke="#bada55" stroke-width="1" stroke-opacity="0"></use></g></g><g><use xlink:href="#bn0PHGE05" opacity="1" fill="url(#gradiente1wLU7hxGo)"></use><g><use xlink:href="#bn0PHGE05" opacity="1" fill-opacity="0" stroke="#000000" stroke-width="1" stroke-opacity="0"></use></g></g><g><use xlink:href="#a3vcLwk7Ol" opacity="1" fill="#000000" fill-opacity="0"></use><g><use xlink:href="#a3vcLwk7Ol" opacity="1" fill-opacity="0" stroke="#000000" stroke-width="1" stroke-opacity="0"></use></g></g><g><use xlink:href="#c6dQLDTg0s" opacity="1" fill="#000000" fill-opacity="0"></use><g><use xlink:href="#c6dQLDTg0s" opacity="1" fill-opacity="0" stroke="#000000" stroke-width="1" stroke-opacity="0"></use></g></g><g><use xlink:href="#b5ayezof1o" opacity="1" fill="#000000" fill-opacity="0"></use><g><use xlink:href="#b5ayezof1o" opacity="1" fill-opacity="0" stroke="#bada55" stroke-width="1" stroke-opacity="0"></use></g></g></g></g></svg>