<?xml version="1.0" encoding="UTF-8" standalone="no"?>
<!DOCTYPE svg PUBLIC "-//W3C//DTD SVG 1.1//EN" "http://www.w3.org/Graphics/SVG/1.1/DTD/svg11.dtd">
<svg xmlns="http://www.w3.org/2000/svg" version="1.1" viewBox="0 0 200 200" width="200.0pt" height="200.0pt" xmlns:xlink="http://www.w3.org/1999/xlink">
<defs>
<path d="M 0.00 0.00 L 200.00 0.00 L 200.00 200.00 L 0.00 200.00 L 0.00 0.00 Z M 10.04 11.00 C 10.05 70.36 10.04 129.72 10.04 189.08 C 70.04 189.08 130.04 189.08 190.04 189.08 C 190.04 129.72 190.04 70.36 190.04 11.00 C 130.04 11.00 70.04 11.00 10.04 11.00 Z" id="p0" />
<path d="M 10.04 11.00 C 70.04 11.00 130.04 11.00 190.04 11.00 C 190.04 70.36 190.04 129.72 190.04 189.08 C 130.04 189.08 70.04 189.08 10.04 189.08 C 10.04 129.72 10.05 70.36 10.04 11.00 Z M 64.24 31.85 C 63.85 33.65 64.08 35.23 62.51 36.49 C 58.32 40.16 52.51 42.48 47.34 44.39 C 47.33 60.65 47.31 76.90 47.35 93.16 C 41.35 93.21 35.36 93.08 29.37 93.21 C 29.33 94.39 29.31 95.57 29.30 96.75 C 35.31 96.76 41.33 96.74 47.34 96.76 C 47.35 98.93 47.38 101.09 47.54 103.25 C 36.02 103.41 24.49 103.34 12.97 103.29 C 12.93 104.48 12.89 105.66 12.85 106.85 C 24.60 106.82 36.34 106.83 48.09 106.85 C 50.57 121.12 58.86 133.01 69.48 142.53 C 78.82 150.71 89.60 157.31 101.11 161.95 C 115.96 155.99 130.13 146.77 140.64 134.61 C 147.45 126.65 152.48 117.24 154.28 106.85 C 165.68 106.87 177.08 106.75 188.48 106.91 C 188.59 105.74 188.69 104.58 188.79 103.41 C 177.45 103.22 166.10 103.40 154.76 103.32 C 154.95 101.14 155.02 98.95 155.02 96.76 C 158.24 96.75 161.45 96.75 164.66 96.75 C 164.67 95.56 164.67 94.37 164.68 93.18 C 161.46 93.16 158.23 93.16 155.01 93.16 C 154.94 76.87 155.10 60.58 154.93 44.30 C 149.67 42.44 143.86 40.10 139.67 36.32 C 138.27 35.11 138.48 33.56 138.08 31.88 C 126.82 28.59 115.43 25.71 104.15 22.50 C 102.13 21.91 100.56 21.78 98.51 22.42 C 87.11 25.64 75.64 28.60 64.24 31.85 Z M 12.72 96.71 C 15.02 96.74 17.32 96.75 19.63 96.76 C 19.63 95.57 19.64 94.38 19.64 93.19 C 17.44 93.16 15.24 93.12 13.04 93.14 C 12.90 94.33 12.82 95.52 12.72 96.71 Z M 174.59 96.72 C 179.27 96.78 183.95 96.75 188.63 96.75 C 188.63 95.58 188.63 94.42 188.63 93.25 C 184.03 93.32 179.40 93.07 174.81 93.36 C 174.71 94.48 174.64 95.60 174.59 96.72 Z M 55.64 154.41 C 55.54 152.15 55.47 149.88 55.43 147.62 C 53.07 148.13 49.79 149.40 47.47 148.42 C 44.82 146.83 45.01 141.20 47.53 139.53 C 49.58 138.38 50.60 140.06 52.15 141.10 C 53.26 141.17 54.37 141.24 55.47 141.30 C 55.50 138.82 55.48 136.35 55.43 133.87 C 51.06 132.36 46.14 131.25 42.00 134.02 C 38.45 136.49 37.83 140.99 37.97 145.00 C 38.09 149.12 39.80 153.54 43.81 155.26 C 47.59 156.69 52.02 156.01 55.64 154.41 Z M 22.04 132.72 C 22.06 134.78 22.08 136.83 22.09 138.88 C 22.59 139.38 23.08 139.88 23.58 140.38 C 23.57 143.01 23.58 145.63 23.50 148.26 C 21.21 149.92 22.29 153.34 22.07 155.84 C 25.65 155.83 29.23 155.83 32.80 155.82 C 32.79 153.78 32.77 151.73 32.68 149.69 C 31.51 148.62 31.25 147.70 30.89 146.20 C 32.11 146.39 33.34 146.59 34.57 146.78 C 34.52 145.17 34.47 143.56 34.42 141.95 C 33.31 141.94 32.19 141.93 31.07 141.91 C 31.26 140.69 31.44 139.47 31.62 138.24 C 33.25 139.30 34.89 140.15 36.68 140.91 C 36.87 138.13 36.86 135.39 36.71 132.61 C 31.82 132.72 26.93 132.62 22.04 132.72 Z M 22.50 165.74 C 22.49 167.21 22.48 168.67 22.49 170.14 C 24.32 172.50 23.57 174.94 23.73 177.75 C 23.30 178.29 22.86 178.83 22.43 179.37 C 22.44 180.86 22.44 182.35 22.44 183.83 C 25.29 183.89 28.15 183.91 31.00 183.89 C 31.04 181.34 31.11 179.28 29.64 177.08 C 31.90 176.77 35.39 176.89 36.95 174.92 C 38.81 172.36 38.40 167.22 34.84 166.29 C 30.90 165.33 26.53 165.85 22.50 165.74 Z M 37.51 178.78 C 37.42 180.47 37.37 182.16 37.33 183.85 C 39.07 183.86 40.82 183.86 42.56 183.85 C 42.71 182.88 42.86 181.92 43.01 180.95 C 44.21 181.02 45.41 181.10 46.60 181.17 C 46.70 182.08 46.80 182.99 46.90 183.90 C 48.61 183.90 50.31 183.89 52.01 183.88 C 51.99 181.72 52.21 179.71 51.21 177.70 C 49.73 174.33 49.27 170.97 48.41 167.36 C 46.03 167.29 43.59 167.16 41.21 167.38 C 39.63 170.99 39.93 175.71 37.51 178.78 Z M 59.18 178.70 C 57.79 181.21 55.28 178.46 53.24 178.31 C 53.45 179.71 52.37 183.26 54.46 183.50 C 56.57 184.21 59.51 184.31 61.63 183.62 C 64.79 182.36 65.18 177.89 63.76 175.24 C 62.78 173.30 59.80 173.09 57.96 172.44 C 59.43 169.77 61.63 172.51 63.99 172.56 C 64.00 171.01 64.02 169.47 64.03 167.92 C 61.11 167.06 58.47 166.16 55.49 167.48 C 52.65 168.88 52.24 172.95 53.48 175.52 C 54.61 177.64 57.16 177.87 59.18 178.70 Z M 72.05 178.78 C 70.46 180.93 68.14 178.62 66.01 178.44 C 66.00 180.00 65.98 181.55 65.97 183.11 C 68.74 183.92 71.70 184.61 74.52 183.55 C 77.58 182.20 77.84 178.05 76.62 175.37 C 75.49 173.26 73.02 173.22 70.98 172.58 C 71.29 171.96 71.60 171.34 71.91 170.72 C 73.49 171.73 74.92 172.34 76.78 172.71 C 76.58 171.11 77.78 167.95 75.53 167.52 C 73.21 166.69 70.00 166.43 67.81 167.74 C 65.44 169.16 65.30 172.59 65.98 174.96 C 66.99 177.59 69.75 177.81 72.05 178.78 Z M 78.79 167.20 C 78.72 168.49 78.74 169.77 78.85 171.05 C 80.98 175.72 78.73 179.11 78.45 183.77 C 81.20 183.92 83.92 183.93 86.67 183.78 C 86.62 182.42 86.56 181.05 86.49 179.68 C 84.72 177.62 84.76 173.38 86.51 171.32 C 86.55 169.99 86.57 168.66 86.59 167.33 C 83.99 167.31 81.39 167.28 78.79 167.20 Z M 88.05 167.29 C 88.08 169.46 87.82 171.22 89.21 173.05 C 89.27 174.70 89.27 176.33 89.22 177.98 C 87.79 179.84 88.08 181.68 88.02 183.88 C 89.98 183.89 91.95 183.88 93.91 183.88 C 93.88 182.45 93.84 181.02 93.77 179.60 C 92.97 178.40 92.68 177.31 92.46 175.89 C 94.48 178.36 95.61 181.10 97.06 183.91 C 99.35 183.90 101.64 183.88 103.93 183.86 C 103.89 181.82 103.72 179.89 103.03 177.95 C 101.62 174.31 104.33 171.26 103.91 167.30 C 101.95 167.29 99.98 167.29 98.01 167.29 C 97.89 170.17 98.85 172.72 99.35 175.51 C 97.55 172.87 96.35 170.12 94.87 167.27 C 92.59 167.29 90.32 167.29 88.05 167.29 Z M 118.39 182.34 C 118.27 179.78 118.24 177.22 118.24 174.66 C 116.33 174.65 114.42 174.65 112.51 174.66 C 112.65 176.97 113.58 177.57 115.17 178.88 C 113.96 178.69 111.59 179.48 111.14 177.88 C 110.39 176.27 110.39 173.11 112.11 172.13 C 114.04 172.04 116.02 173.26 117.97 173.54 C 117.97 171.68 117.96 169.83 117.95 167.97 C 114.30 166.79 109.92 165.82 106.94 168.96 C 104.27 172.16 104.37 178.00 106.62 181.41 C 109.35 185.24 114.81 184.39 118.39 182.34 Z M 136.60 183.71 C 138.22 183.83 139.85 183.94 141.47 184.05 C 141.71 183.03 141.95 182.00 142.19 180.97 C 143.28 181.01 144.37 181.05 145.46 181.08 C 145.65 182.18 146.03 183.10 146.58 183.85 C 148.15 184.02 149.73 183.97 151.34 183.71 C 151.16 181.84 151.28 180.13 150.56 178.40 C 149.04 174.82 148.42 171.10 147.54 167.33 C 145.14 167.29 142.70 167.17 140.31 167.39 C 139.15 170.69 138.79 174.21 137.56 177.51 C 136.77 179.52 136.72 181.58 136.60 183.71 Z M 152.21 183.89 C 154.23 183.88 156.26 183.84 158.28 183.73 C 158.03 181.08 157.32 178.52 157.03 175.88 C 158.55 178.46 159.82 181.22 161.19 183.89 C 163.48 183.89 165.77 183.89 168.07 183.89 C 168.16 181.13 167.34 178.67 166.84 176.00 C 166.93 173.10 168.13 170.34 168.23 167.41 C 166.22 167.34 164.21 167.30 162.20 167.27 C 162.23 170.22 163.13 172.96 163.56 175.85 C 161.90 173.03 160.52 170.06 158.92 167.20 C 156.75 167.25 154.56 167.22 152.39 167.42 C 151.78 170.54 153.51 172.99 153.47 175.99 C 153.00 178.65 152.16 181.13 152.21 183.89 Z M 169.69 171.25 C 172.46 175.89 169.29 179.06 169.48 183.80 C 173.34 183.92 177.21 183.88 181.08 183.96 C 181.11 181.85 181.14 179.73 181.15 177.61 C 179.52 178.11 177.89 178.62 176.25 179.09 C 176.26 178.27 176.27 177.45 176.28 176.63 C 177.19 176.83 178.09 177.04 179.00 177.24 C 178.99 176.11 178.99 174.98 178.99 173.85 C 178.12 174.04 177.24 174.22 176.37 174.40 C 176.34 173.62 176.30 172.84 176.27 172.06 C 177.91 172.52 179.55 173.00 181.19 173.47 C 181.14 171.40 181.10 169.33 181.04 167.26 C 177.27 167.35 173.47 167.15 169.71 167.41 C 169.63 168.68 169.66 169.97 169.69 171.25 Z M 125.08 167.29 C 124.74 171.29 127.36 174.37 125.97 177.95 C 125.28 179.89 125.11 181.82 125.07 183.86 C 128.79 183.91 132.52 183.91 136.24 183.84 C 136.26 181.76 136.29 179.67 136.27 177.59 C 134.73 177.95 133.35 178.46 131.94 179.17 C 131.54 175.01 132.93 171.44 133.36 167.39 C 130.60 167.30 127.84 167.27 125.08 167.29 Z" id="p1" />
<path d="M 104.15 22.50 C 115.43 25.71 126.82 28.59 138.08 31.88 C 138.48 33.56 138.27 35.11 139.67 36.32 C 143.86 40.10 149.67 42.44 154.93 44.30 C 155.10 60.58 154.94 76.87 155.01 93.16 C 155.02 94.36 155.02 95.56 155.02 96.76 C 155.02 98.95 154.95 101.14 154.76 103.32 C 154.62 104.50 154.46 105.67 154.28 106.85 C 152.48 117.24 147.45 126.65 140.64 134.61 C 130.13 146.77 115.96 155.99 101.11 161.95 C 89.60 157.31 78.82 150.71 69.48 142.53 C 58.86 133.01 50.57 121.12 48.09 106.85 C 47.88 105.65 47.68 104.46 47.54 103.25 C 47.38 101.09 47.35 98.93 47.34 96.76 C 47.34 95.56 47.35 94.36 47.35 93.16 C 47.31 76.90 47.33 60.65 47.34 44.39 C 52.51 42.48 58.32 40.16 62.51 36.49 C 64.08 35.23 63.85 33.65 64.24 31.85 C 75.64 28.60 87.11 25.64 98.51 22.42 C 100.56 21.78 102.13 21.91 104.15 22.50 Z M 66.25 34.82 C 65.90 36.08 65.94 37.98 64.92 38.91 C 60.48 43.16 55.30 44.45 50.09 47.03 C 49.74 59.32 50.05 71.69 49.95 84.00 C 50.08 93.18 49.26 103.22 52.06 112.00 C 55.56 123.95 63.52 134.18 72.93 142.11 C 80.95 148.78 89.97 154.41 99.60 158.43 C 102.11 159.68 104.62 157.85 106.92 156.93 C 120.26 150.50 133.42 141.30 142.27 129.27 C 148.36 120.99 152.36 111.33 152.94 101.00 C 153.30 93.68 153.02 86.33 153.10 79.00 C 152.99 68.36 153.32 57.65 152.96 47.02 C 147.75 44.44 142.54 43.15 138.11 38.88 C 137.14 37.92 137.14 36.06 136.77 34.81 C 125.89 31.70 114.92 28.88 104.03 25.81 C 102.17 25.27 100.83 25.28 98.97 25.82 C 88.08 28.89 77.13 31.72 66.25 34.82 Z" id="p2" />
<path d="M 104.03 25.81 C 114.92 28.88 125.89 31.70 136.77 34.81 C 137.14 36.06 137.14 37.92 138.11 38.88 C 142.54 43.15 147.75 44.44 152.96 47.02 C 153.32 57.65 152.99 68.36 153.10 79.00 C 153.02 86.33 153.30 93.68 152.94 101.00 C 152.36 111.33 148.36 120.99 142.27 129.27 C 133.42 141.30 120.26 150.50 106.92 156.93 C 104.62 157.85 102.11 159.68 99.60 158.43 C 89.97 154.41 80.95 148.78 72.93 142.11 C 63.52 134.18 55.56 123.95 52.06 112.00 C 49.26 103.22 50.08 93.18 49.95 84.00 C 50.05 71.69 49.74 59.32 50.09 47.03 C 55.30 44.45 60.48 43.16 64.92 38.91 C 65.94 37.98 65.90 36.08 66.25 34.82 C 77.13 31.72 88.08 28.89 98.97 25.82 C 100.83 25.28 102.17 25.27 104.03 25.81 Z M 51.30 77.47 C 51.05 79.78 51.00 80.05 52.78 81.60 C 54.36 79.43 56.07 76.57 58.99 76.15 C 62.60 75.52 65.41 74.57 68.39 72.38 C 69.18 72.76 69.97 73.14 70.76 73.52 C 73.46 73.47 75.96 72.75 78.03 74.96 C 80.49 78.12 82.46 81.90 83.12 85.87 C 83.79 88.90 83.78 91.65 85.88 94.12 C 88.13 96.88 89.28 99.85 92.77 101.22 C 96.06 104.43 99.91 105.66 101.82 110.19 C 91.17 119.20 80.71 128.43 70.18 137.57 C 76.28 137.52 82.38 137.59 88.49 137.51 C 94.81 130.23 101.33 123.11 107.68 115.85 C 110.07 117.37 111.80 118.66 112.61 121.55 C 110.14 124.34 108.17 127.61 106.06 130.67 C 109.14 130.69 112.22 130.65 115.30 130.49 C 116.85 127.42 118.51 124.40 120.15 121.37 L 119.42 121.50 C 118.36 120.60 117.32 119.68 116.28 118.75 C 113.85 117.12 112.35 114.83 110.77 112.43 C 118.39 103.64 126.45 95.19 133.84 86.21 C 134.73 87.07 135.61 87.94 136.48 88.81 C 137.85 88.19 139.08 87.51 140.17 86.45 C 138.88 86.66 137.60 86.89 136.32 87.14 C 135.63 85.84 134.96 84.53 134.28 83.23 C 132.60 83.94 130.92 84.66 129.26 85.40 C 126.91 88.82 123.74 90.98 120.70 93.70 C 115.72 98.05 110.68 102.34 105.75 106.73 C 105.01 105.91 104.34 105.05 103.67 104.18 C 104.72 104.49 105.78 104.81 106.83 105.13 C 107.44 104.45 108.04 103.78 108.64 103.10 C 108.48 99.25 107.89 95.63 105.58 92.44 C 102.66 88.69 101.68 84.08 98.53 80.47 C 95.88 77.56 96.96 74.10 96.95 70.51 C 103.37 74.04 110.25 75.91 116.23 80.29 C 116.15 78.92 116.02 77.56 115.84 76.20 C 114.26 74.99 112.07 74.68 110.33 73.69 C 107.52 72.03 105.01 69.56 102.68 67.31 C 100.74 65.34 98.08 64.84 96.30 62.65 C 94.66 60.74 93.21 59.45 90.79 58.61 C 91.57 55.83 91.77 52.99 91.90 50.12 C 89.27 48.23 85.39 47.11 83.23 50.24 C 80.88 53.65 85.85 57.35 82.02 59.97 C 78.71 63.44 74.08 63.56 70.56 66.60 C 67.25 69.36 63.06 70.08 59.65 72.68 C 57.00 74.63 54.34 76.20 51.30 77.47 Z M 133.58 93.26 C 134.70 93.27 135.78 93.14 136.82 92.86 C 137.28 91.99 137.70 91.10 138.09 90.19 C 135.24 90.49 135.03 90.91 133.58 93.26 Z M 131.02 97.27 C 132.26 97.29 133.49 97.32 134.72 97.34 C 135.20 96.25 135.67 95.16 136.13 94.07 C 132.98 94.43 132.53 94.46 131.02 97.27 Z M 131.12 100.46 C 126.68 100.98 122.41 100.59 119.01 104.01 C 114.83 108.02 114.80 115.01 118.95 119.05 C 122.99 123.23 129.99 123.19 134.01 119.01 C 137.71 115.35 138.16 109.19 134.84 105.14 C 133.48 103.50 131.64 102.57 131.12 100.46 Z" id="p3" />
<path d="M 91.90 50.12 C 91.77 52.99 91.57 55.83 90.79 58.61 C 93.21 59.45 94.66 60.74 96.30 62.65 C 98.08 64.84 100.74 65.34 102.68 67.31 C 105.01 69.56 107.52 72.03 110.33 73.69 C 112.07 74.68 114.26 74.99 115.84 76.20 C 116.02 77.56 116.15 78.92 116.23 80.29 C 110.25 75.91 103.37 74.04 96.95 70.51 C 96.96 74.10 95.88 77.56 98.53 80.47 C 101.68 84.08 102.66 88.69 105.58 92.44 C 107.89 95.63 108.48 99.25 108.64 103.10 C 108.04 103.78 107.44 104.45 106.83 105.13 C 105.78 104.81 104.72 104.49 103.67 104.18 C 104.34 105.05 105.01 105.91 105.75 106.73 C 107.62 108.47 109.37 110.26 110.77 112.43 C 112.35 114.83 113.85 117.12 116.28 118.75 C 117.32 119.68 118.36 120.60 119.42 121.50 C 117.01 122.13 115.10 122.05 112.67 121.55 L 112.61 121.55 C 111.80 118.66 110.07 117.37 107.68 115.85 C 105.26 114.30 103.05 112.94 101.82 110.19 C 99.91 105.66 96.06 104.43 92.77 101.22 C 89.28 99.85 88.13 96.88 85.88 94.12 C 83.78 91.65 83.79 88.90 83.12 85.87 C 82.46 81.90 80.49 78.12 78.03 74.96 C 75.96 72.75 73.46 73.47 70.76 73.52 C 69.97 73.14 69.18 72.76 68.39 72.38 C 65.41 74.57 62.60 75.52 58.99 76.15 C 56.07 76.57 54.36 79.43 52.78 81.60 C 51.00 80.05 51.05 79.78 51.30 77.47 C 54.34 76.20 57.00 74.63 59.65 72.68 C 63.06 70.08 67.25 69.36 70.56 66.60 C 74.08 63.56 78.71 63.44 82.02 59.97 C 85.85 57.35 80.88 53.65 83.23 50.24 C 85.39 47.11 89.27 48.23 91.90 50.12 Z" id="p4" />
<path d="M 134.28 83.23 C 134.96 84.53 135.63 85.84 136.32 87.14 C 137.60 86.89 138.88 86.66 140.17 86.45 C 139.08 87.51 137.85 88.19 136.48 88.81 C 135.61 87.94 134.73 87.07 133.84 86.21 C 126.45 95.19 118.39 103.64 110.77 112.43 C 109.37 110.26 107.62 108.47 105.75 106.73 C 110.68 102.34 115.72 98.05 120.70 93.70 C 123.74 90.98 126.91 88.82 129.26 85.40 C 130.92 84.66 132.60 83.94 134.28 83.23 Z" id="p5" />
<path d="M 138.09 90.19 C 137.70 91.10 137.28 91.99 136.82 92.86 C 135.78 93.14 134.70 93.27 133.58 93.26 C 135.03 90.91 135.24 90.49 138.09 90.19 Z" id="p6" />
<path d="M 13.04 93.14 C 15.24 93.12 17.44 93.16 19.64 93.19 C 19.64 94.38 19.63 95.57 19.63 96.76 C 17.32 96.75 15.02 96.74 12.72 96.71 C 12.82 95.52 12.90 94.33 13.04 93.14 Z" id="p7" />
<path d="M 29.37 93.21 C 35.36 93.08 41.35 93.21 47.35 93.16 C 47.35 94.36 47.34 95.56 47.34 96.76 C 41.33 96.74 35.31 96.76 29.30 96.75 C 29.31 95.57 29.33 94.39 29.37 93.21 Z" id="p8" />
<path d="M 155.01 93.16 C 158.23 93.16 161.46 93.16 164.68 93.18 C 164.67 94.37 164.67 95.56 164.66 96.75 C 161.45 96.75 158.24 96.75 155.02 96.76 C 155.02 95.56 155.02 94.36 155.01 93.16 Z" id="p9" />
<path d="M 174.81 93.36 C 179.40 93.07 184.03 93.32 188.63 93.25 C 188.63 94.42 188.63 95.58 188.63 96.75 C 183.95 96.75 179.27 96.78 174.59 96.72 C 174.64 95.60 174.71 94.48 174.81 93.36 Z" id="p10" />
<path d="M 136.13 94.07 C 135.67 95.16 135.20 96.25 134.72 97.34 C 133.49 97.32 132.26 97.29 131.02 97.27 C 132.53 94.46 132.98 94.43 136.13 94.07 Z" id="p11" />
<path d="M 131.12 100.46 C 131.64 102.57 133.48 103.50 134.84 105.14 C 138.16 109.19 137.71 115.35 134.01 119.01 C 129.99 123.19 122.99 123.23 118.95 119.05 C 114.80 115.01 114.83 108.02 119.01 104.01 C 122.41 100.59 126.68 100.98 131.12 100.46 Z" id="p12" />
<path d="M 12.97 103.29 C 24.49 103.34 36.02 103.41 47.54 103.25 C 47.68 104.46 47.88 105.65 48.09 106.85 C 36.34 106.83 24.60 106.82 12.85 106.85 C 12.89 105.66 12.93 104.48 12.97 103.29 Z" id="p13" />
<path d="M 154.76 103.32 C 166.10 103.40 177.45 103.22 188.79 103.41 C 188.69 104.58 188.59 105.74 188.48 106.91 C 177.08 106.75 165.68 106.87 154.28 106.85 C 154.46 105.67 154.62 104.50 154.76 103.32 Z" id="p14" />
<path d="M 101.82 110.19 C 103.05 112.94 105.26 114.30 107.68 115.85 C 101.33 123.11 94.81 130.23 88.49 137.51 C 82.38 137.59 76.28 137.52 70.18 137.57 C 80.71 128.43 91.17 119.20 101.82 110.19 Z" id="p15" />
<path d="M 112.61 121.55 L 112.67 121.55 C 115.10 122.05 117.01 122.13 119.42 121.50 L 120.15 121.37 C 118.51 124.40 116.85 127.42 115.30 130.49 C 112.22 130.65 109.14 130.69 106.06 130.67 C 108.17 127.61 110.14 124.34 112.61 121.55 Z" id="p16" />
<path d="M 55.43 133.87 C 55.48 136.35 55.50 138.82 55.47 141.30 C 54.37 141.24 53.26 141.17 52.15 141.10 C 50.60 140.06 49.58 138.38 47.53 139.53 C 45.01 141.20 44.82 146.83 47.47 148.42 C 49.79 149.40 53.07 148.13 55.43 147.62 C 55.47 149.88 55.54 152.15 55.64 154.41 C 52.02 156.01 47.59 156.69 43.81 155.26 C 39.80 153.54 38.09 149.12 37.97 145.00 C 37.83 140.99 38.45 136.49 42.00 134.02 C 46.14 131.25 51.06 132.36 55.43 133.87 Z" id="p17" />
<path d="M 22.04 132.72 C 26.93 132.62 31.82 132.72 36.71 132.61 C 36.86 135.39 36.87 138.13 36.68 140.91 C 34.89 140.15 33.25 139.30 31.62 138.24 C 31.44 139.47 31.26 140.69 31.07 141.91 C 32.19 141.93 33.31 141.94 34.42 141.95 C 34.47 143.56 34.52 145.17 34.57 146.78 C 33.34 146.59 32.11 146.39 30.89 146.20 C 31.25 147.70 31.51 148.62 32.68 149.69 C 32.77 151.73 32.79 153.78 32.80 155.82 C 29.23 155.83 25.65 155.83 22.07 155.84 C 22.29 153.34 21.21 149.92 23.50 148.26 C 23.58 145.63 23.57 143.01 23.58 140.38 C 23.08 139.88 22.59 139.38 22.09 138.88 C 22.08 136.83 22.06 134.78 22.04 132.72 Z" id="p18" />
<path d="M 22.50 165.74 C 26.53 165.85 30.90 165.33 34.84 166.29 C 38.40 167.22 38.81 172.36 36.95 174.92 C 35.39 176.89 31.90 176.77 29.64 177.08 C 31.11 179.28 31.04 181.34 31.00 183.89 C 28.15 183.91 25.29 183.89 22.44 183.83 C 22.44 182.35 22.44 180.86 22.43 179.37 C 22.86 178.83 23.30 178.29 23.73 177.75 C 23.57 174.94 24.32 172.50 22.49 170.14 C 22.48 168.67 22.49 167.21 22.50 165.74 Z M 29.66 173.95 C 30.93 173.07 32.20 173.01 31.90 171.07 C 32.01 169.83 30.62 169.72 29.77 169.25 C 29.66 170.82 29.66 172.38 29.66 173.95 Z" id="p19" />
<path d="M 41.21 167.38 C 43.59 167.16 46.03 167.29 48.41 167.36 C 49.27 170.97 49.73 174.33 51.21 177.70 C 52.21 179.71 51.99 181.72 52.01 183.88 C 50.31 183.89 48.61 183.90 46.90 183.90 C 46.80 182.99 46.70 182.08 46.60 181.17 C 45.41 181.10 44.21 181.02 43.01 180.95 C 42.86 181.92 42.71 182.88 42.56 183.85 C 40.82 183.86 39.07 183.86 37.33 183.85 C 37.37 182.16 37.42 180.47 37.51 178.78 C 39.93 175.71 39.63 170.99 41.21 167.38 Z M 44.57 171.76 C 44.22 173.60 43.91 175.44 43.60 177.28 C 44.35 177.32 45.10 177.36 45.85 177.40 C 45.49 175.50 45.08 173.62 44.57 171.76 Z" id="p20" />
<path d="M 64.03 167.92 C 64.02 169.47 64.00 171.01 63.99 172.56 C 61.63 172.51 59.43 169.77 57.96 172.44 C 59.80 173.09 62.78 173.30 63.76 175.24 C 65.18 177.89 64.79 182.36 61.63 183.62 C 59.51 184.31 56.57 184.21 54.46 183.50 C 52.37 183.26 53.45 179.71 53.24 178.31 C 55.28 178.46 57.79 181.21 59.18 178.70 C 57.16 177.87 54.61 177.64 53.48 175.52 C 52.24 172.95 52.65 168.88 55.49 167.48 C 58.47 166.16 61.11 167.06 64.03 167.92 Z" id="p21" />
<path d="M 75.53 167.52 C 77.78 167.95 76.58 171.11 76.78 172.71 C 74.92 172.34 73.49 171.73 71.91 170.72 C 71.60 171.34 71.29 171.96 70.98 172.58 C 73.02 173.22 75.49 173.26 76.62 175.37 C 77.84 178.05 77.58 182.20 74.52 183.55 C 71.70 184.61 68.74 183.92 65.97 183.11 C 65.98 181.55 66.00 180.00 66.01 178.44 C 68.14 178.62 70.46 180.93 72.05 178.78 C 69.75 177.81 66.99 177.59 65.98 174.96 C 65.30 172.59 65.44 169.16 67.81 167.74 C 70.00 166.43 73.21 166.69 75.53 167.52 Z" id="p22" />
<path d="M 78.79 167.20 C 81.39 167.28 83.99 167.31 86.59 167.33 C 86.57 168.66 86.55 169.99 86.51 171.32 C 84.76 173.38 84.72 177.62 86.49 179.68 C 86.56 181.05 86.62 182.42 86.67 183.78 C 83.92 183.93 81.20 183.92 78.45 183.77 C 78.73 179.11 80.98 175.72 78.85 171.05 C 78.74 169.77 78.72 168.49 78.79 167.20 Z" id="p23" />
<path d="M 88.05 167.29 C 90.32 167.29 92.59 167.29 94.87 167.27 C 96.35 170.12 97.55 172.87 99.35 175.51 C 98.85 172.72 97.89 170.17 98.01 167.29 C 99.98 167.29 101.95 167.29 103.91 167.30 C 104.33 171.26 101.62 174.31 103.03 177.95 C 103.72 179.89 103.89 181.82 103.93 183.86 C 101.64 183.88 99.35 183.90 97.06 183.91 C 95.61 181.10 94.48 178.36 92.46 175.89 C 92.68 177.31 92.97 178.40 93.77 179.60 C 93.84 181.02 93.88 182.45 93.91 183.88 C 91.95 183.88 89.98 183.89 88.02 183.88 C 88.08 181.68 87.79 179.84 89.22 177.98 C 89.27 176.33 89.27 174.70 89.21 173.05 C 87.82 171.22 88.08 169.46 88.05 167.29 Z" id="p24" />
<path d="M 117.95 167.97 C 117.96 169.83 117.97 171.68 117.97 173.54 C 116.02 173.26 114.04 172.04 112.11 172.13 C 110.39 173.11 110.39 176.27 111.14 177.88 C 111.59 179.48 113.96 178.69 115.17 178.88 C 113.58 177.57 112.65 176.97 112.51 174.66 C 114.42 174.65 116.33 174.65 118.24 174.66 C 118.24 177.22 118.27 179.78 118.39 182.34 C 114.81 184.39 109.35 185.24 106.62 181.41 C 104.37 178.00 104.27 172.16 106.94 168.96 C 109.92 165.82 114.30 166.79 117.95 167.97 Z" id="p25" />
<path d="M 140.31 167.39 C 142.70 167.17 145.14 167.29 147.54 167.33 C 148.42 171.10 149.04 174.82 150.56 178.40 C 151.28 180.13 151.16 181.84 151.34 183.71 C 149.73 183.97 148.15 184.02 146.58 183.85 C 146.03 183.10 145.65 182.18 145.46 181.08 C 144.37 181.05 143.28 181.01 142.19 180.97 C 141.95 182.00 141.71 183.03 141.47 184.05 C 139.85 183.94 138.22 183.83 136.60 183.71 C 136.72 181.58 136.77 179.52 137.56 177.51 C 138.79 174.21 139.15 170.69 140.31 167.39 Z M 143.50 171.61 L 143.46 171.91 C 143.59 173.81 141.72 177.53 144.67 177.64 C 144.81 175.66 144.46 173.92 143.70 172.09 L 143.60 171.84 L 143.51 171.64 L 143.50 171.61 Z" id="p26" />
<path d="M 152.39 167.42 C 154.56 167.22 156.75 167.25 158.92 167.20 C 160.52 170.06 161.90 173.03 163.56 175.85 C 163.13 172.96 162.23 170.22 162.20 167.27 C 164.21 167.30 166.22 167.34 168.23 167.41 C 168.13 170.34 166.93 173.10 166.84 176.00 C 167.34 178.67 168.16 181.13 168.07 183.89 C 165.77 183.89 163.48 183.89 161.19 183.89 C 159.82 181.22 158.55 178.46 157.03 175.88 C 157.32 178.52 158.03 181.08 158.28 183.73 C 156.26 183.84 154.23 183.88 152.21 183.89 C 152.16 181.13 153.00 178.65 153.47 175.99 C 153.51 172.99 151.78 170.54 152.39 167.42 Z" id="p27" />
<path d="M 169.71 167.41 C 173.47 167.15 177.27 167.35 181.04 167.26 C 181.10 169.33 181.14 171.40 181.19 173.47 C 179.55 173.00 177.91 172.52 176.27 172.06 C 176.30 172.84 176.34 173.62 176.37 174.40 C 177.24 174.22 178.12 174.04 178.99 173.85 C 178.99 174.98 178.99 176.11 179.00 177.24 C 178.09 177.04 177.19 176.83 176.28 176.63 C 176.27 177.45 176.26 178.27 176.25 179.09 C 177.89 178.62 179.52 178.11 181.15 177.61 C 181.14 179.73 181.11 181.85 181.08 183.96 C 177.21 183.88 173.34 183.92 169.48 183.80 C 169.29 179.06 172.46 175.89 169.69 171.25 C 169.66 169.97 169.63 168.68 169.71 167.41 Z" id="p28" />
<path d="M 125.08 167.29 C 127.84 167.27 130.60 167.30 133.36 167.39 C 132.93 171.44 131.54 175.01 131.94 179.17 C 133.35 178.46 134.73 177.95 136.27 177.59 C 136.29 179.67 136.26 181.76 136.24 183.84 C 132.52 183.91 128.79 183.91 125.07 183.86 C 125.11 181.82 125.28 179.89 125.97 177.95 C 127.36 174.37 124.74 171.29 125.08 167.29 Z" id="p29" />
<path d="M 29.77 169.25 C 30.62 169.72 32.01 169.83 31.90 171.07 C 32.20 173.01 30.93 173.07 29.66 173.95 C 29.66 172.38 29.66 170.82 29.77 169.25 Z" id="p30" />
<path d="M 143.50 171.61 L 143.51 171.64 L 143.60 171.84 L 143.70 172.09 C 144.46 173.92 144.81 175.66 144.67 177.64 C 141.72 177.53 143.59 173.81 143.46 171.91 L 143.50 171.61 Z" id="p31" />
<path d="M 44.57 171.76 C 45.08 173.62 45.49 175.50 45.85 177.40 C 45.10 177.36 44.35 177.32 43.60 177.28 C 43.91 175.44 44.22 173.60 44.57 171.76 Z" id="p32" />
</defs>
<g stroke-width="10pt">
<use stroke="#ffffff" xlink:href="#p0" />
<use stroke="#000000" xlink:href="#p1" />
<use stroke="#359bd6" xlink:href="#p2" />
<use stroke="#efe129" xlink:href="#p3" />
<use stroke="#000000" xlink:href="#p4" />
<use stroke="#359bd6" xlink:href="#p5" />
<use stroke="#359bd6" xlink:href="#p6" />
<use stroke="#ffffff" xlink:href="#p7" />
<use stroke="#ffffff" xlink:href="#p8" />
<use stroke="#ffffff" xlink:href="#p9" />
<use stroke="#ffffff" xlink:href="#p10" />
<use stroke="#359bd6" xlink:href="#p11" />
<use stroke="#000000" xlink:href="#p12" />
<use stroke="#ffffff" xlink:href="#p13" />
<use stroke="#ffffff" xlink:href="#p14" />
<use stroke="#359bd6" xlink:href="#p15" />
<use stroke="#359bd6" xlink:href="#p16" />
<use stroke="#359bd6" xlink:href="#p17" />
<use stroke="#359bd6" xlink:href="#p18" />
<use stroke="#efe129" xlink:href="#p19" />
<use stroke="#efe129" xlink:href="#p20" />
<use stroke="#efe129" xlink:href="#p21" />
<use stroke="#efe129" xlink:href="#p22" />
<use stroke="#efe129" xlink:href="#p23" />
<use stroke="#efe129" xlink:href="#p24" />
<use stroke="#efe129" xlink:href="#p25" />
<use stroke="#efe129" xlink:href="#p26" />
<use stroke="#efe129" xlink:href="#p27" />
<use stroke="#efe129" xlink:href="#p28" />
<use stroke="#efe129" xlink:href="#p29" />
<use stroke="#000000" xlink:href="#p30" />
<use stroke="#000000" xlink:href="#p31" />
<use stroke="#000000" xlink:href="#p32" />
</g>
<g>
<use fill="#ffffff" xlink:href="#p0" />
<use fill="#000000" xlink:href="#p1" />
<use fill="#359bd6" xlink:href="#p2" />
<use fill="#efe129" xlink:href="#p3" />
<use fill="#000000" xlink:href="#p4" />
<use fill="#359bd6" xlink:href="#p5" />
<use fill="#359bd6" xlink:href="#p6" />
<use fill="#ffffff" xlink:href="#p7" />
<use fill="#ffffff" xlink:href="#p8" />
<use fill="#ffffff" xlink:href="#p9" />
<use fill="#ffffff" xlink:href="#p10" />
<use fill="#359bd6" xlink:href="#p11" />
<use fill="#000000" xlink:href="#p12" />
<use fill="#ffffff" xlink:href="#p13" />
<use fill="#ffffff" xlink:href="#p14" />
<use fill="#359bd6" xlink:href="#p15" />
<use fill="#359bd6" xlink:href="#p16" />
<use fill="#359bd6" xlink:href="#p17" />
<use fill="#359bd6" xlink:href="#p18" />
<use fill="#efe129" xlink:href="#p19" />
<use fill="#efe129" xlink:href="#p20" />
<use fill="#efe129" xlink:href="#p21" />
<use fill="#efe129" xlink:href="#p22" />
<use fill="#efe129" xlink:href="#p23" />
<use fill="#efe129" xlink:href="#p24" />
<use fill="#efe129" xlink:href="#p25" />
<use fill="#efe129" xlink:href="#p26" />
<use fill="#efe129" xlink:href="#p27" />
<use fill="#efe129" xlink:href="#p28" />
<use fill="#efe129" xlink:href="#p29" />
<use fill="#000000" xlink:href="#p30" />
<use fill="#000000" xlink:href="#p31" />
<use fill="#000000" xlink:href="#p32" />
</g>
</svg>