<?xml version="1.0" encoding="UTF-8" standalone="no"?>
<!DOCTYPE svg PUBLIC "-//W3C//DTD SVG 1.1//EN" "http://www.w3.org/Graphics/SVG/1.1/DTD/svg11.dtd">
<svg version="1.1" xmlns="http://www.w3.org/2000/svg" xmlns:xlink="http://www.w3.org/1999/xlink" preserveAspectRatio="xMidYMid meet" viewBox="0 0 429 353" width="429" height="353"><defs><path d="M119.12 174.03C119.12 123.72 160.86 82.94 212.34 82.94C263.83 82.94 305.57 123.72 305.57 174.03C305.57 224.34 263.83 265.12 212.34 265.12C160.86 265.12 119.12 224.34 119.12 174.03Z" id="g2EUd4zR5"></path><path d="M119.12 174.03C119.12 123.72 160.86 82.94 212.34 82.94C263.83 82.94 305.57 123.72 305.57 174.03C305.57 224.34 263.83 265.12 212.34 265.12C160.86 265.12 119.12 224.34 119.12 174.03Z" id="dszV0C9Rx"></path><path d="M232.81 180.76L232.81 137.39L232.81 94.03L297.81 115.72L362.81 137.4L297.81 159.08L232.81 180.76Z" id="hdqvfkcbX"></path><path d="M252.93 158.3L216.9 137.5L180.87 116.69L231.39 70.8L281.9 24.92L267.42 91.61L252.93 158.3Z" id="c11Eo0TlFk"></path><path d="M235.16 120.37L200.73 140.24L166.3 160.12L151.02 93.89L135.74 27.66L185.45 74.01L235.16 120.37Z" id="aY2qoXPZF"></path><path d="M216.7 104.19L195.9 140.22L175.09 176.25L129.2 125.74L83.31 75.22L150.01 89.7L216.7 104.19Z" id="i2WtVTAVGm"></path><path d="M248.97 135L208.25 135L167.52 135L187.88 70L208.25 5L228.61 70L248.97 135Z" id="c1WFeHz08"></path><path d="M244.92 175.46L223.24 137.9L201.56 100.35L268.69 86.63L335.82 72.91L290.37 124.18L244.92 175.46Z" id="e3z4A6utaL"></path><path d="M242.99 172.18L208.23 195.65L174.42 170.94L188.64 132.34L230.99 132.96L242.99 172.18Z" id="b72NbbZdhI"></path><path d="M242.99 172.18L208.23 195.65L174.42 170.94L188.64 132.34L230.99 132.96L242.99 172.18Z" id="b3SKc8vRyp"></path><path d="M141.92 218.68C140.62 218.32 130.22 215.46 128.92 215.1C123.46 206.84 113.34 174.63 122.28 150.87C121.89 151.63 141.42 182.02 141.87 181.13C140.92 181.6 141.2 219.03 141.92 218.68Z" id="g1j7gzFlgp"></path><path d="M141.92 218.68C140.62 218.32 130.22 215.46 128.92 215.1C123.46 206.84 113.34 174.63 122.28 150.87C121.89 151.63 141.42 182.02 141.87 181.13C140.92 181.6 141.2 219.03 141.92 218.68Z" id="cntlZwozr"></path><path d="M244.89 244.13C238.45 255.24 234.87 261.42 234.15 262.65C221.91 265.71 201.38 266.79 180.74 260.18C180.07 258.99 176.7 253.02 170.63 242.27C173.05 241.63 185.17 238.44 206.97 232.7C229.72 239.56 242.36 243.37 244.89 244.13Z" id="d3OthNsEU6"></path><path d="M244.89 244.13C238.45 255.24 234.87 261.42 234.15 262.65C221.91 265.71 201.38 266.79 180.74 260.18C180.07 258.99 176.7 253.02 170.63 242.27C173.05 241.63 185.17 238.44 206.97 232.7C229.72 239.56 242.36 243.37 244.89 244.13Z" id="e1kf5MQDwA"></path><path d="M291.98 220.97C303.17 204.33 307.48 176.58 303.39 158.01C303.13 157.7 301.08 155.2 300.83 154.89C299.51 156.95 274.03 189.19 276.81 184.84C277.32 184.84 275.86 223.75 275.55 223.75C277.19 223.47 290.33 221.24 291.98 220.97Z" id="a79EiS2cpk"></path><path d="M291.98 220.97C303.17 204.33 307.48 176.58 303.39 158.01C303.13 157.7 301.08 155.2 300.83 154.89C299.51 156.95 274.03 189.19 276.81 184.84C277.32 184.84 275.86 223.75 275.55 223.75C277.19 223.47 290.33 221.24 291.98 220.97Z" id="b4Od5Rnsd"></path><path d="M235.92 85.9C256.39 89.46 276.34 105.43 287.87 120.61C287.87 119.79 252.48 106.5 252.48 107.33C250.82 105.19 237.57 88.04 235.92 85.9Z" id="b4IgC01IVv"></path><path d="M235.92 85.9C256.39 89.46 276.34 105.43 287.87 120.61C287.87 119.79 252.48 106.5 252.48 107.33C250.82 105.19 237.57 88.04 235.92 85.9Z" id="d3nXdZbNlP"></path><path d="M140.16 116.29C149.02 105.73 164.55 91.76 187.2 86.2C183.89 90.3 172.29 104.66 170.63 106.72C170.63 106.19 140.16 116.01 140.16 116.29Z" id="c4XNeBYuF6"></path><path d="M192.17 106.51L186.72 147.75L181.25 189L119.54 159.86L57.83 130.71L125 118.6L192.17 106.51Z" id="c3Y7ou5Daf"></path><path d="M140.16 116.29C149.02 105.73 164.55 91.76 187.2 86.2C183.89 90.3 172.29 104.66 170.63 106.72C170.63 106.19 140.16 116.01 140.16 116.29Z" id="awGLkfgpO"></path><path d="M169.81 105.66L188.8 132.68" id="b1eYgkM9PK"></path><path d="M169.81 105.66L188.8 132.68" id="aE0WUT6uz"></path><path d="M253.22 106.89L230.5 133.66" id="dPML8luGI"></path><path d="M253.22 106.89L230.5 133.66" id="a1t1cG3gzE"></path><path d="M242.29 171.67L276.81 185.15" id="g979qOOYZ"></path><path d="M242.29 171.67L276.81 185.15" id="abRqhikxc"></path><path d="M208.19 195.27L207.29 232.39" id="a7cxSVc7mX"></path><path d="M208.19 195.27L207.29 232.39" id="azRt5upRz"></path><path d="M175.01 170.71L140.96 181.13" id="a1Y4Pu1gJW"></path><path d="M175.01 170.71L140.96 181.13" id="bhkh9G6qn"></path><path d="M141.67 216.6C140.03 218.56 170.22 243.51 173.01 242.44" id="g2cJ1BX49"></path><path d="M141.67 216.6C140.03 218.56 170.22 243.51 173.01 242.44" id="c1Yq8DgJPE"></path><path d="M244.89 244.13L276.4 222.96" id="b2vRfsAcan"></path><path d="M244.89 244.13L276.4 222.96" id="a4Vn3D0eXa"></path><path d="M116.87 168.31C116.87 118.12 159.2 77.43 211.41 77.43C263.62 77.43 305.94 118.12 305.94 168.31C305.94 218.5 263.62 259.19 211.41 259.19C159.2 259.19 116.87 218.5 116.87 168.31Z" id="boHn4ucYm"></path><path d="M116.87 168.31C116.87 118.12 159.2 77.43 211.41 77.43C263.62 77.43 305.94 118.12 305.94 168.31C305.94 218.5 263.62 259.19 211.41 259.19C159.2 259.19 116.87 218.5 116.87 168.31Z" id="b1ORbkkHMi"></path><path d="M300.83 155.2L290.72 124.93" id="a5l5KIiTdW"></path><path d="M300.83 155.2L290.72 124.93" id="aGkpVJeWG"></path><path d="M112.21 169.75C112.21 116.39 157.15 73.14 212.59 73.14C268.02 73.14 312.96 116.39 312.96 169.75C312.96 223.1 268.02 266.36 212.59 266.36C157.15 266.36 112.21 223.1 112.21 169.75Z" id="f1WZX4IyXG"></path><linearGradient id="gradienta5ZknuoSE" gradientUnits="userSpaceOnUse" x1="215.75" y1="119.15" x2="250.28" y2="292.17"><stop style="stop-color: #ab2121;stop-opacity: 0" offset="0%"></stop><stop style="stop-color: #2b0707;stop-opacity: 1" offset="100%"></stop></linearGradient><path d="M112.21 169.75C112.21 116.39 157.15 73.14 212.59 73.14C268.02 73.14 312.96 116.39 312.96 169.75C312.96 223.1 268.02 266.36 212.59 266.36C157.15 266.36 112.21 223.1 112.21 169.75Z" id="f16Jq8HezL"></path><path d="M411.2 345.29L85.94 135.09L15.32 345.29L411.2 345.29Z" id="dalnBIlYR"></path><linearGradient id="gradientd1fNRKCiPS" gradientUnits="userSpaceOnUse" x1="150.29" y1="125.16" x2="150.29" y2="345.29"><stop style="stop-color: #de2d1d;stop-opacity: 1" offset="0%"></stop><stop style="stop-color: #841b11;stop-opacity: 1" offset="100%"></stop></linearGradient><path d="M411.2 345.29L85.94 135.09L15.32 345.29L411.2 345.29Z" id="a8pbUZ2gr"></path><path d="M17.02 345.53L332.35 135.33L412.9 345.53L17.02 345.53Z" id="dytPjdELg"></path><linearGradient id="gradienthhpzVZ1RV" gradientUnits="userSpaceOnUse" x1="227.25" y1="270.5" x2="218.04" y2="512.96"><stop style="stop-color: #dc4b3e;stop-opacity: 1" offset="0%"></stop><stop style="stop-color: #98261c;stop-opacity: 1" offset="100%"></stop></linearGradient><path d="M17.02 345.53L332.35 135.33L412.9 345.53L17.02 345.53Z" id="al2F00AbD"></path><path d="M412.53 344.84L332.46 135.24L211.66 216.05L412.53 344.84Z" id="eJhzvU9m7"></path><linearGradient id="gradienteG6evko3Y" gradientUnits="userSpaceOnUse" x1="320.23" y1="334.15" x2="319.87" y2="161.09"><stop style="stop-color: #de2d1d;stop-opacity: 1" offset="0%"></stop><stop style="stop-color: #841b11;stop-opacity: 1" offset="100%"></stop></linearGradient><path d="M412.53 344.84L332.46 135.24L211.66 216.05L412.53 344.84Z" id="bxqMIjxJi"></path></defs><g><g><g><use xlink:href="#g2EUd4zR5" opacity="1" fill="#e2b940" fill-opacity="1"></use><g><use xlink:href="#g2EUd4zR5" opacity="1" fill-opacity="0" stroke="#000000" stroke-width="1" stroke-opacity="0"></use></g></g><g><use xlink:href="#dszV0C9Rx" opacity="1" fill="#000000" fill-opacity="0"></use><g><use xlink:href="#dszV0C9Rx" opacity="1" fill-opacity="0" stroke="#ce451b" stroke-width="2" stroke-opacity="0"></use></g></g><g><use xlink:href="#hdqvfkcbX" opacity="1" fill="#e2ba40" fill-opacity="1"></use><g><use xlink:href="#hdqvfkcbX" opacity="1" fill-opacity="0" stroke="#000000" stroke-width="1" stroke-opacity="0"></use></g></g><g><use xlink:href="#c11Eo0TlFk" opacity="1" fill="#e2ba40" fill-opacity="1"></use><g><use xlink:href="#c11Eo0TlFk" opacity="1" fill-opacity="0" stroke="#000000" stroke-width="1" stroke-opacity="0"></use></g></g><g><use xlink:href="#aY2qoXPZF" opacity="1" fill="#e2ba40" fill-opacity="1"></use><g><use xlink:href="#aY2qoXPZF" opacity="1" fill-opacity="0" stroke="#000000" stroke-width="1" stroke-opacity="0"></use></g></g><g><use xlink:href="#i2WtVTAVGm" opacity="1" fill="#e2ba40" fill-opacity="1"></use><g><use xlink:href="#i2WtVTAVGm" opacity="1" fill-opacity="0" stroke="#000000" stroke-width="1" stroke-opacity="0"></use></g></g><g><use xlink:href="#c1WFeHz08" opacity="1" fill="#e2ba40" fill-opacity="1"></use><g><use xlink:href="#c1WFeHz08" opacity="1" fill-opacity="0" stroke="#000000" stroke-width="1" stroke-opacity="0"></use></g></g><g><use xlink:href="#e3z4A6utaL" opacity="1" fill="#e2ba40" fill-opacity="1"></use><g><use xlink:href="#e3z4A6utaL" opacity="1" fill-opacity="0" stroke="#000000" stroke-width="1" stroke-opacity="0"></use></g></g><g><use xlink:href="#b72NbbZdhI" opacity="1" fill="#000000" fill-opacity="1"></use><g><use xlink:href="#b72NbbZdhI" opacity="1" fill-opacity="0" stroke="#000000" stroke-width="1" stroke-opacity="0"></use></g></g><g><use xlink:href="#b3SKc8vRyp" opacity="1" fill="#000000" fill-opacity="0"></use><g><use xlink:href="#b3SKc8vRyp" opacity="1" fill-opacity="0" stroke="#000000" stroke-width="1" stroke-opacity="1"></use></g></g><g><use xlink:href="#g1j7gzFlgp" opacity="1" fill="#000000" fill-opacity="1"></use><g><use xlink:href="#g1j7gzFlgp" opacity="1" fill-opacity="0" stroke="#000000" stroke-width="1" stroke-opacity="0"></use></g></g><g><use xlink:href="#cntlZwozr" opacity="1" fill="#000000" fill-opacity="0"></use><g><use xlink:href="#cntlZwozr" opacity="1" fill-opacity="0" stroke="#000000" stroke-width="1" stroke-opacity="1"></use></g></g><g><use xlink:href="#d3OthNsEU6" opacity="1" fill="#000000" fill-opacity="1"></use><g><use xlink:href="#d3OthNsEU6" opacity="1" fill-opacity="0" stroke="#000000" stroke-width="1" stroke-opacity="0"></use></g></g><g><use xlink:href="#e1kf5MQDwA" opacity="1" fill="#000000" fill-opacity="0"></use><g><use xlink:href="#e1kf5MQDwA" opacity="1" fill-opacity="0" stroke="#000000" stroke-width="1" stroke-opacity="1"></use></g></g><g><use xlink:href="#a79EiS2cpk" opacity="1" fill="#000000" fill-opacity="1"></use><g><use xlink:href="#a79EiS2cpk" opacity="1" fill-opacity="0" stroke="#000000" stroke-width="1" stroke-opacity="0"></use></g></g><g><use xlink:href="#b4Od5Rnsd" opacity="1" fill="#000000" fill-opacity="0"></use><g><use xlink:href="#b4Od5Rnsd" opacity="1" fill-opacity="0" stroke="#000000" stroke-width="1" stroke-opacity="1"></use></g></g><g><use xlink:href="#b4IgC01IVv" opacity="1" fill="#000000" fill-opacity="1"></use><g><use xlink:href="#b4IgC01IVv" opacity="1" fill-opacity="0" stroke="#000000" stroke-width="1" stroke-opacity="0"></use></g></g><g><use xlink:href="#d3nXdZbNlP" opacity="1" fill="#000000" fill-opacity="0"></use><g><use xlink:href="#d3nXdZbNlP" opacity="1" fill-opacity="0" stroke="#000000" stroke-width="1" stroke-opacity="1"></use></g></g><g><use xlink:href="#c4XNeBYuF6" opacity="1" fill="#000000" fill-opacity="1"></use><g><use xlink:href="#c4XNeBYuF6" opacity="1" fill-opacity="0" stroke="#000000" stroke-width="1" stroke-opacity="0"></use></g></g><g><use xlink:href="#c3Y7ou5Daf" opacity="1" fill="#e2ba40" fill-opacity="1"></use><g><use xlink:href="#c3Y7ou5Daf" opacity="1" fill-opacity="0" stroke="#000000" stroke-width="1" stroke-opacity="0"></use></g></g><g><use xlink:href="#awGLkfgpO" opacity="1" fill="#000000" fill-opacity="0"></use><g><use xlink:href="#awGLkfgpO" opacity="1" fill-opacity="0" stroke="#000000" stroke-width="1" stroke-opacity="1"></use></g></g><g><use xlink:href="#b1eYgkM9PK" opacity="1" fill="#bada55" fill-opacity="1"></use><g><use xlink:href="#b1eYgkM9PK" opacity="1" fill-opacity="0" stroke="#000000" stroke-width="1" stroke-opacity="0"></use></g></g><g><use xlink:href="#aE0WUT6uz" opacity="1" fill="#000000" fill-opacity="0"></use><g><use xlink:href="#aE0WUT6uz" opacity="1" fill-opacity="0" stroke="#000000" stroke-width="1" stroke-opacity="1"></use></g></g><g><use xlink:href="#dPML8luGI" opacity="1" fill="#000000" fill-opacity="0"></use><g><use xlink:href="#dPML8luGI" opacity="1" fill-opacity="0" stroke="#000000" stroke-width="1" stroke-opacity="0"></use></g></g><g><use xlink:href="#a1t1cG3gzE" opacity="1" fill="#000000" fill-opacity="0"></use><g><use xlink:href="#a1t1cG3gzE" opacity="1" fill-opacity="0" stroke="#000000" stroke-width="1" stroke-opacity="1"></use></g></g><g><use xlink:href="#g979qOOYZ" opacity="1" fill="#ffae00" fill-opacity="1"></use><g><use xlink:href="#g979qOOYZ" opacity="1" fill-opacity="0" stroke="#000000" stroke-width="1" stroke-opacity="0"></use></g></g><g><use xlink:href="#abRqhikxc" opacity="1" fill="#000000" fill-opacity="0"></use><g><use xlink:href="#abRqhikxc" opacity="1" fill-opacity="0" stroke="#000000" stroke-width="1" stroke-opacity="1"></use></g></g><g><use xlink:href="#a7cxSVc7mX" opacity="1" fill="#000000" fill-opacity="0"></use><g><use xlink:href="#a7cxSVc7mX" opacity="1" fill-opacity="0" stroke="#000000" stroke-width="1" stroke-opacity="0"></use></g></g><g><use xlink:href="#azRt5upRz" opacity="1" fill="#000000" fill-opacity="0"></use><g><use xlink:href="#azRt5upRz" opacity="1" fill-opacity="0" stroke="#000000" stroke-width="1" stroke-opacity="1"></use></g></g><g><use xlink:href="#a1Y4Pu1gJW" opacity="1" fill="#000000" fill-opacity="0"></use><g><use xlink:href="#a1Y4Pu1gJW" opacity="1" fill-opacity="0" stroke="#000000" stroke-width="1" stroke-opacity="0"></use></g></g><g><use xlink:href="#bhkh9G6qn" opacity="1" fill="#000000" fill-opacity="0"></use><g><use xlink:href="#bhkh9G6qn" opacity="1" fill-opacity="0" stroke="#000000" stroke-width="1" stroke-opacity="1"></use></g></g><g><use xlink:href="#g2cJ1BX49" opacity="1" fill="#000000" fill-opacity="0"></use><g><use xlink:href="#g2cJ1BX49" opacity="1" fill-opacity="0" stroke="#000000" stroke-width="1" stroke-opacity="0"></use></g></g><g><use xlink:href="#c1Yq8DgJPE" opacity="1" fill="#000000" fill-opacity="0"></use><g><use xlink:href="#c1Yq8DgJPE" opacity="1" fill-opacity="0" stroke="#000000" stroke-width="1" stroke-opacity="1"></use></g></g><g><use xlink:href="#b2vRfsAcan" opacity="1" fill="#000000" fill-opacity="0"></use><g><use xlink:href="#b2vRfsAcan" opacity="1" fill-opacity="0" stroke="#000000" stroke-width="1" stroke-opacity="0"></use></g></g><g><use xlink:href="#a4Vn3D0eXa" opacity="1" fill="#000000" fill-opacity="0"></use><g><use xlink:href="#a4Vn3D0eXa" opacity="1" fill-opacity="0" stroke="#000000" stroke-width="1" stroke-opacity="1"></use></g></g><g><use xlink:href="#boHn4ucYm" opacity="1" fill="#bfb839" fill-opacity="0"></use><g><use xlink:href="#boHn4ucYm" opacity="1" fill-opacity="0" stroke="#000000" stroke-width="1" stroke-opacity="0"></use></g></g><g><use xlink:href="#b1ORbkkHMi" opacity="1" fill="#000000" fill-opacity="0"></use><g><use xlink:href="#b1ORbkkHMi" opacity="1" fill-opacity="0" stroke="#e2b940" stroke-width="8" stroke-opacity="1"></use></g></g><g><use xlink:href="#a5l5KIiTdW" opacity="1" fill="#000000" fill-opacity="0"></use><g><use xlink:href="#a5l5KIiTdW" opacity="1" fill-opacity="0" stroke="#000000" stroke-width="1" stroke-opacity="0"></use></g></g><g><use xlink:href="#aGkpVJeWG" opacity="1" fill="#000000" fill-opacity="0"></use><g><use xlink:href="#aGkpVJeWG" opacity="1" fill-opacity="0" stroke="#000000" stroke-width="1" stroke-opacity="1"></use></g></g><g><use xlink:href="#f1WZX4IyXG" opacity="1" fill="url(#gradienta5ZknuoSE)"></use><g><use xlink:href="#f1WZX4IyXG" opacity="1" fill-opacity="0" stroke="#000000" stroke-width="1" stroke-opacity="0"></use></g></g><g><use xlink:href="#f16Jq8HezL" opacity="1" fill="#000000" fill-opacity="0"></use><g><use xlink:href="#f16Jq8HezL" opacity="1" fill-opacity="0" stroke="#000000" stroke-width="4" stroke-opacity="1"></use></g></g><g><use xlink:href="#dalnBIlYR" opacity="1" fill="url(#gradientd1fNRKCiPS)"></use><g><use xlink:href="#dalnBIlYR" opacity="1" fill-opacity="0" stroke="#000000" stroke-width="1" stroke-opacity="0"></use></g></g><g><use xlink:href="#a8pbUZ2gr" opacity="1" fill="#000000" fill-opacity="0"></use><g><use xlink:href="#a8pbUZ2gr" opacity="1" fill-opacity="0" stroke="#bada55" stroke-width="1" stroke-opacity="0"></use></g></g><g><use xlink:href="#dytPjdELg" opacity="1" fill="url(#gradienthhpzVZ1RV)"></use><g><use xlink:href="#dytPjdELg" opacity="1" fill-opacity="0" stroke="#000000" stroke-width="1" stroke-opacity="0"></use></g></g><g><use xlink:href="#al2F00AbD" opacity="1" fill="#000000" fill-opacity="0"></use><g><use xlink:href="#al2F00AbD" opacity="1" fill-opacity="0" stroke="#bada55" stroke-width="1" stroke-opacity="0"></use></g></g><g><use xlink:href="#eJhzvU9m7" opacity="1" fill="url(#gradienteG6evko3Y)"></use><g><use xlink:href="#eJhzvU9m7" opacity="1" fill-opacity="0" stroke="#000000" stroke-width="1" stroke-opacity="0"></use></g></g><g><use xlink:href="#bxqMIjxJi" opacity="1" fill="#000000" fill-opacity="0"></use><g><use xlink:href="#bxqMIjxJi" opacity="1" fill-opacity="0" stroke="#bada55" stroke-width="1" stroke-opacity="0"></use></g></g></g></g></svg>