<?xml version="1.0" encoding="UTF-8" standalone="no"?>
<!DOCTYPE svg PUBLIC "-//W3C//DTD SVG 1.1//EN" "http://www.w3.org/Graphics/SVG/1.1/DTD/svg11.dtd">
<svg version="1.1" xmlns="http://www.w3.org/2000/svg" xmlns:xlink="http://www.w3.org/1999/xlink" preserveAspectRatio="xMidYMid meet" viewBox="0 0 460 460" width="460" height="460"><defs><path d="M-90 -88L517 -88L517 520.48L-90 520.48L-90 -88Z" id="c76PklCXE"></path><path d="M432.21 36.74L432.21 431.35L37.59 431.35L37.59 36.74L432.21 36.74ZM57.4 409.81C175.79 409.81 294.17 409.81 412.56 409.81C412.56 292.69 412.56 175.56 412.56 58.44C294.17 58.44 175.79 58.44 57.4 58.44C57.42 175.56 57.4 292.69 57.4 409.81Z" id="e3RljXp8I"></path><path d="M412.56 58.44C412.56 175.56 412.56 292.69 412.56 409.81C294.17 409.81 175.79 409.81 57.4 409.81C57.4 292.69 57.42 175.56 57.4 58.44C175.79 58.44 294.17 58.44 412.56 58.44ZM160.93 108.73C152.66 115.98 141.2 120.55 131 124.32C130.98 156.4 130.94 188.47 131.02 220.55C119.18 220.65 107.36 220.39 95.54 220.65C95.46 222.98 95.42 225.3 95.4 227.63C107.26 227.65 119.14 227.61 131 227.65C131.02 231.93 131.08 236.2 131.39 240.46C108.66 240.77 85.91 240.64 63.18 240.54C63.1 242.88 63.03 245.21 62.95 247.56C86.13 247.5 109.29 247.52 132.48 247.56C137.37 275.72 153.73 299.18 174.68 317.96C193.11 334.1 214.38 347.12 237.09 356.28C266.39 344.52 294.35 326.33 315.09 302.33C328.52 286.63 338.45 268.06 342 247.56C364.49 247.6 386.99 247.36 409.48 247.68C409.7 245.37 409.89 243.08 410.09 240.77C387.72 240.4 365.32 240.75 342.95 240.6C343.32 236.29 343.46 231.97 343.46 227.65C349.81 227.63 356.15 227.63 362.48 227.63C362.5 225.28 362.5 222.94 362.52 220.59C356.17 220.55 349.79 220.55 343.44 220.55C343.3 188.41 343.62 156.27 343.28 124.14C332.9 120.47 321.44 115.86 313.17 108.4C310.41 106.01 310.83 102.95 310.04 99.64C287.82 93.15 265.35 87.46 243.09 81.13C239.1 79.97 236.01 79.71 231.96 80.97C209.47 87.33 186.84 93.17 164.34 99.58C163.57 103.13 164.03 106.25 160.93 108.73ZM76.32 227.65C76.32 225.3 76.34 222.96 76.34 220.61C72 220.55 67.66 220.47 63.32 220.51C63.05 222.86 62.89 225.21 62.69 227.55C67.23 227.61 71.77 227.63 76.32 227.65ZM409.78 227.63C409.78 225.32 409.78 223.04 409.78 220.73C400.7 220.86 391.56 220.37 382.51 220.94C382.31 223.15 382.17 225.36 382.07 227.57C391.31 227.69 400.54 227.63 409.78 227.63ZM146.96 328C142.3 329.01 135.83 331.52 131.25 329.58C126.03 326.44 126.4 315.34 131.37 312.04C135.42 309.77 137.43 313.09 140.49 315.14C142.68 315.28 144.87 315.42 147.04 315.53C147.1 310.64 147.06 305.77 146.96 300.87C138.34 297.89 128.63 295.7 120.46 301.17C113.46 306.04 112.23 314.92 112.51 322.83C112.75 330.96 116.12 339.68 124.03 343.08C131.49 345.9 140.23 344.56 147.37 341.4C147.18 336.94 147.04 332.46 146.96 328ZM81.18 310.76C82.16 311.75 83.13 312.73 84.12 313.72C84.1 318.91 84.12 324.08 83.96 329.27C79.44 332.54 81.57 339.29 81.14 344.22C88.2 344.2 95.27 344.2 102.31 344.18C102.29 340.16 102.25 336.11 102.07 332.09C99.76 329.98 99.25 328.16 98.54 325.2C100.95 325.58 103.38 325.97 105.8 326.35C105.7 323.17 105.6 319.99 105.51 316.82C103.32 316.8 101.11 316.78 98.9 316.74C99.27 314.33 99.63 311.92 99.98 309.5C103.2 311.59 106.43 313.26 109.97 314.76C110.34 309.28 110.32 303.87 110.02 298.39C100.38 298.6 90.73 298.41 81.08 298.6C81.12 302.67 81.16 306.71 81.18 310.76ZM81.97 372.44C85.58 377.09 84.1 381.91 84.41 387.45C83.57 388.52 82.7 389.58 81.85 390.65C81.87 393.59 81.87 396.53 81.87 399.45C87.49 399.57 93.13 399.61 98.76 399.57C98.84 394.54 98.98 390.47 96.07 386.13C100.53 385.52 107.42 385.76 110.5 381.87C114.17 376.82 113.36 366.68 106.33 364.84C98.56 362.95 89.94 363.97 81.99 363.76C81.97 366.66 81.95 369.54 81.97 372.44ZM111.25 399.49C114.68 399.51 118.13 399.51 121.57 399.49C121.86 397.57 122.16 395.68 122.45 393.77C124.82 393.9 127.19 394.06 129.54 394.2C129.74 396 129.93 397.79 130.13 399.59C133.5 399.59 136.86 399.57 140.21 399.55C140.17 395.29 140.61 391.32 138.63 387.35C135.71 380.7 134.81 374.08 133.11 366.95C128.41 366.81 123.6 366.56 118.9 366.99C115.79 374.11 116.38 383.43 111.6 389.48C111.43 392.82 111.33 396.15 111.25 399.49ZM142.64 388.56C143.05 391.32 140.92 398.32 145.05 398.8C149.21 400.2 155.01 400.4 159.19 399.03C165.43 396.55 166.2 387.73 163.4 382.5C161.46 378.67 155.58 378.26 151.95 376.98C154.85 371.71 159.19 377.11 163.85 377.21C163.87 374.15 163.91 371.12 163.93 368.06C158.17 366.36 152.96 364.58 147.08 367.19C141.48 369.95 140.67 377.98 143.11 383.05C145.34 387.24 150.37 387.69 154.36 389.33C151.62 394.28 146.66 388.85 142.64 388.56ZM167.84 388.81C167.82 391.89 167.78 394.95 167.76 398.03C173.22 399.63 179.06 400.99 184.63 398.9C190.66 396.23 191.18 388.04 188.77 382.76C186.54 378.59 181.67 378.51 177.64 377.25C178.25 376.03 178.87 374.81 179.48 373.58C182.59 375.57 185.42 376.78 189.09 377.51C188.69 374.35 191.06 368.12 186.62 367.27C182.04 365.63 175.71 365.12 171.39 367.7C166.71 370.5 166.43 377.27 167.78 381.95C169.77 387.14 175.22 387.57 179.75 389.48C176.62 393.73 172.04 389.17 167.84 388.81ZM193.17 374.23C197.37 383.45 192.93 390.14 192.38 399.33C197.81 399.63 203.17 399.65 208.6 399.35C208.5 396.67 208.38 393.96 208.24 391.26C204.75 387.2 204.83 378.83 208.28 374.77C208.36 372.14 208.4 369.52 208.44 366.89C203.31 366.85 198.18 366.79 193.05 366.64C192.91 369.18 192.95 371.71 193.17 374.23ZM213.61 378.18C213.73 381.43 213.73 384.65 213.63 387.91C210.81 391.58 211.38 395.21 211.26 399.55C215.13 399.57 219.02 399.55 222.88 399.55C222.83 396.73 222.75 393.9 222.61 391.1C221.03 388.74 220.46 386.58 220.02 383.78C224.01 388.66 226.24 394.06 229.1 399.61C233.62 399.59 238.14 399.55 242.66 399.51C242.58 395.48 242.24 391.68 240.88 387.85C238.1 380.67 243.44 374.65 242.62 366.83C238.75 366.81 234.86 366.81 230.97 366.81C230.74 372.5 232.63 377.53 233.62 383.03C230.07 377.82 227.7 372.4 224.78 366.77C220.28 366.81 215.8 366.81 211.32 366.81C211.38 371.1 210.87 374.57 213.61 378.18ZM270.89 381.36C267.12 381.34 263.35 381.34 259.58 381.36C259.86 385.91 261.7 387.1 264.83 389.68C262.45 389.31 257.77 390.87 256.88 387.71C255.4 384.53 255.4 378.3 258.79 376.36C262.6 376.19 266.51 378.59 270.36 379.15C270.36 375.48 270.34 371.83 270.32 368.16C263.12 365.83 254.47 363.91 248.59 370.11C243.33 376.42 243.52 387.95 247.96 394.67C253.35 402.23 264.12 400.55 271.19 396.51C270.95 391.46 270.89 386.41 270.89 381.36ZM316.72 399.88C317.2 397.87 317.67 395.84 318.15 393.81C320.3 393.88 322.45 393.96 324.6 394.02C324.97 396.19 325.72 398.01 326.81 399.49C329.9 399.82 333.02 399.73 336.2 399.21C335.84 395.52 336.08 392.15 334.66 388.74C331.66 381.67 330.44 374.33 328.7 366.89C323.97 366.81 319.15 366.58 314.44 367.01C312.15 373.52 311.44 380.47 309.01 386.98C307.45 390.94 307.35 395.01 307.12 399.21C310.31 399.45 313.53 399.67 316.72 399.88ZM349.89 399.25C349.4 394.02 348 388.97 347.43 383.76C350.42 388.85 352.93 394.3 355.63 399.57C360.15 399.57 364.67 399.57 369.21 399.57C369.39 394.12 367.77 389.27 366.78 384C366.96 378.28 369.33 372.83 369.52 367.05C365.56 366.91 361.59 366.83 357.63 366.77C357.69 372.6 359.46 378 360.31 383.7C357.03 378.14 354.31 372.28 351.15 366.64C346.87 366.74 342.55 366.68 338.27 367.07C337.07 373.23 340.48 378.06 340.4 383.98C339.47 389.23 337.82 394.12 337.92 399.57C341.9 399.55 345.91 399.47 349.89 399.25ZM371.99 399.39C379.61 399.63 387.24 399.55 394.88 399.71C394.94 395.54 395 391.36 395.02 387.18C391.8 388.16 388.58 389.17 385.35 390.1C385.37 388.48 385.39 386.86 385.41 385.24C387.2 385.64 388.98 386.05 390.77 386.45C390.75 384.22 390.75 381.99 390.75 379.76C389.04 380.13 387.3 380.49 385.59 380.84C385.53 379.3 385.45 377.76 385.39 376.23C388.62 377.13 391.86 378.08 395.1 379.01C395 374.92 394.92 370.84 394.8 366.75C387.36 366.93 379.86 366.54 372.44 367.05C372.29 369.56 372.35 372.1 372.41 374.63C377.87 383.78 371.62 390.04 371.99 399.39ZM286.14 387.85C284.78 391.68 284.45 395.48 284.37 399.51C291.71 399.61 299.07 399.61 306.41 399.47C306.44 395.36 306.5 391.24 306.46 387.14C303.43 387.85 300.7 388.85 297.92 390.25C297.13 382.05 299.87 375 300.72 367.01C295.28 366.83 289.83 366.77 284.39 366.81C283.71 374.71 288.88 380.78 286.14 387.85Z" id="b2Xz5MbJsa"></path><path d="M310.04 99.64C310.83 102.95 310.41 106.01 313.17 108.4C321.44 115.86 332.9 120.47 343.28 124.14C343.62 156.27 343.3 188.41 343.44 220.55C343.46 222.92 343.46 225.28 343.46 227.65C343.46 231.97 343.32 236.29 342.95 240.6C342.67 242.92 342.36 245.23 342 247.56C338.45 268.06 328.52 286.63 315.09 302.33C294.35 326.33 266.39 344.52 237.09 356.28C214.38 347.12 193.11 334.1 174.68 317.96C153.73 299.18 137.37 275.72 132.48 247.56C132.06 245.19 131.67 242.84 131.39 240.46C131.08 236.2 131.02 231.93 131 227.65C131 225.28 131.02 222.92 131.02 220.55C130.94 188.47 130.98 156.4 131 124.32C141.2 120.55 152.66 115.98 160.93 108.73C164.03 106.25 163.57 103.13 164.34 99.58C186.84 93.17 209.47 87.33 231.96 80.97C236.01 79.71 239.1 79.97 243.09 81.13C265.35 87.46 287.82 93.15 310.04 99.64ZM165.69 113.51C156.92 121.89 146.7 124.44 136.42 129.53C135.73 153.78 136.35 178.19 136.15 202.48C136.4 220.59 134.79 240.4 140.31 257.72C147.22 281.3 162.92 301.49 181.49 317.13C197.31 330.29 215.11 341.4 234.11 349.33C239.06 351.8 244.02 348.19 248.55 346.37C274.88 333.69 300.84 315.53 318.3 291.8C330.32 275.46 338.21 256.4 339.36 236.02C340.07 221.57 339.51 207.07 339.67 192.61C339.45 171.62 340.11 150.48 339.4 129.51C329.12 124.42 318.84 121.87 310.1 113.45C308.18 111.56 308.18 107.89 307.45 105.42C285.98 99.28 264.34 93.72 242.85 87.66C239.18 86.6 236.54 86.62 232.87 87.68C211.38 93.74 189.78 99.32 168.31 105.44C167.62 107.93 167.7 111.67 165.69 113.51Z" id="b9uJErecn"></path><path d="M307.45 105.42C308.18 107.89 308.18 111.56 310.1 113.45C318.84 121.87 329.12 124.42 339.4 129.51C340.11 150.48 339.45 171.62 339.67 192.61C339.51 207.07 340.07 221.57 339.36 236.02C338.21 256.4 330.32 275.46 318.3 291.8C300.84 315.53 274.88 333.69 248.55 346.37C244.02 348.19 239.06 351.8 234.11 349.33C215.11 341.4 197.31 330.29 181.49 317.13C162.92 301.49 147.22 281.3 140.31 257.72C134.79 240.4 136.4 220.59 136.15 202.48C136.35 178.19 135.73 153.78 136.42 129.53C146.7 124.44 156.92 121.89 165.69 113.51C167.7 111.67 167.62 107.93 168.31 105.44C189.78 99.32 211.38 93.74 232.87 87.68C236.54 86.62 239.18 86.6 242.85 87.66C264.34 93.72 285.98 99.28 307.45 105.42ZM141.73 197.74C144.85 193.46 148.22 187.82 153.98 186.99C161.11 185.74 166.65 183.87 172.53 179.55C174.09 180.3 175.65 181.05 177.21 181.8C182.54 181.7 187.47 180.28 191.55 184.64C196.41 190.87 200.29 198.33 201.6 206.17C202.92 212.14 202.9 217.57 207.04 222.44C211.48 227.89 213.75 233.75 220.64 236.45C227.13 242.79 234.72 245.21 238.49 254.15C217.48 271.93 196.84 290.14 176.06 308.17C188.1 308.08 200.14 308.21 212.19 308.06C224.66 293.69 237.53 279.64 250.05 265.32C254.77 268.32 258.18 270.86 259.78 276.56C254.91 282.07 251.02 288.52 246.86 294.56C252.93 294.6 259.01 294.52 265.09 294.2C268.15 288.15 271.42 282.19 274.66 276.21C274.51 276.24 273.36 276.44 273.22 276.47C271.13 274.69 269.07 272.88 267.02 271.04C262.23 267.82 259.27 263.31 256.15 258.57C271.19 241.23 287.09 224.55 301.67 206.84C303.43 208.53 305.16 210.25 306.88 211.97C309.58 210.74 312.01 209.4 314.16 207.31C311.61 207.72 309.09 208.18 306.56 208.67C305.2 206.11 303.88 203.52 302.54 200.96C299.22 202.36 295.91 203.78 292.63 205.24C288 211.99 281.74 216.25 275.74 221.61C265.92 230.2 255.97 238.66 246.25 247.32C244.79 245.71 243.46 244.01 242.14 242.29C244.21 242.9 246.31 243.54 248.38 244.17C249.58 242.83 250.76 241.5 251.95 240.16C251.63 232.57 250.47 225.42 245.91 219.13C240.15 211.73 238.22 202.63 232 195.51C226.77 189.77 228.9 182.94 228.88 175.86C241.55 182.82 255.13 186.51 266.92 195.16C266.77 192.45 266.51 189.77 266.15 187.09C263.04 184.7 258.72 184.09 255.28 182.13C249.74 178.86 244.79 173.98 240.19 169.54C236.36 165.66 231.11 164.67 227.6 160.35C224.36 156.58 221.5 154.04 216.73 152.38C218.27 146.89 218.66 141.29 218.92 135.63C213.73 131.9 206.07 129.69 201.81 135.86C197.18 142.59 206.98 149.89 199.42 155.06C192.89 161.91 183.76 162.15 176.81 168.14C170.28 173.59 162.02 175.01 155.29 180.14C150.06 183.99 144.81 187.09 138.81 189.59C138.32 194.15 138.22 194.68 141.73 197.74ZM307.55 219.96C308.46 218.24 309.29 216.48 310.06 214.69C304.43 215.28 304.02 216.11 301.16 220.75C303.37 220.77 305.5 220.51 307.55 219.96ZM303.41 228.8C304.35 226.65 305.28 224.5 306.19 222.34C299.97 223.05 299.09 223.11 296.11 228.66C298.55 228.7 300.98 228.76 303.41 228.8ZM272.41 241.96C264.16 249.87 264.1 263.66 272.29 271.63C280.26 279.88 294.07 279.8 302.01 271.55C309.31 264.33 310.19 252.18 303.64 244.19C300.96 240.95 297.33 239.12 296.3 234.95C287.54 235.98 279.12 235.21 272.41 241.96Z" id="a5lqOa7Xi"></path><path d="M216.73 152.38C221.5 154.04 224.36 156.58 227.6 160.35C231.11 164.67 236.36 165.66 240.19 169.54C244.79 173.98 249.74 178.86 255.28 182.13C258.72 184.09 263.04 184.7 266.15 187.09C266.51 189.77 266.77 192.45 266.92 195.16C255.13 186.51 241.55 182.82 228.88 175.86C228.9 182.94 226.77 189.77 232 195.51C238.22 202.63 240.15 211.73 245.91 219.13C250.47 225.42 251.63 232.57 251.95 240.16C250.76 241.5 249.58 242.83 248.38 244.17C246.31 243.54 244.21 242.9 242.14 242.29C243.46 244.01 244.79 245.71 246.25 247.32C249.94 250.76 253.39 254.29 256.15 258.57C259.27 263.31 262.23 267.82 267.02 271.04C269.07 272.88 271.13 274.69 273.22 276.47C268.46 277.71 264.69 277.55 259.9 276.56C259.89 276.56 259.79 276.56 259.78 276.56C258.18 270.86 254.77 268.32 250.05 265.32C245.28 262.26 240.92 259.58 238.49 254.15C234.72 245.21 227.13 242.79 220.64 236.45C213.75 233.75 211.48 227.89 207.04 222.44C202.9 217.57 202.92 212.14 201.6 206.17C200.29 198.33 196.41 190.87 191.55 184.64C187.47 180.28 182.54 181.7 177.21 181.8C175.65 181.05 174.09 180.3 172.53 179.55C166.65 183.87 161.11 185.74 153.98 186.99C148.22 187.82 144.85 193.46 141.73 197.74C138.22 194.68 138.32 194.15 138.81 189.59C144.81 187.09 150.06 183.99 155.29 180.14C162.02 175.01 170.28 173.59 176.81 168.14C183.76 162.15 192.89 161.91 199.42 155.06C206.98 149.89 197.18 142.59 201.81 135.86C206.07 129.69 213.73 131.9 218.92 135.63C218.66 141.29 218.27 146.89 216.73 152.38Z" id="b2EYyW3dcv"></path><path d="M306.56 208.67C309.09 208.18 311.61 207.72 314.16 207.31C312.01 209.4 309.58 210.74 306.88 211.97C305.16 210.25 303.43 208.53 301.67 206.84C287.09 224.55 271.19 241.23 256.15 258.57C253.39 254.29 249.94 250.76 246.25 247.32C255.97 238.66 265.92 230.2 275.74 221.61C281.74 216.25 288 211.99 292.63 205.24C295.91 203.78 299.22 202.36 302.54 200.96C303.88 203.52 305.2 206.11 306.56 208.67Z" id="btTXvPXAT"></path><path d="M307.55 219.96C305.5 220.51 303.37 220.77 301.16 220.75C304.02 216.11 304.43 215.28 310.06 214.69C309.29 216.48 308.46 218.24 307.55 219.96Z" id="a56APTSc1R"></path><path d="M76.34 220.61C76.34 222.96 76.32 225.3 76.32 227.65C71.77 227.63 67.23 227.61 62.69 227.55C62.89 225.21 63.05 222.86 63.32 220.51C67.66 220.47 72 220.55 76.34 220.61Z" id="a4ePOISlpe"></path><path d="M131.02 220.55C131.02 222.92 131 225.28 131 227.65C119.14 227.61 107.26 227.65 95.4 227.63C95.42 225.3 95.46 222.98 95.54 220.65C107.36 220.39 119.18 220.65 131.02 220.55Z" id="bS3ItDsKl"></path><path d="M362.52 220.59C362.5 222.94 362.5 225.28 362.48 227.63C356.15 227.63 349.81 227.63 343.46 227.65C343.46 225.28 343.46 222.92 343.44 220.55C349.79 220.55 356.17 220.55 362.52 220.59Z" id="cjL7z8mTQ"></path><path d="M409.78 220.73C409.78 223.04 409.78 225.32 409.78 227.63C400.54 227.63 391.31 227.69 382.07 227.57C382.17 225.36 382.31 223.15 382.51 220.94C391.56 220.37 400.7 220.86 409.78 220.73Z" id="a18KX9Lvtu"></path><path d="M303.41 228.8C300.98 228.76 298.55 228.7 296.11 228.66C299.09 223.11 299.97 223.05 306.19 222.34C305.28 224.5 304.35 226.65 303.41 228.8Z" id="eEL2Dnom1"></path><path d="M303.64 244.19C310.19 252.18 309.31 264.33 302.01 271.55C294.07 279.8 280.26 279.88 272.29 271.63C264.1 263.66 264.16 249.87 272.41 241.96C279.12 235.21 287.54 235.98 296.3 234.95C297.33 239.12 300.96 240.95 303.64 244.19Z" id="b6b5eWhHF"></path><path d="M131.39 240.46C131.67 242.84 132.06 245.19 132.48 247.56C109.29 247.52 86.13 247.5 62.95 247.56C63.03 245.21 63.1 242.88 63.18 240.54C85.91 240.64 108.66 240.77 131.39 240.46Z" id="aLIs8pr8N"></path><path d="M410.09 240.77C409.89 243.08 409.7 245.37 409.48 247.68C386.99 247.36 364.49 247.6 342 247.56C342.36 245.23 342.67 242.92 342.95 240.6C365.32 240.75 387.72 240.4 410.09 240.77Z" id="gRq8ngI39"></path><path d="M250.05 265.32C237.53 279.64 224.66 293.69 212.19 308.06C200.14 308.21 188.1 308.08 176.06 308.17C196.84 290.14 217.48 271.93 238.49 254.15C240.92 259.58 245.28 262.26 250.05 265.32Z" id="acm2FxtgXQ"></path><path d="M259.9 276.56C264.69 277.55 268.46 277.71 273.22 276.47C273.36 276.44 274.51 276.24 274.66 276.21C271.42 282.19 268.15 288.15 265.09 294.2C259.01 294.52 252.93 294.6 246.86 294.56C251.02 288.52 254.91 282.07 259.78 276.56C259.81 276.56 259.89 276.56 259.9 276.56Z" id="hNE7roB2R"></path><path d="M147.04 315.53C144.87 315.42 142.68 315.28 140.49 315.14C137.43 313.09 135.42 309.77 131.37 312.04C126.4 315.34 126.03 326.44 131.25 329.58C135.83 331.52 142.3 329.01 146.96 328C147.04 332.46 147.18 336.94 147.37 341.4C140.23 344.56 131.49 345.9 124.03 343.08C116.12 339.68 112.75 330.96 112.51 322.83C112.23 314.92 113.46 306.04 120.46 301.17C128.63 295.7 138.34 297.89 146.96 300.87C147.06 305.77 147.1 310.64 147.04 315.53Z" id="e1qa6ky2LQ"></path><path d="M110.02 298.39C110.32 303.87 110.34 309.28 109.97 314.76C106.43 313.26 103.2 311.59 99.98 309.5C99.63 311.92 99.27 314.33 98.9 316.74C101.11 316.78 103.32 316.8 105.51 316.82C105.6 319.99 105.7 323.17 105.8 326.35C103.38 325.97 100.95 325.58 98.54 325.2C99.25 328.16 99.76 329.98 102.07 332.09C102.25 336.11 102.29 340.16 102.31 344.18C95.27 344.2 88.2 344.2 81.14 344.22C81.57 339.29 79.44 332.54 83.96 329.27C84.12 324.08 84.1 318.91 84.12 313.72C83.13 312.73 82.16 311.75 81.18 310.76C81.16 306.71 81.12 302.67 81.08 298.6C90.73 298.41 100.38 298.6 110.02 298.39Z" id="b1fT13V1"></path><path d="M106.33 364.84C113.36 366.68 114.17 376.82 110.5 381.87C107.42 385.76 100.53 385.52 96.07 386.13C98.98 390.47 98.84 394.54 98.76 399.57C93.13 399.61 87.49 399.57 81.87 399.45C81.87 396.53 81.87 393.59 81.85 390.65C82.7 389.58 83.57 388.52 84.41 387.45C84.1 381.91 85.58 377.09 81.97 372.44C81.95 369.54 81.97 366.66 81.99 363.76C89.94 363.97 98.56 362.95 106.33 364.84ZM100.53 374.27C100.75 371.83 98.01 371.61 96.33 370.68C96.11 373.78 96.11 376.86 96.11 379.95C98.62 378.22 101.13 378.1 100.53 374.27Z" id="a1bR6LficV"></path><path d="M133.11 366.95C134.81 374.08 135.71 380.7 138.63 387.35C140.61 391.32 140.17 395.29 140.21 399.55C136.86 399.57 133.5 399.59 130.13 399.59C129.93 397.79 129.74 396 129.54 394.2C127.19 394.06 124.82 393.9 122.45 393.77C122.16 395.68 121.86 397.57 121.57 399.49C118.13 399.51 114.68 399.51 111.25 399.49C111.33 396.15 111.43 392.82 111.6 389.48C116.38 383.43 115.79 374.11 118.9 366.99C123.6 366.56 128.41 366.81 133.11 366.95ZM123.62 386.53C125.1 386.6 126.58 386.68 128.06 386.76C127.35 383.01 126.54 379.3 125.53 375.63C124.84 379.26 124.23 382.89 123.62 386.53Z" id="a37ett4Ne"></path><path d="M163.85 377.21C159.19 377.11 154.85 371.71 151.95 376.98C155.58 378.26 161.46 378.67 163.4 382.5C166.2 387.73 165.43 396.55 159.19 399.03C155.01 400.4 149.21 400.2 145.05 398.8C140.92 398.32 143.05 391.32 142.64 388.56C146.66 388.85 151.62 394.28 154.36 389.33C150.37 387.69 145.34 387.24 143.11 383.05C140.67 377.98 141.48 369.95 147.08 367.19C152.96 364.58 158.17 366.36 163.93 368.06C163.91 371.12 163.87 374.15 163.85 377.21Z" id="a24ULuFvhw"></path><path d="M189.09 377.51C185.42 376.78 182.59 375.57 179.48 373.58C178.87 374.81 178.25 376.03 177.64 377.25C181.67 378.51 186.54 378.59 188.77 382.76C191.18 388.04 190.66 396.23 184.63 398.9C179.06 400.99 173.22 399.63 167.76 398.03C167.78 394.95 167.82 391.89 167.84 388.81C172.04 389.17 176.62 393.73 179.75 389.48C175.22 387.57 169.77 387.14 167.78 381.95C166.43 377.27 166.71 370.5 171.39 367.7C175.71 365.12 182.04 365.63 186.62 367.27C191.06 368.12 188.69 374.35 189.09 377.51Z" id="bku5CoqfX"></path><path d="M208.44 366.89C208.4 369.52 208.36 372.14 208.28 374.77C204.83 378.83 204.75 387.2 208.24 391.26C208.38 393.96 208.5 396.67 208.6 399.35C203.17 399.65 197.81 399.63 192.38 399.33C192.93 390.14 197.37 383.45 193.17 374.23C192.95 371.71 192.91 369.18 193.05 366.64C198.18 366.79 203.31 366.85 208.44 366.89Z" id="c6bIifE498"></path><path d="M224.78 366.77C227.7 372.4 230.07 377.82 233.62 383.03C232.63 377.53 230.74 372.5 230.97 366.81C234.86 366.81 238.75 366.81 242.62 366.83C243.44 374.65 238.1 380.67 240.88 387.85C242.24 391.68 242.58 395.48 242.66 399.51C238.14 399.55 233.62 399.59 229.1 399.61C226.24 394.06 224.01 388.66 220.02 383.78C220.46 386.58 221.03 388.74 222.61 391.1C222.75 393.9 222.83 396.73 222.88 399.55C219.02 399.55 215.13 399.57 211.26 399.55C211.38 395.21 210.81 391.58 213.63 387.91C213.73 384.65 213.73 381.43 213.61 378.18C210.87 374.57 211.38 371.1 211.32 366.81C215.8 366.81 220.28 366.81 224.78 366.77Z" id="a1MJ1DCYWr"></path><path d="M270.36 379.15C266.51 378.59 262.6 376.19 258.79 376.36C255.4 378.3 255.4 384.53 256.88 387.71C257.77 390.87 262.45 389.31 264.83 389.68C261.7 387.1 259.86 385.91 259.58 381.36C263.35 381.34 267.12 381.34 270.89 381.36C270.89 386.41 270.95 391.46 271.19 396.51C264.12 400.55 253.35 402.23 247.96 394.67C243.52 387.95 243.33 376.42 248.59 370.11C254.47 363.91 263.12 365.83 270.32 368.16C270.34 371.83 270.36 375.48 270.36 379.15Z" id="a401dCBFdh"></path><path d="M328.7 366.89C330.44 374.33 331.66 381.67 334.66 388.74C336.08 392.15 335.84 395.52 336.2 399.21C333.02 399.73 329.9 399.82 326.81 399.49C325.72 398.01 324.97 396.19 324.6 394.02C322.45 393.96 320.3 393.88 318.15 393.81C317.67 395.84 317.2 397.87 316.72 399.88C313.53 399.67 310.31 399.45 307.12 399.21C307.35 395.01 307.45 390.94 309.01 386.98C311.44 380.47 312.15 373.52 314.44 367.01C319.15 366.58 323.97 366.81 328.7 366.89ZM320.65 375.93C320.91 379.68 317.22 387.02 323.04 387.24C323.31 383.33 322.62 379.9 321.12 376.28C321.11 376.25 321.05 376.09 320.93 375.79L320.75 375.4L320.73 375.34C320.68 375.69 320.66 375.89 320.65 375.93Z" id="b2C8862iYS"></path><path d="M351.15 366.64C354.31 372.28 357.03 378.14 360.31 383.7C359.46 378 357.69 372.6 357.63 366.77C361.59 366.83 365.56 366.91 369.52 367.05C369.33 372.83 366.96 378.28 366.78 384C367.77 389.27 369.39 394.12 369.21 399.57C364.67 399.57 360.15 399.57 355.63 399.57C352.93 394.3 350.42 388.85 347.43 383.76C348 388.97 349.4 394.02 349.89 399.25C345.91 399.47 341.9 399.55 337.92 399.57C337.82 394.12 339.47 389.23 340.4 383.98C340.48 378.06 337.07 373.23 338.27 367.07C342.55 366.68 346.87 366.74 351.15 366.64Z" id="f122ZUk5Tl"></path><path d="M394.8 366.75C394.92 370.84 395 374.92 395.1 379.01C391.86 378.08 388.62 377.13 385.39 376.23C385.45 377.76 385.53 379.3 385.59 380.84C387.3 380.49 389.04 380.13 390.75 379.76C390.75 381.99 390.75 384.22 390.77 386.45C388.98 386.05 387.2 385.64 385.41 385.24C385.39 386.86 385.37 388.48 385.35 390.1C388.58 389.17 391.8 388.16 395.02 387.18C395 391.36 394.94 395.54 394.88 399.71C387.24 399.55 379.61 399.63 371.99 399.39C371.62 390.04 377.87 383.78 372.41 374.63C372.35 372.1 372.29 369.56 372.44 367.05C379.86 366.54 387.36 366.93 394.8 366.75Z" id="cw5yOxUmc"></path><path d="M300.72 367.01C299.87 375 297.13 382.05 297.92 390.25C300.7 388.85 303.43 387.85 306.46 387.14C306.5 391.24 306.44 395.36 306.41 399.47C299.07 399.61 291.71 399.61 284.37 399.51C284.45 395.48 284.78 391.68 286.14 387.85C288.88 380.78 283.71 374.71 284.39 366.81C289.83 366.77 295.28 366.83 300.72 367.01Z" id="a1zwaEhlwg"></path><path d="M100.53 374.27C101.13 378.1 98.62 378.22 96.11 379.95C96.11 376.86 96.11 373.78 96.33 370.68C98.01 371.61 100.75 371.83 100.53 374.27Z" id="buGVeWIjv"></path><path d="M320.75 375.4L320.93 375.79C321.05 376.09 321.11 376.25 321.12 376.28C322.62 379.9 323.31 383.33 323.04 387.24C317.22 387.02 320.91 379.68 320.65 375.93C320.66 375.89 320.68 375.69 320.73 375.34L320.75 375.4Z" id="d1wbRGB4za"></path><path d="M128.06 386.76C126.58 386.68 125.1 386.6 123.62 386.53C124.23 382.89 124.84 379.26 125.53 375.63C126.54 379.3 127.35 383.01 128.06 386.76Z" id="f2FnxcaqLA"></path><path d="M432.21 36.74L432.21 431.35L37.59 431.35L37.59 36.74L432.21 36.74ZM57.4 409.81C175.79 409.81 294.17 409.81 412.56 409.81C412.56 292.69 412.56 175.56 412.56 58.44C294.17 58.44 175.79 58.44 57.4 58.44C57.42 175.56 57.4 292.69 57.4 409.81Z" id="a2qLJNBHNu"></path><path d="M412.56 58.44C412.56 175.56 412.56 292.69 412.56 409.81C294.17 409.81 175.79 409.81 57.4 409.81C57.4 292.69 57.42 175.56 57.4 58.44C175.79 58.44 294.17 58.44 412.56 58.44ZM160.93 108.73C152.66 115.98 141.2 120.55 131 124.32C130.98 156.4 130.94 188.47 131.02 220.55C119.18 220.65 107.36 220.39 95.54 220.65C95.46 222.98 95.42 225.3 95.4 227.63C107.26 227.65 119.14 227.61 131 227.65C131.02 231.93 131.08 236.2 131.39 240.46C108.66 240.77 85.91 240.64 63.18 240.54C63.1 242.88 63.03 245.21 62.95 247.56C86.13 247.5 109.29 247.52 132.48 247.56C137.37 275.72 153.73 299.18 174.68 317.96C193.11 334.1 214.38 347.12 237.09 356.28C266.39 344.52 294.35 326.33 315.09 302.33C328.52 286.63 338.45 268.06 342 247.56C364.49 247.6 386.99 247.36 409.48 247.68C409.7 245.37 409.89 243.08 410.09 240.77C387.72 240.4 365.32 240.75 342.95 240.6C343.32 236.29 343.46 231.97 343.46 227.65C349.81 227.63 356.15 227.63 362.48 227.63C362.5 225.28 362.5 222.94 362.52 220.59C356.17 220.55 349.79 220.55 343.44 220.55C343.3 188.41 343.62 156.27 343.28 124.14C332.9 120.47 321.44 115.86 313.17 108.4C310.41 106.01 310.83 102.95 310.04 99.64C287.82 93.15 265.35 87.46 243.09 81.13C239.1 79.97 236.01 79.71 231.96 80.97C209.47 87.33 186.84 93.17 164.34 99.58C163.57 103.13 164.03 106.25 160.93 108.73ZM76.32 227.65C76.32 225.3 76.34 222.96 76.34 220.61C72 220.55 67.66 220.47 63.32 220.51C63.05 222.86 62.89 225.21 62.69 227.55C67.23 227.61 71.77 227.63 76.32 227.65ZM409.78 227.63C409.78 225.32 409.78 223.04 409.78 220.73C400.7 220.86 391.56 220.37 382.51 220.94C382.31 223.15 382.17 225.36 382.07 227.57C391.31 227.69 400.54 227.63 409.78 227.63ZM146.96 328C142.3 329.01 135.83 331.52 131.25 329.58C126.03 326.44 126.4 315.34 131.37 312.04C135.42 309.77 137.43 313.09 140.49 315.14C142.68 315.28 144.87 315.42 147.04 315.53C147.1 310.64 147.06 305.77 146.96 300.87C138.34 297.89 128.63 295.7 120.46 301.17C113.46 306.04 112.23 314.92 112.51 322.83C112.75 330.96 116.12 339.68 124.03 343.08C131.49 345.9 140.23 344.56 147.37 341.4C147.18 336.94 147.04 332.46 146.96 328ZM81.18 310.76C82.16 311.75 83.13 312.73 84.12 313.72C84.1 318.91 84.12 324.08 83.96 329.27C79.44 332.54 81.57 339.29 81.14 344.22C88.2 344.2 95.27 344.2 102.31 344.18C102.29 340.16 102.25 336.11 102.07 332.09C99.76 329.98 99.25 328.16 98.54 325.2C100.95 325.58 103.38 325.97 105.8 326.35C105.7 323.17 105.6 319.99 105.51 316.82C103.32 316.8 101.11 316.78 98.9 316.74C99.27 314.33 99.63 311.92 99.98 309.5C103.2 311.59 106.43 313.26 109.97 314.76C110.34 309.28 110.32 303.87 110.02 298.39C100.38 298.6 90.73 298.41 81.08 298.6C81.12 302.67 81.16 306.71 81.18 310.76ZM81.97 372.44C85.58 377.09 84.1 381.91 84.41 387.45C83.57 388.52 82.7 389.58 81.85 390.65C81.87 393.59 81.87 396.53 81.87 399.45C87.49 399.57 93.13 399.61 98.76 399.57C98.84 394.54 98.98 390.47 96.07 386.13C100.53 385.52 107.42 385.76 110.5 381.87C114.17 376.82 113.36 366.68 106.33 364.84C98.56 362.95 89.94 363.97 81.99 363.76C81.97 366.66 81.95 369.54 81.97 372.44ZM111.25 399.49C114.68 399.51 118.13 399.51 121.57 399.49C121.86 397.57 122.16 395.68 122.45 393.77C124.82 393.9 127.19 394.06 129.54 394.2C129.74 396 129.93 397.79 130.13 399.59C133.5 399.59 136.86 399.57 140.21 399.55C140.17 395.29 140.61 391.32 138.63 387.35C135.71 380.7 134.81 374.08 133.11 366.95C128.41 366.81 123.6 366.56 118.9 366.99C115.79 374.11 116.38 383.43 111.6 389.48C111.43 392.82 111.33 396.15 111.25 399.49ZM142.64 388.56C143.05 391.32 140.92 398.32 145.05 398.8C149.21 400.2 155.01 400.4 159.19 399.03C165.43 396.55 166.2 387.73 163.4 382.5C161.46 378.67 155.58 378.26 151.95 376.98C154.85 371.71 159.19 377.11 163.85 377.21C163.87 374.15 163.91 371.12 163.93 368.06C158.17 366.36 152.96 364.58 147.08 367.19C141.48 369.95 140.67 377.98 143.11 383.05C145.34 387.24 150.37 387.69 154.36 389.33C151.62 394.28 146.66 388.85 142.64 388.56ZM167.84 388.81C167.82 391.89 167.78 394.95 167.76 398.03C173.22 399.63 179.06 400.99 184.63 398.9C190.66 396.23 191.18 388.04 188.77 382.76C186.54 378.59 181.67 378.51 177.64 377.25C178.25 376.03 178.87 374.81 179.48 373.58C182.59 375.57 185.42 376.78 189.09 377.51C188.69 374.35 191.06 368.12 186.62 367.27C182.04 365.63 175.71 365.12 171.39 367.7C166.71 370.5 166.43 377.27 167.78 381.95C169.77 387.14 175.22 387.57 179.75 389.48C176.62 393.73 172.04 389.17 167.84 388.81ZM193.17 374.23C197.37 383.45 192.93 390.14 192.38 399.33C197.81 399.63 203.17 399.65 208.6 399.35C208.5 396.67 208.38 393.96 208.24 391.26C204.75 387.2 204.83 378.83 208.28 374.77C208.36 372.14 208.4 369.52 208.44 366.89C203.31 366.85 198.18 366.79 193.05 366.64C192.91 369.18 192.95 371.71 193.17 374.23ZM213.61 378.18C213.73 381.43 213.73 384.65 213.63 387.91C210.81 391.58 211.38 395.21 211.26 399.55C215.13 399.57 219.02 399.55 222.88 399.55C222.83 396.73 222.75 393.9 222.61 391.1C221.03 388.74 220.46 386.58 220.02 383.78C224.01 388.66 226.24 394.06 229.1 399.61C233.62 399.59 238.14 399.55 242.66 399.51C242.58 395.48 242.24 391.68 240.88 387.85C238.1 380.67 243.44 374.65 242.62 366.83C238.75 366.81 234.86 366.81 230.97 366.81C230.74 372.5 232.63 377.53 233.62 383.03C230.07 377.82 227.7 372.4 224.78 366.77C220.28 366.81 215.8 366.81 211.32 366.81C211.38 371.1 210.87 374.57 213.61 378.18ZM270.89 381.36C267.12 381.34 263.35 381.34 259.58 381.36C259.86 385.91 261.7 387.1 264.83 389.68C262.45 389.31 257.77 390.87 256.88 387.71C255.4 384.53 255.4 378.3 258.79 376.36C262.6 376.19 266.51 378.59 270.36 379.15C270.36 375.48 270.34 371.83 270.32 368.16C263.12 365.83 254.47 363.91 248.59 370.11C243.33 376.42 243.52 387.95 247.96 394.67C253.35 402.23 264.12 400.55 271.19 396.51C270.95 391.46 270.89 386.41 270.89 381.36ZM316.72 399.88C317.2 397.87 317.67 395.84 318.15 393.81C320.3 393.88 322.45 393.96 324.6 394.02C324.97 396.19 325.72 398.01 326.81 399.49C329.9 399.82 333.02 399.73 336.2 399.21C335.84 395.52 336.08 392.15 334.66 388.74C331.66 381.67 330.44 374.33 328.7 366.89C323.97 366.81 319.15 366.58 314.44 367.01C312.15 373.52 311.44 380.47 309.01 386.98C307.45 390.94 307.35 395.01 307.12 399.21C310.31 399.45 313.53 399.67 316.72 399.88ZM349.89 399.25C349.4 394.02 348 388.97 347.43 383.76C350.42 388.85 352.93 394.3 355.63 399.57C360.15 399.57 364.67 399.57 369.21 399.57C369.39 394.12 367.77 389.27 366.78 384C366.96 378.28 369.33 372.83 369.52 367.05C365.56 366.91 361.59 366.83 357.63 366.77C357.69 372.6 359.46 378 360.31 383.7C357.03 378.14 354.31 372.28 351.15 366.64C346.87 366.74 342.55 366.68 338.27 367.07C337.07 373.23 340.48 378.06 340.4 383.98C339.47 389.23 337.82 394.12 337.92 399.57C341.9 399.55 345.91 399.47 349.89 399.25ZM371.99 399.39C379.61 399.63 387.24 399.55 394.88 399.71C394.94 395.54 395 391.36 395.02 387.18C391.8 388.16 388.58 389.17 385.35 390.1C385.37 388.48 385.39 386.86 385.41 385.24C387.2 385.64 388.98 386.05 390.77 386.45C390.75 384.22 390.75 381.99 390.75 379.76C389.04 380.13 387.3 380.49 385.59 380.84C385.53 379.3 385.45 377.76 385.39 376.23C388.62 377.13 391.86 378.08 395.1 379.01C395 374.92 394.92 370.84 394.8 366.75C387.36 366.93 379.86 366.54 372.44 367.05C372.29 369.56 372.35 372.1 372.41 374.63C377.87 383.78 371.62 390.04 371.99 399.39ZM286.14 387.85C284.78 391.68 284.45 395.48 284.37 399.51C291.71 399.61 299.07 399.61 306.41 399.47C306.44 395.36 306.5 391.24 306.46 387.14C303.43 387.85 300.7 388.85 297.92 390.25C297.13 382.05 299.87 375 300.72 367.01C295.28 366.83 289.83 366.77 284.39 366.81C283.71 374.71 288.88 380.78 286.14 387.85Z" id="dirFqbpwA"></path><path d="M310.04 99.64C310.83 102.95 310.41 106.01 313.17 108.4C321.44 115.86 332.9 120.47 343.28 124.14C343.62 156.27 343.3 188.41 343.44 220.55C343.46 222.92 343.46 225.28 343.46 227.65C343.46 231.97 343.32 236.29 342.95 240.6C342.67 242.92 342.36 245.23 342 247.56C338.45 268.06 328.52 286.63 315.09 302.33C294.35 326.33 266.39 344.52 237.09 356.28C214.38 347.12 193.11 334.1 174.68 317.96C153.73 299.18 137.37 275.72 132.48 247.56C132.06 245.19 131.67 242.84 131.39 240.46C131.08 236.2 131.02 231.93 131 227.65C131 225.28 131.02 222.92 131.02 220.55C130.94 188.47 130.98 156.4 131 124.32C141.2 120.55 152.66 115.98 160.93 108.73C164.03 106.25 163.57 103.13 164.34 99.58C186.84 93.17 209.47 87.33 231.96 80.97C236.01 79.71 239.1 79.97 243.09 81.13C265.35 87.46 287.82 93.15 310.04 99.64ZM165.69 113.51C156.92 121.89 146.7 124.44 136.42 129.53C135.73 153.78 136.35 178.19 136.15 202.48C136.4 220.59 134.79 240.4 140.31 257.72C147.22 281.3 162.92 301.49 181.49 317.13C197.31 330.29 215.11 341.4 234.11 349.33C239.06 351.8 244.02 348.19 248.55 346.37C274.88 333.69 300.84 315.53 318.3 291.8C330.32 275.46 338.21 256.4 339.36 236.02C340.07 221.57 339.51 207.07 339.67 192.61C339.45 171.62 340.11 150.48 339.4 129.51C329.12 124.42 318.84 121.87 310.1 113.45C308.18 111.56 308.18 107.89 307.45 105.42C285.98 99.28 264.34 93.72 242.85 87.66C239.18 86.6 236.54 86.62 232.87 87.68C211.38 93.74 189.78 99.32 168.31 105.44C167.62 107.93 167.7 111.67 165.69 113.51Z" id="alBLRgZOh"></path><path d="M307.45 105.42C308.18 107.89 308.18 111.56 310.1 113.45C318.84 121.87 329.12 124.42 339.4 129.51C340.11 150.48 339.45 171.62 339.67 192.61C339.51 207.07 340.07 221.57 339.36 236.02C338.21 256.4 330.32 275.46 318.3 291.8C300.84 315.53 274.88 333.69 248.55 346.37C244.02 348.19 239.06 351.8 234.11 349.33C215.11 341.4 197.31 330.29 181.49 317.13C162.92 301.49 147.22 281.3 140.31 257.72C134.79 240.4 136.4 220.59 136.15 202.48C136.35 178.19 135.73 153.78 136.42 129.53C146.7 124.44 156.92 121.89 165.69 113.51C167.7 111.67 167.62 107.93 168.31 105.44C189.78 99.32 211.38 93.74 232.87 87.68C236.54 86.62 239.18 86.6 242.85 87.66C264.34 93.72 285.98 99.28 307.45 105.42ZM141.73 197.74C144.85 193.46 148.22 187.82 153.98 186.99C161.11 185.74 166.65 183.87 172.53 179.55C174.09 180.3 175.65 181.05 177.21 181.8C182.54 181.7 187.47 180.28 191.55 184.64C196.41 190.87 200.29 198.33 201.6 206.17C202.92 212.14 202.9 217.57 207.04 222.44C211.48 227.89 213.75 233.75 220.64 236.45C227.13 242.79 234.72 245.21 238.49 254.15C217.48 271.93 196.84 290.14 176.06 308.17C188.1 308.08 200.14 308.21 212.19 308.06C224.66 293.69 237.53 279.64 250.05 265.32C254.77 268.32 258.18 270.86 259.78 276.56C254.91 282.07 251.02 288.52 246.86 294.56C252.93 294.6 259.01 294.52 265.09 294.2C268.15 288.15 271.42 282.19 274.66 276.21C274.51 276.24 273.36 276.44 273.22 276.47C271.13 274.69 269.07 272.88 267.02 271.04C262.23 267.82 259.27 263.31 256.15 258.57C271.19 241.23 287.09 224.55 301.67 206.84C303.43 208.53 305.16 210.25 306.88 211.97C309.58 210.74 312.01 209.4 314.16 207.31C311.61 207.72 309.09 208.18 306.56 208.67C305.2 206.11 303.88 203.52 302.54 200.96C299.22 202.36 295.91 203.78 292.63 205.24C288 211.99 281.74 216.25 275.74 221.61C265.92 230.2 255.97 238.66 246.25 247.32C244.79 245.71 243.46 244.01 242.14 242.29C244.21 242.9 246.31 243.54 248.38 244.17C249.58 242.83 250.76 241.5 251.95 240.16C251.63 232.57 250.47 225.42 245.91 219.13C240.15 211.73 238.22 202.63 232 195.51C226.77 189.77 228.9 182.94 228.88 175.86C241.55 182.82 255.13 186.51 266.92 195.16C266.77 192.45 266.51 189.77 266.15 187.09C263.04 184.7 258.72 184.09 255.28 182.13C249.74 178.86 244.79 173.98 240.19 169.54C236.36 165.66 231.11 164.67 227.6 160.35C224.36 156.58 221.5 154.04 216.73 152.38C218.27 146.89 218.66 141.29 218.92 135.63C213.73 131.9 206.07 129.69 201.81 135.86C197.18 142.59 206.98 149.89 199.42 155.06C192.89 161.91 183.76 162.15 176.81 168.14C170.28 173.59 162.02 175.01 155.29 180.14C150.06 183.99 144.81 187.09 138.81 189.59C138.32 194.15 138.22 194.68 141.73 197.74ZM307.55 219.96C308.46 218.24 309.29 216.48 310.06 214.69C304.43 215.28 304.02 216.11 301.16 220.75C303.37 220.77 305.5 220.51 307.55 219.96ZM303.41 228.8C304.35 226.65 305.28 224.5 306.19 222.34C299.97 223.05 299.09 223.11 296.11 228.66C298.55 228.7 300.98 228.76 303.41 228.8ZM272.41 241.96C264.16 249.87 264.1 263.66 272.29 271.63C280.26 279.88 294.07 279.8 302.01 271.55C309.31 264.33 310.19 252.18 303.64 244.19C300.96 240.95 297.33 239.12 296.3 234.95C287.54 235.98 279.12 235.21 272.41 241.96Z" id="d1o81YH0Ah"></path><path d="M216.73 152.38C221.5 154.04 224.36 156.58 227.6 160.35C231.11 164.67 236.36 165.66 240.19 169.54C244.79 173.98 249.74 178.86 255.28 182.13C258.72 184.09 263.04 184.7 266.15 187.09C266.51 189.77 266.77 192.45 266.92 195.16C255.13 186.51 241.55 182.82 228.88 175.86C228.9 182.94 226.77 189.77 232 195.51C238.22 202.63 240.15 211.73 245.91 219.13C250.47 225.42 251.63 232.57 251.95 240.16C250.76 241.5 249.58 242.83 248.38 244.17C246.31 243.54 244.21 242.9 242.14 242.29C243.46 244.01 244.79 245.71 246.25 247.32C249.94 250.76 253.39 254.29 256.15 258.57C259.27 263.31 262.23 267.82 267.02 271.04C269.07 272.88 271.13 274.69 273.22 276.47C268.46 277.71 264.69 277.55 259.9 276.56C259.89 276.56 259.79 276.56 259.78 276.56C258.18 270.86 254.77 268.32 250.05 265.32C245.28 262.26 240.92 259.58 238.49 254.15C234.72 245.21 227.13 242.79 220.64 236.45C213.75 233.75 211.48 227.89 207.04 222.44C202.9 217.57 202.92 212.14 201.6 206.17C200.29 198.33 196.41 190.87 191.55 184.64C187.47 180.28 182.54 181.7 177.21 181.8C175.65 181.05 174.09 180.3 172.53 179.55C166.65 183.87 161.11 185.74 153.98 186.99C148.22 187.82 144.85 193.46 141.73 197.74C138.22 194.68 138.32 194.15 138.81 189.59C144.81 187.09 150.06 183.99 155.29 180.14C162.02 175.01 170.28 173.59 176.81 168.14C183.76 162.15 192.89 161.91 199.42 155.06C206.98 149.89 197.18 142.59 201.81 135.86C206.07 129.69 213.73 131.9 218.92 135.63C218.66 141.29 218.27 146.89 216.73 152.38Z" id="b8gYAMQjr"></path><path d="M306.56 208.67C309.09 208.18 311.61 207.72 314.16 207.31C312.01 209.4 309.58 210.74 306.88 211.97C305.16 210.25 303.43 208.53 301.67 206.84C287.09 224.55 271.19 241.23 256.15 258.57C253.39 254.29 249.94 250.76 246.25 247.32C255.97 238.66 265.92 230.2 275.74 221.61C281.74 216.25 288 211.99 292.63 205.24C295.91 203.78 299.22 202.36 302.54 200.96C303.88 203.52 305.2 206.11 306.56 208.67Z" id="d2RHewlvWJ"></path><path d="M307.55 219.96C305.5 220.51 303.37 220.77 301.16 220.75C304.02 216.11 304.43 215.28 310.06 214.69C309.29 216.48 308.46 218.24 307.55 219.96Z" id="a2wqyBh7k9"></path><path d="M76.34 220.61C76.34 222.96 76.32 225.3 76.32 227.65C71.77 227.63 67.23 227.61 62.69 227.55C62.89 225.21 63.05 222.86 63.32 220.51C67.66 220.47 72 220.55 76.34 220.61Z" id="e4GJcIQzkd"></path><path d="M131.02 220.55C131.02 222.92 131 225.28 131 227.65C119.14 227.61 107.26 227.65 95.4 227.63C95.42 225.3 95.46 222.98 95.54 220.65C107.36 220.39 119.18 220.65 131.02 220.55Z" id="c6bz2uSLaN"></path><path d="M362.52 220.59C362.5 222.94 362.5 225.28 362.48 227.63C356.15 227.63 349.81 227.63 343.46 227.65C343.46 225.28 343.46 222.92 343.44 220.55C349.79 220.55 356.17 220.55 362.52 220.59Z" id="aZ25zMlBA"></path><path d="M409.78 220.73C409.78 223.04 409.78 225.32 409.78 227.63C400.54 227.63 391.31 227.69 382.07 227.57C382.17 225.36 382.31 223.15 382.51 220.94C391.56 220.37 400.7 220.86 409.78 220.73Z" id="bg1a6JnrS"></path><path d="M303.41 228.8C300.98 228.76 298.55 228.7 296.11 228.66C299.09 223.11 299.97 223.05 306.19 222.34C305.28 224.5 304.35 226.65 303.41 228.8Z" id="hnvdHRcAN"></path><path d="M303.64 244.19C310.19 252.18 309.31 264.33 302.01 271.55C294.07 279.8 280.26 279.88 272.29 271.63C264.1 263.66 264.16 249.87 272.41 241.96C279.12 235.21 287.54 235.98 296.3 234.95C297.33 239.12 300.96 240.95 303.64 244.19Z" id="c4M51jcFsb"></path><path d="M131.39 240.46C131.67 242.84 132.06 245.19 132.48 247.56C109.29 247.52 86.13 247.5 62.95 247.56C63.03 245.21 63.1 242.88 63.18 240.54C85.91 240.64 108.66 240.77 131.39 240.46Z" id="esKHtD4Wj"></path><path d="M410.09 240.77C409.89 243.08 409.7 245.37 409.48 247.68C386.99 247.36 364.49 247.6 342 247.56C342.36 245.23 342.67 242.92 342.95 240.6C365.32 240.75 387.72 240.4 410.09 240.77Z" id="b1oY2F8X9v"></path><path d="M250.05 265.32C237.53 279.64 224.66 293.69 212.19 308.06C200.14 308.21 188.1 308.08 176.06 308.17C196.84 290.14 217.48 271.93 238.49 254.15C240.92 259.58 245.28 262.26 250.05 265.32Z" id="epVE6YRcV"></path><path d="M259.9 276.56C264.69 277.55 268.46 277.71 273.22 276.47C273.36 276.44 274.51 276.24 274.66 276.21C271.42 282.19 268.15 288.15 265.09 294.2C259.01 294.52 252.93 294.6 246.86 294.56C251.02 288.52 254.91 282.07 259.78 276.56C259.81 276.56 259.89 276.56 259.9 276.56Z" id="b1DAFg8ceH"></path><path d="M147.04 315.53C144.87 315.42 142.68 315.28 140.49 315.14C137.43 313.09 135.42 309.77 131.37 312.04C126.4 315.34 126.03 326.44 131.25 329.58C135.83 331.52 142.3 329.01 146.96 328C147.04 332.46 147.18 336.94 147.37 341.4C140.23 344.56 131.49 345.9 124.03 343.08C116.12 339.68 112.75 330.96 112.51 322.83C112.23 314.92 113.46 306.04 120.46 301.17C128.63 295.7 138.34 297.89 146.96 300.87C147.06 305.77 147.1 310.64 147.04 315.53Z" id="g1DLcfPslF"></path><path d="M110.02 298.39C110.32 303.87 110.34 309.28 109.97 314.76C106.43 313.26 103.2 311.59 99.98 309.5C99.63 311.92 99.27 314.33 98.9 316.74C101.11 316.78 103.32 316.8 105.51 316.82C105.6 319.99 105.7 323.17 105.8 326.35C103.38 325.97 100.95 325.58 98.54 325.2C99.25 328.16 99.76 329.98 102.07 332.09C102.25 336.11 102.29 340.16 102.31 344.18C95.27 344.2 88.2 344.2 81.14 344.22C81.57 339.29 79.44 332.54 83.96 329.27C84.12 324.08 84.1 318.91 84.12 313.72C83.13 312.73 82.16 311.75 81.18 310.76C81.16 306.71 81.12 302.67 81.08 298.6C90.73 298.41 100.38 298.6 110.02 298.39Z" id="bMSnJhAr7"></path><path d="M106.33 364.84C113.36 366.68 114.17 376.82 110.5 381.87C107.42 385.76 100.53 385.52 96.07 386.13C98.98 390.47 98.84 394.54 98.76 399.57C93.13 399.61 87.49 399.57 81.87 399.45C81.87 396.53 81.87 393.59 81.85 390.65C82.7 389.58 83.57 388.52 84.41 387.45C84.1 381.91 85.58 377.09 81.97 372.44C81.95 369.54 81.97 366.66 81.99 363.76C89.94 363.97 98.56 362.95 106.33 364.84ZM100.53 374.27C100.75 371.83 98.01 371.61 96.33 370.68C96.11 373.78 96.11 376.86 96.11 379.95C98.62 378.22 101.13 378.1 100.53 374.27Z" id="b493oY7Lzh"></path><path d="M133.11 366.95C134.81 374.08 135.71 380.7 138.63 387.35C140.61 391.32 140.17 395.29 140.21 399.55C136.86 399.57 133.5 399.59 130.13 399.59C129.93 397.79 129.74 396 129.54 394.2C127.19 394.06 124.82 393.9 122.45 393.77C122.16 395.68 121.86 397.57 121.57 399.49C118.13 399.51 114.68 399.51 111.25 399.49C111.33 396.15 111.43 392.82 111.6 389.48C116.38 383.43 115.79 374.11 118.9 366.99C123.6 366.56 128.41 366.81 133.11 366.95ZM123.62 386.53C125.1 386.6 126.58 386.68 128.06 386.76C127.35 383.01 126.54 379.3 125.53 375.63C124.84 379.26 124.23 382.89 123.62 386.53Z" id="dfTViL6TV"></path><path d="M163.85 377.21C159.19 377.11 154.85 371.71 151.95 376.98C155.58 378.26 161.46 378.67 163.4 382.5C166.2 387.73 165.43 396.55 159.19 399.03C155.01 400.4 149.21 400.2 145.05 398.8C140.92 398.32 143.05 391.32 142.64 388.56C146.66 388.85 151.62 394.28 154.36 389.33C150.37 387.69 145.34 387.24 143.11 383.05C140.67 377.98 141.48 369.95 147.08 367.19C152.96 364.58 158.17 366.36 163.93 368.06C163.91 371.12 163.87 374.15 163.85 377.21Z" id="g5CSXwKUr0"></path><path d="M189.09 377.51C185.42 376.78 182.59 375.57 179.48 373.58C178.87 374.81 178.25 376.03 177.64 377.25C181.67 378.51 186.54 378.59 188.77 382.76C191.18 388.04 190.66 396.23 184.63 398.9C179.06 400.99 173.22 399.63 167.76 398.03C167.78 394.95 167.82 391.89 167.84 388.81C172.04 389.17 176.62 393.73 179.75 389.48C175.22 387.57 169.77 387.14 167.78 381.95C166.43 377.27 166.71 370.5 171.39 367.7C175.71 365.12 182.04 365.63 186.62 367.27C191.06 368.12 188.69 374.35 189.09 377.51Z" id="btnTZg5kI"></path><path d="M208.44 366.89C208.4 369.52 208.36 372.14 208.28 374.77C204.83 378.83 204.75 387.2 208.24 391.26C208.38 393.96 208.5 396.67 208.6 399.35C203.17 399.65 197.81 399.63 192.38 399.33C192.93 390.14 197.37 383.45 193.17 374.23C192.95 371.71 192.91 369.18 193.05 366.64C198.18 366.79 203.31 366.85 208.44 366.89Z" id="acGM4wFY"></path><path d="M224.78 366.77C227.7 372.4 230.07 377.82 233.62 383.03C232.63 377.53 230.74 372.5 230.97 366.81C234.86 366.81 238.75 366.81 242.62 366.83C243.44 374.65 238.1 380.67 240.88 387.85C242.24 391.68 242.58 395.48 242.66 399.51C238.14 399.55 233.62 399.59 229.1 399.61C226.24 394.06 224.01 388.66 220.02 383.78C220.46 386.58 221.03 388.74 222.61 391.1C222.75 393.9 222.83 396.73 222.88 399.55C219.02 399.55 215.13 399.57 211.26 399.55C211.38 395.21 210.81 391.58 213.63 387.91C213.73 384.65 213.73 381.43 213.61 378.18C210.87 374.57 211.38 371.1 211.32 366.81C215.8 366.81 220.28 366.81 224.78 366.77Z" id="a40k67FjdO"></path><path d="M270.36 379.15C266.51 378.59 262.6 376.19 258.79 376.36C255.4 378.3 255.4 384.53 256.88 387.71C257.77 390.87 262.45 389.31 264.83 389.68C261.7 387.1 259.86 385.91 259.58 381.36C263.35 381.34 267.12 381.34 270.89 381.36C270.89 386.41 270.95 391.46 271.19 396.51C264.12 400.55 253.35 402.23 247.96 394.67C243.52 387.95 243.33 376.42 248.59 370.11C254.47 363.91 263.12 365.83 270.32 368.16C270.34 371.83 270.36 375.48 270.36 379.15Z" id="b3UHbzWbK3"></path><path d="M328.7 366.89C330.44 374.33 331.66 381.67 334.66 388.74C336.08 392.15 335.84 395.52 336.2 399.21C333.02 399.73 329.9 399.82 326.81 399.49C325.72 398.01 324.97 396.19 324.6 394.02C322.45 393.96 320.3 393.88 318.15 393.81C317.67 395.84 317.2 397.87 316.72 399.88C313.53 399.67 310.31 399.45 307.12 399.21C307.35 395.01 307.45 390.94 309.01 386.98C311.44 380.47 312.15 373.52 314.44 367.01C319.15 366.58 323.97 366.81 328.7 366.89ZM320.65 375.93C320.91 379.68 317.22 387.02 323.04 387.24C323.31 383.33 322.62 379.9 321.12 376.28C321.11 376.25 321.05 376.09 320.93 375.79L320.75 375.4L320.73 375.34C320.68 375.69 320.66 375.89 320.65 375.93Z" id="a1tLhh9GTJ"></path><path d="M351.15 366.64C354.31 372.28 357.03 378.14 360.31 383.7C359.46 378 357.69 372.6 357.63 366.77C361.59 366.83 365.56 366.91 369.52 367.05C369.33 372.83 366.96 378.28 366.78 384C367.77 389.27 369.39 394.12 369.21 399.57C364.67 399.57 360.15 399.57 355.63 399.57C352.93 394.3 350.42 388.85 347.43 383.76C348 388.97 349.4 394.02 349.89 399.25C345.91 399.47 341.9 399.55 337.92 399.57C337.82 394.12 339.47 389.23 340.4 383.98C340.48 378.06 337.07 373.23 338.27 367.07C342.55 366.68 346.87 366.74 351.15 366.64Z" id="f1W82voJDr"></path><path d="M394.8 366.75C394.92 370.84 395 374.92 395.1 379.01C391.86 378.08 388.62 377.13 385.39 376.23C385.45 377.76 385.53 379.3 385.59 380.84C387.3 380.49 389.04 380.13 390.75 379.76C390.75 381.99 390.75 384.22 390.77 386.45C388.98 386.05 387.2 385.64 385.41 385.24C385.39 386.86 385.37 388.48 385.35 390.1C388.58 389.17 391.8 388.16 395.02 387.18C395 391.36 394.94 395.54 394.88 399.71C387.24 399.55 379.61 399.63 371.99 399.39C371.62 390.04 377.87 383.78 372.41 374.63C372.35 372.1 372.29 369.56 372.44 367.05C379.86 366.54 387.36 366.93 394.8 366.75Z" id="bbgXKjRSO"></path><path d="M300.72 367.01C299.87 375 297.13 382.05 297.92 390.25C300.7 388.85 303.43 387.85 306.46 387.14C306.5 391.24 306.44 395.36 306.41 399.47C299.07 399.61 291.71 399.61 284.37 399.51C284.45 395.48 284.78 391.68 286.14 387.85C288.88 380.78 283.71 374.71 284.39 366.81C289.83 366.77 295.28 366.83 300.72 367.01Z" id="a5jCLP4LxX"></path><path d="M100.53 374.27C101.13 378.1 98.62 378.22 96.11 379.95C96.11 376.86 96.11 373.78 96.33 370.68C98.01 371.61 100.75 371.83 100.53 374.27Z" id="dpMGE38EB"></path><path d="M320.75 375.4L320.93 375.79C321.05 376.09 321.11 376.25 321.12 376.28C322.62 379.9 323.31 383.33 323.04 387.24C317.22 387.02 320.91 379.68 320.65 375.93C320.66 375.89 320.68 375.69 320.73 375.34L320.75 375.4Z" id="aLG4L8OAp"></path><path d="M128.06 386.76C126.58 386.68 125.1 386.6 123.62 386.53C124.23 382.89 124.84 379.26 125.53 375.63C126.54 379.3 127.35 383.01 128.06 386.76Z" id="ahlMXbxsS"></path></defs><g><g><g><use xlink:href="#c76PklCXE" opacity="1" fill="#ffffff" fill-opacity="1"></use></g><g><use xlink:href="#e3RljXp8I" opacity="1" fill="#000000" fill-opacity="1"></use><g><use xlink:href="#e3RljXp8I" opacity="1" fill-opacity="0" stroke="#ffffff" stroke-width="13.33" stroke-opacity="1"></use></g></g><g><use xlink:href="#b2Xz5MbJsa" opacity="1" fill="#000000" fill-opacity="1"></use><g><use xlink:href="#b2Xz5MbJsa" opacity="1" fill-opacity="0" stroke="#000000" stroke-width="13.33" stroke-opacity="1"></use></g></g><g><use xlink:href="#b9uJErecn" opacity="1" fill="#000000" fill-opacity="1"></use><g><use xlink:href="#b9uJErecn" opacity="1" fill-opacity="0" stroke="#359bd6" stroke-width="13.33" stroke-opacity="1"></use></g></g><g><use xlink:href="#a5lqOa7Xi" opacity="1" fill="#000000" fill-opacity="1"></use><g><use xlink:href="#a5lqOa7Xi" opacity="1" fill-opacity="0" stroke="#efe129" stroke-width="13.33" stroke-opacity="1"></use></g></g><g><use xlink:href="#b2EYyW3dcv" opacity="1" fill="#000000" fill-opacity="1"></use><g><use xlink:href="#b2EYyW3dcv" opacity="1" fill-opacity="0" stroke="#000000" stroke-width="13.33" stroke-opacity="1"></use></g></g><g><use xlink:href="#btTXvPXAT" opacity="1" fill="#000000" fill-opacity="1"></use><g><use xlink:href="#btTXvPXAT" opacity="1" fill-opacity="0" stroke="#359bd6" stroke-width="13.33" stroke-opacity="1"></use></g></g><g><use xlink:href="#a56APTSc1R" opacity="1" fill="#000000" fill-opacity="1"></use><g><use xlink:href="#a56APTSc1R" opacity="1" fill-opacity="0" stroke="#359bd6" stroke-width="13.33" stroke-opacity="1"></use></g></g><g><use xlink:href="#a4ePOISlpe" opacity="1" fill="#000000" fill-opacity="1"></use><g><use xlink:href="#a4ePOISlpe" opacity="1" fill-opacity="0" stroke="#ffffff" stroke-width="13.33" stroke-opacity="1"></use></g></g><g><use xlink:href="#bS3ItDsKl" opacity="1" fill="#000000" fill-opacity="1"></use><g><use xlink:href="#bS3ItDsKl" opacity="1" fill-opacity="0" stroke="#ffffff" stroke-width="13.33" stroke-opacity="1"></use></g></g><g><use xlink:href="#cjL7z8mTQ" opacity="1" fill="#000000" fill-opacity="1"></use><g><use xlink:href="#cjL7z8mTQ" opacity="1" fill-opacity="0" stroke="#ffffff" stroke-width="13.33" stroke-opacity="1"></use></g></g><g><use xlink:href="#a18KX9Lvtu" opacity="1" fill="#000000" fill-opacity="1"></use><g><use xlink:href="#a18KX9Lvtu" opacity="1" fill-opacity="0" stroke="#ffffff" stroke-width="13.33" stroke-opacity="1"></use></g></g><g><use xlink:href="#eEL2Dnom1" opacity="1" fill="#000000" fill-opacity="1"></use><g><use xlink:href="#eEL2Dnom1" opacity="1" fill-opacity="0" stroke="#359bd6" stroke-width="13.33" stroke-opacity="1"></use></g></g><g><use xlink:href="#b6b5eWhHF" opacity="1" fill="#000000" fill-opacity="1"></use><g><use xlink:href="#b6b5eWhHF" opacity="1" fill-opacity="0" stroke="#000000" stroke-width="13.33" stroke-opacity="1"></use></g></g><g><use xlink:href="#aLIs8pr8N" opacity="1" fill="#000000" fill-opacity="1"></use><g><use xlink:href="#aLIs8pr8N" opacity="1" fill-opacity="0" stroke="#ffffff" stroke-width="13.33" stroke-opacity="1"></use></g></g><g><use xlink:href="#gRq8ngI39" opacity="1" fill="#000000" fill-opacity="1"></use><g><use xlink:href="#gRq8ngI39" opacity="1" fill-opacity="0" stroke="#ffffff" stroke-width="13.33" stroke-opacity="1"></use></g></g><g><use xlink:href="#acm2FxtgXQ" opacity="1" fill="#000000" fill-opacity="1"></use><g><use xlink:href="#acm2FxtgXQ" opacity="1" fill-opacity="0" stroke="#359bd6" stroke-width="13.33" stroke-opacity="1"></use></g></g><g><use xlink:href="#hNE7roB2R" opacity="1" fill="#000000" fill-opacity="1"></use><g><use xlink:href="#hNE7roB2R" opacity="1" fill-opacity="0" stroke="#359bd6" stroke-width="13.33" stroke-opacity="1"></use></g></g><g><use xlink:href="#e1qa6ky2LQ" opacity="1" fill="#000000" fill-opacity="1"></use><g><use xlink:href="#e1qa6ky2LQ" opacity="1" fill-opacity="0" stroke="#359bd6" stroke-width="13.33" stroke-opacity="1"></use></g></g><g><use xlink:href="#b1fT13V1" opacity="1" fill="#000000" fill-opacity="1"></use><g><use xlink:href="#b1fT13V1" opacity="1" fill-opacity="0" stroke="#359bd6" stroke-width="13.33" stroke-opacity="1"></use></g></g><g><use xlink:href="#a1bR6LficV" opacity="1" fill="#000000" fill-opacity="1"></use><g><use xlink:href="#a1bR6LficV" opacity="1" fill-opacity="0" stroke="#efe129" stroke-width="13.33" stroke-opacity="1"></use></g></g><g><use xlink:href="#a37ett4Ne" opacity="1" fill="#000000" fill-opacity="1"></use><g><use xlink:href="#a37ett4Ne" opacity="1" fill-opacity="0" stroke="#efe129" stroke-width="13.33" stroke-opacity="1"></use></g></g><g><use xlink:href="#a24ULuFvhw" opacity="1" fill="#000000" fill-opacity="1"></use><g><use xlink:href="#a24ULuFvhw" opacity="1" fill-opacity="0" stroke="#efe129" stroke-width="13.33" stroke-opacity="1"></use></g></g><g><use xlink:href="#bku5CoqfX" opacity="1" fill="#000000" fill-opacity="1"></use><g><use xlink:href="#bku5CoqfX" opacity="1" fill-opacity="0" stroke="#efe129" stroke-width="13.33" stroke-opacity="1"></use></g></g><g><use xlink:href="#c6bIifE498" opacity="1" fill="#000000" fill-opacity="1"></use><g><use xlink:href="#c6bIifE498" opacity="1" fill-opacity="0" stroke="#efe129" stroke-width="13.33" stroke-opacity="1"></use></g></g><g><use xlink:href="#a1MJ1DCYWr" opacity="1" fill="#000000" fill-opacity="1"></use><g><use xlink:href="#a1MJ1DCYWr" opacity="1" fill-opacity="0" stroke="#efe129" stroke-width="13.33" stroke-opacity="1"></use></g></g><g><use xlink:href="#a401dCBFdh" opacity="1" fill="#000000" fill-opacity="1"></use><g><use xlink:href="#a401dCBFdh" opacity="1" fill-opacity="0" stroke="#efe129" stroke-width="13.33" stroke-opacity="1"></use></g></g><g><use xlink:href="#b2C8862iYS" opacity="1" fill="#000000" fill-opacity="1"></use><g><use xlink:href="#b2C8862iYS" opacity="1" fill-opacity="0" stroke="#efe129" stroke-width="13.33" stroke-opacity="1"></use></g></g><g><use xlink:href="#f122ZUk5Tl" opacity="1" fill="#000000" fill-opacity="1"></use><g><use xlink:href="#f122ZUk5Tl" opacity="1" fill-opacity="0" stroke="#efe129" stroke-width="13.33" stroke-opacity="1"></use></g></g><g><use xlink:href="#cw5yOxUmc" opacity="1" fill="#000000" fill-opacity="1"></use><g><use xlink:href="#cw5yOxUmc" opacity="1" fill-opacity="0" stroke="#efe129" stroke-width="13.33" stroke-opacity="1"></use></g></g><g><use xlink:href="#a1zwaEhlwg" opacity="1" fill="#000000" fill-opacity="1"></use><g><use xlink:href="#a1zwaEhlwg" opacity="1" fill-opacity="0" stroke="#efe129" stroke-width="13.33" stroke-opacity="1"></use></g></g><g><use xlink:href="#buGVeWIjv" opacity="1" fill="#000000" fill-opacity="1"></use><g><use xlink:href="#buGVeWIjv" opacity="1" fill-opacity="0" stroke="#000000" stroke-width="13.33" stroke-opacity="1"></use></g></g><g><use xlink:href="#d1wbRGB4za" opacity="1" fill="#000000" fill-opacity="1"></use><g><use xlink:href="#d1wbRGB4za" opacity="1" fill-opacity="0" stroke="#000000" stroke-width="13.33" stroke-opacity="1"></use></g></g><g><use xlink:href="#f2FnxcaqLA" opacity="1" fill="#000000" fill-opacity="1"></use><g><use xlink:href="#f2FnxcaqLA" opacity="1" fill-opacity="0" stroke="#000000" stroke-width="13.33" stroke-opacity="1"></use></g></g><g><use xlink:href="#a2qLJNBHNu" opacity="1" fill="#ffffff" fill-opacity="1"></use><g><use xlink:href="#a2qLJNBHNu" opacity="1" fill-opacity="0" stroke="#000000" stroke-width="1" stroke-opacity="0"></use></g></g><g><use xlink:href="#dirFqbpwA" opacity="1" fill="#000000" fill-opacity="1"></use><g><use xlink:href="#dirFqbpwA" opacity="1" fill-opacity="0" stroke="#000000" stroke-width="1" stroke-opacity="0"></use></g></g><g><use xlink:href="#alBLRgZOh" opacity="1" fill="#359bd6" fill-opacity="1"></use><g><use xlink:href="#alBLRgZOh" opacity="1" fill-opacity="0" stroke="#000000" stroke-width="1" stroke-opacity="0"></use></g></g><g><use xlink:href="#d1o81YH0Ah" opacity="1" fill="#efe129" fill-opacity="1"></use><g><use xlink:href="#d1o81YH0Ah" opacity="1" fill-opacity="0" stroke="#000000" stroke-width="1" stroke-opacity="0"></use></g></g><g><use xlink:href="#b8gYAMQjr" opacity="1" fill="#000000" fill-opacity="1"></use><g><use xlink:href="#b8gYAMQjr" opacity="1" fill-opacity="0" stroke="#000000" stroke-width="1" stroke-opacity="0"></use></g></g><g><use xlink:href="#d2RHewlvWJ" opacity="1" fill="#359bd6" fill-opacity="1"></use><g><use xlink:href="#d2RHewlvWJ" opacity="1" fill-opacity="0" stroke="#000000" stroke-width="1" stroke-opacity="0"></use></g></g><g><use xlink:href="#a2wqyBh7k9" opacity="1" fill="#359bd6" fill-opacity="1"></use><g><use xlink:href="#a2wqyBh7k9" opacity="1" fill-opacity="0" stroke="#000000" stroke-width="1" stroke-opacity="0"></use></g></g><g><use xlink:href="#e4GJcIQzkd" opacity="1" fill="#ffffff" fill-opacity="1"></use><g><use xlink:href="#e4GJcIQzkd" opacity="1" fill-opacity="0" stroke="#000000" stroke-width="1" stroke-opacity="0"></use></g></g><g><use xlink:href="#c6bz2uSLaN" opacity="1" fill="#ffffff" fill-opacity="1"></use><g><use xlink:href="#c6bz2uSLaN" opacity="1" fill-opacity="0" stroke="#000000" stroke-width="1" stroke-opacity="0"></use></g></g><g><use xlink:href="#aZ25zMlBA" opacity="1" fill="#ffffff" fill-opacity="1"></use><g><use xlink:href="#aZ25zMlBA" opacity="1" fill-opacity="0" stroke="#000000" stroke-width="1" stroke-opacity="0"></use></g></g><g><use xlink:href="#bg1a6JnrS" opacity="1" fill="#ffffff" fill-opacity="1"></use><g><use xlink:href="#bg1a6JnrS" opacity="1" fill-opacity="0" stroke="#000000" stroke-width="1" stroke-opacity="0"></use></g></g><g><use xlink:href="#hnvdHRcAN" opacity="1" fill="#359bd6" fill-opacity="1"></use><g><use xlink:href="#hnvdHRcAN" opacity="1" fill-opacity="0" stroke="#000000" stroke-width="1" stroke-opacity="0"></use></g></g><g><use xlink:href="#c4M51jcFsb" opacity="1" fill="#000000" fill-opacity="1"></use><g><use xlink:href="#c4M51jcFsb" opacity="1" fill-opacity="0" stroke="#000000" stroke-width="1" stroke-opacity="0"></use></g></g><g><use xlink:href="#esKHtD4Wj" opacity="1" fill="#ffffff" fill-opacity="1"></use><g><use xlink:href="#esKHtD4Wj" opacity="1" fill-opacity="0" stroke="#000000" stroke-width="1" stroke-opacity="0"></use></g></g><g><use xlink:href="#b1oY2F8X9v" opacity="1" fill="#ffffff" fill-opacity="1"></use><g><use xlink:href="#b1oY2F8X9v" opacity="1" fill-opacity="0" stroke="#000000" stroke-width="1" stroke-opacity="0"></use></g></g><g><use xlink:href="#epVE6YRcV" opacity="1" fill="#359bd6" fill-opacity="1"></use><g><use xlink:href="#epVE6YRcV" opacity="1" fill-opacity="0" stroke="#000000" stroke-width="1" stroke-opacity="0"></use></g></g><g><use xlink:href="#b1DAFg8ceH" opacity="1" fill="#359bd6" fill-opacity="1"></use><g><use xlink:href="#b1DAFg8ceH" opacity="1" fill-opacity="0" stroke="#000000" stroke-width="1" stroke-opacity="0"></use></g></g><g><use xlink:href="#g1DLcfPslF" opacity="1" fill="#359bd6" fill-opacity="1"></use><g><use xlink:href="#g1DLcfPslF" opacity="1" fill-opacity="0" stroke="#000000" stroke-width="1" stroke-opacity="0"></use></g></g><g><use xlink:href="#bMSnJhAr7" opacity="1" fill="#359bd6" fill-opacity="1"></use><g><use xlink:href="#bMSnJhAr7" opacity="1" fill-opacity="0" stroke="#000000" stroke-width="1" stroke-opacity="0"></use></g></g><g><use xlink:href="#b493oY7Lzh" opacity="1" fill="#efe129" fill-opacity="1"></use><g><use xlink:href="#b493oY7Lzh" opacity="1" fill-opacity="0" stroke="#000000" stroke-width="1" stroke-opacity="0"></use></g></g><g><use xlink:href="#dfTViL6TV" opacity="1" fill="#efe129" fill-opacity="1"></use><g><use xlink:href="#dfTViL6TV" opacity="1" fill-opacity="0" stroke="#000000" stroke-width="1" stroke-opacity="0"></use></g></g><g><use xlink:href="#g5CSXwKUr0" opacity="1" fill="#efe129" fill-opacity="1"></use><g><use xlink:href="#g5CSXwKUr0" opacity="1" fill-opacity="0" stroke="#000000" stroke-width="1" stroke-opacity="0"></use></g></g><g><use xlink:href="#btnTZg5kI" opacity="1" fill="#efe129" fill-opacity="1"></use><g><use xlink:href="#btnTZg5kI" opacity="1" fill-opacity="0" stroke="#000000" stroke-width="1" stroke-opacity="0"></use></g></g><g><use xlink:href="#acGM4wFY" opacity="1" fill="#efe129" fill-opacity="1"></use><g><use xlink:href="#acGM4wFY" opacity="1" fill-opacity="0" stroke="#000000" stroke-width="1" stroke-opacity="0"></use></g></g><g><use xlink:href="#a40k67FjdO" opacity="1" fill="#efe129" fill-opacity="1"></use><g><use xlink:href="#a40k67FjdO" opacity="1" fill-opacity="0" stroke="#000000" stroke-width="1" stroke-opacity="0"></use></g></g><g><use xlink:href="#b3UHbzWbK3" opacity="1" fill="#efe129" fill-opacity="1"></use><g><use xlink:href="#b3UHbzWbK3" opacity="1" fill-opacity="0" stroke="#000000" stroke-width="1" stroke-opacity="0"></use></g></g><g><use xlink:href="#a1tLhh9GTJ" opacity="1" fill="#efe129" fill-opacity="1"></use><g><use xlink:href="#a1tLhh9GTJ" opacity="1" fill-opacity="0" stroke="#000000" stroke-width="1" stroke-opacity="0"></use></g></g><g><use xlink:href="#f1W82voJDr" opacity="1" fill="#efe129" fill-opacity="1"></use><g><use xlink:href="#f1W82voJDr" opacity="1" fill-opacity="0" stroke="#000000" stroke-width="1" stroke-opacity="0"></use></g></g><g><use xlink:href="#bbgXKjRSO" opacity="1" fill="#efe129" fill-opacity="1"></use><g><use xlink:href="#bbgXKjRSO" opacity="1" fill-opacity="0" stroke="#000000" stroke-width="1" stroke-opacity="0"></use></g></g><g><use xlink:href="#a5jCLP4LxX" opacity="1" fill="#efe129" fill-opacity="1"></use><g><use xlink:href="#a5jCLP4LxX" opacity="1" fill-opacity="0" stroke="#000000" stroke-width="1" stroke-opacity="0"></use></g></g><g><use xlink:href="#dpMGE38EB" opacity="1" fill="#000000" fill-opacity="1"></use><g><use xlink:href="#dpMGE38EB" opacity="1" fill-opacity="0" stroke="#000000" stroke-width="1" stroke-opacity="0"></use></g></g><g><use xlink:href="#aLG4L8OAp" opacity="1" fill="#000000" fill-opacity="1"></use><g><use xlink:href="#aLG4L8OAp" opacity="1" fill-opacity="0" stroke="#000000" stroke-width="1" stroke-opacity="0"></use></g></g><g><use xlink:href="#ahlMXbxsS" opacity="1" fill="#000000" fill-opacity="1"></use><g><use xlink:href="#ahlMXbxsS" opacity="1" fill-opacity="0" stroke="#000000" stroke-width="1" stroke-opacity="0"></use></g></g></g></g></svg>