<?xml version="1.0" encoding="UTF-8" standalone="no"?>
<!DOCTYPE svg PUBLIC "-//W3C//DTD SVG 1.1//EN" "http://www.w3.org/Graphics/SVG/1.1/DTD/svg11.dtd">
<svg version="1.1" xmlns="http://www.w3.org/2000/svg" xmlns:xlink="http://www.w3.org/1999/xlink" preserveAspectRatio="xMidYMid meet" viewBox="0 0 640 640" width="640" height="640"><defs><path d="M-23.9 -12.93L664.72 -12.93L664.72 653.74L-23.9 653.74L-23.9 -12.93Z" id="bdhJrAiDa"></path><path d="M565 75L565 565L75 565L75 75L565 75ZM99.6 538.25C246.6 538.25 393.6 538.25 540.6 538.25C540.6 392.81 540.6 247.38 540.6 101.95C393.6 101.95 246.6 101.95 99.6 101.95C99.62 247.38 99.6 392.81 99.6 538.25Z" id="c3isxfuFi5"></path><path d="M540.6 101.95C540.6 247.38 540.6 392.81 540.6 538.25C393.6 538.25 246.6 538.25 99.6 538.25C99.6 392.81 99.62 247.38 99.6 101.95C246.6 101.95 393.6 101.95 540.6 101.95ZM228.15 164.4C217.88 173.39 203.65 179.08 190.98 183.76C190.96 223.59 190.91 263.41 191.01 303.24C176.31 303.36 161.63 303.05 146.96 303.36C146.86 306.26 146.81 309.15 146.79 312.04C161.51 312.06 176.26 312.01 190.98 312.06C191.01 317.38 191.08 322.67 191.47 327.96C163.25 328.35 135 328.18 106.78 328.06C106.68 330.98 106.58 333.87 106.48 336.78C135.27 336.71 164.03 336.73 192.82 336.78C198.9 371.74 219.21 400.87 245.23 424.2C268.11 444.24 294.52 460.41 322.72 471.78C359.1 457.18 393.82 434.59 419.57 404.79C436.25 385.29 448.58 362.24 452.99 336.78C480.92 336.83 508.85 336.54 536.78 336.93C537.05 334.06 537.29 331.22 537.54 328.35C509.75 327.89 481.95 328.33 454.16 328.13C454.63 322.79 454.8 317.43 454.8 312.06C462.69 312.04 470.55 312.04 478.42 312.04C478.44 309.12 478.44 306.21 478.47 303.29C470.58 303.24 462.66 303.24 454.77 303.24C454.6 263.33 455 223.42 454.58 183.54C441.69 178.98 427.46 173.25 417.19 163.98C413.76 161.02 414.28 157.22 413.3 153.11C385.71 145.05 357.8 137.99 330.17 130.13C325.22 128.68 321.37 128.36 316.35 129.93C288.42 137.82 260.32 145.07 232.39 153.03C231.43 157.44 232 161.31 228.15 164.4ZM123.09 312.06C123.09 309.15 123.12 306.23 123.12 303.32C117.73 303.24 112.34 303.14 106.95 303.19C106.61 306.11 106.41 309.02 106.16 311.94C111.8 312.01 117.43 312.04 123.09 312.06ZM537.14 312.04C537.14 309.17 537.14 306.33 537.14 303.46C525.87 303.63 514.53 303.02 503.28 303.73C503.04 306.48 502.87 309.22 502.75 311.96C514.21 312.11 525.68 312.04 537.14 312.04ZM210.8 436.67C205.02 437.92 196.99 441.03 191.3 438.63C184.81 434.73 185.27 420.94 191.45 416.85C196.47 414.03 198.97 418.15 202.77 420.7C205.49 420.87 208.21 421.04 210.9 421.19C210.98 415.11 210.93 409.06 210.8 402.98C200.1 399.28 188.04 396.56 177.9 403.35C169.2 409.4 167.68 420.43 168.03 430.25C168.32 440.34 172.51 451.17 182.33 455.39C191.6 458.89 202.45 457.22 211.32 453.3C211.07 447.77 210.9 442.21 210.8 436.67ZM129.12 415.26C130.35 416.48 131.55 417.71 132.77 418.93C132.75 425.37 132.77 431.79 132.58 438.24C126.96 442.3 129.61 450.68 129.07 456.81C137.84 456.78 146.61 456.78 155.36 456.76C155.34 451.76 155.29 446.74 155.07 441.74C152.2 439.12 151.56 436.87 150.68 433.19C153.67 433.66 156.68 434.15 159.7 434.61C159.57 430.67 159.45 426.72 159.33 422.78C156.61 422.75 153.87 422.73 151.12 422.68C151.59 419.69 152.03 416.7 152.47 413.69C156.46 416.29 160.48 418.37 164.87 420.23C165.33 413.42 165.31 406.71 164.94 399.89C152.96 400.16 140.98 399.92 129 400.16C129.05 405.21 129.1 410.23 129.12 415.26ZM130.1 491.84C134.58 497.63 132.75 503.6 133.14 510.49C132.09 511.81 131.01 513.13 129.95 514.46C129.98 518.11 129.98 521.76 129.98 525.38C136.96 525.53 143.97 525.58 150.95 525.53C151.05 519.28 151.22 514.24 147.62 508.85C153.16 508.09 161.71 508.38 165.53 503.55C170.08 497.28 169.08 484.69 160.36 482.41C150.71 480.06 140 481.33 130.13 481.06C130.1 484.66 130.08 488.24 130.1 491.84ZM166.46 525.43C170.72 525.46 175.01 525.46 179.27 525.43C179.64 523.06 180.01 520.7 180.37 518.33C183.31 518.5 186.25 518.7 189.17 518.87C189.42 521.1 189.66 523.33 189.91 525.56C194.09 525.56 198.26 525.53 202.42 525.51C202.38 520.21 202.91 515.29 200.46 510.37C196.84 502.11 195.71 493.88 193.6 485.03C187.77 484.86 181.8 484.54 175.96 485.08C172.09 493.93 172.83 505.49 166.9 513.01C166.68 517.15 166.56 521.29 166.46 525.43ZM205.44 511.86C205.95 515.29 203.31 523.99 208.43 524.58C213.6 526.31 220.8 526.56 225.99 524.87C233.74 521.78 234.69 510.83 231.21 504.34C228.81 499.59 221.51 499.07 217 497.48C220.6 490.94 225.99 497.65 231.78 497.77C231.8 493.97 231.85 490.2 231.87 486.4C224.72 484.3 218.25 482.09 210.95 485.33C203.99 488.76 202.99 498.73 206.03 505.02C208.79 510.22 215.04 510.78 219.99 512.82C216.59 518.96 210.44 512.23 205.44 511.86ZM236.72 512.18C236.7 516 236.65 519.8 236.63 523.62C243.41 525.6 250.67 527.29 257.57 524.7C265.07 521.39 265.71 511.22 262.72 504.66C259.95 499.49 253.9 499.39 248.9 497.82C249.66 496.3 250.42 494.78 251.18 493.26C255.05 495.74 258.55 497.23 263.11 498.14C262.62 494.22 265.56 486.48 260.05 485.42C254.36 483.39 246.5 482.75 241.13 485.96C235.33 489.44 234.99 497.85 236.65 503.65C239.13 510.1 245.89 510.63 251.52 513.01C247.63 518.28 241.94 512.62 236.72 512.18ZM268.18 494.07C273.4 505.51 267.89 513.82 267.2 525.24C273.94 525.6 280.6 525.63 287.34 525.26C287.22 521.93 287.07 518.57 286.9 515.22C282.56 510.17 282.66 499.78 286.95 494.73C287.05 491.48 287.1 488.22 287.15 484.96C280.78 484.91 274.41 484.84 268.04 484.64C267.86 487.8 267.91 490.94 268.18 494.07ZM293.56 498.97C293.71 503.02 293.71 507.01 293.59 511.05C290.09 515.61 290.8 520.12 290.65 525.51C295.45 525.53 300.28 525.51 305.08 525.51C305.01 522 304.91 518.5 304.74 515.02C302.78 512.08 302.07 509.41 301.53 505.93C306.48 511.98 309.24 518.7 312.8 525.58C318.41 525.56 324.02 525.51 329.63 525.46C329.53 520.46 329.11 515.73 327.42 510.98C323.97 502.06 330.61 494.59 329.58 484.89C324.78 484.86 319.95 484.86 315.12 484.86C314.83 491.92 317.18 498.16 318.41 505C314 498.53 311.06 491.79 307.43 484.81C301.85 484.86 296.28 484.86 290.72 484.86C290.8 490.18 290.16 494.49 293.56 498.97ZM364.69 502.92C360.01 502.89 355.33 502.89 350.65 502.92C350.99 508.58 353.27 510.05 357.17 513.26C354.2 512.79 348.4 514.73 347.29 510.81C345.46 506.86 345.46 499.12 349.67 496.72C354.4 496.5 359.25 499.49 364.03 500.17C364.03 495.62 364 491.08 363.98 486.53C355.04 483.64 344.3 481.26 337 488.95C330.46 496.79 330.71 511.1 336.22 519.45C342.91 528.84 356.28 526.76 365.06 521.73C364.76 515.46 364.69 509.19 364.69 502.92ZM421.6 525.92C422.19 523.42 422.78 520.9 423.37 518.38C426.04 518.47 428.71 518.57 431.38 518.65C431.84 521.34 432.77 523.6 434.12 525.43C437.97 525.85 441.84 525.73 445.78 525.09C445.34 520.51 445.64 516.32 443.87 512.08C440.15 503.31 438.63 494.2 436.47 484.96C430.59 484.86 424.62 484.57 418.76 485.11C415.92 493.19 415.04 501.81 412.02 509.9C410.09 514.82 409.96 519.87 409.67 525.09C413.64 525.38 417.63 525.65 421.6 525.92ZM462.79 525.14C462.17 518.65 460.43 512.37 459.72 505.91C463.45 512.23 466.56 518.99 469.92 525.53C475.53 525.53 481.14 525.53 486.77 525.53C486.99 518.77 484.98 512.74 483.76 506.2C483.98 499.1 486.92 492.33 487.16 485.15C482.24 484.98 477.31 484.89 472.39 484.81C472.46 492.04 474.67 498.75 475.72 505.83C471.66 498.92 468.27 491.65 464.35 484.64C459.04 484.76 453.67 484.69 448.36 485.18C446.86 492.82 451.1 498.83 451 506.18C449.85 512.69 447.79 518.77 447.91 525.53C452.86 525.51 457.84 525.41 462.79 525.14ZM490.23 525.31C499.68 525.6 509.16 525.51 518.65 525.7C518.72 520.53 518.79 515.34 518.82 510.14C514.82 511.37 510.83 512.62 506.81 513.77C506.84 511.76 506.86 509.75 506.89 507.74C509.12 508.23 511.32 508.75 513.55 509.24C513.53 506.47 513.53 503.7 513.53 500.93C511.39 501.4 509.24 501.84 507.11 502.28C507.03 500.37 506.94 498.46 506.86 496.55C510.88 497.67 514.9 498.85 518.92 500C518.79 494.93 518.7 489.86 518.55 484.79C509.31 485.01 500 484.52 490.79 485.15C490.59 488.27 490.67 491.43 490.74 494.56C497.53 505.93 489.76 513.7 490.23 525.31ZM383.63 510.98C381.94 515.73 381.52 520.46 381.42 525.46C390.54 525.58 399.67 525.58 408.79 525.41C408.84 520.31 408.91 515.19 408.86 510.1C405.09 510.98 401.71 512.23 398.25 513.97C397.27 503.77 400.68 495.03 401.73 485.11C394.97 484.89 388.21 484.81 381.45 484.86C380.61 494.66 387.03 502.21 383.63 510.98Z" id="cuupOzwY4"></path><path d="M413.3 153.11C414.28 157.22 413.76 161.02 417.19 163.98C427.46 173.25 441.69 178.98 454.58 183.54C455 223.42 454.6 263.33 454.77 303.24C454.8 306.18 454.8 309.12 454.8 312.06C454.8 317.43 454.63 322.79 454.16 328.13C453.82 331.03 453.43 333.89 452.99 336.78C448.58 362.24 436.25 385.29 419.57 404.79C393.82 434.59 359.1 457.18 322.72 471.78C294.52 460.41 268.11 444.24 245.23 424.2C219.21 400.87 198.9 371.74 192.82 336.78C192.31 333.84 191.82 330.93 191.47 327.96C191.08 322.67 191.01 317.38 190.98 312.06C190.98 309.12 191.01 306.18 191.01 303.24C190.91 263.41 190.96 223.59 190.98 183.76C203.65 179.08 217.88 173.39 228.15 164.4C232 161.31 231.43 157.44 232.39 153.03C260.32 145.07 288.42 137.82 316.35 129.93C321.37 128.36 325.22 128.68 330.17 130.13C357.8 137.99 385.71 145.05 413.3 153.11ZM234.05 170.33C223.18 180.74 210.49 183.9 197.72 190.22C196.86 220.33 197.62 250.64 197.38 280.8C197.7 303.29 195.69 327.89 202.55 349.4C211.12 378.68 230.62 403.74 253.68 423.17C273.33 439.51 295.43 453.3 319.02 463.15C325.17 466.22 331.32 461.73 336.95 459.48C369.64 443.73 401.88 421.19 423.56 391.71C438.48 371.43 448.28 347.76 449.7 322.45C450.59 304.52 449.9 286.51 450.1 268.55C449.83 242.48 450.63 216.24 449.75 190.2C436.99 183.88 424.22 180.72 413.37 170.26C410.99 167.9 410.99 163.35 410.09 160.28C383.43 152.67 356.55 145.76 329.87 138.23C325.32 136.91 322.03 136.94 317.48 138.26C290.8 145.78 263.97 152.71 237.31 160.31C236.46 163.4 236.55 168.05 234.05 170.33Z" id="fPhXdbh8J"></path><path d="M410.09 160.28C410.99 163.35 410.99 167.9 413.37 170.26C424.22 180.72 436.99 183.88 449.75 190.2C450.63 216.24 449.83 242.48 450.1 268.55C449.9 286.51 450.59 304.52 449.7 322.45C448.28 347.76 438.48 371.43 423.56 391.71C401.88 421.19 369.64 443.73 336.95 459.48C331.32 461.73 325.17 466.22 319.02 463.15C295.43 453.3 273.33 439.51 253.68 423.17C230.62 403.74 211.12 378.68 202.55 349.4C195.69 327.89 197.7 303.29 197.38 280.8C197.62 250.64 196.86 220.33 197.72 190.22C210.49 183.9 223.18 180.74 234.05 170.33C236.55 168.05 236.46 163.4 237.31 160.31C263.97 152.71 290.8 145.78 317.48 138.26C322.03 136.94 325.32 136.91 329.87 138.23C356.55 145.76 383.43 152.67 410.09 160.28ZM204.31 274.92C208.18 269.6 212.37 262.6 219.53 261.57C228.37 260.02 235.25 257.7 242.56 252.33C244.49 253.26 246.43 254.19 248.36 255.12C254.98 255 261.1 253.24 266.17 258.65C272.2 266.39 277.03 275.66 278.64 285.38C280.29 292.81 280.26 299.54 285.41 305.59C290.92 312.36 293.74 319.63 302.29 322.99C310.35 330.85 319.78 333.87 324.46 344.97C298.37 367.04 272.74 389.65 246.94 412.05C261.89 411.92 276.83 412.1 291.8 411.9C307.28 394.06 323.26 376.62 338.82 358.83C344.67 362.56 348.91 365.72 350.89 372.8C344.84 379.63 340.02 387.64 334.85 395.14C342.39 395.19 349.94 395.09 357.49 394.7C361.28 387.18 365.35 379.78 369.37 372.36C369.19 372.39 367.76 372.64 367.58 372.68C364.98 370.47 362.43 368.22 359.89 365.94C353.93 361.94 350.26 356.33 346.39 350.45C365.06 328.92 384.8 308.22 402.91 286.21C405.09 288.32 407.24 290.45 409.38 292.58C412.73 291.07 415.75 289.4 418.42 286.8C415.26 287.32 412.12 287.88 408.98 288.49C407.29 285.31 405.65 282.1 403.99 278.91C399.87 280.65 395.75 282.42 391.69 284.23C385.93 292.61 378.16 297.9 370.72 304.57C358.51 315.22 346.17 325.73 334.09 336.49C332.27 334.48 330.63 332.37 328.99 330.24C331.56 331 334.16 331.78 336.73 332.57C338.23 330.9 339.7 329.26 341.17 327.6C340.78 318.16 339.33 309.29 333.67 301.48C326.52 292.29 324.12 281 316.4 272.15C309.91 265.02 312.55 256.55 312.53 247.75C328.26 256.4 345.11 260.98 359.76 271.71C359.57 268.35 359.25 265.02 358.81 261.69C354.94 258.73 349.57 257.97 345.31 255.54C338.42 251.47 332.27 245.42 326.57 239.91C321.81 235.08 315.3 233.86 310.94 228.49C306.92 223.81 303.36 220.65 297.44 218.59C299.35 211.78 299.84 204.83 300.16 197.79C293.71 193.16 284.21 190.42 278.91 198.09C273.16 206.44 285.33 215.51 275.95 221.93C267.84 230.43 256.5 230.72 247.87 238.17C239.76 244.93 229.5 246.7 221.14 253.07C214.65 257.84 208.13 261.69 200.69 264.8C200.07 270.46 199.95 271.12 204.31 274.92ZM410.21 302.51C411.34 300.38 412.37 298.2 413.32 295.97C406.34 296.7 405.82 297.73 402.27 303.49C405.02 303.51 407.66 303.19 410.21 302.51ZM405.06 313.48C406.24 310.81 407.39 308.14 408.52 305.47C400.8 306.35 399.7 306.43 396 313.31C399.04 313.36 402.05 313.43 405.06 313.48ZM366.57 329.82C356.33 339.65 356.26 356.77 366.43 366.67C376.33 376.91 393.48 376.82 403.32 366.57C412.39 357.61 413.49 342.52 405.36 332.59C402.03 328.58 397.52 326.3 396.24 321.13C385.37 322.4 374.9 321.45 366.57 329.82Z" id="b46qsIIEr"></path><path d="M297.44 218.59C303.36 220.65 306.92 223.81 310.94 228.49C315.3 233.86 321.81 235.08 326.57 239.91C332.27 245.42 338.42 251.47 345.31 255.54C349.57 257.97 354.94 258.73 358.81 261.69C359.25 265.02 359.57 268.35 359.76 271.71C345.11 260.98 328.26 256.4 312.53 247.75C312.55 256.55 309.91 265.02 316.4 272.15C324.12 281 326.52 292.29 333.67 301.48C339.33 309.29 340.78 318.16 341.17 327.6C339.7 329.26 338.23 330.9 336.73 332.57C334.16 331.78 331.56 331 328.99 330.24C330.63 332.37 332.27 334.48 334.09 336.49C338.67 340.75 342.96 345.14 346.39 350.45C350.26 356.33 353.93 361.94 359.89 365.94C362.43 368.22 364.98 370.47 367.58 372.68C361.67 374.22 357 374.02 351.04 372.8C351.03 372.8 350.91 372.8 350.89 372.8C348.91 365.72 344.67 362.56 338.82 358.83C332.89 355.04 327.47 351.7 324.46 344.97C319.78 333.87 310.35 330.85 302.29 322.99C293.74 319.63 290.92 312.36 285.41 305.59C280.26 299.54 280.29 292.81 278.64 285.38C277.03 275.66 272.2 266.39 266.17 258.65C261.1 253.24 254.98 255 248.36 255.12C246.43 254.19 244.49 253.26 242.56 252.33C235.25 257.7 228.37 260.02 219.53 261.57C212.37 262.6 208.18 269.6 204.31 274.92C199.95 271.12 200.07 270.46 200.69 264.8C208.13 261.69 214.65 257.84 221.14 253.07C229.5 246.7 239.76 244.93 247.87 238.17C256.5 230.72 267.84 230.43 275.95 221.93C285.33 215.51 273.16 206.44 278.91 198.09C284.21 190.42 293.71 193.16 300.16 197.79C299.84 204.83 299.35 211.78 297.44 218.59Z" id="i1JbNHvv9U"></path><path d="M408.98 288.49C412.12 287.88 415.26 287.32 418.42 286.8C415.75 289.4 412.73 291.07 409.38 292.58C407.24 290.45 405.09 288.32 402.91 286.21C384.8 308.22 365.06 328.92 346.39 350.45C342.96 345.14 338.67 340.75 334.09 336.49C346.17 325.73 358.51 315.22 370.72 304.57C378.16 297.9 385.93 292.61 391.69 284.23C395.75 282.42 399.87 280.65 403.99 278.91C405.65 282.1 407.29 285.31 408.98 288.49Z" id="c9CwIr0Z9d"></path><path d="M410.21 302.51C407.66 303.19 405.02 303.51 402.27 303.49C405.82 297.73 406.34 296.7 413.32 295.97C412.37 298.2 411.34 300.38 410.21 302.51Z" id="aRuAt7E6m"></path><path d="M123.12 303.32C123.12 306.23 123.09 309.15 123.09 312.06C117.43 312.04 111.8 312.01 106.16 311.94C106.41 309.02 106.61 306.11 106.95 303.19C112.34 303.14 117.73 303.24 123.12 303.32Z" id="bGlkh7x1S"></path><path d="M191.01 303.24C191.01 306.18 190.98 309.12 190.98 312.06C176.26 312.01 161.51 312.06 146.79 312.04C146.81 309.15 146.86 306.26 146.96 303.36C161.63 303.05 176.31 303.36 191.01 303.24Z" id="b2cRRFlK2Y"></path><path d="M478.47 303.29C478.44 306.21 478.44 309.12 478.42 312.04C470.55 312.04 462.69 312.04 454.8 312.06C454.8 309.12 454.8 306.18 454.77 303.24C462.66 303.24 470.58 303.24 478.47 303.29Z" id="f1kBLMZWXQ"></path><path d="M537.14 303.46C537.14 306.33 537.14 309.17 537.14 312.04C525.68 312.04 514.21 312.11 502.75 311.96C502.87 309.22 503.04 306.48 503.28 303.73C514.53 303.02 525.87 303.63 537.14 303.46Z" id="a2jOUlFBgq"></path><path d="M405.06 313.48C402.05 313.43 399.04 313.36 396 313.31C399.7 306.43 400.8 306.35 408.52 305.47C407.39 308.14 406.24 310.81 405.06 313.48Z" id="be1CnbFMG"></path><path d="M405.36 332.59C413.49 342.52 412.39 357.61 403.32 366.57C393.48 376.82 376.33 376.91 366.43 366.67C356.26 356.77 356.33 339.65 366.57 329.82C374.9 321.45 385.37 322.4 396.24 321.13C397.52 326.3 402.03 328.58 405.36 332.59Z" id="asCFVnWzo"></path><path d="M191.47 327.96C191.82 330.93 192.31 333.84 192.82 336.78C164.03 336.73 135.27 336.71 106.48 336.78C106.58 333.87 106.68 330.98 106.78 328.06C135 328.18 163.25 328.35 191.47 327.96Z" id="bw5uRPUBe"></path><path d="M537.54 328.35C537.29 331.22 537.05 334.06 536.78 336.93C508.85 336.54 480.92 336.83 452.99 336.78C453.43 333.89 453.82 331.03 454.16 328.13C481.95 328.33 509.75 327.89 537.54 328.35Z" id="c18MdwJ5su"></path><path d="M338.82 358.83C323.26 376.62 307.28 394.06 291.8 411.9C276.83 412.1 261.89 411.92 246.94 412.05C272.74 389.65 298.37 367.04 324.46 344.97C327.47 351.7 332.89 355.04 338.82 358.83Z" id="f4YcwSFQZR"></path><path d="M351.04 372.8C357 374.02 361.67 374.22 367.58 372.68C367.76 372.64 369.19 372.39 369.37 372.36C365.35 379.78 361.28 387.18 357.49 394.7C349.94 395.09 342.39 395.19 334.85 395.14C340.02 387.64 344.84 379.63 350.89 372.8C350.92 372.8 351.03 372.8 351.04 372.8Z" id="byG5YUL2b"></path><path d="M210.9 421.19C208.21 421.04 205.49 420.87 202.77 420.7C198.97 418.15 196.47 414.03 191.45 416.85C185.27 420.94 184.81 434.73 191.3 438.63C196.99 441.03 205.02 437.92 210.8 436.67C210.9 442.21 211.07 447.77 211.32 453.3C202.45 457.22 191.6 458.89 182.33 455.39C172.51 451.17 168.32 440.34 168.03 430.25C167.68 420.43 169.2 409.4 177.9 403.35C188.04 396.56 200.1 399.28 210.8 402.98C210.93 409.06 210.98 415.11 210.9 421.19Z" id="dAUJ7dOjE"></path><path d="M164.94 399.89C165.31 406.71 165.33 413.42 164.87 420.23C160.48 418.37 156.46 416.29 152.47 413.69C152.03 416.7 151.59 419.69 151.12 422.68C153.87 422.73 156.61 422.75 159.33 422.78C159.45 426.72 159.57 430.67 159.7 434.61C156.68 434.15 153.67 433.66 150.68 433.19C151.56 436.87 152.2 439.12 155.07 441.74C155.29 446.74 155.34 451.76 155.36 456.76C146.61 456.78 137.84 456.78 129.07 456.81C129.61 450.68 126.96 442.3 132.58 438.24C132.77 431.79 132.75 425.37 132.77 418.93C131.55 417.71 130.35 416.48 129.12 415.26C129.1 410.23 129.05 405.21 129 400.16C140.98 399.92 152.96 400.16 164.94 399.89Z" id="a4YBtAolIO"></path><path d="M160.36 482.41C169.08 484.69 170.08 497.28 165.53 503.55C161.71 508.38 153.16 508.09 147.62 508.85C151.22 514.24 151.05 519.28 150.95 525.53C143.97 525.58 136.96 525.53 129.98 525.38C129.98 521.76 129.98 518.11 129.95 514.46C131.01 513.13 132.09 511.81 133.14 510.49C132.75 503.6 134.58 497.63 130.1 491.84C130.08 488.24 130.1 484.66 130.13 481.06C140 481.33 150.71 480.06 160.36 482.41ZM153.16 494.12C153.42 491.08 150.02 490.81 147.94 489.66C147.67 493.51 147.67 497.33 147.67 501.18C150.78 499.02 153.89 498.87 153.16 494.12Z" id="cBEezahBa"></path><path d="M193.6 485.03C195.71 493.88 196.84 502.11 200.46 510.37C202.91 515.29 202.38 520.21 202.42 525.51C198.26 525.53 194.09 525.56 189.91 525.56C189.66 523.33 189.42 521.1 189.17 518.87C186.25 518.7 183.31 518.5 180.37 518.33C180.01 520.7 179.64 523.06 179.27 525.43C175.01 525.46 170.72 525.46 166.46 525.43C166.56 521.29 166.68 517.15 166.9 513.01C172.83 505.49 172.09 493.93 175.96 485.08C181.8 484.54 187.77 484.86 193.6 485.03ZM181.82 509.34C183.66 509.43 185.5 509.53 187.33 509.63C186.45 504.98 185.45 500.37 184.2 495.81C183.34 500.32 182.58 504.83 181.82 509.34Z" id="ba1GQmpS0"></path><path d="M231.78 497.77C225.99 497.65 220.6 490.94 217 497.48C221.51 499.07 228.81 499.59 231.21 504.34C234.69 510.83 233.74 521.78 225.99 524.87C220.8 526.56 213.6 526.31 208.43 524.58C203.31 523.99 205.95 515.29 205.44 511.86C210.44 512.23 216.59 518.96 219.99 512.82C215.04 510.78 208.79 510.22 206.03 505.02C202.99 498.73 203.99 488.76 210.95 485.33C218.25 482.09 224.72 484.3 231.87 486.4C231.85 490.2 231.8 493.97 231.78 497.77Z" id="a1tSxGZ5ek"></path><path d="M263.11 498.14C258.55 497.23 255.05 495.74 251.18 493.26C250.42 494.78 249.66 496.3 248.9 497.82C253.9 499.39 259.95 499.49 262.72 504.66C265.71 511.22 265.07 521.39 257.57 524.7C250.67 527.29 243.41 525.6 236.63 523.62C236.65 519.8 236.7 516 236.72 512.18C241.94 512.62 247.63 518.28 251.52 513.01C245.89 510.63 239.13 510.1 236.65 503.65C234.99 497.85 235.33 489.44 241.13 485.96C246.5 482.75 254.36 483.39 260.05 485.42C265.56 486.48 262.62 494.22 263.11 498.14Z" id="c1QvomW3ar"></path><path d="M287.15 484.96C287.1 488.22 287.05 491.48 286.95 494.73C282.66 499.78 282.56 510.17 286.9 515.22C287.07 518.57 287.22 521.93 287.34 525.26C280.6 525.63 273.94 525.6 267.2 525.24C267.89 513.82 273.4 505.51 268.18 494.07C267.91 490.94 267.86 487.8 268.04 484.64C274.41 484.84 280.78 484.91 287.15 484.96Z" id="d38dLDmCS"></path><path d="M307.43 484.81C311.06 491.79 314 498.53 318.41 505C317.18 498.16 314.83 491.92 315.12 484.86C319.95 484.86 324.78 484.86 329.58 484.89C330.61 494.59 323.97 502.06 327.42 510.98C329.11 515.73 329.53 520.46 329.63 525.46C324.02 525.51 318.41 525.56 312.8 525.58C309.24 518.7 306.48 511.98 301.53 505.93C302.07 509.41 302.78 512.08 304.74 515.02C304.91 518.5 305.01 522 305.08 525.51C300.28 525.51 295.45 525.53 290.65 525.51C290.8 520.12 290.09 515.61 293.59 511.05C293.71 507.01 293.71 503.02 293.56 498.97C290.16 494.49 290.8 490.18 290.72 484.86C296.28 484.86 301.85 484.86 307.43 484.81Z" id="cSGq0d4rI"></path><path d="M364.03 500.17C359.25 499.49 354.4 496.5 349.67 496.72C345.46 499.12 345.46 506.86 347.29 510.81C348.4 514.73 354.2 512.79 357.17 513.26C353.27 510.05 350.99 508.58 350.65 502.92C355.33 502.89 360.01 502.89 364.69 502.92C364.69 509.19 364.76 515.46 365.06 521.73C356.28 526.76 342.91 528.84 336.22 519.45C330.71 511.1 330.46 496.79 337 488.95C344.3 481.26 355.04 483.64 363.98 486.53C364 491.08 364.03 495.62 364.03 500.17Z" id="b2BhPk31Nd"></path><path d="M436.47 484.96C438.63 494.2 440.15 503.31 443.87 512.08C445.64 516.32 445.34 520.51 445.78 525.09C441.84 525.73 437.97 525.85 434.12 525.43C432.77 523.6 431.84 521.34 431.38 518.65C428.71 518.57 426.04 518.47 423.37 518.38C422.78 520.9 422.19 523.42 421.6 525.92C417.63 525.65 413.64 525.38 409.67 525.09C409.96 519.87 410.09 514.82 412.02 509.9C415.04 501.81 415.92 493.19 418.76 485.11C424.62 484.57 430.59 484.86 436.47 484.96ZM426.48 496.18C426.8 500.83 422.21 509.95 429.44 510.22C429.78 505.37 428.93 501.1 427.07 496.62C427.05 496.58 426.97 496.38 426.82 496.01L426.6 495.52L426.58 495.44C426.52 495.89 426.48 496.13 426.48 496.18Z" id="a1D1utg7St"></path><path d="M464.35 484.64C468.27 491.65 471.66 498.92 475.72 505.83C474.67 498.75 472.46 492.04 472.39 484.81C477.31 484.89 482.24 484.98 487.16 485.15C486.92 492.33 483.98 499.1 483.76 506.2C484.98 512.74 486.99 518.77 486.77 525.53C481.14 525.53 475.53 525.53 469.92 525.53C466.56 518.99 463.45 512.23 459.72 505.91C460.43 512.37 462.17 518.65 462.79 525.14C457.84 525.41 452.86 525.51 447.91 525.53C447.79 518.77 449.85 512.69 451 506.18C451.1 498.83 446.86 492.82 448.36 485.18C453.67 484.69 459.04 484.76 464.35 484.64Z" id="b6vhAdq8Vd"></path><path d="M518.55 484.79C518.7 489.86 518.79 494.93 518.92 500C514.9 498.85 510.88 497.67 506.86 496.55C506.94 498.46 507.03 500.37 507.11 502.28C509.24 501.84 511.39 501.4 513.53 500.93C513.53 503.7 513.53 506.47 513.55 509.24C511.32 508.75 509.12 508.23 506.89 507.74C506.86 509.75 506.84 511.76 506.81 513.77C510.83 512.62 514.82 511.37 518.82 510.14C518.79 515.34 518.72 520.53 518.65 525.7C509.16 525.51 499.68 525.6 490.23 525.31C489.76 513.7 497.53 505.93 490.74 494.56C490.67 491.43 490.59 488.27 490.79 485.15C500 484.52 509.31 485.01 518.55 484.79Z" id="aBlBQTVkg"></path><path d="M401.73 485.11C400.68 495.03 397.27 503.77 398.25 513.97C401.71 512.23 405.09 510.98 408.86 510.1C408.91 515.19 408.84 520.31 408.79 525.41C399.67 525.58 390.54 525.58 381.42 525.46C381.52 520.46 381.94 515.73 383.63 510.98C387.03 502.21 380.61 494.66 381.45 484.86C388.21 484.81 394.97 484.89 401.73 485.11Z" id="a3NadvHE6"></path><path d="M153.16 494.12C153.89 498.87 150.78 499.02 147.67 501.18C147.67 497.33 147.67 493.51 147.94 489.66C150.02 490.81 153.42 491.08 153.16 494.12Z" id="g1YVmEmIKI"></path><path d="M426.6 495.52L426.82 496.01C426.97 496.38 427.05 496.58 427.07 496.62C428.93 501.1 429.78 505.37 429.44 510.22C422.21 509.95 426.8 500.83 426.48 496.18C426.48 496.13 426.52 495.89 426.58 495.44L426.6 495.52Z" id="cbo4yO7g"></path><path d="M187.33 509.63C185.5 509.53 183.66 509.43 181.82 509.34C182.58 504.83 183.34 500.32 184.2 495.81C185.45 500.37 186.45 504.98 187.33 509.63Z" id="b1RD96jkWw"></path><path d="M565 75L565 565L75 565L75 75L565 75ZM99.6 538.25C246.6 538.25 393.6 538.25 540.6 538.25C540.6 392.81 540.6 247.38 540.6 101.95C393.6 101.95 246.6 101.95 99.6 101.95C99.62 247.38 99.6 392.81 99.6 538.25Z" id="ajWDWlcAo"></path><path d="M540.6 101.95C540.6 247.38 540.6 392.81 540.6 538.25C393.6 538.25 246.6 538.25 99.6 538.25C99.6 392.81 99.62 247.38 99.6 101.95C246.6 101.95 393.6 101.95 540.6 101.95ZM228.15 164.4C217.88 173.39 203.65 179.08 190.98 183.76C190.96 223.59 190.91 263.41 191.01 303.24C176.31 303.36 161.63 303.05 146.96 303.36C146.86 306.26 146.81 309.15 146.79 312.04C161.51 312.06 176.26 312.01 190.98 312.06C191.01 317.38 191.08 322.67 191.47 327.96C163.25 328.35 135 328.18 106.78 328.06C106.68 330.98 106.58 333.87 106.48 336.78C135.27 336.71 164.03 336.73 192.82 336.78C198.9 371.74 219.21 400.87 245.23 424.2C268.11 444.24 294.52 460.41 322.72 471.78C359.1 457.18 393.82 434.59 419.57 404.79C436.25 385.29 448.58 362.24 452.99 336.78C480.92 336.83 508.85 336.54 536.78 336.93C537.05 334.06 537.29 331.22 537.54 328.35C509.75 327.89 481.95 328.33 454.16 328.13C454.63 322.79 454.8 317.43 454.8 312.06C462.69 312.04 470.55 312.04 478.42 312.04C478.44 309.12 478.44 306.21 478.47 303.29C470.58 303.24 462.66 303.24 454.77 303.24C454.6 263.33 455 223.42 454.58 183.54C441.69 178.98 427.46 173.25 417.19 163.98C413.76 161.02 414.28 157.22 413.3 153.11C385.71 145.05 357.8 137.99 330.17 130.13C325.22 128.68 321.37 128.36 316.35 129.93C288.42 137.82 260.32 145.07 232.39 153.03C231.43 157.44 232 161.31 228.15 164.4ZM123.09 312.06C123.09 309.15 123.12 306.23 123.12 303.32C117.73 303.24 112.34 303.14 106.95 303.19C106.61 306.11 106.41 309.02 106.16 311.94C111.8 312.01 117.43 312.04 123.09 312.06ZM537.14 312.04C537.14 309.17 537.14 306.33 537.14 303.46C525.87 303.63 514.53 303.02 503.28 303.73C503.04 306.48 502.87 309.22 502.75 311.96C514.21 312.11 525.68 312.04 537.14 312.04ZM210.8 436.67C205.02 437.92 196.99 441.03 191.3 438.63C184.81 434.73 185.27 420.94 191.45 416.85C196.47 414.03 198.97 418.15 202.77 420.7C205.49 420.87 208.21 421.04 210.9 421.19C210.98 415.11 210.93 409.06 210.8 402.98C200.1 399.28 188.04 396.56 177.9 403.35C169.2 409.4 167.68 420.43 168.03 430.25C168.32 440.34 172.51 451.17 182.33 455.39C191.6 458.89 202.45 457.22 211.32 453.3C211.07 447.77 210.9 442.21 210.8 436.67ZM129.12 415.26C130.35 416.48 131.55 417.71 132.77 418.93C132.75 425.37 132.77 431.79 132.58 438.24C126.96 442.3 129.61 450.68 129.07 456.81C137.84 456.78 146.61 456.78 155.36 456.76C155.34 451.76 155.29 446.74 155.07 441.74C152.2 439.12 151.56 436.87 150.68 433.19C153.67 433.66 156.68 434.15 159.7 434.61C159.57 430.67 159.45 426.72 159.33 422.78C156.61 422.75 153.87 422.73 151.12 422.68C151.59 419.69 152.03 416.7 152.47 413.69C156.46 416.29 160.48 418.37 164.87 420.23C165.33 413.42 165.31 406.71 164.94 399.89C152.96 400.16 140.98 399.92 129 400.16C129.05 405.21 129.1 410.23 129.12 415.26ZM130.1 491.84C134.58 497.63 132.75 503.6 133.14 510.49C132.09 511.81 131.01 513.13 129.95 514.46C129.98 518.11 129.98 521.76 129.98 525.38C136.96 525.53 143.97 525.58 150.95 525.53C151.05 519.28 151.22 514.24 147.62 508.85C153.16 508.09 161.71 508.38 165.53 503.55C170.08 497.28 169.08 484.69 160.36 482.41C150.71 480.06 140 481.33 130.13 481.06C130.1 484.66 130.08 488.24 130.1 491.84ZM166.46 525.43C170.72 525.46 175.01 525.46 179.27 525.43C179.64 523.06 180.01 520.7 180.37 518.33C183.31 518.5 186.25 518.7 189.17 518.87C189.42 521.1 189.66 523.33 189.91 525.56C194.09 525.56 198.26 525.53 202.42 525.51C202.38 520.21 202.91 515.29 200.46 510.37C196.84 502.11 195.71 493.88 193.6 485.03C187.77 484.86 181.8 484.54 175.96 485.08C172.09 493.93 172.83 505.49 166.9 513.01C166.68 517.15 166.56 521.29 166.46 525.43ZM205.44 511.86C205.95 515.29 203.31 523.99 208.43 524.58C213.6 526.31 220.8 526.56 225.99 524.87C233.74 521.78 234.69 510.83 231.21 504.34C228.81 499.59 221.51 499.07 217 497.48C220.6 490.94 225.99 497.65 231.78 497.77C231.8 493.97 231.85 490.2 231.87 486.4C224.72 484.3 218.25 482.09 210.95 485.33C203.99 488.76 202.99 498.73 206.03 505.02C208.79 510.22 215.04 510.78 219.99 512.82C216.59 518.96 210.44 512.23 205.44 511.86ZM236.72 512.18C236.7 516 236.65 519.8 236.63 523.62C243.41 525.6 250.67 527.29 257.57 524.7C265.07 521.39 265.71 511.22 262.72 504.66C259.95 499.49 253.9 499.39 248.9 497.82C249.66 496.3 250.42 494.78 251.18 493.26C255.05 495.74 258.55 497.23 263.11 498.14C262.62 494.22 265.56 486.48 260.05 485.42C254.36 483.39 246.5 482.75 241.13 485.96C235.33 489.44 234.99 497.85 236.65 503.65C239.13 510.1 245.89 510.63 251.52 513.01C247.63 518.28 241.94 512.62 236.72 512.18ZM268.18 494.07C273.4 505.51 267.89 513.82 267.2 525.24C273.94 525.6 280.6 525.63 287.34 525.26C287.22 521.93 287.07 518.57 286.9 515.22C282.56 510.17 282.66 499.78 286.95 494.73C287.05 491.48 287.1 488.22 287.15 484.96C280.78 484.91 274.41 484.84 268.04 484.64C267.86 487.8 267.91 490.94 268.18 494.07ZM293.56 498.97C293.71 503.02 293.71 507.01 293.59 511.05C290.09 515.61 290.8 520.12 290.65 525.51C295.45 525.53 300.28 525.51 305.08 525.51C305.01 522 304.91 518.5 304.74 515.02C302.78 512.08 302.07 509.41 301.53 505.93C306.48 511.98 309.24 518.7 312.8 525.58C318.41 525.56 324.02 525.51 329.63 525.46C329.53 520.46 329.11 515.73 327.42 510.98C323.97 502.06 330.61 494.59 329.58 484.89C324.78 484.86 319.95 484.86 315.12 484.86C314.83 491.92 317.18 498.16 318.41 505C314 498.53 311.06 491.79 307.43 484.81C301.85 484.86 296.28 484.86 290.72 484.86C290.8 490.18 290.16 494.49 293.56 498.97ZM364.69 502.92C360.01 502.89 355.33 502.89 350.65 502.92C350.99 508.58 353.27 510.05 357.17 513.26C354.2 512.79 348.4 514.73 347.29 510.81C345.46 506.86 345.46 499.12 349.67 496.72C354.4 496.5 359.25 499.49 364.03 500.17C364.03 495.62 364 491.08 363.98 486.53C355.04 483.64 344.3 481.26 337 488.95C330.46 496.79 330.71 511.1 336.22 519.45C342.91 528.84 356.28 526.76 365.06 521.73C364.76 515.46 364.69 509.19 364.69 502.92ZM421.6 525.92C422.19 523.42 422.78 520.9 423.37 518.38C426.04 518.47 428.71 518.57 431.38 518.65C431.84 521.34 432.77 523.6 434.12 525.43C437.97 525.85 441.84 525.73 445.78 525.09C445.34 520.51 445.64 516.32 443.87 512.08C440.15 503.31 438.63 494.2 436.47 484.96C430.59 484.86 424.62 484.57 418.76 485.11C415.92 493.19 415.04 501.81 412.02 509.9C410.09 514.82 409.96 519.87 409.67 525.09C413.64 525.38 417.63 525.65 421.6 525.92ZM462.79 525.14C462.17 518.65 460.43 512.37 459.72 505.91C463.45 512.23 466.56 518.99 469.92 525.53C475.53 525.53 481.14 525.53 486.77 525.53C486.99 518.77 484.98 512.74 483.76 506.2C483.98 499.1 486.92 492.33 487.16 485.15C482.24 484.98 477.31 484.89 472.39 484.81C472.46 492.04 474.67 498.75 475.72 505.83C471.66 498.92 468.27 491.65 464.35 484.64C459.04 484.76 453.67 484.69 448.36 485.18C446.86 492.82 451.1 498.83 451 506.18C449.85 512.69 447.79 518.77 447.91 525.53C452.86 525.51 457.84 525.41 462.79 525.14ZM490.23 525.31C499.68 525.6 509.16 525.51 518.65 525.7C518.72 520.53 518.79 515.34 518.82 510.14C514.82 511.37 510.83 512.62 506.81 513.77C506.84 511.76 506.86 509.75 506.89 507.74C509.12 508.23 511.32 508.75 513.55 509.24C513.53 506.47 513.53 503.7 513.53 500.93C511.39 501.4 509.24 501.84 507.11 502.28C507.03 500.37 506.94 498.46 506.86 496.55C510.88 497.67 514.9 498.85 518.92 500C518.79 494.93 518.7 489.86 518.55 484.79C509.31 485.01 500 484.52 490.79 485.15C490.59 488.27 490.67 491.43 490.74 494.56C497.53 505.93 489.76 513.7 490.23 525.31ZM383.63 510.98C381.94 515.73 381.52 520.46 381.42 525.46C390.54 525.58 399.67 525.58 408.79 525.41C408.84 520.31 408.91 515.19 408.86 510.1C405.09 510.98 401.71 512.23 398.25 513.97C397.27 503.77 400.68 495.03 401.73 485.11C394.97 484.89 388.21 484.81 381.45 484.86C380.61 494.66 387.03 502.21 383.63 510.98Z" id="b9YtuMXPH"></path><path d="M413.3 153.11C414.28 157.22 413.76 161.02 417.19 163.98C427.46 173.25 441.69 178.98 454.58 183.54C455 223.42 454.6 263.33 454.77 303.24C454.8 306.18 454.8 309.12 454.8 312.06C454.8 317.43 454.63 322.79 454.16 328.13C453.82 331.03 453.43 333.89 452.99 336.78C448.58 362.24 436.25 385.29 419.57 404.79C393.82 434.59 359.1 457.18 322.72 471.78C294.52 460.41 268.11 444.24 245.23 424.2C219.21 400.87 198.9 371.74 192.82 336.78C192.31 333.84 191.82 330.93 191.47 327.96C191.08 322.67 191.01 317.38 190.98 312.06C190.98 309.12 191.01 306.18 191.01 303.24C190.91 263.41 190.96 223.59 190.98 183.76C203.65 179.08 217.88 173.39 228.15 164.4C232 161.31 231.43 157.44 232.39 153.03C260.32 145.07 288.42 137.82 316.35 129.93C321.37 128.36 325.22 128.68 330.17 130.13C357.8 137.99 385.71 145.05 413.3 153.11ZM234.05 170.33C223.18 180.74 210.49 183.9 197.72 190.22C196.86 220.33 197.62 250.64 197.38 280.8C197.7 303.29 195.69 327.89 202.55 349.4C211.12 378.68 230.62 403.74 253.68 423.17C273.33 439.51 295.43 453.3 319.02 463.15C325.17 466.22 331.32 461.73 336.95 459.48C369.64 443.73 401.88 421.19 423.56 391.71C438.48 371.43 448.28 347.76 449.7 322.45C450.59 304.52 449.9 286.51 450.1 268.55C449.83 242.48 450.63 216.24 449.75 190.2C436.99 183.88 424.22 180.72 413.37 170.26C410.99 167.9 410.99 163.35 410.09 160.28C383.43 152.67 356.55 145.76 329.87 138.23C325.32 136.91 322.03 136.94 317.48 138.26C290.8 145.78 263.97 152.71 237.31 160.31C236.46 163.4 236.55 168.05 234.05 170.33Z" id="a8M6HdNli"></path><path d="M410.09 160.28C410.99 163.35 410.99 167.9 413.37 170.26C424.22 180.72 436.99 183.88 449.75 190.2C450.63 216.24 449.83 242.48 450.1 268.55C449.9 286.51 450.59 304.52 449.7 322.45C448.28 347.76 438.48 371.43 423.56 391.71C401.88 421.19 369.64 443.73 336.95 459.48C331.32 461.73 325.17 466.22 319.02 463.15C295.43 453.3 273.33 439.51 253.68 423.17C230.62 403.74 211.12 378.68 202.55 349.4C195.69 327.89 197.7 303.29 197.38 280.8C197.62 250.64 196.86 220.33 197.72 190.22C210.49 183.9 223.18 180.74 234.05 170.33C236.55 168.05 236.46 163.4 237.31 160.31C263.97 152.71 290.8 145.78 317.48 138.26C322.03 136.94 325.32 136.91 329.87 138.23C356.55 145.76 383.43 152.67 410.09 160.28ZM204.31 274.92C208.18 269.6 212.37 262.6 219.53 261.57C228.37 260.02 235.25 257.7 242.56 252.33C244.49 253.26 246.43 254.19 248.36 255.12C254.98 255 261.1 253.24 266.17 258.65C272.2 266.39 277.03 275.66 278.64 285.38C280.29 292.81 280.26 299.54 285.41 305.59C290.92 312.36 293.74 319.63 302.29 322.99C310.35 330.85 319.78 333.87 324.46 344.97C298.37 367.04 272.74 389.65 246.94 412.05C261.89 411.92 276.83 412.1 291.8 411.9C307.28 394.06 323.26 376.62 338.82 358.83C344.67 362.56 348.91 365.72 350.89 372.8C344.84 379.63 340.02 387.64 334.85 395.14C342.39 395.19 349.94 395.09 357.49 394.7C361.28 387.18 365.35 379.78 369.37 372.36C369.19 372.39 367.76 372.64 367.58 372.68C364.98 370.47 362.43 368.22 359.89 365.94C353.93 361.94 350.26 356.33 346.39 350.45C365.06 328.92 384.8 308.22 402.91 286.21C405.09 288.32 407.24 290.45 409.38 292.58C412.73 291.07 415.75 289.4 418.42 286.8C415.26 287.32 412.12 287.88 408.98 288.49C407.29 285.31 405.65 282.1 403.99 278.91C399.87 280.65 395.75 282.42 391.69 284.23C385.93 292.61 378.16 297.9 370.72 304.57C358.51 315.22 346.17 325.73 334.09 336.49C332.27 334.48 330.63 332.37 328.99 330.24C331.56 331 334.16 331.78 336.73 332.57C338.23 330.9 339.7 329.26 341.17 327.6C340.78 318.16 339.33 309.29 333.67 301.48C326.52 292.29 324.12 281 316.4 272.15C309.91 265.02 312.55 256.55 312.53 247.75C328.26 256.4 345.11 260.98 359.76 271.71C359.57 268.35 359.25 265.02 358.81 261.69C354.94 258.73 349.57 257.97 345.31 255.54C338.42 251.47 332.27 245.42 326.57 239.91C321.81 235.08 315.3 233.86 310.94 228.49C306.92 223.81 303.36 220.65 297.44 218.59C299.35 211.78 299.84 204.83 300.16 197.79C293.71 193.16 284.21 190.42 278.91 198.09C273.16 206.44 285.33 215.51 275.95 221.93C267.84 230.43 256.5 230.72 247.87 238.17C239.76 244.93 229.5 246.7 221.14 253.07C214.65 257.84 208.13 261.69 200.69 264.8C200.07 270.46 199.95 271.12 204.31 274.92ZM410.21 302.51C411.34 300.38 412.37 298.2 413.32 295.97C406.34 296.7 405.82 297.73 402.27 303.49C405.02 303.51 407.66 303.19 410.21 302.51ZM405.06 313.48C406.24 310.81 407.39 308.14 408.52 305.47C400.8 306.35 399.7 306.43 396 313.31C399.04 313.36 402.05 313.43 405.06 313.48ZM366.57 329.82C356.33 339.65 356.26 356.77 366.43 366.67C376.33 376.91 393.48 376.82 403.32 366.57C412.39 357.61 413.49 342.52 405.36 332.59C402.03 328.58 397.52 326.3 396.24 321.13C385.37 322.4 374.9 321.45 366.57 329.82Z" id="b38Pw8CTi"></path><path d="M297.44 218.59C303.36 220.65 306.92 223.81 310.94 228.49C315.3 233.86 321.81 235.08 326.57 239.91C332.27 245.42 338.42 251.47 345.31 255.54C349.57 257.97 354.94 258.73 358.81 261.69C359.25 265.02 359.57 268.35 359.76 271.71C345.11 260.98 328.26 256.4 312.53 247.75C312.55 256.55 309.91 265.02 316.4 272.15C324.12 281 326.52 292.29 333.67 301.48C339.33 309.29 340.78 318.16 341.17 327.6C339.7 329.26 338.23 330.9 336.73 332.57C334.16 331.78 331.56 331 328.99 330.24C330.63 332.37 332.27 334.48 334.09 336.49C338.67 340.75 342.96 345.14 346.39 350.45C350.26 356.33 353.93 361.94 359.89 365.94C362.43 368.22 364.98 370.47 367.58 372.68C361.67 374.22 357 374.02 351.04 372.8C351.03 372.8 350.91 372.8 350.89 372.8C348.91 365.72 344.67 362.56 338.82 358.83C332.89 355.04 327.47 351.7 324.46 344.97C319.78 333.87 310.35 330.85 302.29 322.99C293.74 319.63 290.92 312.36 285.41 305.59C280.26 299.54 280.29 292.81 278.64 285.38C277.03 275.66 272.2 266.39 266.17 258.65C261.1 253.24 254.98 255 248.36 255.12C246.43 254.19 244.49 253.26 242.56 252.33C235.25 257.7 228.37 260.02 219.53 261.57C212.37 262.6 208.18 269.6 204.31 274.92C199.95 271.12 200.07 270.46 200.69 264.8C208.13 261.69 214.65 257.84 221.14 253.07C229.5 246.7 239.76 244.93 247.87 238.17C256.5 230.72 267.84 230.43 275.95 221.93C285.33 215.51 273.16 206.44 278.91 198.09C284.21 190.42 293.71 193.16 300.16 197.79C299.84 204.83 299.35 211.78 297.44 218.59Z" id="a34Qacgu6"></path><path d="M408.98 288.49C412.12 287.88 415.26 287.32 418.42 286.8C415.75 289.4 412.73 291.07 409.38 292.58C407.24 290.45 405.09 288.32 402.91 286.21C384.8 308.22 365.06 328.92 346.39 350.45C342.96 345.14 338.67 340.75 334.09 336.49C346.17 325.73 358.51 315.22 370.72 304.57C378.16 297.9 385.93 292.61 391.69 284.23C395.75 282.42 399.87 280.65 403.99 278.91C405.65 282.1 407.29 285.31 408.98 288.49Z" id="b6GUNhkDY"></path><path d="M410.21 302.51C407.66 303.19 405.02 303.51 402.27 303.49C405.82 297.73 406.34 296.7 413.32 295.97C412.37 298.2 411.34 300.38 410.21 302.51Z" id="d1jqRktEed"></path><path d="M123.12 303.32C123.12 306.23 123.09 309.15 123.09 312.06C117.43 312.04 111.8 312.01 106.16 311.94C106.41 309.02 106.61 306.11 106.95 303.19C112.34 303.14 117.73 303.24 123.12 303.32Z" id="mp7FOxafq"></path><path d="M191.01 303.24C191.01 306.18 190.98 309.12 190.98 312.06C176.26 312.01 161.51 312.06 146.79 312.04C146.81 309.15 146.86 306.26 146.96 303.36C161.63 303.05 176.31 303.36 191.01 303.24Z" id="g1sjHiiyk7"></path><path d="M478.47 303.29C478.44 306.21 478.44 309.12 478.42 312.04C470.55 312.04 462.69 312.04 454.8 312.06C454.8 309.12 454.8 306.18 454.77 303.24C462.66 303.24 470.58 303.24 478.47 303.29Z" id="a6aaXRdcW"></path><path d="M537.14 303.46C537.14 306.33 537.14 309.17 537.14 312.04C525.68 312.04 514.21 312.11 502.75 311.96C502.87 309.22 503.04 306.48 503.28 303.73C514.53 303.02 525.87 303.63 537.14 303.46Z" id="clsNDHcsc"></path><path d="M405.06 313.48C402.05 313.43 399.04 313.36 396 313.31C399.7 306.43 400.8 306.35 408.52 305.47C407.39 308.14 406.24 310.81 405.06 313.48Z" id="gQrCnd1J8"></path><path d="M405.36 332.59C413.49 342.52 412.39 357.61 403.32 366.57C393.48 376.82 376.33 376.91 366.43 366.67C356.26 356.77 356.33 339.65 366.57 329.82C374.9 321.45 385.37 322.4 396.24 321.13C397.52 326.3 402.03 328.58 405.36 332.59Z" id="c2vXyKYgkb"></path><path d="M191.47 327.96C191.82 330.93 192.31 333.84 192.82 336.78C164.03 336.73 135.27 336.71 106.48 336.78C106.58 333.87 106.68 330.98 106.78 328.06C135 328.18 163.25 328.35 191.47 327.96Z" id="b5jfYespJY"></path><path d="M537.54 328.35C537.29 331.22 537.05 334.06 536.78 336.93C508.85 336.54 480.92 336.83 452.99 336.78C453.43 333.89 453.82 331.03 454.16 328.13C481.95 328.33 509.75 327.89 537.54 328.35Z" id="aRkzQAsI1"></path><path d="M338.82 358.83C323.26 376.62 307.28 394.06 291.8 411.9C276.83 412.1 261.89 411.92 246.94 412.05C272.74 389.65 298.37 367.04 324.46 344.97C327.47 351.7 332.89 355.04 338.82 358.83Z" id="kTXY2lnWW"></path><path d="M351.04 372.8C357 374.02 361.67 374.22 367.58 372.68C367.76 372.64 369.19 372.39 369.37 372.36C365.35 379.78 361.28 387.18 357.49 394.7C349.94 395.09 342.39 395.19 334.85 395.14C340.02 387.64 344.84 379.63 350.89 372.8C350.92 372.8 351.03 372.8 351.04 372.8Z" id="a1lZgfgC1n"></path><path d="M210.9 421.19C208.21 421.04 205.49 420.87 202.77 420.7C198.97 418.15 196.47 414.03 191.45 416.85C185.27 420.94 184.81 434.73 191.3 438.63C196.99 441.03 205.02 437.92 210.8 436.67C210.9 442.21 211.07 447.77 211.32 453.3C202.45 457.22 191.6 458.89 182.33 455.39C172.51 451.17 168.32 440.34 168.03 430.25C167.68 420.43 169.2 409.4 177.9 403.35C188.04 396.56 200.1 399.28 210.8 402.98C210.93 409.06 210.98 415.11 210.9 421.19Z" id="c4ug16jmCe"></path><path d="M164.94 399.89C165.31 406.71 165.33 413.42 164.87 420.23C160.48 418.37 156.46 416.29 152.47 413.69C152.03 416.7 151.59 419.69 151.12 422.68C153.87 422.73 156.61 422.75 159.33 422.78C159.45 426.72 159.57 430.67 159.7 434.61C156.68 434.15 153.67 433.66 150.68 433.19C151.56 436.87 152.2 439.12 155.07 441.74C155.29 446.74 155.34 451.76 155.36 456.76C146.61 456.78 137.84 456.78 129.07 456.81C129.61 450.68 126.96 442.3 132.58 438.24C132.77 431.79 132.75 425.37 132.77 418.93C131.55 417.71 130.35 416.48 129.12 415.26C129.1 410.23 129.05 405.21 129 400.16C140.98 399.92 152.96 400.16 164.94 399.89Z" id="bcwNmZFcC"></path><path d="M160.36 482.41C169.08 484.69 170.08 497.28 165.53 503.55C161.71 508.38 153.16 508.09 147.62 508.85C151.22 514.24 151.05 519.28 150.95 525.53C143.97 525.58 136.96 525.53 129.98 525.38C129.98 521.76 129.98 518.11 129.95 514.46C131.01 513.13 132.09 511.81 133.14 510.49C132.75 503.6 134.58 497.63 130.1 491.84C130.08 488.24 130.1 484.66 130.13 481.06C140 481.33 150.71 480.06 160.36 482.41ZM153.16 494.12C153.42 491.08 150.02 490.81 147.94 489.66C147.67 493.51 147.67 497.33 147.67 501.18C150.78 499.02 153.89 498.87 153.16 494.12Z" id="a1Fz5V1DZv"></path><path d="M193.6 485.03C195.71 493.88 196.84 502.11 200.46 510.37C202.91 515.29 202.38 520.21 202.42 525.51C198.26 525.53 194.09 525.56 189.91 525.56C189.66 523.33 189.42 521.1 189.17 518.87C186.25 518.7 183.31 518.5 180.37 518.33C180.01 520.7 179.64 523.06 179.27 525.43C175.01 525.46 170.72 525.46 166.46 525.43C166.56 521.29 166.68 517.15 166.9 513.01C172.83 505.49 172.09 493.93 175.96 485.08C181.8 484.54 187.77 484.86 193.6 485.03ZM181.82 509.34C183.66 509.43 185.5 509.53 187.33 509.63C186.45 504.98 185.45 500.37 184.2 495.81C183.34 500.32 182.58 504.83 181.82 509.34Z" id="dR4nsIyCh"></path><path d="M231.78 497.77C225.99 497.65 220.6 490.94 217 497.48C221.51 499.07 228.81 499.59 231.21 504.34C234.69 510.83 233.74 521.78 225.99 524.87C220.8 526.56 213.6 526.31 208.43 524.58C203.31 523.99 205.95 515.29 205.44 511.86C210.44 512.23 216.59 518.96 219.99 512.82C215.04 510.78 208.79 510.22 206.03 505.02C202.99 498.73 203.99 488.76 210.95 485.33C218.25 482.09 224.72 484.3 231.87 486.4C231.85 490.2 231.8 493.97 231.78 497.77Z" id="bzq9UIKi0"></path><path d="M263.11 498.14C258.55 497.23 255.05 495.74 251.18 493.26C250.42 494.78 249.66 496.3 248.9 497.82C253.9 499.39 259.95 499.49 262.72 504.66C265.71 511.22 265.07 521.39 257.57 524.7C250.67 527.29 243.41 525.6 236.63 523.62C236.65 519.8 236.7 516 236.72 512.18C241.94 512.62 247.63 518.28 251.52 513.01C245.89 510.63 239.13 510.1 236.65 503.65C234.99 497.85 235.33 489.44 241.13 485.96C246.5 482.75 254.36 483.39 260.05 485.42C265.56 486.48 262.62 494.22 263.11 498.14Z" id="b1zAkZfXmz"></path><path d="M287.15 484.96C287.1 488.22 287.05 491.48 286.95 494.73C282.66 499.78 282.56 510.17 286.9 515.22C287.07 518.57 287.22 521.93 287.34 525.26C280.6 525.63 273.94 525.6 267.2 525.24C267.89 513.82 273.4 505.51 268.18 494.07C267.91 490.94 267.86 487.8 268.04 484.64C274.41 484.84 280.78 484.91 287.15 484.96Z" id="b1hEZRNETY"></path><path d="M307.43 484.81C311.06 491.79 314 498.53 318.41 505C317.18 498.16 314.83 491.92 315.12 484.86C319.95 484.86 324.78 484.86 329.58 484.89C330.61 494.59 323.97 502.06 327.42 510.98C329.11 515.73 329.53 520.46 329.63 525.46C324.02 525.51 318.41 525.56 312.8 525.58C309.24 518.7 306.48 511.98 301.53 505.93C302.07 509.41 302.78 512.08 304.74 515.02C304.91 518.5 305.01 522 305.08 525.51C300.28 525.51 295.45 525.53 290.65 525.51C290.8 520.12 290.09 515.61 293.59 511.05C293.71 507.01 293.71 503.02 293.56 498.97C290.16 494.49 290.8 490.18 290.72 484.86C296.28 484.86 301.85 484.86 307.43 484.81Z" id="a2NpUEgQs9"></path><path d="M364.03 500.17C359.25 499.49 354.4 496.5 349.67 496.72C345.46 499.12 345.46 506.86 347.29 510.81C348.4 514.73 354.2 512.79 357.17 513.26C353.27 510.05 350.99 508.58 350.65 502.92C355.33 502.89 360.01 502.89 364.69 502.92C364.69 509.19 364.76 515.46 365.06 521.73C356.28 526.76 342.91 528.84 336.22 519.45C330.71 511.1 330.46 496.79 337 488.95C344.3 481.26 355.04 483.64 363.98 486.53C364 491.08 364.03 495.62 364.03 500.17Z" id="dfs3DYbHl"></path><path d="M436.47 484.96C438.63 494.2 440.15 503.31 443.87 512.08C445.64 516.32 445.34 520.51 445.78 525.09C441.84 525.73 437.97 525.85 434.12 525.43C432.77 523.6 431.84 521.34 431.38 518.65C428.71 518.57 426.04 518.47 423.37 518.38C422.78 520.9 422.19 523.42 421.6 525.92C417.63 525.65 413.64 525.38 409.67 525.09C409.96 519.87 410.09 514.82 412.02 509.9C415.04 501.81 415.92 493.19 418.76 485.11C424.62 484.57 430.59 484.86 436.47 484.96ZM426.48 496.18C426.8 500.83 422.21 509.95 429.44 510.22C429.78 505.37 428.93 501.1 427.07 496.62C427.05 496.58 426.97 496.38 426.82 496.01L426.6 495.52L426.58 495.44C426.52 495.89 426.48 496.13 426.48 496.18Z" id="c2MHSBxwec"></path><path d="M464.35 484.64C468.27 491.65 471.66 498.92 475.72 505.83C474.67 498.75 472.46 492.04 472.39 484.81C477.31 484.89 482.24 484.98 487.16 485.15C486.92 492.33 483.98 499.1 483.76 506.2C484.98 512.74 486.99 518.77 486.77 525.53C481.14 525.53 475.53 525.53 469.92 525.53C466.56 518.99 463.45 512.23 459.72 505.91C460.43 512.37 462.17 518.65 462.79 525.14C457.84 525.41 452.86 525.51 447.91 525.53C447.79 518.77 449.85 512.69 451 506.18C451.1 498.83 446.86 492.82 448.36 485.18C453.67 484.69 459.04 484.76 464.35 484.64Z" id="a6RtlGJppq"></path><path d="M518.55 484.79C518.7 489.86 518.79 494.93 518.92 500C514.9 498.85 510.88 497.67 506.86 496.55C506.94 498.46 507.03 500.37 507.11 502.28C509.24 501.84 511.39 501.4 513.53 500.93C513.53 503.7 513.53 506.47 513.55 509.24C511.32 508.75 509.12 508.23 506.89 507.74C506.86 509.75 506.84 511.76 506.81 513.77C510.83 512.62 514.82 511.37 518.82 510.14C518.79 515.34 518.72 520.53 518.65 525.7C509.16 525.51 499.68 525.6 490.23 525.31C489.76 513.7 497.53 505.93 490.74 494.56C490.67 491.43 490.59 488.27 490.79 485.15C500 484.52 509.31 485.01 518.55 484.79Z" id="a1FkhSa8X"></path><path d="M401.73 485.11C400.68 495.03 397.27 503.77 398.25 513.97C401.71 512.23 405.09 510.98 408.86 510.1C408.91 515.19 408.84 520.31 408.79 525.41C399.67 525.58 390.54 525.58 381.42 525.46C381.52 520.46 381.94 515.73 383.63 510.98C387.03 502.21 380.61 494.66 381.45 484.86C388.21 484.81 394.97 484.89 401.73 485.11Z" id="fuH7xW7gz"></path><path d="M153.16 494.12C153.89 498.87 150.78 499.02 147.67 501.18C147.67 497.33 147.67 493.51 147.94 489.66C150.02 490.81 153.42 491.08 153.16 494.12Z" id="gqP5ETwK3"></path><path d="M426.6 495.52L426.82 496.01C426.97 496.38 427.05 496.58 427.07 496.62C428.93 501.1 429.78 505.37 429.44 510.22C422.21 509.95 426.8 500.83 426.48 496.18C426.48 496.13 426.52 495.89 426.58 495.44L426.6 495.52Z" id="b1LtgOSYDy"></path><path d="M187.33 509.63C185.5 509.53 183.66 509.43 181.82 509.34C182.58 504.83 183.34 500.32 184.2 495.81C185.45 500.37 186.45 504.98 187.33 509.63Z" id="dPDwYVcxe"></path></defs><g><g><g><use xlink:href="#bdhJrAiDa" opacity="1" fill="#ffffff" fill-opacity="1"></use></g><g><use xlink:href="#c3isxfuFi5" opacity="1" fill="#000000" fill-opacity="1"></use><g><use xlink:href="#c3isxfuFi5" opacity="1" fill-opacity="0" stroke="#ffffff" stroke-width="13.33" stroke-opacity="1"></use></g></g><g><use xlink:href="#cuupOzwY4" opacity="1" fill="#000000" fill-opacity="1"></use><g><use xlink:href="#cuupOzwY4" opacity="1" fill-opacity="0" stroke="#000000" stroke-width="13.33" stroke-opacity="1"></use></g></g><g><use xlink:href="#fPhXdbh8J" opacity="1" fill="#000000" fill-opacity="1"></use><g><use xlink:href="#fPhXdbh8J" opacity="1" fill-opacity="0" stroke="#359bd6" stroke-width="13.33" stroke-opacity="1"></use></g></g><g><use xlink:href="#b46qsIIEr" opacity="1" fill="#000000" fill-opacity="1"></use><g><use xlink:href="#b46qsIIEr" opacity="1" fill-opacity="0" stroke="#efe129" stroke-width="13.33" stroke-opacity="1"></use></g></g><g><use xlink:href="#i1JbNHvv9U" opacity="1" fill="#000000" fill-opacity="1"></use><g><use xlink:href="#i1JbNHvv9U" opacity="1" fill-opacity="0" stroke="#000000" stroke-width="13.33" stroke-opacity="1"></use></g></g><g><use xlink:href="#c9CwIr0Z9d" opacity="1" fill="#000000" fill-opacity="1"></use><g><use xlink:href="#c9CwIr0Z9d" opacity="1" fill-opacity="0" stroke="#359bd6" stroke-width="13.33" stroke-opacity="1"></use></g></g><g><use xlink:href="#aRuAt7E6m" opacity="1" fill="#000000" fill-opacity="1"></use><g><use xlink:href="#aRuAt7E6m" opacity="1" fill-opacity="0" stroke="#359bd6" stroke-width="13.33" stroke-opacity="1"></use></g></g><g><use xlink:href="#bGlkh7x1S" opacity="1" fill="#000000" fill-opacity="1"></use><g><use xlink:href="#bGlkh7x1S" opacity="1" fill-opacity="0" stroke="#ffffff" stroke-width="13.33" stroke-opacity="1"></use></g></g><g><use xlink:href="#b2cRRFlK2Y" opacity="1" fill="#000000" fill-opacity="1"></use><g><use xlink:href="#b2cRRFlK2Y" opacity="1" fill-opacity="0" stroke="#ffffff" stroke-width="13.33" stroke-opacity="1"></use></g></g><g><use xlink:href="#f1kBLMZWXQ" opacity="1" fill="#000000" fill-opacity="1"></use><g><use xlink:href="#f1kBLMZWXQ" opacity="1" fill-opacity="0" stroke="#ffffff" stroke-width="13.33" stroke-opacity="1"></use></g></g><g><use xlink:href="#a2jOUlFBgq" opacity="1" fill="#000000" fill-opacity="1"></use><g><use xlink:href="#a2jOUlFBgq" opacity="1" fill-opacity="0" stroke="#ffffff" stroke-width="13.33" stroke-opacity="1"></use></g></g><g><use xlink:href="#be1CnbFMG" opacity="1" fill="#000000" fill-opacity="1"></use><g><use xlink:href="#be1CnbFMG" opacity="1" fill-opacity="0" stroke="#359bd6" stroke-width="13.33" stroke-opacity="1"></use></g></g><g><use xlink:href="#asCFVnWzo" opacity="1" fill="#000000" fill-opacity="1"></use><g><use xlink:href="#asCFVnWzo" opacity="1" fill-opacity="0" stroke="#000000" stroke-width="13.33" stroke-opacity="1"></use></g></g><g><use xlink:href="#bw5uRPUBe" opacity="1" fill="#000000" fill-opacity="1"></use><g><use xlink:href="#bw5uRPUBe" opacity="1" fill-opacity="0" stroke="#ffffff" stroke-width="13.33" stroke-opacity="1"></use></g></g><g><use xlink:href="#c18MdwJ5su" opacity="1" fill="#000000" fill-opacity="1"></use><g><use xlink:href="#c18MdwJ5su" opacity="1" fill-opacity="0" stroke="#ffffff" stroke-width="13.33" stroke-opacity="1"></use></g></g><g><use xlink:href="#f4YcwSFQZR" opacity="1" fill="#000000" fill-opacity="1"></use><g><use xlink:href="#f4YcwSFQZR" opacity="1" fill-opacity="0" stroke="#359bd6" stroke-width="13.33" stroke-opacity="1"></use></g></g><g><use xlink:href="#byG5YUL2b" opacity="1" fill="#000000" fill-opacity="1"></use><g><use xlink:href="#byG5YUL2b" opacity="1" fill-opacity="0" stroke="#359bd6" stroke-width="13.33" stroke-opacity="1"></use></g></g><g><use xlink:href="#dAUJ7dOjE" opacity="1" fill="#000000" fill-opacity="1"></use><g><use xlink:href="#dAUJ7dOjE" opacity="1" fill-opacity="0" stroke="#359bd6" stroke-width="13.33" stroke-opacity="1"></use></g></g><g><use xlink:href="#a4YBtAolIO" opacity="1" fill="#000000" fill-opacity="1"></use><g><use xlink:href="#a4YBtAolIO" opacity="1" fill-opacity="0" stroke="#359bd6" stroke-width="13.33" stroke-opacity="1"></use></g></g><g><use xlink:href="#cBEezahBa" opacity="1" fill="#000000" fill-opacity="1"></use><g><use xlink:href="#cBEezahBa" opacity="1" fill-opacity="0" stroke="#efe129" stroke-width="13.33" stroke-opacity="1"></use></g></g><g><use xlink:href="#ba1GQmpS0" opacity="1" fill="#000000" fill-opacity="1"></use><g><use xlink:href="#ba1GQmpS0" opacity="1" fill-opacity="0" stroke="#efe129" stroke-width="13.33" stroke-opacity="1"></use></g></g><g><use xlink:href="#a1tSxGZ5ek" opacity="1" fill="#000000" fill-opacity="1"></use><g><use xlink:href="#a1tSxGZ5ek" opacity="1" fill-opacity="0" stroke="#efe129" stroke-width="13.33" stroke-opacity="1"></use></g></g><g><use xlink:href="#c1QvomW3ar" opacity="1" fill="#000000" fill-opacity="1"></use><g><use xlink:href="#c1QvomW3ar" opacity="1" fill-opacity="0" stroke="#efe129" stroke-width="13.33" stroke-opacity="1"></use></g></g><g><use xlink:href="#d38dLDmCS" opacity="1" fill="#000000" fill-opacity="1"></use><g><use xlink:href="#d38dLDmCS" opacity="1" fill-opacity="0" stroke="#efe129" stroke-width="13.33" stroke-opacity="1"></use></g></g><g><use xlink:href="#cSGq0d4rI" opacity="1" fill="#000000" fill-opacity="1"></use><g><use xlink:href="#cSGq0d4rI" opacity="1" fill-opacity="0" stroke="#efe129" stroke-width="13.33" stroke-opacity="1"></use></g></g><g><use xlink:href="#b2BhPk31Nd" opacity="1" fill="#000000" fill-opacity="1"></use><g><use xlink:href="#b2BhPk31Nd" opacity="1" fill-opacity="0" stroke="#efe129" stroke-width="13.33" stroke-opacity="1"></use></g></g><g><use xlink:href="#a1D1utg7St" opacity="1" fill="#000000" fill-opacity="1"></use><g><use xlink:href="#a1D1utg7St" opacity="1" fill-opacity="0" stroke="#efe129" stroke-width="13.33" stroke-opacity="1"></use></g></g><g><use xlink:href="#b6vhAdq8Vd" opacity="1" fill="#000000" fill-opacity="1"></use><g><use xlink:href="#b6vhAdq8Vd" opacity="1" fill-opacity="0" stroke="#efe129" stroke-width="13.33" stroke-opacity="1"></use></g></g><g><use xlink:href="#aBlBQTVkg" opacity="1" fill="#000000" fill-opacity="1"></use><g><use xlink:href="#aBlBQTVkg" opacity="1" fill-opacity="0" stroke="#efe129" stroke-width="13.33" stroke-opacity="1"></use></g></g><g><use xlink:href="#a3NadvHE6" opacity="1" fill="#000000" fill-opacity="1"></use><g><use xlink:href="#a3NadvHE6" opacity="1" fill-opacity="0" stroke="#efe129" stroke-width="13.33" stroke-opacity="1"></use></g></g><g><use xlink:href="#g1YVmEmIKI" opacity="1" fill="#000000" fill-opacity="1"></use><g><use xlink:href="#g1YVmEmIKI" opacity="1" fill-opacity="0" stroke="#000000" stroke-width="13.33" stroke-opacity="1"></use></g></g><g><use xlink:href="#cbo4yO7g" opacity="1" fill="#000000" fill-opacity="1"></use><g><use xlink:href="#cbo4yO7g" opacity="1" fill-opacity="0" stroke="#000000" stroke-width="13.33" stroke-opacity="1"></use></g></g><g><use xlink:href="#b1RD96jkWw" opacity="1" fill="#000000" fill-opacity="1"></use><g><use xlink:href="#b1RD96jkWw" opacity="1" fill-opacity="0" stroke="#000000" stroke-width="13.33" stroke-opacity="1"></use></g></g><g><use xlink:href="#ajWDWlcAo" opacity="1" fill="#ffffff" fill-opacity="1"></use><g><use xlink:href="#ajWDWlcAo" opacity="1" fill-opacity="0" stroke="#000000" stroke-width="1" stroke-opacity="0"></use></g></g><g><use xlink:href="#b9YtuMXPH" opacity="1" fill="#000000" fill-opacity="1"></use><g><use xlink:href="#b9YtuMXPH" opacity="1" fill-opacity="0" stroke="#000000" stroke-width="1" stroke-opacity="0"></use></g></g><g><use xlink:href="#a8M6HdNli" opacity="1" fill="#359bd6" fill-opacity="1"></use><g><use xlink:href="#a8M6HdNli" opacity="1" fill-opacity="0" stroke="#000000" stroke-width="1" stroke-opacity="0"></use></g></g><g><use xlink:href="#b38Pw8CTi" opacity="1" fill="#efe129" fill-opacity="1"></use><g><use xlink:href="#b38Pw8CTi" opacity="1" fill-opacity="0" stroke="#000000" stroke-width="1" stroke-opacity="0"></use></g></g><g><use xlink:href="#a34Qacgu6" opacity="1" fill="#000000" fill-opacity="1"></use><g><use xlink:href="#a34Qacgu6" opacity="1" fill-opacity="0" stroke="#000000" stroke-width="1" stroke-opacity="0"></use></g></g><g><use xlink:href="#b6GUNhkDY" opacity="1" fill="#359bd6" fill-opacity="1"></use><g><use xlink:href="#b6GUNhkDY" opacity="1" fill-opacity="0" stroke="#000000" stroke-width="1" stroke-opacity="0"></use></g></g><g><use xlink:href="#d1jqRktEed" opacity="1" fill="#359bd6" fill-opacity="1"></use><g><use xlink:href="#d1jqRktEed" opacity="1" fill-opacity="0" stroke="#000000" stroke-width="1" stroke-opacity="0"></use></g></g><g><use xlink:href="#mp7FOxafq" opacity="1" fill="#ffffff" fill-opacity="1"></use><g><use xlink:href="#mp7FOxafq" opacity="1" fill-opacity="0" stroke="#000000" stroke-width="1" stroke-opacity="0"></use></g></g><g><use xlink:href="#g1sjHiiyk7" opacity="1" fill="#ffffff" fill-opacity="1"></use><g><use xlink:href="#g1sjHiiyk7" opacity="1" fill-opacity="0" stroke="#000000" stroke-width="1" stroke-opacity="0"></use></g></g><g><use xlink:href="#a6aaXRdcW" opacity="1" fill="#ffffff" fill-opacity="1"></use><g><use xlink:href="#a6aaXRdcW" opacity="1" fill-opacity="0" stroke="#000000" stroke-width="1" stroke-opacity="0"></use></g></g><g><use xlink:href="#clsNDHcsc" opacity="1" fill="#ffffff" fill-opacity="1"></use><g><use xlink:href="#clsNDHcsc" opacity="1" fill-opacity="0" stroke="#000000" stroke-width="1" stroke-opacity="0"></use></g></g><g><use xlink:href="#gQrCnd1J8" opacity="1" fill="#359bd6" fill-opacity="1"></use><g><use xlink:href="#gQrCnd1J8" opacity="1" fill-opacity="0" stroke="#000000" stroke-width="1" stroke-opacity="0"></use></g></g><g><use xlink:href="#c2vXyKYgkb" opacity="1" fill="#000000" fill-opacity="1"></use><g><use xlink:href="#c2vXyKYgkb" opacity="1" fill-opacity="0" stroke="#000000" stroke-width="1" stroke-opacity="0"></use></g></g><g><use xlink:href="#b5jfYespJY" opacity="1" fill="#ffffff" fill-opacity="1"></use><g><use xlink:href="#b5jfYespJY" opacity="1" fill-opacity="0" stroke="#000000" stroke-width="1" stroke-opacity="0"></use></g></g><g><use xlink:href="#aRkzQAsI1" opacity="1" fill="#ffffff" fill-opacity="1"></use><g><use xlink:href="#aRkzQAsI1" opacity="1" fill-opacity="0" stroke="#000000" stroke-width="1" stroke-opacity="0"></use></g></g><g><use xlink:href="#kTXY2lnWW" opacity="1" fill="#359bd6" fill-opacity="1"></use><g><use xlink:href="#kTXY2lnWW" opacity="1" fill-opacity="0" stroke="#000000" stroke-width="1" stroke-opacity="0"></use></g></g><g><use xlink:href="#a1lZgfgC1n" opacity="1" fill="#359bd6" fill-opacity="1"></use><g><use xlink:href="#a1lZgfgC1n" opacity="1" fill-opacity="0" stroke="#000000" stroke-width="1" stroke-opacity="0"></use></g></g><g><use xlink:href="#c4ug16jmCe" opacity="1" fill="#359bd6" fill-opacity="1"></use><g><use xlink:href="#c4ug16jmCe" opacity="1" fill-opacity="0" stroke="#000000" stroke-width="1" stroke-opacity="0"></use></g></g><g><use xlink:href="#bcwNmZFcC" opacity="1" fill="#359bd6" fill-opacity="1"></use><g><use xlink:href="#bcwNmZFcC" opacity="1" fill-opacity="0" stroke="#000000" stroke-width="1" stroke-opacity="0"></use></g></g><g><use xlink:href="#a1Fz5V1DZv" opacity="1" fill="#efe129" fill-opacity="1"></use><g><use xlink:href="#a1Fz5V1DZv" opacity="1" fill-opacity="0" stroke="#000000" stroke-width="1" stroke-opacity="0"></use></g></g><g><use xlink:href="#dR4nsIyCh" opacity="1" fill="#efe129" fill-opacity="1"></use><g><use xlink:href="#dR4nsIyCh" opacity="1" fill-opacity="0" stroke="#000000" stroke-width="1" stroke-opacity="0"></use></g></g><g><use xlink:href="#bzq9UIKi0" opacity="1" fill="#efe129" fill-opacity="1"></use><g><use xlink:href="#bzq9UIKi0" opacity="1" fill-opacity="0" stroke="#000000" stroke-width="1" stroke-opacity="0"></use></g></g><g><use xlink:href="#b1zAkZfXmz" opacity="1" fill="#efe129" fill-opacity="1"></use><g><use xlink:href="#b1zAkZfXmz" opacity="1" fill-opacity="0" stroke="#000000" stroke-width="1" stroke-opacity="0"></use></g></g><g><use xlink:href="#b1hEZRNETY" opacity="1" fill="#efe129" fill-opacity="1"></use><g><use xlink:href="#b1hEZRNETY" opacity="1" fill-opacity="0" stroke="#000000" stroke-width="1" stroke-opacity="0"></use></g></g><g><use xlink:href="#a2NpUEgQs9" opacity="1" fill="#efe129" fill-opacity="1"></use><g><use xlink:href="#a2NpUEgQs9" opacity="1" fill-opacity="0" stroke="#000000" stroke-width="1" stroke-opacity="0"></use></g></g><g><use xlink:href="#dfs3DYbHl" opacity="1" fill="#efe129" fill-opacity="1"></use><g><use xlink:href="#dfs3DYbHl" opacity="1" fill-opacity="0" stroke="#000000" stroke-width="1" stroke-opacity="0"></use></g></g><g><use xlink:href="#c2MHSBxwec" opacity="1" fill="#efe129" fill-opacity="1"></use><g><use xlink:href="#c2MHSBxwec" opacity="1" fill-opacity="0" stroke="#000000" stroke-width="1" stroke-opacity="0"></use></g></g><g><use xlink:href="#a6RtlGJppq" opacity="1" fill="#efe129" fill-opacity="1"></use><g><use xlink:href="#a6RtlGJppq" opacity="1" fill-opacity="0" stroke="#000000" stroke-width="1" stroke-opacity="0"></use></g></g><g><use xlink:href="#a1FkhSa8X" opacity="1" fill="#efe129" fill-opacity="1"></use><g><use xlink:href="#a1FkhSa8X" opacity="1" fill-opacity="0" stroke="#000000" stroke-width="1" stroke-opacity="0"></use></g></g><g><use xlink:href="#fuH7xW7gz" opacity="1" fill="#efe129" fill-opacity="1"></use><g><use xlink:href="#fuH7xW7gz" opacity="1" fill-opacity="0" stroke="#000000" stroke-width="1" stroke-opacity="0"></use></g></g><g><use xlink:href="#gqP5ETwK3" opacity="1" fill="#000000" fill-opacity="1"></use><g><use xlink:href="#gqP5ETwK3" opacity="1" fill-opacity="0" stroke="#000000" stroke-width="1" stroke-opacity="0"></use></g></g><g><use xlink:href="#b1LtgOSYDy" opacity="1" fill="#000000" fill-opacity="1"></use><g><use xlink:href="#b1LtgOSYDy" opacity="1" fill-opacity="0" stroke="#000000" stroke-width="1" stroke-opacity="0"></use></g></g><g><use xlink:href="#dPDwYVcxe" opacity="1" fill="#000000" fill-opacity="1"></use><g><use xlink:href="#dPDwYVcxe" opacity="1" fill-opacity="0" stroke="#000000" stroke-width="1" stroke-opacity="0"></use></g></g></g></g></svg>